<?xml version="1.0" encoding="utf-8"?>
<!-- Generator: Adobe Illustrator 22.0.0, SVG Export Plug-In . SVG Version: 6.00 Build 0)  -->
<svg version="1.1" id="Layer_1" xmlns="http://www.w3.org/2000/svg" xmlns:xlink="http://www.w3.org/1999/xlink" x="0px" y="0px"
	 viewBox="0 0 280 280.1" style="enable-background:new 0 0 280 280.1;" xml:space="preserve">
<style type="text/css">
	.st0{fill:#484B4D;}
	.st1{fill:#FC6E51;}
	.st2{fill:#F4F8F8;}
</style>
<g id="_x31_8">
	<g>
		<path class="st0" d="M215.1,203c-10.6,0-19.3,8.6-19.3,19.3c0,10.6,8.6,19.3,19.3,19.3c10.6,0,19.3-8.6,19.3-19.3
			C234.3,211.7,225.7,203,215.1,203z"/>
		<path class="st0" d="M84,203c-10.6,0-19.3,8.6-19.3,19.3c0,10.6,8.6,19.3,19.3,19.3c10.6,0,19.3-8.6,19.3-19.3
			C103.2,211.7,94.6,203,84,203z"/>
		<path class="st0" d="M218.8,199.9l25-77.5c-0.8,0-1.5,0.1-2.3,0.1c-10.1,0-19.4-3.3-27-8.8h-25.6l2.2-25.6h5.7
			c-1-3.8-1.6-7.8-1.6-11.9c0-2.1,0.2-4.1,0.5-6.1H64.8L55.6,39h-0.1H35.2H1.4v16.4h38.7l14.5,49.2l28.1,95.4H218.8z M172.4,185.3
			h-38l-2.2-25.3h42.3L172.4,185.3z M175.5,149.8h-44.1l-2.2-25.8h48.5L175.5,149.8z M188,124h37.2l-7.7,25.8h-31.8L188,124z
			 M184.9,160h29.6l-7.5,25.3h-24.3L184.9,160z M180.8,88.1l-2.2,25.6h-50.2l-2.2-25.6H180.8z M124.2,185.3H96.7l-7-25.3H122
			L124.2,185.3z M70.1,88.1h45.8l2.2,25.6H77.7L70.1,88.1z M118.9,124l2.2,25.8H86.8L79.6,124L118.9,124L118.9,124z"/>
	</g>
	<g>
		<path class="st1" d="M278.6,76.1c0,20.8-16.8,37.6-37.6,37.6c-20.8,0-37.6-16.9-37.6-37.6c0-20.8,16.8-37.6,37.6-37.6
			C261.7,38.5,278.6,55.3,278.6,76.1z"/>
		<polygon class="st2" points="263.6,62.9 259.2,58.2 235.3,77.8 224.4,69.8 220,74.5 233.5,90.2 235.8,93 238.3,90.3 		"/>
	</g>
</g>
</svg>
