<?xml version="1.0" encoding="utf-8"?>
<!-- Generator: Adobe Illustrator 22.0.0, SVG Export Plug-In . SVG Version: 6.00 Build 0)  -->
<svg version="1.1" id="Layer_1" xmlns="http://www.w3.org/2000/svg" xmlns:xlink="http://www.w3.org/1999/xlink" x="0px" y="0px"
	 viewBox="0 0 280.4 280.4" style="enable-background:new 0 0 280.4 280.4;" xml:space="preserve">
<style type="text/css">
	.st0{fill:#484B4D;}
	.st1{fill:#F4F8F8;}
	.st2{fill:#FC6E51;}
	.st3{fill:#9DD2D8;}
</style>
<g id="_x32_9">
	<g>
		<path class="st0" d="M259.5,43.4H20.9c-10.7,0-19.3,8.7-19.3,19.3v22.8h277.3V62.8C278.9,52.1,270.2,43.4,259.5,43.4z"/>
		<path class="st0" d="M1.5,217.6c0,10.7,8.7,19.4,19.3,19.4h238.6c10.7,0,19.4-8.7,19.4-19.4v-86.8H1.5V217.6z"/>
		<path class="st0" d="M232.3,158.4c18.3,0,33.1,14.8,33.1,33.1c0,18.3-14.8,33.1-33.1,33.1c-18.3,0-33.1-14.8-33.1-33.1
			C199.2,173.2,214,158.4,232.3,158.4z"/>
		<rect x="1.5" y="85.6" class="st1" width="277.3" height="45.2"/>
	</g>
	<path id="_x32_2" class="st2" d="M249.5,174.4c-1.5-4.4-3.6-8.5-6.3-12.3c4.1,1.5,7.9,3.9,11.2,7.3c0.6,0.6,1.2,1.3,1.8,1.9
		C254,172.5,251.8,173.6,249.5,174.4z M227.4,160.6c1.1-0.1,2.3-0.3,3.5-0.3v17c-4.2-0.1-8.1-0.7-11.9-1.7
		C220.8,170.2,223.6,165.2,227.4,160.6z M218.2,178.5c4,1.1,8.3,1.7,12.7,1.8v9.6h-14.3C216.6,185.9,217.2,182.1,218.2,178.5z
		 M216.2,174.7c-2.7-0.9-5.2-2-7.6-3.4c0.6-0.7,1.1-1.3,1.8-1.9c3.7-3.7,7.9-6.3,12.6-7.7C219.9,165.7,217.7,170.1,216.2,174.7z
		 M246.7,175.3c-4.1,1.2-8.3,1.9-12.8,2v-17c1.6,0.1,3.1,0.2,4.6,0.5C242.1,165.3,244.8,170.1,246.7,175.3z M249.2,189.9h-15.3v-9.6
		c4.8-0.1,9.3-0.8,13.7-2.1C248.5,181.9,249.1,185.8,249.2,189.9z M247.1,206.1c-4.2-1.2-8.6-1.9-13.3-2v-11.1h15.3
		C249.1,197.5,248.4,201.9,247.1,206.1z M216.5,192.9h14.3V204c-4.3,0.1-8.4,0.7-12.3,1.7C217.3,201.7,216.7,197.4,216.5,192.9z
		 M219.5,208.6c3.6-0.9,7.4-1.5,11.4-1.6v15.5c-1.2-0.1-2.3-0.2-3.4-0.3c-0.7-0.9-1.4-1.7-2-2.6
		C222.9,216.1,220.9,212.5,219.5,208.6z M216.6,209.4c1.5,4.1,3.6,8.1,6.3,11.7c-4.7-1.4-8.8-4-12.6-7.7c-0.3-0.3-0.6-0.6-0.9-0.9
		C211.8,211.3,214.2,210.3,216.6,209.4z M246.2,208.9c-1.4,3.8-3.4,7.4-5.9,10.8c-0.6,0.8-1.2,1.6-1.9,2.4c-1.5,0.3-3,0.4-4.6,0.5
		V207C238.2,207.1,242.2,207.8,246.2,208.9z M249,209.7c2.1,0.8,4.2,1.7,6.2,2.8c-0.3,0.3-0.6,0.6-0.8,0.9c0,0,0,0,0,0
		c-3.4,3.4-7.1,5.8-11.2,7.3C245.6,217.3,247.5,213.6,249,209.7z M215.7,206.6c-2.9,0.9-5.6,2.1-8.2,3.6c-3.9-5-6-10.8-6.3-17.4
		h12.3C213.7,197.7,214.4,202.3,215.7,206.6z M250.3,177.2c2.7-1,5.2-2.2,7.7-3.6c3.4,4.8,5.2,10.2,5.5,16.2h-11.3
		C252,185.5,251.4,181.3,250.3,177.2z M252.2,192.9h11.3c-0.3,6.5-2.3,12.3-6.3,17.4c-2.3-1.3-4.8-2.4-7.3-3.3
		C251.3,202.5,252,197.8,252.2,192.9z M213.6,189.9h-12.3c0.2-6.1,2-11.5,5.4-16.2c2.7,1.6,5.6,2.9,8.6,3.9
		C214.2,181.5,213.7,185.6,213.6,189.9z"/>
	<g>
		<rect x="18.7" y="177.6" class="st3" width="156.1" height="11"/>
		<rect x="18.7" y="148.8" class="st3" width="38.1" height="11"/>
		<rect x="82.6" y="148.2" class="st3" width="92.3" height="11"/>
	</g>
</g>
</svg>
