<?xml version="1.0" encoding="utf-8"?>
<!-- Generator: Adobe Illustrator 19.0.0, SVG Export Plug-In . SVG Version: 6.00 Build 0)  -->
<svg version="1.1" id="Layer_1" xmlns="http://www.w3.org/2000/svg" xmlns:xlink="http://www.w3.org/1999/xlink" x="0px" y="0px"
	 viewBox="-165 256.6 280.3 280.4" style="enable-background:new -165 256.6 280.3 280.4;" xml:space="preserve">
<style type="text/css">
	.st0{fill:#484B4D;}
	.st1{fill:#F4F8F8;}
	.st2{fill:none;stroke:#FC6E51;stroke-width:5;stroke-miterlimit:10;}
	.st3{fill:none;stroke:#FFFFFF;stroke-width:3;stroke-miterlimit:10;}
</style>
<g id="_x33_3">
	<path class="st0" d="M-156.7,424.8h130.1c3.7,0,6.7,3,6.7,6.7v22.1c0,3.7-3,6.7-6.7,6.7h-66.3c-3-11.4-13.3-19.8-25.7-19.8
		c-12.4,0-22.7,8.4-25.7,19.8h-12.4c-3.7,0-6.7-3-6.7-6.7v-22.2C-163.4,427.8-160.4,424.8-156.7,424.8z"/>
	<path class="st0" d="M26.8,460.5c-0.4,1.7-0.7,3.6-0.7,5.4c0,12.2,9.9,22,22,22c12.2,0,22-9.9,22-22c0-1.9-0.3-3.7-0.7-5.4v-0.1
		c-2.5-9.5-11-16.4-21.3-16.4s-18.8,7-21.3,16.4C26.8,460.4,26.8,460.4,26.8,460.5z"/>
	<path class="st1" d="M30.9,465.9c0-1.7,0.2-3.3,0.7-4.9v-0.1c2.2-7.1,8.7-12.3,16.6-12.3s14.4,5.2,16.6,12.3v0.1
		c0.5,1.6,0.7,3.2,0.7,4.9c0,9.6-7.8,17.3-17.3,17.3C38.6,483.2,30.9,475.4,30.9,465.9z"/>
	<path class="st0" d="M37.2,460.3c2-4,6.2-6.8,11-6.8s8.9,2.8,11,6.8l0.1,0.1c0.8,1.6,1.3,3.5,1.3,5.4c0,6.8-5.5,12.4-12.4,12.4
		c-6.8,0-12.4-5.5-12.4-12.4c0-2,0.5-3.8,1.3-5.4C37.1,460.4,37.1,460.4,37.2,460.3z"/>
	<path class="st0" d="M-140,460.3c-0.5,1.8-0.8,3.6-0.8,5.6c0,12.2,9.9,22,22,22c12.2,0,22-9.9,22-22c0-1.9-0.3-3.8-0.7-5.6
		c-2.5-9.5-11-16.4-21.3-16.4C-129,443.9-137.5,450.9-140,460.3z"/>
	<path class="st1" d="M-136,465.9c0-1.7,0.3-3.4,0.7-5c2.1-7.1,8.7-12.3,16.6-12.3c7.8,0,14.4,5.2,16.5,12.3c0.5,1.6,0.7,3.3,0.7,5
		c0,9.6-7.7,17.3-17.3,17.3C-128.3,483.2-136,475.4-136,465.9z"/>
	<path class="st0" d="M-118.7,453.5c4.8,0,8.9,2.8,11,6.8c0.9,1.7,1.4,3.6,1.4,5.6c0,6.8-5.5,12.4-12.4,12.4s-12.4-5.5-12.4-12.4
		c0-2,0.5-3.9,1.4-5.6C-127.6,456.3-123.5,453.5-118.7,453.5z"/>
	<rect x="-162.2" y="305.6" class="st0" width="141.1" height="113.4"/>
	<path class="st0" d="M-15.6,332.3v116.3c0,11.7,9,11.7,9,11.7h28.8c3-11.4,13.3-19.8,25.7-19.8c12.3,0,22.7,8.4,25.7,19.8h31.1
		c9.8,0,9.1-9.8,9.1-9.8v-54.6c-20.9-59.2-75.2-74.7-75.2-74.7s-30.6,0-43.7,0C-16.9,321.2-15.6,332.3-15.6,332.3z M4,338.2
		c7.2,0,35.8,0,35.8,0s34,11.2,48.1,49.5H-1.7v-43.4C-1.8,344.3-2.5,338.2,4,338.2z"/>
</g>
<path class="st2" d="M-44.6,382.8h-94c-6.6,0-12-5.4-12-12v-20.6c0-6.6,5.4-12,12-12h94c6.6,0,12,5.4,12,12v20.5
	C-32.6,377.4-38,382.8-44.6,382.8z"/>
<g>
	<path class="st3" d="M-125,359.3c0.9,0.6,1.6,1.3,2.1,2.2c0.5,0.9,0.8,1.9,0.8,3c0,0.8-0.2,1.6-0.5,2.3c-0.3,0.7-0.7,1.4-1.3,1.9
		c-0.6,0.5-1.2,1-1.9,1.3c-0.7,0.3-1.5,0.5-2.4,0.5h-10.5c-0.2,0-0.4-0.1-0.6-0.3c-0.2-0.2-0.3-0.4-0.3-0.6v-20.6
		c0-0.2,0.1-0.4,0.3-0.6c0.2-0.2,0.4-0.3,0.6-0.3h10.5c0.8,0,1.6,0.2,2.3,0.5c0.7,0.3,1.4,0.7,1.9,1.3c0.6,0.5,1,1.2,1.3,1.9
		c0.3,0.7,0.5,1.5,0.5,2.3c0,1.1-0.3,2.1-0.8,3C-123.5,358.1-124.2,358.8-125,359.3z M-137.9,349.9v8.6h9.7c0.6,0,1.2-0.1,1.7-0.3
		c0.5-0.2,1-0.5,1.4-0.9c0.4-0.4,0.7-0.8,0.9-1.4c0.2-0.5,0.4-1.1,0.4-1.7c0-0.6-0.1-1.2-0.4-1.7c-0.2-0.5-0.5-1-0.9-1.4
		c-0.4-0.4-0.9-0.7-1.4-0.9c-0.5-0.2-1.1-0.3-1.7-0.3H-137.9z M-126.4,368.5c0.5-0.2,1-0.5,1.4-0.9c0.4-0.4,0.7-0.8,0.9-1.4
		c0.2-0.5,0.4-1.1,0.4-1.7c0-0.6-0.1-1.2-0.4-1.7c-0.2-0.5-0.5-1-0.9-1.4c-0.4-0.4-0.9-0.7-1.4-0.9c-0.5-0.2-1.1-0.3-1.7-0.3h-9.7
		v8.7h9.7C-127.6,368.8-127,368.7-126.4,368.5z"/>
	<path class="st3" d="M-91.5,369.2c0.1,0.3,0,0.5-0.1,0.7c-0.1,0.2-0.3,0.3-0.5,0.4c-0.2,0.1-0.4,0-0.7-0.1s-0.4-0.3-0.4-0.5
		c-0.1-0.1-0.2-0.4-0.5-0.9s-0.5-1-0.8-1.6c-1-1.7-2.3-2.9-4-3.9c-1.7-0.9-3.5-1.4-5.4-1.4c-2,0-3.7,0.5-5.3,1.4
		c-1.6,0.9-2.9,2.2-4,3.7c-0.6,0.9-0.9,1.6-1.1,2c-0.2,0.4-0.3,0.6-0.2,0.6c-0.1,0.2-0.3,0.4-0.5,0.5s-0.4,0.1-0.6,0.1
		c-0.2-0.1-0.4-0.2-0.5-0.4c-0.1-0.2-0.1-0.4-0.1-0.7l0.5-1.1l11.1-19.5c0.1-0.3,0.4-0.4,0.7-0.4c0.3,0,0.5,0.1,0.7,0.4l11,19.2
		L-91.5,369.2z M-103.8,360.3c2.4,0,4.5,0.6,6.5,1.7c-0.6-1.1-1.3-2.2-2-3.4c-0.7-1.2-1.3-2.3-2-3.4c-0.6-1.1-1.2-2-1.6-2.8
		c-0.5-0.8-0.8-1.4-0.9-1.8c-0.2,0.4-0.6,1-1,1.8c-0.5,0.8-1,1.8-1.6,2.8c-0.6,1.1-1.2,2.2-1.9,3.4c-0.7,1.2-1.3,2.3-1.9,3.4
		C-108.3,360.9-106.2,360.3-103.8,360.3z"/>
	<path class="st3" d="M-66.8,369.6c0,0.2-0.1,0.4-0.3,0.6c-0.2,0.2-0.4,0.3-0.6,0.3c-0.3,0-0.5-0.1-0.6-0.3
		c-0.1-0.2-0.2-0.4-0.2-0.6c0-3.5-0.4-6.6-1.3-9.2c-0.9-2.6-2.1-4.7-3.8-6.4c-0.9-0.8-1.8-1.5-2.7-2c-0.9-0.5-1.9-1-2.8-1.3
		c-0.9-0.3-1.8-0.5-2.7-0.6c-0.8-0.1-1.6-0.2-2.3-0.2v19.7c0,0.2-0.1,0.4-0.3,0.6c-0.2,0.2-0.4,0.3-0.6,0.3c-0.3,0-0.5-0.1-0.7-0.3
		c-0.2-0.2-0.3-0.4-0.3-0.6v-20.7c0-0.2,0-0.3,0.1-0.4c0.1-0.1,0.2-0.2,0.3-0.2c0.1-0.1,0.3-0.1,0.5-0.1c0.7,0,1.5,0,2.5,0.1
		s2,0.3,3.2,0.6c1.1,0.3,2.3,0.8,3.4,1.4c1.2,0.6,2.3,1.4,3.3,2.5c0.8,0.8,1.6,1.7,2.3,2.8c0.7,1,1.3,2.2,1.8,3.4v-10.1
		c0-0.2,0.1-0.4,0.2-0.5c0.1-0.2,0.3-0.3,0.6-0.3c0.2,0,0.4,0.1,0.6,0.3c0.2,0.2,0.3,0.4,0.3,0.5V369.6z"/>
	<path class="st3" d="M-48.2,348.9c1.2,0.5,2.3,1.1,3.2,1.8c0.9,0.8,1.6,1.7,2.2,2.7s0.8,2.2,0.8,3.4s-0.3,2.3-0.8,3.4
		c-0.5,1.1-1.3,2-2.2,2.8c-0.9,0.8-2,1.4-3.2,1.9c-1.2,0.5-2.6,0.7-4,0.7l-6.9-0.2v4.1c0,0.2-0.1,0.4-0.2,0.6
		c-0.2,0.2-0.3,0.3-0.6,0.3c-0.3,0-0.5-0.1-0.7-0.3c-0.2-0.2-0.3-0.4-0.3-0.6l0.1-5.1v-15.5c0-0.2,0.1-0.4,0.2-0.6
		c0.1-0.2,0.4-0.3,0.7-0.3h7.7C-50.8,348.2-49.4,348.4-48.2,348.9z M-48.9,363.3c1-0.4,1.9-0.9,2.7-1.5c0.8-0.6,1.4-1.4,1.8-2.2
		c0.4-0.9,0.7-1.8,0.7-2.7c0-1-0.2-1.9-0.7-2.7c-0.4-0.9-1-1.6-1.8-2.2c-0.8-0.6-1.7-1.1-2.7-1.5c-1-0.4-2.1-0.6-3.3-0.6H-59v14h6.9
		C-51,363.9-49.9,363.7-48.9,363.3z"/>
</g>
</svg>
