<?xml version="1.0" encoding="utf-8"?>
<!-- Generator: Adobe Illustrator 22.0.0, SVG Export Plug-In . SVG Version: 6.00 Build 0)  -->
<svg version="1.1" id="Layer_1" xmlns="http://www.w3.org/2000/svg" xmlns:xlink="http://www.w3.org/1999/xlink" x="0px" y="0px"
	 viewBox="0 0 280.4 280.1" style="enable-background:new 0 0 280.4 280.1;" xml:space="preserve">
<style type="text/css">
	.st0{fill:#F4F8F8;}
	.st1{fill:#484B4D;}
	.st2{fill:#FC6E51;}
</style>
<g id="Layer_1_1_">
</g>
<g>
	<rect x="36.7" y="26.1" class="st0" width="207" height="178.4"/>
	<path class="st1" d="M1.4,25.7V205c0,9.6,7.8,17.4,17.4,17.4h242.7c9.6,0,17.5-7.9,17.5-17.4V25.7c0-9.6-7.9-17.5-17.5-17.5H18.9
		C9.3,8.3,1.4,16.1,1.4,25.7z M243.7,26.1v178.4h-207V26.1H243.7z M7.1,115.7c0-2.6,2.1-4.6,4.6-4.6c2.6,0,4.6,2.1,4.6,4.6
		s-2.1,4.6-4.6,4.6C9.2,120.4,7.1,118.3,7.1,115.7z M263.9,101.9c1.4,0,2.5,1.1,2.5,2.5v20.3c0,1.4-1.1,2.5-2.5,2.5h-1.3
		c-1.4,0-2.5-1.1-2.5-2.5v-20.3c0-1.4,1.1-2.5,2.5-2.5H263.9z"/>
	<path class="st1" d="M202.9,271.8c-5.3,0-10.7-1.3-15.4-3.8l-61.3-28.6c-8.2-3.8-11.8-13.6-8-21.8l2.3-5c1.9-4,5.2-7,9.3-8.5
		c1.8-0.7,3.7-1,5.6-1c2.4,0,4.7,0.5,6.9,1.5l15.8,7.4L132,140c-3.1-8.5,1.3-18,9.8-21.1l3.3-1.2c1.8-0.7,3.7-1,5.6-1
		c6.9,0,13.1,4.3,15.4,10.8l15.1,41.4c0.9-0.4,1.8-0.8,2.7-1.1c4.9-1.8,9-2.1,11.7-2.1c0.4,0,0.7,0,1,0l0.7-0.3
		c1.2-0.6,2.9-1.4,5-2.1c4.6-1.7,8.9-2.5,12.8-2.5c0,0,0.1,0,0.1,0l1.1-0.6c1.5-0.8,3-1.5,4.5-2c4.2-1.5,8-2,10.5-2.2l5.1-0.5
		l3.4-0.7l0.2,0.4c0.3,0,0.7,0,1,0c6,0,14,2.2,17.8,12.8l16.3,44.9c6.2,16.9-2.6,35.7-19.5,41.9L214,269.9
		C210.4,271.2,206.7,271.8,202.9,271.8L202.9,271.8z"/>
	<path class="st2" d="M252,170.4l16.3,44.9c4.8,13.1-2,27.7-15.1,32.4l-41.7,15.2c-6.7,2.4-14.1,1.9-20.6-1.5l-61.7-28.7
		c-4.5-2.1-6.5-7.5-4.4-12l2.3-5c1-2.2,2.8-3.8,5.1-4.7c2.3-0.8,4.7-0.7,6.9,0.3l32,14.9L139,137.5c-1.7-4.7,0.7-9.9,5.4-11.6
		l3.3-1.2c4.7-1.7,9.9,0.7,11.6,5.4l18.1,49.7l3.3-2.1c1.9-1.2,3.9-2.1,5.9-2.9c6-2.2,10.6-1.6,10.6-1.6l0.6,0.1l2.3,6.4
		c0.3,0.8,1.2,1.2,2,0.9c0.8-0.3,1.2-1.2,0.9-2l-2.4-6.6c1-0.5,2.5-1.2,4.3-1.8c4.1-1.5,8.1-2.2,11.3-2l0.8,0l2.5,6.9
		c0.3,0.8,1.2,1.2,2,0.9c0.8-0.3,1.2-1.2,0.9-2l-2.7-7.3c1.2-0.6,2.4-1.2,3.6-1.6c5.9-2.1,10.6-1.7,10.6-1.7l0.6,0.1l0.5-0.1
		c0.2,0,0.4-0.1,0.6-0.1l2.7,7.5c0.3,0.8,1.2,1.2,2,0.9c0.8-0.3,1.2-1.2,0.9-2l-2.5-6.9C247.5,161.8,250.4,166.2,252,170.4z"/>
	<g>
		<polygon class="st1" points="103.9,95.5 115.2,60.5 62.4,60.5 59.9,52.1 54.4,52.1 59.6,69.8 67.2,95.5 		"/>
		<path class="st1" d="M67.5,98.4c-2.9,0-5.2,2.3-5.2,5.2c0,2.9,2.3,5.2,5.2,5.2c2.9,0,5.2-2.3,5.2-5.2
			C72.7,100.7,70.4,98.4,67.5,98.4z"/>
		<path class="st1" d="M102.9,98.4c-2.9,0-5.2,2.3-5.2,5.2c0,2.9,2.3,5.2,5.2,5.2c2.9,0,5.2-2.3,5.2-5.2
			C108.1,100.7,105.8,98.4,102.9,98.4z"/>
	</g>
	<g id="sample_text_7_">
		<rect x="136.6" y="54.5" class="st1" width="92.5" height="8"/>
		<rect x="136.6" y="76.4" class="st1" width="92.5" height="6.2"/>
		<rect x="136.6" y="96.4" class="st1" width="59.1" height="6.2"/>
	</g>
	<g>
		<path class="st2" d="M110.2,46.1c-6.2,0-11.3,4.5-12.3,10.4c-0.1,0.7-0.2,1.3-0.2,2c0,1.4,0.2,2.7,0.6,3.9c1.2,3.6,4,6.5,7.6,7.8
			c1.3,0.5,2.7,0.7,4.2,0.7c0.6,0,1.2-0.1,1.7-0.1c6.1-0.8,10.7-6,10.7-12.3C122.6,51.7,117.1,46.1,110.2,46.1z"/>
		<path class="st0" d="M116.4,60.5h-1.1h-3.1v4.2c0,1.1-0.9,2-2,2c-1.1,0-2-0.9-2-2v-1.9v-0.4v-2H104c-1.1,0-2-0.9-2-2
			c0-1.1,0.9-2,2-2h4.2v0v-4.2c0-1.1,0.9-2,2-2c1.1,0,2,0.9,2,2v4.2v0h4.2c0,0,0.1,0,0.1,0c1,0.1,1.9,0.9,1.9,2
			C118.4,59.6,117.5,60.5,116.4,60.5z"/>
	</g>
</g>
</svg>
