<?xml version="1.0" encoding="utf-8"?>
<!-- Generator: Adobe Illustrator 19.0.0, SVG Export Plug-In . SVG Version: 6.00 Build 0)  -->
<svg version="1.1" id="Layer_1" xmlns="http://www.w3.org/2000/svg" xmlns:xlink="http://www.w3.org/1999/xlink" x="0px" y="0px"
	 viewBox="0 0 276.7 254.9" style="enable-background:new 0 0 276.7 254.9;" xml:space="preserve">
<style type="text/css">
	.st0{fill:#5599DB;}
	.st1{fill:#003383;}
	.st2{fill:#162667;}
</style>
<g>
	<g>
		<g>
			<g>
				<path class="st0" d="M186.7,181.2h-21.5c-1.5,0-2.7,1.1-3,2.5l-8.7,55.2c-0.2,1.1,0.7,2.1,1.8,2.1h11c1,0,1.9-0.7,2.1-1.8
					l2.5-15.6c0.2-1.5,1.5-2.5,3-2.5h6.8c14.2,0,22.4-6.9,24.5-20.5c1-5.9,0-10.6-2.7-13.9C199.4,183.1,193.9,181.2,186.7,181.2z
					 M189.2,201.3c-1.2,7.7-7.1,7.7-12.8,7.7h-3.2l2.3-14.4c0.1-0.9,0.9-1.5,1.8-1.5h1.5c3.9,0,7.6,0,9.4,2.2
					C189.3,196.7,189.7,198.6,189.2,201.3z"/>
				<path class="st1" d="M33.2,181.2H11.7c-1.5,0-2.7,1.1-3,2.5L0,238.9c-0.2,1.1,0.7,2.1,1.8,2.1h10.3c1.5,0,2.7-1.1,3-2.5
					l2.3-14.9c0.2-1.5,1.5-2.5,3-2.5h6.8c14.2,0,22.4-6.9,24.5-20.5c1-5.9,0-10.6-2.7-13.9C45.8,183.1,40.4,181.2,33.2,181.2z
					 M35.7,201.3c-1.2,7.7-7.1,7.7-12.8,7.7h-3.2l2.3-14.4c0.1-0.9,0.9-1.5,1.8-1.5h1.5c3.9,0,7.6,0,9.4,2.2
					C35.8,196.7,36.1,198.6,35.7,201.3z"/>
				<path class="st1" d="M97.5,201.1H87.2c-0.9,0-1.6,0.6-1.8,1.5l-0.5,2.9l-0.7-1c-2.2-3.2-7.2-4.3-12.2-4.3
					c-11.4,0-21.1,8.6-23,20.7c-1,6,0.4,11.8,3.8,15.8c3.1,3.7,7.6,5.2,13,5.2c9.2,0,14.3-5.9,14.3-5.9l-0.5,2.9
					c-0.2,1.1,0.7,2.1,1.8,2.1h9.3c1.5,0,2.7-1.1,3-2.5l5.6-35.3C99.5,202.1,98.7,201.1,97.5,201.1z M83.2,221.2
					c-1,5.9-5.7,9.8-11.6,9.8c-3,0-5.4-1-6.9-2.8c-1.5-1.8-2.1-4.4-1.6-7.2c0.9-5.8,5.7-9.9,11.6-9.9c2.9,0,5.3,1,6.9,2.8
					C83,215.7,83.6,218.3,83.2,221.2z"/>
				<path class="st0" d="M251.1,201.1h-10.3c-0.9,0-1.6,0.6-1.8,1.5l-0.5,2.9l-0.7-1c-2.2-3.2-7.2-4.3-12.2-4.3
					c-11.4,0-21.1,8.6-23,20.7c-1,6,0.4,11.8,3.8,15.8c3.1,3.7,7.6,5.2,13,5.2c9.2,0,14.3-5.9,14.3-5.9l-0.5,2.9
					c-0.2,1.1,0.7,2.1,1.8,2.1h9.3c1.5,0,2.7-1.1,3-2.5l5.6-35.3C253,202.1,252.2,201.1,251.1,201.1z M236.7,221.2
					c-1,5.9-5.7,9.8-11.6,9.8c-3,0-5.4-1-6.9-2.8c-1.5-1.8-2.1-4.4-1.6-7.2c0.9-5.8,5.7-9.9,11.6-9.9c2.9,0,5.3,1,6.9,2.8
					C236.6,215.7,237.2,218.3,236.7,221.2z"/>
				<path class="st1" d="M152.4,201.1h-10.4c-1,0-1.9,0.5-2.5,1.3l-14.3,21l-6.1-20.2c-0.4-1.3-1.5-2.1-2.9-2.1h-10.2
					c-1.2,0-2.1,1.2-1.7,2.4l11.4,33.5l-10.7,15.1c-0.8,1.2,0,2.8,1.5,2.8H117c1,0,1.9-0.5,2.5-1.3l34.5-49.7
					C154.7,202.7,153.9,201.1,152.4,201.1z"/>
				<path class="st0" d="M263.2,182.7l-8.8,56.2c-0.2,1.1,0.7,2.1,1.8,2.1h8.9c1.5,0,2.7-1.1,3-2.5l8.7-55.2
					c0.2-1.1-0.7-2.1-1.8-2.1H265C264.1,181.2,263.4,181.8,263.2,182.7z"/>
			</g>
		</g>
	</g>
</g>
<g>
	<path class="st0" d="M205.5,45.4c2.2-13.9,0-23.3-7.5-31.9C189.7,4,174.7,0,155.6,0h-55.5c-3.9,0-7.2,2.8-7.8,6.7L69.1,153.3
		c-0.5,2.9,1.8,5.5,4.7,5.5h34.3l-2.4,15c-0.4,2.5,1.6,4.8,4.1,4.8h28.9c3.4,0,6.3-2.5,6.9-5.9l0.3-1.5l5.4-34.5l0.4-1.9
		c0.5-3.4,3.4-5.9,6.9-5.9h4.3c28,0,49.9-11.4,56.3-44.2c2.7-13.7,1.3-25.2-5.8-33.3C211.3,49,208.6,47,205.5,45.4L205.5,45.4"/>
	<path class="st2" d="M205.5,45.4c2.2-13.9,0-23.3-7.5-31.9C189.7,4,174.7,0,155.6,0h-55.5c-3.9,0-7.2,2.8-7.8,6.7L69.1,153.3
		c-0.5,2.9,1.8,5.5,4.7,5.5h34.3l8.6-54.6l-0.3,1.7c0.6-3.9,3.9-6.7,7.8-6.7h16.3c32,0,57-13,64.4-50.6
		C205.1,47.5,205.3,46.4,205.5,45.4"/>
	<path class="st1" d="M126,45.6c0.4-2.3,1.9-4.2,3.9-5.2c0.9-0.4,1.9-0.7,3-0.7h43.5c5.2,0,10,0.3,14.4,1c1.3,0.2,2.5,0.4,3.7,0.7
		c1.2,0.3,2.3,0.6,3.5,0.9c0.6,0.2,1.1,0.3,1.6,0.5c2.2,0.7,4.2,1.6,6,2.5c2.2-13.9,0-23.3-7.5-31.9C189.7,4,174.7,0,155.6,0h-55.5
		c-3.9,0-7.2,2.8-7.8,6.7L69.1,153.3c-0.5,2.9,1.8,5.5,4.7,5.5h34.3l8.6-54.6L126,45.6z"/>
</g>
</svg>
