<?xml version="1.0" encoding="utf-8"?>
<!-- Generator: Adobe Illustrator 22.0.0, SVG Export Plug-In . SVG Version: 6.00 Build 0)  -->
<svg version="1.1" id="Layer_1" xmlns="http://www.w3.org/2000/svg" xmlns:xlink="http://www.w3.org/1999/xlink" x="0px" y="0px"
	 viewBox="0 0 470.3 435.8" style="enable-background:new 0 0 470.3 435.8;" xml:space="preserve">
<style type="text/css">
	.st0{fill:#202020;}
</style>
<g>
	<g>
		<g id="XMLID_1_">
			<g>
				<path class="st0" d="M310.7,97.9c86.1-10.3,146,49.4,146,135.4c0,103.4-99.3,187.5-221.4,187.5c-122.1,0-221.4-84.1-221.4-187.5
					c0-86,59.9-145.6,146-135.4c-6.5,2.6-13.5,6-20.9,10c-48.5,27-47,85.7-45.1,93.1c1.6,6.1,9.9,6.3,11.8,0.5
					c1.2-2.5,20.4-40,54.4-56.6c0.1-0.1,0.3-0.1,0.4-0.2c9.9-5.7,29.6-10.1,53.1-11.8c21.5,46.6,17,97.7,16.7,100.8
					c-1.1,4,1.9,7.8,5.9,7.8c3.4,0,5.3-2.5,7.3-5.2c3.6-4.8,33-46.6,20-102.8c20.6,2,37.7,6.1,46.7,11.2c0.1,0.1,0.2,0.1,0.4,0.2
					c34,16.6,53.2,54.2,54.4,56.6c0.8,2.5,3.1,4.3,5.8,4.3c2.9,0,5.3-2.1,6-4.7c2-7.4,3.6-66.1-45.1-93.2
					C324.1,103.8,317.2,100.5,310.7,97.9z M77.8,152.7c2.4-2.3,2.6-6.2,0.3-8.6c-2.3-2.4-6.2-2.6-8.6-0.3
					c-32.6,30.7-45.7,89.1-24.8,141.6c1.2,3.1,4.8,4.7,7.9,3.4c3.1-1.2,4.7-4.8,3.4-7.9C36.9,232.9,48.9,179.9,77.8,152.7z"/>
				<path class="st0" d="M282.1,91c111.6-29.1,186.8,44.4,186.8,142.3c0,110.1-104.8,199.6-233.6,199.6S1.7,343.3,1.7,233.2
					c0-96.9,74-170.8,185.1-142.7c2.4,0.6,4.2,2.4,4.6,5.6c0.5,3.4-1.9,6.5-5.3,6.9c-11.4,1.4-24.9,6.5-41.4,15.5
					c-26.6,14.8-35.4,40.2-38.2,58.3c12.4-17.4,28.9-33.5,47.9-42.8c12.3-7,35-11.9,62.4-13.6c2.6-0.2,5,1.3,6,3.7
					c11.5,24.7,19,52.4,20,88.7c8.6-18,17.4-48.2,6.5-84.5c-1.2-4,1.9-8.1,6.2-7.8c44.6,2.9,77.1,12.7,108.2,56.2
					c-2.8-18.1-11.6-43.5-38.2-58.3c-17.1-9.3-31-14.4-42.7-15.6C276.3,102.2,275.5,92.7,282.1,91z M456.7,233.2
					c0-86-59.9-145.6-146-135.4c6.5,2.6,13.5,5.9,20.9,10c48.8,27.2,47.1,85.8,45.1,93.2c-0.7,2.6-3.1,4.7-6,4.7
					c-2.6,0-5-1.8-5.8-4.3c-1.2-2.4-20.5-40-54.4-56.6c-0.1-0.1-0.2-0.1-0.4-0.2c-8.9-5.1-26-9.2-46.7-11.2
					c13,56.2-16.4,98-20,102.8c-2,2.7-3.9,5.2-7.3,5.2c-4,0-7-3.8-5.9-7.8c0.3-3.1,4.7-54.2-16.7-100.8
					c-23.5,1.7-43.2,6.1-53.1,11.8c-0.1,0.1-0.2,0.1-0.4,0.2c-34,16.6-53.2,54.1-54.4,56.6c-1.9,5.9-10.2,5.6-11.8-0.5
					c-1.9-7.4-3.4-66.1,45.1-93.1c7.5-4.1,14.4-7.4,20.9-10c-86.1-10.2-146,49.4-146,135.4c0,103.4,99.3,187.5,221.4,187.5
					C357.4,420.7,456.7,336.6,456.7,233.2z"/>
				<path class="st0" d="M395.6,60c2.6,2.1,3.1,5.9,1,8.5c-28.8,36.5-75.7-23.5-114.5,2.5c-22,15-37,14.4-37,14.4
					c-3.3,0-6-2.6-6.1-5.9l-1.8-67.5c-1.7-0.3-4.2-0.3-5.9,0c0,0.4-0.9,35.3-0.9,35.8c-0.9,34.1-0.2,33.8-2.9,36.1
					c-1.3,1.1-3,1.7-4.7,1.4c-11.8-1.4-25.8-8.6-34.3-14.4c-38.7-25.9-85.6,34-114.5-2.5c-2.1-2.6-1.6-6.5,1-8.5
					c2.6-2.1,6.5-1.6,8.5,1c20.8,26.3,67.6-29.6,111.7-0.1c6.1,4.2,14.7,8.7,22.4,11c0.1-5.1,1.7-62.6,1.7-62.6c0-4.5,4-9.6,15-9.6
					c7.1,0,14.9,2.5,15.1,9.5l1.7,63.2c7.7-1.9,17.4-6.8,24.2-11.5c44.2-29.6,91,26.4,111.8,0.1C389.1,58.4,392.9,58,395.6,60z"/>
				<path class="st0" d="M253.4,94.9c2.7,2,3.2,5.8,1.2,8.5c-6.2,8.1-13.1,10-17.9,10.2c-7.9,0.4-15.1-4-20.3-9.9
					c-2.2-2.5-2-6.4,0.5-8.6c2.5-2.2,6.4-2,8.6,0.5c6.4,7.2,13.5,8.1,19.4,0.4C246.9,93.4,250.7,92.9,253.4,94.9z"/>
				<path class="st0" d="M78.1,144.1c2.3,2.4,2.2,6.3-0.3,8.6c-28.9,27.2-40.9,80.2-21.9,128.2c1.2,3.1-0.3,6.7-3.4,7.9
					c-3.1,1.2-6.7-0.3-7.9-3.4c-20.8-52.5-7.7-110.9,24.8-141.6C71.9,141.5,75.8,141.6,78.1,144.1z"/>
			</g>
			<g>
			</g>
		</g>
	</g>
</g>
</svg>
