<?xml version="1.0" encoding="utf-8"?>
<!-- Generator: Adobe Illustrator 22.0.0, SVG Export Plug-In . SVG Version: 6.00 Build 0)  -->
<svg version="1.1" id="Layer_1" xmlns="http://www.w3.org/2000/svg" xmlns:xlink="http://www.w3.org/1999/xlink" x="0px" y="0px"
	 viewBox="0 0 470.3 435.8" style="enable-background:new 0 0 470.3 435.8;" xml:space="preserve">
<style type="text/css">
	.st0{fill:#202020;}
</style>
<g>
	<path class="st0" d="M216.3,103.8c-2.2-2.5-2-6.4,0.5-8.6c2.5-2.2,6.4-2,8.6,0.5c6.4,7.2,13.5,8.1,19.4,0.4c2-2.7,5.9-3.2,8.5-1.2
		c2.7,2,3.2,5.8,1.2,8.5c-6.2,8.1-13.1,10-17.9,10.2C228.8,114.1,221.6,109.7,216.3,103.8z"/>
	<g>
		<path class="st0" d="M44.6,285.4c-20.8-52.5-7.7-110.9,24.8-141.6c2.4-2.3,6.3-2.2,8.6,0.3c2.3,2.4,2.2,6.3-0.3,8.6
			c-28.9,27.2-40.9,80.2-21.9,128.2c1.2,3.1-0.3,6.7-3.4,7.9C49.4,290,45.9,288.5,44.6,285.4z"/>
	</g>
	<path class="st0" d="M235.3,432.9c-128.8,0-233.6-89.6-233.6-199.6c0-96.9,74-170.8,185.1-142.7c2.4,0.6,4.2,2.4,4.6,5.6
		c0.5,3.4-1.9,6.5-5.3,6.9c-11.4,1.4-24.9,6.5-41.4,15.5c-26.6,14.8-35.4,40.2-38.2,58.3c12.4-17.4,28.9-33.5,47.9-42.8
		c12.3-7,35-11.9,62.4-13.5c2.6-0.2,5,1.3,6,3.7c11.5,24.7,19,52.4,20,88.7c8.6-18,17.4-48.2,6.5-84.5c-1.2-4,1.9-8.1,6.2-7.8
		c44.6,3,77.1,12.7,108.2,56.3c-2.8-18.1-11.6-43.5-38.2-58.3c-17.1-9.3-31-14.4-42.7-15.6c-6.7-0.7-7.4-10.3-0.9-12
		c111.6-29.1,186.8,44.4,186.8,142.3C468.8,343.3,364.1,432.9,235.3,432.9z M13.9,233.2c0,103.4,99.3,187.5,221.4,187.5
		c122.1,0,221.4-84.1,221.4-187.5c0-86-59.9-145.6-146-135.4c6.5,2.6,13.4,5.9,20.9,10c48.8,27.1,47.1,85.8,45.1,93.2
		c-0.7,2.6-3.1,4.7-6,4.7c-2.6,0-5-1.8-5.8-4.3c-1.2-2.5-20.5-40-54.4-56.6c-0.1-0.1-0.2-0.1-0.4-0.2c-8.9-5.1-26-9.2-46.7-11.2
		c13,56.2-16.4,98.1-20,102.8c-2,2.7-3.9,5.2-7.3,5.2c-4,0-7-3.8-5.9-7.8c0.3-3.1,4.7-54.2-16.7-100.8c-23.5,1.7-43.2,6.1-53.1,11.8
		c-0.1,0.1-0.2,0.1-0.4,0.2c-34,16.6-53.2,54.1-54.4,56.6c-1.9,5.9-10.2,5.6-11.8-0.5c-1.9-7.4-3.4-66.1,45.1-93.1
		c7.5-4.1,14.4-7.4,20.9-10C73.8,87.6,13.9,147.2,13.9,233.2z"/>
	<g>
		<path class="st0" d="M245.1,85.5c-3.3,0-6-2.6-6.1-5.9l-1.8-67.5c-1.7-0.3-4.2-0.3-5.9,0c0,0.4-0.9,35.3-0.9,35.8
			c-0.9,34.1-0.2,33.8-2.9,36.1c-1.3,1.1-3,1.6-4.7,1.5c-11.7-1.4-25.8-8.6-34.3-14.4c-38.7-25.9-85.6,34.1-114.5-2.4
			c-2.1-2.6-1.6-6.5,1-8.6c2.6-2.1,6.5-1.6,8.6,1c20.8,26.3,67.6-29.6,111.7-0.1c6.1,4.2,14.7,8.7,22.3,11
			c0.1-5.1,1.7-62.6,1.7-62.6c0-4.5,4-9.6,15-9.6c7.1,0,14.9,2.5,15.1,9.5l1.6,63.2c7.7-1.9,17.4-6.8,24.3-11.5
			c44.2-29.6,91,26.4,111.8,0.1c2.1-2.6,5.9-3.1,8.6-1c2.6,2.1,3.1,5.9,1,8.6c-28.8,36.5-75.7-23.5-114.5,2.5
			C260.1,86,245.1,85.5,245.1,85.5z"/>
	</g>
</g>
</svg>
