<?xml version="1.0" standalone="no"?>
<!DOCTYPE svg PUBLIC "-//W3C//DTD SVG 1.1//EN" "http://www.w3.org/Graphics/SVG/1.1/DTD/svg11.dtd" >
<svg xmlns="http://www.w3.org/2000/svg" xmlns:xlink="http://www.w3.org/1999/xlink" version="1.1">
<metadata></metadata>
<defs>
<font id="cycloregular" horiz-adv-x="837" >
<font-face units-per-em="2048" ascent="1638" descent="-410" />
<missing-glyph horiz-adv-x="477" />
<glyph horiz-adv-x="0" />
<glyph unicode="&#xd;" horiz-adv-x="1024" />
<glyph unicode=" "  horiz-adv-x="477" />
<glyph unicode="&#x09;" horiz-adv-x="477" />
<glyph unicode="&#xa0;" horiz-adv-x="477" />
<glyph unicode="!" horiz-adv-x="903" d="M164 238q0 86 53 147t135 84v909q0 18 17.5 36t36.5 18q27 0 41 -17.5t14 -36.5v-909q78 -23 132 -84t54 -147q0 -49 -19.5 -93.5t-52 -77t-76.5 -52t-93 -19.5t-93.5 19.5t-77 52t-52 76.5t-19.5 94zM272 238q0 -61 40.5 -97.5t93.5 -36.5q59 0 96 36t37 98q0 53 -37 93 t-96 40q-53 0 -93.5 -40t-40.5 -93z" />
<glyph unicode="&#x22;" horiz-adv-x="651" d="M131 1077v309q0 18 14.5 33t34.5 15t33.5 -14.5t13.5 -33.5v-309q0 -20 -13 -34.5t-34 -14.5q-20 0 -34.5 14.5t-14.5 34.5zM428 1071v309q0 18 13.5 32.5t35.5 14.5q20 0 33.5 -14t13.5 -33v-309q0 -20 -13 -34.5t-34 -14.5q-23 0 -36 14.5t-13 34.5z" />
<glyph unicode="#" horiz-adv-x="1511" d="M193 426q0 27 17 44t42 17h233v258h-233q-25 0 -42 17.5t-17 42.5q0 27 17 44t42 17h233v232q0 27 17.5 44t44.5 17q25 0 42 -17.5t17 -43.5v-232h258v232q0 27 17.5 44t44.5 17q25 0 42 -17.5t17 -43.5v-232h234q25 0 42 -17.5t17 -43.5q0 -25 -17.5 -42.5t-41.5 -17.5 h-234v-258h234q25 0 42 -17t17 -44q0 -25 -17.5 -43t-41.5 -18h-234v-232q0 -25 -17.5 -43t-41.5 -18q-27 0 -44.5 18.5t-17.5 42.5v232h-258v-232q0 -25 -17.5 -43t-41.5 -18q-27 0 -44.5 18.5t-17.5 42.5v232h-233q-25 0 -42 18t-17 43zM606 487h258v258h-258v-258z" />
<glyph unicode="$" horiz-adv-x="1658" d="M185.5 390q4.5 22 23.5 34q20 10 41.5 5t34.5 -23q61 -102 155.5 -171t204.5 -98l-6 647q-82 51 -155.5 98.5t-129.5 82.5q-66 41 -121 75q-27 16 -26 45q0 12 8 29l4 4q0 13 10 27q102 135 250 210t316 75q178 0 332.5 -82t254.5 -230q12 -18 8 -39.5t-22 -34.5 q-18 -14 -40.5 -10t-35.5 23q-57 86 -136 144.5t-171 88.5l6 -600l402 -252q18 -10 22 -31.5t-6 -39.5q-72 -123 -182.5 -209t-245.5 -121q-16 -16 -37 -17q-6 0 -18 5q-33 -6 -65 -10.5t-66 -4.5q-186 0 -345 89t-257 249q-12 20 -7.5 42zM334 1104l305 -191l-4 385 q-178 -47 -301 -194zM741 1319l7 -475l135 -84l-6 555q-41 6 -82 6q-12 0 -25.5 -1t-28.5 -1zM748 717l6 -596q10 -2 20 -2h21q25 0 48 2t46 6l-6 504q-33 23 -67 43t-68 43zM991 563l4 -409q180 65 293 223q-23 14 -103.5 64.5t-193.5 121.5z" />
<glyph unicode="%" horiz-adv-x="1267" d="M203 1206q0 45 17.5 85t46 71t68.5 48t87 17t87 -17t69.5 -48t47 -71t17.5 -85q0 -47 -17.5 -87t-47 -68.5t-69.5 -46t-87 -17.5t-87 17.5t-68.5 46t-46 68.5t-17.5 87zM227.5 57q-8.5 27 3.5 49l695 1283q14 27 38.5 31.5t47.5 -7.5q20 -10 28.5 -36.5t-4.5 -49.5 l-694 -1282q-12 -20 -34.5 -30.5t-51.5 5.5q-20 10 -28.5 37zM299 1206q0 -49 37 -86t86 -37q51 0 88 37t37 86q0 47 -37 84t-88 37q-49 0 -86 -37t-37 -84zM645 221q0 45 17.5 86t47 72t69.5 48t87 17t88 -17t71 -48t47.5 -72t17.5 -86q0 -94 -63.5 -157.5t-160.5 -63.5 q-94 0 -157.5 63.5t-63.5 157.5zM741 221q0 -49 38 -87t87 -38q51 0 89 38t38 87q0 47 -37.5 85t-89.5 38q-49 0 -87 -38t-38 -85z" />
<glyph unicode="&#x26;" horiz-adv-x="1865" d="M248 444q2 55 22.5 104.5t50 90.5t63.5 72.5t60 52.5q6 6 11 8l4 2q0 2 31.5 28.5t64.5 55.5q-8 6 -24.5 20.5t-32.5 30.5q-20 18 -43 41l-2 2l-33 35l-2 4q-29 35 -43.5 78t-14.5 90q0 55 24 104.5t63.5 85t92 56t111.5 18.5t110.5 -24.5t89.5 -59t59.5 -87t21.5 -105.5 q-2 -59 -27.5 -111.5t-73.5 -89.5q-18 -14 -36 -31q-16 -14 -36 -29.5t-38 -31.5q45 -41 99 -91t112.5 -104.5t119 -110.5t117.5 -110q53 53 78 85t47 57l-141 133q-16 16 -17 38.5t15 39.5q16 16 38.5 18t39.5 -14l334 -320q16 -16 17 -37.5t-15 -38.5q-16 -16 -38 -17 t-38 15l-115 107q-23 -23 -47 -54.5t-78 -84.5q92 -86 162 -146.5t84 -77.5q16 -16 15 -38.5t-17 -39.5q-16 -16 -38 -16t-38 16q-37 31 -76 68q-35 31 -78.5 71t-88.5 83l-117 -117q-53 -53 -108.5 -85t-110 -50.5t-104.5 -23.5t-91 -5q-82 2 -153.5 33t-124.5 86 q-123 129 -117 321zM356 442q-2 -72 21.5 -134t66.5 -109q78 -84 201 -84q199 -4 336 131q12 14 42 43.5t69 70.5q-59 53 -121 110.5t-122.5 113t-114.5 106.5t-97 92q-20 -16 -38.5 -31.5t-35.5 -29.5q-18 -16 -37 -31l-4 -4t-8 -6q-16 -14 -43 -38t-51.5 -54.5t-43 -67.5 t-20.5 -78zM471 1157q-2 -53 33 -98q2 -4 14 -16.5t14 -14.5q23 -20 46 -41q18 -16 34.5 -33.5t26.5 -25.5q23 18 45.5 35.5t38.5 33.5q20 16 39 33q59 49 59 119q0 33 -13 62.5t-35.5 52t-54.5 36t-69 15.5q-72 0 -124 -46t-54 -112z" />
<glyph unicode="'" horiz-adv-x="436" d="M166 1083v293q0 18 13.5 31.5t33.5 13.5q18 0 31.5 -13t13.5 -32v-293q0 -20 -13.5 -33.5t-31.5 -13.5q-20 0 -33.5 13.5t-13.5 33.5z" />
<glyph unicode="(" horiz-adv-x="729" d="M174 709q0 203 65.5 388t194.5 347q14 14 36 18t36 -10q37 -37 8 -80q-100 -135 -159.5 -287.5t-71.5 -322.5v-107q12 -170 71.5 -322.5t159.5 -287.5q14 -14 13 -41t-21 -41q-14 -12 -37 -8t-43 18q-123 162 -187.5 346.5t-64.5 389.5z" />
<glyph unicode=")" horiz-adv-x="710" d="M165 1413q1 27 21 41q14 12 37 8t43 -18q123 -162 187.5 -346.5t64.5 -388.5q0 -203 -65.5 -388.5t-194.5 -347.5q-14 -14 -35.5 -18t-36.5 10q-37 37 -8 80q100 135 159.5 287.5t72.5 322.5v107q-12 170 -71.5 322.5t-160.5 287.5q-14 14 -13 41z" />
<glyph unicode="*" horiz-adv-x="870" d="M119 1077q0 23 19.5 37t47.5 14h133l-94 95q-20 20 -24 44.5t12 41.5q16 16 41 12t45 -25l94 -94v133q0 29 14.5 49.5t36.5 20.5q23 0 38.5 -20.5t15.5 -49.5v-133l94 94q20 20 45 24.5t41 -11.5q14 -16 11 -41t-25 -45l-95 -95h133q29 0 49.5 -14t20.5 -37t-20.5 -37 t-49.5 -14h-133l95 -94q23 -23 25.5 -46.5t-11.5 -39.5q-16 -16 -41 -12t-45 24l-94 94v-133q0 -29 -15.5 -49t-38.5 -20t-37 20.5t-14 48.5v133l-94 -94q-20 -20 -45 -24.5t-41 12.5q-16 16 -12 39.5t24 46.5l94 94h-133q-29 0 -48 14.5t-19 36.5z" />
<glyph unicode="+" horiz-adv-x="884" d="M100 662q0 23 20.5 37t49.5 14h207v207q0 29 14.5 49t36.5 20q23 0 37 -20.5t14 -48.5v-207h207q29 0 49.5 -14.5t20.5 -36.5q0 -23 -20.5 -37.5t-49.5 -14.5h-207v-207q0 -29 -14 -49t-37 -20t-37 20.5t-14 48.5v207h-207q-29 0 -49.5 14.5t-20.5 37.5z" />
<glyph unicode="," horiz-adv-x="819" d="M172 215q0 45 17.5 87t46 74t68.5 50t87 18t87 -18t70 -50t47 -74t17 -87q0 -35 -16 -74t-41 -65q0 -14 -8 -15l-170 -180q-14 -18 -34.5 -19t-31.5 13q-18 16 -19 37.5t9 34.5l57 57q-78 12 -132 72.5t-54 138.5zM268 215q0 -47 37 -81t86 -34q51 0 88 34t37 81 q0 57 -37 90t-88 33q-49 0 -86 -33t-37 -90z" />
<glyph unicode="-" d="M111 674q0 23 19.5 42t43.5 17l502 2q23 -2 42 -16t19 -49q2 -23 -17.5 -42.5t-43.5 -19.5l-502 -2q-31 2 -47 21.5t-16 46.5z" />
<glyph unicode="." horiz-adv-x="806" d="M201 221q0 45 17.5 85t46 71t68.5 48t87 17t87 -17t69.5 -48t47 -71t17.5 -85q0 -47 -17.5 -87t-47 -68.5t-69.5 -46t-87 -17.5t-87 17.5t-68.5 46t-46 68.5t-17.5 87zM297 221q0 -49 37 -86t86 -37q51 0 88 37t37 86q0 47 -37 84t-88 37q-49 0 -86 -37t-37 -84z" />
<glyph unicode="/" horiz-adv-x="1224" d="M221.5 57q-8.5 27 3.5 49l695 1283q14 27 38.5 31.5t47.5 -7.5q20 -10 28 -36.5t-4 -49.5l-694 -1282q-12 -20 -34.5 -30.5t-51.5 5.5q-20 10 -28.5 37z" />
<glyph unicode="0" horiz-adv-x="1775" d="M154 717q0 147 56 277t153.5 228.5t227.5 155t277 56.5q152 0 284 -56.5t230.5 -155t154.5 -228.5t56 -277t-56 -277.5t-154.5 -227.5t-230.5 -153.5t-284 -56.5q-147 0 -277 56.5t-227.5 153.5t-153.5 227t-56 278zM260 717q0 -127 49 -238.5t132 -193.5t193.5 -129 t233.5 -47q127 0 240 47t197 129t133 193.5t49 238.5q0 125 -49 235.5t-133 193.5t-197 131t-240 48q-123 0 -233.5 -48t-193.5 -131t-132 -193.5t-49 -235.5z" />
<glyph unicode="1" horiz-adv-x="577" d="M215 59l10 1319q0 29 17.5 43.5t40.5 14.5t40 -17.5t17 -40.5l-10 -1319q0 -23 -14.5 -40t-43.5 -17q-23 0 -40 17.5t-17 39.5z" />
<glyph unicode="2" horiz-adv-x="1914" d="M243 67.5q3 22.5 17 34.5l1180 1014q-106 100 -234.5 151.5t-269.5 51.5q-158 6 -303.5 -56.5t-259.5 -191.5q-18 -12 -41 -12t-37 12q-14 14 -17.5 36.5t17.5 43.5q133 141 298 212t343 71q174 -8 332.5 -79t285.5 -204q14 -14 15.5 -31.5t-6.5 -29.5q0 -10 -17 -27 l-942 -809q264 78 539 40t508 -192q14 -12 18 -34.5t-10 -42.5q-12 -14 -34.5 -18.5t-43.5 9.5q-135 92 -291.5 138.5t-320.5 46.5t-327 -46t-312 -139q-6 -8 -18.5 -9t-24.5 -1q-8 8 -14.5 10t-12.5 9q-20 20 -17 42.5z" />
<glyph unicode="3" horiz-adv-x="1947" d="M406 53q0 20 16 36.5t39 16.5h426q119 0 226.5 43.5t189 119t133 176t61.5 217.5h-1018q-29 0 -47 17t-18 38q0 29 18.5 42t46.5 13l1018 8q-14 117 -66.5 216.5t-133 173t-186 115.5t-224.5 42h-426q-29 0 -42 16.5t-13 36.5q0 55 55 56h426q150 0 281.5 -56.5t228 -154 t153 -228.5t56.5 -280q0 -152 -56.5 -283t-153 -227t-228.5 -152.5t-281 -56.5h-426q-23 0 -39 13.5t-16 41.5z" />
<glyph unicode="4" horiz-adv-x="2019" d="M276 330v10q2 154 47.5 297t125 269t191.5 228.5t249 172.5q121 59 246 92t260 33q0 -4 4 -9q2 -2 4 -2h10h8v-8h9v-8h10v-10v-9l8 -8v-10v-985h205q20 0 36.5 -12.5t16.5 -40.5q0 -20 -16.5 -37t-36.5 -17h-205v-221q0 -20 -16.5 -36.5t-36.5 -16.5q-27 0 -44.5 16.5 t-17.5 36.5v221h-1003q-20 0 -37 16.5t-17 37.5zM391 383h942v932q-203 -12 -399 -107q-117 -59 -212 -146t-166 -192.5t-113 -229.5t-52 -257z" />
<glyph unicode="5" horiz-adv-x="1357" d="M236 772v608q0 18 16 36t37 18h723q20 0 37.5 -17.5t17.5 -36.5q0 -23 -17.5 -38t-37.5 -15h-670v-500h60h99.5t123 1t133.5 1q158 2 344 5q14 0 20 -4.5t15 -12.5q6 -6 12 -17.5t6 -19.5q0 -100 -38 -197.5t-101.5 -184.5t-147.5 -160.5t-177 -127t-189 -84t-185 -30.5 q-23 0 -39 17.5t-16 35.5q0 27 16.5 40t38.5 13q117 0 239 56.5t225.5 145.5t174 200.5t82.5 222.5h-60t-98.5 -1t-122 -2t-130.5 -1q-156 -2 -338 -4q-14 0 -21.5 5t-13.5 13q-14 6 -16 17.5t-2 17.5z" />
<glyph unicode="6" horiz-adv-x="1884" d="M201 717q2 145 61.5 275t157.5 227.5t230 154t282 56.5q20 0 36.5 -16.5t16.5 -35.5q0 -27 -16.5 -40t-36.5 -13q-117 -4 -222.5 -47t-187.5 -115.5t-136 -169t-71 -207.5h1278q20 0 36 -16t16 -37v-8v-8q-4 -147 -61.5 -277.5t-157 -227.5t-231.5 -153.5t-282 -56.5 q-143 0 -274 55.5t-229 153.5q-98 104 -153.5 232t-55.5 274zM315 672q6 -104 50 -204.5t122 -178.5q86 -86 195 -133t231 -39q125 0 233.5 43t190.5 117.5t133.5 176t61.5 218.5h-1217z" />
<glyph unicode="7" horiz-adv-x="2056" d="M192.5 1101.5q-4.5 18.5 8.5 39.5q102 141 252.5 217t316.5 76q143 0 272 -56.5t224.5 -152t152 -223.5t56.5 -271v-63h366q20 0 36.5 -13.5t16.5 -42.5q0 -20 -16 -36.5t-37 -16.5h-366v-498q0 -27 -16.5 -44t-37.5 -17q-27 0 -44 17.5t-17 43.5l8 498h-395 q-20 0 -36.5 16.5t-16.5 36.5q0 29 16 42.5t37 13.5h395v63q0 123 -47 231.5t-128 189.5t-189.5 128t-233.5 47q-70 0 -138.5 -17.5t-131 -50t-116.5 -78.5t-93 -104q-14 -20 -37 -21t-43 13q-14 14 -18.5 32.5z" />
<glyph unicode="8" horiz-adv-x="1871" d="M207 362q0 29 18 44q90 51 191 106q86 47 192.5 106.5t214.5 120.5q-104 57 -206.5 111.5t-182.5 97.5q-94 51 -178 96q-6 8 -12 18.5t-6 27.5v22q6 0 8 2t2 4q0 23 8 29q121 135 298 212t380 77q211 0 393 -84t303 -234q0 -4 5 -11t5 -17v-13q-8 -6 -15 -15t-15 -18 q-82 -45 -174 -96q-78 -43 -178.5 -97t-204.5 -112q109 -59 213 -114.5t188 -100.5q98 -53 186 -100q16 -6 22.5 -18.5t6.5 -24.5q0 -6 -1 -13.5t-7 -11.5q-57 -84 -136 -151.5t-172 -114.5t-199.5 -73.5t-219.5 -26.5q-225 0 -414.5 94t-304.5 254q-6 6 -7 13t-1 11z M354 346q49 -57 113.5 -102t140.5 -77t158 -48.5t168 -16.5q180 0 334.5 69t253.5 191q-16 10 -67.5 38t-128.5 69t-175 94.5t-207 114.5q-113 -61 -213 -116.5t-179 -100.5t-131 -75t-67 -40zM377 1104q14 -10 64.5 -38t126 -68t172 -91t204.5 -108q100 57 191.5 108 t164 91t124 68t69.5 38q-104 111 -249.5 170t-309.5 59q-166 0 -309.5 -59.5t-247.5 -169.5z" />
<glyph unicode="9" horiz-adv-x="1878" d="M229 711q0 147 56.5 277t155 227.5t230.5 153.5t281 56q145 6 277.5 -49.5t230.5 -161.5q104 -98 156.5 -225t52.5 -272q0 -147 -56.5 -277.5t-154.5 -227.5t-230 -153.5t-282 -56.5q-20 0 -35.5 13.5t-15.5 39.5q0 18 15.5 34.5t35.5 16.5q117 0 222.5 43.5t187.5 117 t135 173t65 209.5h-1222q-27 0 -35 8h-16q-27 0 -40.5 16.5t-13.5 37.5zM334 752h1231q-6 111 -51.5 213t-122.5 180q-86 86 -200 130t-239 44q-121 0 -228.5 -44t-191 -121t-136 -180.5t-62.5 -221.5z" />
<glyph unicode=":" horiz-adv-x="849" d="M242 223q0 45 17 86t46 71t69 47t87 17t87 -17t69.5 -47t47 -71t17.5 -86q0 -47 -17.5 -87t-47 -68.5t-69.5 -46t-87 -17.5t-87 17.5t-69 46t-46 68.5t-17 87zM242 803q0 43 17 82t46 69.5t69 49t87 18.5t87 -18.5t69.5 -49t47 -69.5t17.5 -82q0 -45 -17.5 -86t-47 -73 t-69.5 -50.5t-87 -18.5t-87 18.5t-69 50.5t-46 73t-17 86zM338 223q0 -55 35 -89t88 -34q49 0 87 34t38 89q0 49 -38 86t-87 37q-53 0 -88 -37t-35 -86zM338 803q0 -55 35 -88t88 -33q49 0 87 33t38 88q0 49 -38 80.5t-87 31.5q-53 0 -88 -31.5t-35 -80.5z" />
<glyph unicode=";" horiz-adv-x="854" d="M246 215q0 45 17.5 87t46 74t68.5 50t87 18t87 -18t69.5 -50t47 -74t17.5 -87q0 -35 -16.5 -74t-40.5 -65q0 -14 -8 -15l-170 -180q-14 -18 -35 -19t-31 13q-18 16 -19 37.5t9 34.5l57 57q-78 12 -132 72.5t-54 138.5zM246 803q0 45 17.5 85t46 70.5t68.5 48t87 17.5 t87 -17.5t69.5 -48t47 -70.5t17.5 -85q0 -47 -17.5 -87t-47 -69t-69.5 -46t-87 -17t-87 17t-68.5 46t-46 69t-17.5 87zM342 215q0 -47 37 -81t86 -34q51 0 88 34t37 81q0 57 -37 90t-88 33q-49 0 -86 -33t-37 -90zM342 803q0 -49 37 -86t86 -37q51 0 88 37t37 86 q0 47 -37 84t-88 37q-49 0 -86 -37t-37 -84z" />
<glyph unicode="&#x3c;" horiz-adv-x="999" d="M223.5 610q1.5 19 7.5 33q8 16 23 33l432 414q20 20 44.5 17.5t47.5 -20.5q14 -18 15.5 -45.5t-19.5 -42.5l-399 -385l385 -401q12 -16 16 -41t-22 -47q-16 -16 -44 -16t-44 20l-414 432l-14 14q-16 16 -14.5 35z" />
<glyph unicode="=" horiz-adv-x="1540" d="M328 403q0 23 19.5 42.5t43.5 17.5l809 2q23 -2 42.5 -16.5t19.5 -49.5q2 -23 -17.5 -42t-44.5 -19l-809 -2q-31 2 -47 21.5t-16 45.5zM328 766q0 23 19.5 42t43.5 17l809 2q23 -2 42.5 -16t19.5 -49q2 -23 -17.5 -42.5t-44.5 -19.5l-809 -2q-31 2 -47 21.5t-16 46.5z " />
<glyph unicode="&#x3e;" horiz-adv-x="1013" d="M257 199.5q-1 27.5 19 42.5l402 383l-383 403q-12 16 -16.5 41t22.5 47q16 16 44 16.5t44 -20.5l412 -434l14 -14q14 -18 13 -36t-7 -32q-8 -16 -22 -33l-434 -411q-20 -20 -45 -18t-48 20q-14 18 -15 45.5z" />
<glyph unicode="?" horiz-adv-x="1216" d="M254 1083q0 70 26.5 133.5t75.5 112.5q47 49 110.5 75t133.5 26t133.5 -26t112.5 -75t74.5 -112.5t25.5 -133.5q0 -106 -82.5 -194.5t-238.5 -147.5q-86 -33 -119 -61.5t-33 -73.5q0 -51 35 -88t84 -43h8h16q51 4 86 41t35 90q0 23 16.5 39.5t39.5 16.5t39 -16.5 t16 -39.5q0 -57 -25.5 -105t-66.5 -83q39 -33 61.5 -80t22.5 -102q0 -49 -18.5 -93.5t-51.5 -77t-77 -52t-93 -19.5t-93 19.5t-77 52t-52.5 76.5t-19.5 94q0 57 26 105t67 83q-41 33 -63.5 80t-22.5 102q0 57 23.5 97t58 68t73.5 45.5t68 27.5q35 14 78 35.5t81.5 51.5 t64.5 67.5t26 84.5q0 98 -70 168t-168 70t-168 -70t-70 -168q0 -23 -15 -38t-38 -15t-39 15.5t-16 37.5zM467 236q0 -55 39 -94.5t94 -39.5q53 0 92 39.5t39 94.5q0 51 -33.5 87.5t-83.5 43.5h-8h-16q-51 -4 -87 -41t-36 -90z" />
<glyph unicode="@" horiz-adv-x="1781" d="M209 739q0 147 56.5 277.5t153.5 226.5t227.5 152.5t277.5 56.5t277 -56.5t226.5 -152.5t152.5 -226t56 -278q0 -84 -25.5 -170t-70.5 -163.5t-107.5 -143t-134.5 -106.5q-27 -16 -53 0q-29 18 -28 47v250q-55 -59 -130 -92t-161 -33q-84 0 -157 31.5t-127 86t-86 127 t-32 156.5t32 158t86 128t127 86t157 32q82 0 155.5 -32t128 -86t86 -128t31.5 -158v-25.5t-4 -25.5q0 -29 1 -75t1 -98v-103.5v-90.5q45 39 82 90.5t63.5 107.5t42 115.5t15.5 114.5q0 125 -48 235.5t-130 192.5t-191.5 129t-234.5 47t-235.5 -47t-192.5 -129 t-129.5 -192.5t-47.5 -235.5t47.5 -235.5t129.5 -192.5t192.5 -129t235.5 -47q23 0 38 -16.5t15 -38.5q0 -23 -15.5 -38t-37.5 -15q-147 0 -277.5 56t-227.5 152.5t-153.5 226.5t-56.5 277zM633 729q0 -61 22.5 -114.5t62.5 -93.5t93.5 -62.5t114.5 -22.5q55 0 104 19.5 t87 53.5t63.5 79t33.5 98v27q0 6 5 18q0 61 -24 114.5t-63.5 93.5t-93 62.5t-112.5 22.5q-61 0 -114.5 -23.5t-93.5 -63.5t-62.5 -93t-22.5 -115z" />
<glyph unicode="A" horiz-adv-x="1953" d="M188 82l35 74l713 1251q12 27 45 27q29 0 43 -27l709 -1237l39 -88q6 -27 -5.5 -45.5t-31.5 -26.5q-20 -6 -42 5.5t-28 31.5q-8 10 -29.5 59.5t-50.5 100.5q-94 160 -256 249t-348 89q-188 0 -343 -87t-255 -241q-53 -88 -72.5 -129t-15.5 -41q-12 -20 -30.5 -31.5 t-39.5 -5.5q-20 8 -31.5 26.5t-5.5 45.5zM563 545q189 106 418 106q227 0 418 -106q-61 102 -128 217t-126.5 217t-103.5 181t-60 114q-20 -35 -65.5 -114t-103.5 -181t-123.5 -217t-125.5 -217z" />
<glyph unicode="B" horiz-adv-x="1511" d="M195 51v1323q0 20 16 38t37 18h676q80 0 150.5 -30t124.5 -82t85 -122t31 -149q0 -106 -53.5 -194.5t-133.5 -135.5q86 -53 136.5 -141.5t50.5 -194.5q0 -80 -30 -150.5t-83 -122t-124.5 -81t-153.5 -29.5h-676q-20 0 -36.5 16.5t-16.5 36.5zM301 104h623q59 0 111 21.5 t90 59.5t60.5 88.5t22.5 107.5q0 59 -22.5 111.5t-60.5 90.5t-90 59.5t-111 21.5h-623v-560zM301 770h623q59 0 111 21.5t90 59.5t60.5 88t22.5 108q0 57 -22.5 107t-60.5 87t-90 58.5t-111 21.5h-623v-551z" />
<glyph unicode="C" horiz-adv-x="1722" d="M188 719q0 145 56.5 274t153 226.5t226.5 154t275 56.5q84 0 166 -19.5t156.5 -56.5t139 -91.5t112.5 -123.5q14 -23 13 -48.5t-24 -39.5q-23 -16 -47 -11.5t-41 21.5q-41 57 -94 104t-114.5 80t-129 50.5t-137.5 17.5q-125 0 -233.5 -47t-188.5 -129t-126 -189.5 t-46 -228.5q0 -123 46 -231.5t126 -188.5t188.5 -126t233.5 -46q80 0 157 21.5t145.5 60.5t124.5 94t97 125q8 23 32 34t46 -5q23 -14 29 -35t-8 -43q-96 -176 -260 -277.5t-363 -101.5q-145 0 -275 56.5t-226.5 153.5t-153 228t-56.5 281z" />
<glyph unicode="D" horiz-adv-x="1544" d="M217 59v1317q0 18 16.5 34.5t34.5 16.5h410q147 0 277 -57t227.5 -155.5t153 -228.5t55.5 -275q0 -147 -55.5 -277.5t-153 -227.5t-227.5 -152.5t-277 -55.5h-410q-27 0 -39 17.5t-12 43.5zM324 113q29 0 88 -1t118 -3q68 -2 148 -5q125 0 235.5 48.5t192.5 130.5 t130 192.5t48 235.5q0 127 -48 236.5t-130 191.5t-192.5 128t-235.5 46h-354v-1200z" />
<glyph unicode="E" horiz-adv-x="1665" d="M215 711q0 150 57.5 281.5t156.5 230t230.5 155t278.5 56.5q113 0 222.5 -34t195.5 -100q20 -14 26.5 -37.5t-10.5 -41.5q-12 -16 -34.5 -20.5t-41.5 9.5q-80 53 -169 85t-189 32q-121 0 -226.5 -44t-187.5 -118.5t-132 -176t-60 -216.5h729q20 0 37.5 -15.5t17.5 -37.5 q0 -20 -17.5 -36.5t-37.5 -16.5l-729 -7q10 -115 60 -216t132 -177t187.5 -120t226.5 -44t230.5 44t187.5 128q20 20 43 17t39 -17q12 -14 12 -36.5t-12 -42.5q-102 -96 -230.5 -146.5t-269.5 -50.5q-147 0 -278.5 56.5t-230.5 153.5t-156.5 226t-57.5 277z" />
<glyph unicode="F" horiz-adv-x="1460" d="M162 717q0 150 56 278.5t153.5 225t225.5 151.5t271 55q131 0 253.5 -40.5t226.5 -122.5q12 -12 12 -36t-12 -44q-12 -12 -39 -15.5t-43 9.5q-88 66 -187.5 104.5t-210.5 38.5q-121 0 -228.5 -47t-188 -128t-128 -189.5t-47.5 -229.5v-61h740q29 0 46 -17.5t17 -38.5 q0 -20 -17.5 -36.5t-45.5 -16.5h-740l11 -506q0 -20 -17.5 -36.5t-46.5 -16.5q-20 0 -36.5 16.5t-16.5 36.5z" />
<glyph unicode="G" horiz-adv-x="1941" d="M160 832q20 141 94 262q80 123 192.5 204.5t253.5 116.5q87 21 174 21q80 0 160 -18q166 -38 301 -146q21 -21 21 -43q0 -18 -13 -37q-14 -14 -36.5 -18.5t-42.5 8.5q-115 96 -254 132q-66 17 -131 17q-75 0 -150 -22q-123 -29 -220 -98.5t-157 -170.5q-66 -109 -82 -226 q-6 -44 -6 -88q0 -75 17 -151q31 -121 103.5 -217t171.5 -156.5t218 -81.5q49 -9 98 -9q71 0 142 18q80 20 151.5 61t129 97.5t99.5 128t66 151.5h-340q-20 0 -36.5 13.5t-16.5 37.5q0 23 16.5 39.5t36.5 16.5h733q20 0 37 -13.5t17 -42.5q0 -18 -13.5 -34.5t-40.5 -16.5 h-286v-26q-27 -98 -76 -182.5t-116.5 -152t-153 -114t-181.5 -69.5q-84 -21 -167 -21q-58 0 -115 10q-140 25 -257.5 95.5t-203.5 183t-123 258.5q-22 89 -22 178q0 52 8 105z" />
<glyph unicode="H" horiz-adv-x="1435" d="M125 51v1311q0 20 16.5 36.5t36.5 16.5t37.5 -16.5t17.5 -36.5v-655q80 115 202 183t263 68q150 0 276 -68.5t200 -182.5v671q0 20 16 38t39 18q27 0 44 -17.5t17 -38.5v-1327q0 -20 -17.5 -36.5t-43.5 -16.5q-23 0 -39 16.5t-16 36.5v287v29q0 98 -38 185t-102.5 153.5 t-150.5 105.5t-185 39q-94 0 -178 -39t-147.5 -105.5t-101.5 -153.5t-38 -185v-11v-305q0 -27 -17 -40t-38 -13q-53 0 -53 53z" />
<glyph unicode="I" horiz-adv-x="692" d="M270 59l11 1319q0 29 17 43.5t40 14.5t40 -17.5t17 -40.5l-10 -1319q0 -23 -14.5 -40t-42.5 -17q-23 0 -40.5 17.5t-17.5 39.5z" />
<glyph unicode="J" horiz-adv-x="1454" d="M66 396.5q10 21.5 32 29.5q23 14 46.5 4t29.5 -33q57 -129 181 -204.5t276 -75.5q236 0 356.5 128t136.5 390q2 125 3 256q1 65 1 125t-1 114q-1 107 -2 176.5t-1 73.5q0 23 14.5 39.5t43.5 16.5q20 0 37.5 -16.5t17.5 -39.5q2 -121 4 -247q1 -74 1 -156v-85 q-1 -130 -5 -257q-6 -199 -64.5 -323t-145.5 -193.5t-191.5 -95t-204.5 -25.5q-92 0 -178 25.5t-159 72.5t-130.5 112.5t-93.5 143.5q-14 23 -4 44.5z" />
<glyph unicode="K" horiz-adv-x="1492" d="M158 70v1308q0 20 16.5 37t36.5 17t35.5 -16.5t15.5 -37.5v-606h344q121 0 229.5 48t189.5 129t129 189.5t48 231.5q0 27 16.5 39t36.5 12q51 0 52 -51q0 -109 -31 -209t-88.5 -185t-136 -151.5t-174.5 -105.5q98 -39 181 -104.5t142.5 -151.5t92 -187.5t32.5 -214.5 q0 -27 -16.5 -44t-36.5 -17t-35.5 17.5t-15.5 43.5q0 125 -48.5 236t-131.5 192.5t-194.5 130t-240.5 48.5h-344v-598q0 -27 -15.5 -39.5t-35.5 -12.5t-36.5 12.5t-16.5 39.5z" />
<glyph unicode="L" horiz-adv-x="1550" d="M211 717v661q0 20 16.5 37t36.5 17q27 0 40 -16.5t13 -37.5v-661q0 -127 48.5 -237.5t131.5 -193.5t193.5 -131.5t237.5 -48.5h299q20 0 36.5 -13t16.5 -40q0 -20 -16.5 -36.5t-36.5 -16.5h-299h-10q-145 2 -274.5 60.5t-225.5 155.5t-151.5 226t-55.5 275z" />
<glyph unicode="M" horiz-adv-x="1806" d="M197 61v664q0 147 55 276t151.5 225.5t225.5 152t276 55.5q145 0 274.5 -55.5t225.5 -152t151.5 -225.5t55.5 -276v-664q0 -20 -16.5 -36.5t-36.5 -16.5q-27 0 -44.5 16.5t-17.5 36.5l10 664q0 117 -42 220.5t-115.5 183t-174 130t-217.5 60.5v-1266q0 -20 -16 -36.5 t-37 -16.5q-29 0 -46 16.5t-17 36.5l10 1266q-117 -10 -216 -60.5t-171 -130t-113 -183t-41 -220.5v-664q0 -20 -16.5 -36.5t-36.5 -16.5q-27 0 -44 16.5t-17 36.5z" />
<glyph unicode="N" horiz-adv-x="1634" d="M184 55v1329q0 18 9.5 28.5t21.5 14.5q12 6 31 9q68 0 163 -9.5t202.5 -41t220 -91t210.5 -159.5q80 -78 145.5 -177.5t112.5 -220.5v647q0 18 12.5 35t41.5 17q20 0 36.5 -16.5t16.5 -35.5v-1329q0 -20 -16.5 -36.5t-36.5 -16.5q-29 0 -41.5 16.5t-12.5 36.5 q0 340 -83.5 591t-243.5 411q-84 80 -174 131t-179.5 80.5t-171 41t-149.5 11.5v-1266q0 -20 -16.5 -36.5t-36.5 -16.5q-27 0 -44.5 16.5t-17.5 36.5z" />
<glyph unicode="O" horiz-adv-x="1896" d="M207 713q0 152 57.5 286t157.5 233t233 157.5t285 58.5q156 0 292 -58.5t236.5 -157.5t159 -233.5t58.5 -285.5q0 -152 -58.5 -286t-159 -234.5t-236.5 -158t-292 -57.5q-152 0 -285 57.5t-233 158t-157.5 234.5t-57.5 286zM315 713q0 -131 50.5 -245t135.5 -199 t198.5 -133t240.5 -48q131 0 247 48t203 133t137 199t50 245q0 127 -50 240.5t-137 198.5t-203 135t-247 50q-127 0 -240.5 -50t-198.5 -135t-135.5 -198.5t-50.5 -240.5z" />
<glyph unicode="P" horiz-adv-x="1531" d="M154 51l8 326v999q0 20 13 37t42 17h494q135 0 254.5 -44.5t208 -119t139.5 -176t51 -218.5t-51 -219t-139.5 -180t-208 -123t-254.5 -45l-443 10v-264q0 -20 -15 -36.5t-36 -16.5q-29 0 -46 16.5t-17 36.5zM268 422h443q113 0 211 36t171.5 97t115.5 143t42 174t-42 175 t-115.5 144.5t-172 97.5t-210.5 36h-443v-903z" />
<glyph unicode="Q" horiz-adv-x="1767" d="M158 725q0 141 52 270t152 238q100 100 233.5 152.5t274.5 52.5q147 0 277.5 -52.5t232.5 -152.5q100 -109 156.5 -238t56.5 -270q0 -147 -56 -277.5t-157 -232.5q-94 -92 -210.5 -145.5t-245.5 -67.5v-160q0 -53 -54 -53q-20 0 -36.5 12.5t-16.5 40.5v160 q-137 12 -257 72.5t-209 157t-141 222.5t-52 271zM264 725q0 -121 43 -226.5t117 -187.5t175 -132t218 -60v276q0 20 16.5 37t36.5 17q29 0 41.5 -16.5t12.5 -37.5v-276q109 6 204.5 50t169.5 118q178 178 179 438q0 121 -45.5 230.5t-133.5 197.5q-80 86 -192.5 132 t-235.5 46q-121 0 -230.5 -46t-197.5 -132q-86 -88 -132 -197.5t-46 -230.5z" />
<glyph unicode="R" horiz-adv-x="1441" d="M193 61v299v11v1001q0 27 16 40t37 13h395q131 0 249 -43t205 -118.5t138 -176t51 -217.5q0 -119 -52 -218t-145.5 -172.5t-222.5 -117t-284 -45.5q106 -37 215.5 -73.5t201.5 -67.5q107 -37 207 -70q14 -8 25.5 -20t11.5 -33v-8q-8 -29 -29.5 -36t-42.5 -1l-862 283 v-230q0 -20 -17.5 -36.5t-43.5 -16.5q-20 0 -36.5 16.5t-16.5 36.5zM307 422h238q139 0 254.5 32.5t199.5 93t131.5 142.5t47.5 180q0 92 -43 174t-117 143.5t-171 96.5t-206 35h-334v-246v-8v-643z" />
<glyph unicode="S" horiz-adv-x="1511" d="M124 383q9 23 23 37q20 6 44 1t36 -20q82 -141 220.5 -218t300.5 -77q147 0 280 69t221 192q-16 12 -71.5 47t-134 85t-174 109.5t-191.5 120.5q-227 143 -504 318q-14 8 -20.5 20t-6.5 25q0 18 9 26v10q0 6 6 13.5t12 13.5q102 135 249.5 211t324.5 76q176 0 332.5 -83 t258.5 -231q14 -20 13.5 -43.5t-21.5 -37.5q-20 -12 -43.5 -7.5t-38.5 25.5q-88 123 -221 191.5t-280 68.5q-141 0 -264.5 -53t-211.5 -162l1086 -682q14 -6 18 -28.5t-10 -43.5q-94 -168 -258 -263t-360 -95q-188 0 -352.5 89t-266.5 253q-14 20 -5 43z" />
<glyph unicode="T" horiz-adv-x="1748" d="M117 1147q4 23 18 43q162 123 346.5 187.5t388.5 64.5q203 0 388.5 -65.5t347.5 -194.5q14 -14 18 -36t-10 -36q-21 -21 -43 -21q-18 0 -37 13q-135 100 -287.5 159.5t-322.5 71.5v-1282q0 -20 -16.5 -36.5t-37.5 -16.5q-29 0 -41 16.5t-12 36.5v1282 q-170 -12 -322.5 -71.5t-287.5 -159.5q-14 -14 -41 -13t-41 21q-12 14 -8 37z" />
<glyph unicode="U" horiz-adv-x="1679" d="M223 1372q0 29 16.5 41t45.5 12q20 0 37.5 -12t17.5 -41v-657q0 -123 40 -233.5t108.5 -193.5t160.5 -132.5t195 -49.5q104 0 195 49.5t160 132.5t108 193.5t39 233.5v663q0 23 16 39.5t45 16.5q20 0 35.5 -16.5t15.5 -39.5v-663q0 -147 -48 -276.5t-131 -226.5 t-195.5 -153.5t-239.5 -56.5t-237.5 56.5t-194.5 153.5t-132.5 226t-48.5 277z" />
<glyph unicode="V" horiz-adv-x="1583" d="M119 1378q0 20 16.5 37t36.5 17t36.5 -16.5t16.5 -37.5q0 -330 85 -578.5t245 -410.5q90 -86 187.5 -140t189.5 -84t175 -40t142 -10v1263q0 20 13.5 37t40.5 17q20 0 36.5 -16.5t16.5 -37.5v-1319q0 -12 -6.5 -24t-20.5 -19l-8 -10q-6 0 -13.5 -4t-13.5 -4q-57 0 -150 8 t-205 40t-230.5 94.5t-225.5 168.5q-180 182 -272 447.5t-92 621.5z" />
<glyph unicode="W" horiz-adv-x="1826" d="M195 705v663q0 23 17 40t40 17t40 -17t17 -40v-663q0 -115 41 -217.5t113 -181.5t168 -129t209 -60l8 1251q0 29 18.5 48.5t40.5 19.5q23 0 40.5 -19.5t17.5 -48.5v-1251q109 10 205 61t167.5 131t113.5 181.5t42 214.5l-8 663q0 23 18.5 40t46.5 17q23 0 41.5 -17 t18.5 -40v-663q0 -145 -55.5 -272.5t-152.5 -223.5t-227.5 -151.5t-277.5 -55.5t-276 55.5t-223.5 151.5t-148.5 223t-54 273z" />
<glyph unicode="X" horiz-adv-x="1730" d="M143 53q0 20 16.5 36.5t37.5 16.5q121 0 228 44.5t189 121t133.5 180t57.5 222.5q0 6 5 18.5t5 22.5q0 16 -5 28.5t-5 18.5q-6 117 -57.5 219t-133.5 179t-189.5 121t-227.5 44q-20 0 -37 16.5t-17 38.5q0 27 16.5 40.5t37.5 13.5q115 0 217 -32t189 -90.5t154.5 -139 t110.5 -179.5q41 98 106.5 179t151.5 139.5t188.5 90.5t217.5 32q20 0 36.5 -13.5t16.5 -40.5q0 -23 -16.5 -39t-36.5 -16q-121 0 -228.5 -44t-189.5 -121t-133 -179t-57 -219v-47v-41q6 -119 57 -222.5t133 -180t189.5 -121t228.5 -44.5q20 0 36.5 -16.5t16.5 -36.5 q0 -27 -16.5 -40t-36.5 -13q-115 0 -217.5 31.5t-188.5 90t-151.5 139.5t-106.5 177q-43 -96 -110.5 -177t-154.5 -139.5t-189.5 -90t-216.5 -31.5q-20 0 -37 13.5t-17 39.5z" />
<glyph unicode="Y" horiz-adv-x="1673" d="M131 1044q0 184 86 345q22 31 52 31q11 0 24 -5q23 -14 33 -37.5t-4 -46.5q-35 -66 -55.5 -137.5t-20.5 -149.5q0 -125 48 -233.5t131 -189t193.5 -126.5t235.5 -46t233.5 46t189.5 126.5t127 189.5t46 233q0 78 -19.5 151t-56.5 144q-6 23 1 42.5t30 33.5q20 14 40.5 9 t35.5 -27q43 -78 63.5 -169.5t20.5 -183.5q0 -139 -50.5 -264t-138.5 -221t-207.5 -156.5t-259.5 -70.5v-275q0 -29 -16 -43t-39 -14q-57 0 -57 57v275q-139 10 -260 70.5t-211 156.5t-142.5 221t-52.5 264z" />
<glyph unicode="Z" horiz-adv-x="1716" d="M143 41v8v8v11v8v8h9v10q2 0 4 2q4 4 4 8l1050 1031q-160 -45 -328 -51q-18 -1 -35 0q-150 0 -298 42q-217 66 -389 211q-12 14 -16.5 37t16.5 35q14 20 35.5 21.5t35.5 -13.5q158 -133 353 -184q144 -45 288 -44q95 0 189 19q237 49 430 209v10h12h8h9h8h10h8h8v-10h9 v-8h10v-8v-8h8v-11v-8v-10q-8 0 -8 -4q-2 -2 0 -4v-10l-10 -9l-1051 -1040q160 53 324 59q19 1 37 1q145 0 292 -42q113 -33 211.5 -86t177.5 -125q20 -16 21.5 -38.5t-12.5 -42.5q-12 -12 -34 -12.5t-38 12.5q-78 61 -165 106t-187 80q-119 33 -241 37q-17 1 -34 1 q-104 1 -206 -21q-118 -24 -226 -76t-201 -127l-8 -9h-10v-8h-10h-8h-9q0 2 -4 6q-2 0 -4 2h-10v9h-8v10h-8v8h-9z" />
<glyph unicode="[" horiz-adv-x="665" d="M113 49v1337q0 23 14 37.5t37 14.5h258q23 0 37 -14.5t14 -37.5q0 -20 -14.5 -35.5t-36.5 -15.5h-207v-1235h207q23 0 37 -14t14 -37t-14.5 -37t-36.5 -14h-258q-23 0 -37 14.5t-14 36.5z" />
<glyph unicode="\" horiz-adv-x="1056" d="M124 1372.5q3 22.5 32 38.5q23 10 49 3t37 -30l688 -1286q12 -27 3 -50t-32 -34q-18 -10 -46 -3t-40 28l-684 1288q-10 23 -7 45.5z" />
<glyph unicode="]" horiz-adv-x="729" d="M166 51q0 20 14.5 35.5t36.5 15.5h207v1235h-207q-23 0 -37 14.5t-14 37.5t14.5 37t36.5 14h258q23 0 37 -14.5t14 -36.5v-1338q0 -23 -14 -37t-37 -14h-258q-23 0 -37 14.5t-14 36.5z" />
<glyph unicode="^" horiz-adv-x="1101" d="M65 1097.5q1 26.5 23 43.5q115 102 209 184q39 35 77 68.5t68.5 60.5t51 44.5t22.5 19.5q16 14 35 20q16 4 35.5 2t42.5 -24l385 -386q18 -23 20 -52t-18 -48q-16 -16 -43 -11t-45 21l-359 359l-405 -359q-16 -10 -40 -12t-46 27q-14 16 -13 42.5z" />
<glyph unicode="_" horiz-adv-x="1009" d="M88 -164q0 20 19.5 40t42.5 18l692 2q23 -2 41 -16.5t18 -47.5q2 -20 -17.5 -38.5t-41.5 -18.5l-692 -2q-29 2 -45.5 20.5t-16.5 42.5z" />
<glyph unicode="`" horiz-adv-x="845" d="M182 1374q2 45 49 45q18 -2 31.5 -13t11.5 -38q-4 -72 19.5 -137.5t69 -114.5t105.5 -81t128 -36q23 -2 39 -19t14 -34q-2 -23 -18.5 -33t-38.5 -10q-90 6 -168 46t-133 104.5t-85 147.5t-24 173z" />
<glyph unicode="a" horiz-adv-x="1409" d="M186 516q0 104 40 195.5t111 161t165 109.5t203 40q106 0 200 -40t165 -109.5t111 -160.5t40 -196v-31v-413q0 -29 -18.5 -42.5t-47.5 -13.5q-20 0 -36.5 13.5t-16.5 42.5v118q-72 -90 -175.5 -141t-221.5 -51q-109 0 -203 40t-165 110.5t-111 165t-40 202.5zM307 516 q0 -84 31 -158.5t84 -130t126 -88.5t157 -33q80 0 149.5 30t123.5 81t87 121t37 147v9v10v12q0 82 -31 154.5t-85 126t-127 85t-154 31.5q-84 0 -157 -31.5t-126 -85t-84 -126t-31 -154.5z" />
<glyph unicode="b" horiz-adv-x="1306" d="M154 514v12v906q0 29 17 42t40 13q53 0 53 -55v-592q76 84 179.5 134t226.5 50q104 0 197.5 -41t162 -109.5t109.5 -162t41 -197.5q0 -109 -41 -202t-109.5 -163.5t-162 -110.5t-197.5 -40q-109 0 -202 40t-164 110.5t-110.5 164t-39.5 201.5zM264 514q0 -84 32 -155.5 t87 -126t129 -85t158 -30.5t157.5 30.5t128 85t85 126t30.5 155.5t-30.5 157.5t-85 128t-128 85t-157.5 30.5t-158 -30.5t-129 -85t-87 -128t-32 -157.5z" />
<glyph unicode="c" horiz-adv-x="1339" d="M178 512q0 104 40 197.5t109.5 163t163 110.5t199.5 41q123 0 231.5 -54.5t178.5 -158.5q14 -14 13 -35.5t-19 -36.5q-23 -14 -47.5 -13t-38.5 24q-53 76 -137.5 120.5t-180.5 44.5q-82 0 -155.5 -31.5t-129 -87t-87 -129t-31.5 -155.5t31.5 -153.5t87 -125t129 -84 t155.5 -30.5q111 0 204 52t142 157q14 23 39 27.5t43 -9.5q20 -6 26.5 -27.5t-7.5 -44.5q-68 -125 -185.5 -199.5t-261.5 -74.5q-106 0 -199.5 40t-163 109.5t-109.5 163t-40 199.5z" />
<glyph unicode="d" horiz-adv-x="1249" d="M90 508q0 106 40 200.5t109.5 163t163 108.5t197.5 40q119 0 221.5 -55.5t173.5 -137.5v594q0 23 15.5 39.5t38.5 16.5q29 0 42 -16.5t13 -39.5v-903v-10q0 -106 -40 -199.5t-108.5 -162t-159.5 -108.5t-196 -40q-104 0 -197.5 40t-163 108.5t-109.5 161.5t-40 200z M199 508q0 -82 31.5 -154.5t87 -128t128 -87.5t154.5 -32t154.5 32t126 87.5t84 128t30.5 154.5t-30.5 154.5t-84 126t-126 84t-154.5 30.5t-154.5 -30.5t-128 -84t-87 -126t-31.5 -154.5z" />
<glyph unicode="e" horiz-adv-x="1208" d="M125 451q-1 19 -1 37q0 84 22 164q28 96 98 173q61 82 147.5 127.5t190.5 53.5q33 5 66 4q68 0 130 -20q92 -30 174 -93q20 -20 40 -39.5t36 -42.5q4 -8 9 -15t5 -22q0 -6 -5 -17t-9 -18q-162 -137 -297 -249q-57 -49 -114.5 -97.5t-105.5 -88.5t-83 -69.5t-47 -41.5 q63 -51 139 -72q54 -15 108 -15l44 2q76 8 144.5 43t119.5 97q12 20 34.5 21t45.5 -13q14 -12 18 -36.5t-6 -43.5q-70 -80 -160 -125t-187 -54q-24 -2 -48 -2q-73 1 -147 21q-98 28 -179 95q-76 61 -122 147t-60 189zM236 506q0 -59 18 -115.5t53 -111.5q16 16 61.5 56 t106 91t129 107.5t130 107.5t108.5 91t65 56q-8 6 -14 8.5t-12 8.5q-61 55 -135 77q-58 17 -122 16q-18 0 -36 -1q-74 -6 -144.5 -45t-117.5 -100q-47 -53 -68.5 -114.5t-21.5 -131.5z" />
<glyph unicode="f" horiz-adv-x="864" d="M182 55v877v10q0 100 41 189.5t109.5 157t161 106.5t196.5 39q18 0 35.5 -17.5t17.5 -36.5q0 -20 -17 -37.5t-36 -17.5q-74 0 -139.5 -24.5t-116.5 -68.5t-85 -102.5t-44 -125.5h367q27 0 41 -18.5t14 -43.5q0 -20 -14.5 -37.5t-40.5 -17.5h-375v-832q0 -18 -14.5 -35.5 t-40.5 -17.5q-18 0 -39 17.5t-21 35.5z" />
<glyph unicode="g" horiz-adv-x="1339" d="M141 520q0 106 41 201.5t110.5 166t164 111.5t202.5 41q109 0 203 -41t165 -111.5t112 -165.5t41 -202v-428q0 -109 -41 -203t-112 -163.5t-165 -110.5t-203 -41q-29 0 -46 16.5t-17 38.5q0 20 17.5 38t45.5 18q84 0 157 32.5t127 88t85 129t31 157.5v105 q-70 -92 -174.5 -144.5t-225.5 -52.5q-109 0 -203 41t-163.5 111.5t-110.5 165t-41 202.5zM252 520q0 -84 32.5 -157.5t88 -129t129 -88t157.5 -32.5q80 0 152 30.5t125 83t86 121t37 144.5v36v11q-4 80 -37 149.5t-86 119.5t-125 80t-152 30q-84 0 -157.5 -31t-129 -85 t-88 -127t-32.5 -155z" />
<glyph unicode="h" horiz-adv-x="1441" d="M188 53v1391q0 20 13.5 37.5t42.5 17.5q23 0 40 -17.5t17 -37.5v-606q70 84 176.5 135t233.5 51q113 0 210 -39t168.5 -107.5t112.5 -160.5t41 -197v-467q0 -20 -17.5 -37.5t-39.5 -17.5q-29 0 -42.5 17.5t-13.5 37.5v467q0 84 -32.5 156t-90 124t-133 81.5t-163.5 29.5 q-84 0 -159 -29.5t-130 -81.5t-88 -124t-33 -156v-10v-457q0 -20 -14.5 -37.5t-42.5 -17.5q-20 0 -38 17.5t-18 37.5z" />
<glyph unicode="i" horiz-adv-x="544" d="M217 61v906q0 59 59 59q18 0 37 -15.5t19 -43.5v-906q0 -23 -18.5 -40t-37.5 -17q-29 0 -44 17.5t-15 39.5z" />
<glyph unicode="j" horiz-adv-x="729" d="M-59 -492q0 23 18 41.5t41 18.5q88 0 168 35t138.5 93t93 137t34.5 169v959q0 29 18.5 44t41.5 15t41 -15.5t18 -43.5v-959q0 -115 -43 -215t-118 -176t-176 -119t-216 -43q-23 0 -41 18t-18 41z" />
<glyph unicode="k" horiz-adv-x="897" d="M143 61v1346q0 20 13.5 36.5t42.5 16.5q20 0 36.5 -16.5t16.5 -36.5v-776q20 80 66.5 150.5t110 122.5t143 83t167.5 31q27 0 40.5 -16.5t13.5 -36.5q0 -29 -13.5 -47.5t-40.5 -18.5q-82 0 -152.5 -29.5t-122.5 -82t-83 -123t-31 -152.5q0 -80 31 -152.5t83 -127 t122.5 -86t152.5 -31.5q27 0 40.5 -16.5t13.5 -37.5q0 -23 -13.5 -39t-40.5 -16q-88 0 -167.5 28.5t-143 80t-110 121t-66.5 151.5v-326q0 -29 -16.5 -46t-36.5 -17q-29 0 -42.5 17.5t-13.5 45.5z" />
<glyph unicode="l" horiz-adv-x="385" d="M133 59v1332q0 55 53 55q20 0 37 -13.5t17 -41.5v-1332q0 -20 -16.5 -36.5t-37.5 -16.5q-27 0 -40 16.5t-13 36.5z" />
<glyph unicode="m" horiz-adv-x="2070" d="M139 55q0 201 71 378t191.5 309t282.5 209t346 77t349 -77t288 -209t194.5 -309t71.5 -378q0 -23 -17.5 -39t-45.5 -16q-23 0 -39 16.5t-16 38.5q0 170 -56.5 321.5t-154 267.5t-228.5 188.5t-280 85.5v-846q0 -27 -18.5 -41.5t-47.5 -14.5q-18 0 -34.5 14.5t-16.5 41.5 v846q-152 -12 -284 -85t-231 -189t-156.5 -267.5t-57.5 -321.5q0 -23 -13.5 -39t-41.5 -16q-23 0 -39.5 16.5t-16.5 38.5z" />
<glyph unicode="n" horiz-adv-x="1368" d="M178 61v916q0 29 18.5 42t47.5 13q197 0 374 -75.5t309 -208t209.5 -309.5t77.5 -378q0 -20 -18 -37.5t-47 -17.5q-20 0 -37.5 17.5t-17.5 37.5q0 170 -61.5 322t-169 268.5t-253 188t-311.5 82.5v-861q0 -29 -17.5 -42t-37.5 -13q-29 0 -47.5 13.5t-18.5 41.5z" />
<glyph unicode="o" horiz-adv-x="1370" d="M147 518q0 109 43 206t117 171t173.5 117t213.5 43q111 0 209 -40t176 -118q74 -80 116 -177t42 -202q0 -113 -43 -212t-116.5 -173t-172 -117t-211.5 -43q-115 0 -214 43t-173 117t-117 173t-43 212zM272 518q0 -88 33 -166t89.5 -136t133 -93t166.5 -35q88 0 166 35 t136.5 93t92 136t33.5 166q0 78 -34.5 155t-94.5 136q-59 66 -136 98.5t-163 32.5q-90 0 -166.5 -34t-133 -92t-89.5 -135t-33 -161z" />
<glyph unicode="p" horiz-adv-x="1351" d="M160 -369v885v8q2 104 45 195.5t112.5 159t162.5 106.5t198 39q104 0 196.5 -35t163.5 -112q76 -76 117 -169.5t41 -191.5q0 -106 -41 -200.5t-111.5 -164t-165 -110.5t-200.5 -41q-127 0 -228.5 51t-177.5 144v-564q0 -23 -14 -40t-43 -17q-23 0 -39 17.5t-16 39.5z M272 516q0 -84 32 -157.5t87 -129t129 -87t158 -31.5q82 0 154.5 31.5t127 87t85 129t30.5 157.5q0 78 -27.5 149.5t-84.5 129.5q-120 120 -282 120h-3q-84 0 -158 -31.5t-129 -87t-87 -128t-32 -152.5z" />
<glyph unicode="q" horiz-adv-x="1282" d="M117 508q0 106 40 200.5t110.5 164t163.5 110.5t202 41q104 0 196.5 -39t161.5 -108q70 -70 110 -161t48 -190v-10v-885q0 -29 -18.5 -42t-47.5 -13q-20 0 -37.5 13.5t-17.5 41.5v564q-70 -92 -174 -143.5t-221 -51.5q-109 0 -202 41t-163.5 109.5t-110.5 160.5t-40 197z M227 508q0 -84 32 -155.5t87 -126t129 -85t158 -30.5q82 0 154.5 30.5t126 85t84 126t30.5 155.5t-27.5 156.5t-82.5 128.5q-61 55 -135 87.5t-150 32.5q-84 0 -158 -32.5t-129 -88t-87 -129t-32 -155.5z" />
<glyph unicode="r" horiz-adv-x="1069" d="M156 55v451v463q0 20 18 37.5t47 17.5q20 0 37.5 -17.5t17.5 -37.5v-140q70 92 175.5 143.5t230.5 51.5q49 0 97 -8t98 -29l55 -18l8 -11l29 -18q27 -12 26 -45q0 -8 -1 -14.5t-7 -14.5q-14 -20 -37.5 -26t-46.5 8l-18 10l-8 8l-37 19q-41 14 -79 21t-79 7 q-84 0 -157.5 -30.5t-129 -86t-87.5 -130t-32 -160.5v-451q0 -23 -17 -40t-38 -17q-29 0 -47 17.5t-18 39.5z" />
<glyph unicode="s" horiz-adv-x="1236" d="M169 284q5 23 28 38q20 12 39.5 7t33.5 -26q53 -90 144.5 -141t201.5 -51q90 0 173 39.5t139 115.5q-16 10 -55 36t-91.5 59.5t-115 73.5t-125.5 81q-147 94 -326 207q-29 12 -29 45q0 8 1 14t10 13q0 8 1 14t7 14q70 96 179.5 148.5t231.5 52.5q123 0 238 -59.5 t182 -169.5q14 -12 9 -35t-27 -37q-14 -14 -37 -9t-35 27q-55 76 -144 124t-186 48q-174 0 -301 -127l721 -456q30 -19 30 -43q0 -14 -11 -31q-70 -123 -185.5 -189.5t-253.5 -66.5q-137 0 -252.5 63.5t-185.5 174.5q-14 23 -9 46z" />
<glyph unicode="t" horiz-adv-x="884" d="M147 504v874q0 29 17.5 42.5t46.5 13.5q20 0 36.5 -13.5t16.5 -42.5v-368h406q29 0 42 -17.5t13 -46.5q0 -20 -13.5 -36.5t-41.5 -16.5h-406v-397q0 -78 31 -147.5t83 -123t122.5 -85t150.5 -31.5q29 0 46.5 -16.5t17.5 -39.5q0 -20 -17.5 -36.5t-46.5 -16.5 q-102 0 -193 40t-160 107.5t-110 159.5t-41 197z" />
<glyph unicode="u" horiz-adv-x="1445" d="M207 508v459q0 20 16.5 37.5t38.5 17.5q29 0 46.5 -17.5t17.5 -37.5v-459q0 -84 30.5 -155.5t84 -125t125 -84t155.5 -30.5q82 0 154.5 30.5t126 84t84 125t30.5 155.5l8 467q0 23 13.5 39t42.5 16q23 0 39 -16.5t16 -38.5v-467q0 -106 -40 -198.5t-109.5 -161 t-164 -107.5t-200.5 -39t-200.5 39t-164 107.5t-109.5 160.5t-40 199z" />
<glyph unicode="v" horiz-adv-x="1300" d="M158 965q0 23 17.5 39t45.5 16q23 0 38 -16.5t15 -38.5q0 -180 54.5 -334t156.5 -271q104 -111 236.5 -172t277.5 -73v850q0 27 18 41t36 14q29 0 47 -14.5t18 -40.5v-906q0 -29 -18.5 -42t-46.5 -13q-188 0 -351 73t-284 202t-190.5 304t-69.5 382z" />
<glyph unicode="w" horiz-adv-x="2113" d="M160 971q0 29 17.5 41t45.5 12q20 0 38 -12.5t18 -40.5q0 -172 56 -323.5t154.5 -266.5t230.5 -186.5t284 -85.5v852q0 23 17 39t46 16q20 0 36.5 -16.5t16.5 -38.5v-852q152 14 285 85.5t232.5 186.5t156.5 266.5t57 323.5q1 53 56 53q20 0 38.5 -12.5t18.5 -40.5 q0 -203 -70.5 -380t-192.5 -308t-286 -207t-348 -76q-186 0 -351 76t-289 207t-195.5 308t-71.5 380z" />
<glyph unicode="x" horiz-adv-x="1327" d="M147 51q0 57 54 58q76 0 146.5 28.5t124.5 79.5t89 117.5t41 144.5v27v39q-6 76 -41 143.5t-89 118.5t-125 79.5t-146 28.5q-53 0 -54 58q0 20 13.5 36.5t40.5 16.5q74 0 142.5 -19.5t127.5 -56.5t106.5 -88t77.5 -112q63 125 186.5 200.5t270.5 75.5q29 0 42 -16.5 t13 -36.5q0 -58 -55 -58q-78 0 -146.5 -28.5t-123 -79.5t-89 -118.5t-40.5 -143.5v-39v-27q6 -78 40.5 -144.5t89 -117.5t123 -79.5t146.5 -28.5q55 0 55 -58q0 -20 -13 -36.5t-42 -16.5q-147 0 -270 76t-187 200q-31 -61 -78 -112t-106 -88t-128 -56.5t-142 -19.5 q-27 0 -40.5 16.5t-13.5 36.5z" />
<glyph unicode="y" horiz-adv-x="1435" d="M176 514v440q0 20 16.5 37t36.5 17q29 0 42.5 -16.5t13.5 -37.5v-440q0 -86 30.5 -158.5t84 -127t126 -84t156.5 -29.5t156.5 29.5t126 84t83 127t29.5 158.5v440q0 20 16.5 37t36.5 17q23 0 39.5 -16.5t16.5 -37.5l10 -794q0 -113 -41 -210t-109.5 -169t-160.5 -113 t-195 -41q-53 0 -53 54q0 20 13.5 37.5t39.5 17.5q82 0 152.5 33.5t123 91t82 134.5t29.5 165v26q-66 -82 -169 -131t-226 -49q-104 0 -196.5 40t-161 108.5t-108.5 162t-40 197.5z" />
<glyph unicode="z" horiz-adv-x="1492" d="M240 14v9v10v8v8q0 8 10 8v9h8v10l711 684q-101 -19 -200 -19q-7 1 -15 1q-106 2 -213 36q-78 20 -146.5 58t-136.5 86q-14 12 -17 34.5t17 44.5q16 20 36 20q16 0 34 -13q53 -47 115.5 -80t134.5 -51q99 -28 198 -28q70 -1 138 13q168 32 294 146h9h8v10h10h8h10h11 l6 -10h10v-7h8v-8h8v-12v-8v-10v-9v-8v-8h-8v-8l-710 -694q95 19 195 19h11q106 -1 211 -28q78 -29 152 -63.5t133 -87.5q20 -14 21.5 -37t-13.5 -43q-14 -14 -36.5 -17.5t-43.5 17.5q-53 41 -113.5 72.5t-125.5 50.5q-100 28 -200 28q-68 0 -137 -13q-169 -32 -304 -138v-8 h-9q-2 0 -4 -2q-4 -4 -4 -9h-8h-8h-10h-9v11h-12l-6 8l-8 8v10h-10z" />
<glyph unicode="{" horiz-adv-x="788" d="M135 580q0 29 16.5 47t41.5 18h4q35 0 59 29q27 31 27 69l-2 340q0 72 24.5 134.5t66.5 109.5t98 75t120 28q25 0 42 -19.5t17 -46.5t-17.5 -46.5t-41.5 -19.5q-41 0 -76 -17t-60.5 -46t-41 -68t-15.5 -84v-340q0 -96 -59 -161l-2 -2l2 -2q59 -66 59 -162v-340 q0 -45 15.5 -84t41 -68.5t60.5 -46t76 -16.5q25 0 41 -18.5t16 -47.5q0 -27 -16.5 -45t-40.5 -18q-63 0 -119.5 26.5t-98.5 73.5t-66.5 109.5t-24.5 134.5v340q0 41 -25 71q-27 27 -59 27h-4q-25 0 -41 21q-16 20 -17 45z" />
<glyph unicode="|" horiz-adv-x="614" d="M244 -92l10 1644q0 29 17.5 43.5t39.5 14.5q23 0 40.5 -17.5t17.5 -40.5l-11 -1644q0 -23 -14 -40.5t-43 -17.5q-23 0 -40 17.5t-17 40.5z" />
<glyph unicode="}" horiz-adv-x="815" d="M147 -199q0 27 16.5 45.5t41.5 18.5q39 0 74.5 16.5t61.5 46t41 68.5t15 84v340q0 94 60 164q2 0 2 2q-61 72 -62 164l2 337q0 45 -15 84t-42 69t-62.5 47.5t-74.5 17.5q-23 0 -40.5 18t-17.5 45q0 29 17.5 47.5t40.5 18.5q63 0 120.5 -28t98.5 -75t65.5 -109.5 t24.5 -134.5v-337q0 -45 27 -72q10 -14 25.5 -20.5t31.5 -8.5h4q25 0 43 -18q16 -20 17 -47q0 -27 -17.5 -46.5t-40.5 -19.5q-2 0 -3 1t-3 1q-37 -4 -59 -28q-27 -31 -27 -72l2 -340q0 -72 -24.5 -134.5t-66.5 -109.5t-98.5 -73.5t-119.5 -26.5q-25 0 -41.5 18.5t-16.5 46.5 z" />
<glyph unicode="~" horiz-adv-x="2213" d="M175 605q1 24 18 40q111 106 230.5 161.5t246.5 53.5q61 0 114.5 -8t107.5 -32.5t113.5 -68.5t133.5 -118q172 -168 370 -172q102 -2 202.5 44t195.5 138q16 16 39.5 16t40.5 -16q16 -16 15 -39.5t-17 -40.5q-111 -106 -231 -161.5t-247 -53.5q-121 2 -234.5 56.5 t-215.5 152.5l-19 18q-172 168 -370 173q-102 2 -202.5 -44.5t-195.5 -138.5q-16 -16 -39.5 -16t-40.5 16q-16 16 -15 40z" />
<glyph unicode="&#xa1;" horiz-adv-x="749" d="M125 786q0 49 19.5 93.5t52 77t76.5 52t94 19.5q49 0 93 -19.5t76.5 -52t52 -76.5t19.5 -94q0 -86 -53 -147t-135 -84v-909q0 -18 -17.5 -36t-35.5 -18q-27 0 -41.5 17.5t-14.5 36.5v909q-78 23 -132 84t-54 147zM233 786q0 -53 37 -93t97 -40q53 0 93 40t40 93 q0 61 -40 97.5t-93 36.5q-59 0 -96.5 -36t-37.5 -98z" />
<glyph unicode="&#xa2;" horiz-adv-x="1386" d="M205 512q0 106 40 199.5t109.5 163t162.5 109.5t200 40q100 0 180 -33l90 164q14 27 39 32t47 -7q20 -10 28.5 -37t-3.5 -49l-88 -162q35 -25 64.5 -54.5t51.5 -66.5q14 -12 13.5 -33.5t-19.5 -38.5q-23 -12 -47 -11t-39 24q-33 43 -80 82l-381 -689q68 -25 144 -24 q111 0 204 52t142 157q14 23 39 26.5t43 -10.5q20 -6 26.5 -27.5t-8.5 -44.5q-68 -125 -185.5 -199.5t-260.5 -74.5q-106 0 -201 41l-94 -170q-12 -20 -34.5 -29.5t-51.5 6.5q-20 10 -28.5 37t3.5 49l97 170q-92 72 -147.5 177.5t-55.5 230.5zM313 535q0 -94 45 -179.5 t113 -138.5l377 666q-35 23 -71 29t-68 6q-82 0 -154 -29t-126 -80t-85 -122t-31 -152z" />
<glyph unicode="&#xa3;" horiz-adv-x="1628" d="M207 559q0 23 19.5 42.5t43.5 16.5h183q-4 25 -6.5 50.5t-2.5 50.5v102h-127q-31 2 -47 21.5t-16 46.5q0 23 19.5 42t43.5 17h127v432q0 20 16.5 37t37.5 17q27 0 40 -16.5t13 -37.5v-432h119q23 -2 42 -15t19 -48q2 -23 -17.5 -42.5t-43.5 -19.5l-119 -2v-102 q0 -25 2 -50.5t6 -50.5l207 3q23 -2 42 -16.5t19 -49.5q2 -23 -17 -42t-44 -19l-170 -2q33 -84 90 -155t131 -121t161 -78.5t183 -28.5h299q20 0 36.5 -13.5t16.5 -40.5q0 -20 -16 -36.5t-37 -16.5h-299h-10q-117 2 -222.5 40t-192.5 102.5t-152.5 153.5t-100.5 194h-213 q-31 2 -47 21t-16 46z" />
<glyph unicode="&#xa5;" horiz-adv-x="1890" d="M223 1049q0 184 86 344q31 43 76 26q23 -14 33 -37.5t-4 -46.5q-35 -66 -55.5 -137.5t-20.5 -148.5q0 -125 48 -233.5t131 -189.5t193.5 -127t235.5 -46t233.5 46t189.5 127t127 189.5t46 233.5q0 78 -19.5 150.5t-56.5 143.5q-6 23 1.5 42.5t29.5 33.5q20 14 41 9 t35 -27q43 -78 63.5 -169t20.5 -183q0 -139 -50.5 -264.5t-138.5 -221.5t-207.5 -156.5t-259.5 -70.5l177 2q23 -2 42 -16.5t19 -49.5q2 -23 -17.5 -42t-43.5 -19l-177 -2v-203l175 2q23 -2 42 -16.5t19 -48.5q2 -23 -17.5 -42.5t-43.5 -19.5l-175 -2v-264q0 -29 -16 -43 t-39 -14q-57 0 -57 57v264h-184q-31 2 -47.5 21.5t-16.5 46.5q0 23 19.5 42t44.5 17h184v203h-182q-31 2 -47.5 21.5t-16.5 45.5q0 23 19.5 42.5t44.5 17.5h182q-139 10 -260 70.5t-211 156.5t-142.5 221t-52.5 265z" />
<glyph unicode="&#xa6;" horiz-adv-x="518" d="M203 555q2 23 16 41t47 18q20 2 39 -17t19 -42l2 -494q-2 -29 -20.5 -45t-43.5 -16q-20 0 -39.5 19.5t-17.5 41.5zM203 1374q2 23 16 41.5t47 18.5q20 2 39 -17.5t19 -42.5l2 -508q-2 -29 -20.5 -45t-43.5 -16q-20 0 -39.5 19.5t-17.5 41.5z" />
<glyph unicode="&#xa7;" horiz-adv-x="1329" d="M250 502q0 88 32.5 167t94.5 140q59 55 119 84q-45 41 -71 95t-26 118q0 59 22.5 111.5t61.5 91.5t91.5 61.5t111.5 22.5q119 0 192.5 -71t73.5 -192q0 -23 -17 -40t-42 -17q-23 0 -40 17.5t-17 39.5q0 72 -39 109t-111 37t-120 -49t-48 -121t48 -120t120 -48q2 0 3 -1 t5 -1q84 0 162 -34t139 -93q127 -127 127 -307q0 -182 -127 -309q-59 -55 -118 -84q45 -41 70.5 -95.5t25.5 -117.5q0 -59 -22.5 -111.5t-61.5 -91.5t-91.5 -61.5t-111.5 -22.5q-119 0 -198.5 62.5t-79.5 183.5q0 23 17 40t40 17q25 0 42 -17.5t17 -39.5q0 -72 45 -100.5 t117 -28.5t121 49t49 121t-49 119.5t-121 47.5q-6 0 -10 3q-84 2 -162 34.5t-137 92.5q-127 127 -127 309zM367 502q0 -68 25.5 -126.5t68.5 -101.5t101 -67.5t124 -24.5t124 24.5t101 67.5t69 101.5t26 126.5q0 66 -26 124t-69 101t-101 67.5t-124 24.5t-124 -24.5 t-101 -67.5t-68.5 -101.5t-25.5 -123.5z" />
<glyph unicode="&#xa8;" horiz-adv-x="1118" d="M166 1028q0 45 17.5 85t46 70.5t68.5 48t87 17.5q53 0 98 -22.5t74 -59.5q31 37 75 59.5t97 22.5q47 0 87 -17.5t69.5 -48t47 -70.5t17.5 -85q0 -47 -17.5 -87t-47 -68.5t-69.5 -46t-87 -17.5q-53 0 -97 21.5t-75 58.5q-29 -37 -74 -58.5t-98 -21.5q-47 0 -87 17.5 t-68.5 46t-46 68.5t-17.5 87zM262 1028q0 -49 37 -86t86 -37q51 0 88 37t37 86q0 47 -37 84t-88 37q-49 0 -86 -37t-37 -84zM606 1028q0 -49 37 -86t86 -37q51 0 88 37t37 86q0 47 -37 84t-88 37q-49 0 -86 -37t-37 -84z" />
<glyph unicode="&#xa9;" horiz-adv-x="1708" d="M121 717q0 147 56 277t153.5 228.5t228 155t277.5 56.5q152 0 283.5 -56.5t230 -155t155 -228.5t56.5 -277t-56.5 -277.5t-155 -227.5t-230.5 -153.5t-283 -56.5q-147 0 -277.5 56.5t-228 153.5t-153.5 227t-56 278zM227 717q0 -127 49.5 -238.5t132.5 -193.5t193.5 -129 t233.5 -47q127 0 239.5 47t196.5 129t133 193.5t49 238.5q0 125 -49 235.5t-133 193.5t-196.5 131t-239.5 48q-123 0 -233.5 -48t-193.5 -131t-132.5 -193.5t-49.5 -235.5zM365 711q0 96 36.5 181t100 149.5t150.5 101.5t186 37q111 0 211 -50.5t163 -144.5 q12 -14 11.5 -33.5t-17.5 -33.5q-18 -12 -41.5 -11.5t-36.5 21.5q-49 70 -126.5 110.5t-163.5 40.5q-78 0 -145.5 -29.5t-118 -79.5t-80 -117t-29.5 -142q0 -78 29.5 -144.5t80 -116t118 -77t145.5 -27.5q102 0 186 48t131 145q12 20 34.5 24t39.5 -8q18 -4 24 -25t-6 -41 q-63 -115 -170.5 -183t-238.5 -68q-98 0 -185.5 36.5t-151 100t-100 150.5t-36.5 186z" />
<glyph unicode="&#xaa;" horiz-adv-x="1024" d="M137 1044q0 76 29 142.5t80 117t119.5 79t146.5 28.5t146.5 -28.5t118.5 -79t80 -117t30 -142.5v-22v-299q0 -23 -14.5 -31t-34.5 -8q-14 0 -25.5 8t-11.5 31v86q-53 -66 -128 -102.5t-161 -36.5q-78 0 -146.5 28.5t-119.5 79.5t-80 120t-29 146zM225 1044 q0 -61 22.5 -114t60.5 -94t90.5 -64.5t113.5 -23.5q57 0 108.5 21.5t90.5 58t62.5 87t27.5 107.5v6v8v8q0 59 -22.5 112.5t-61.5 92.5t-92.5 61.5t-112.5 22.5q-61 0 -113.5 -22.5t-90.5 -61.5t-60.5 -92t-22.5 -113z" />
<glyph unicode="&#xab;" horiz-adv-x="1085" d="M225 612q0 154 62.5 293.5t173.5 243.5q20 16 45.5 15t42.5 -19q18 -20 16 -46t-18 -44q-94 -84 -144.5 -200t-50.5 -243q0 -129 50.5 -243.5t144.5 -200.5q16 -18 18 -44t-16 -44q-16 -20 -42 -20.5t-46 18.5q-111 102 -173.5 241.5t-62.5 292.5zM565 606q0 78 26.5 153 t80.5 136q16 25 34.5 43t41.5 35q20 16 45.5 12t42.5 -27q16 -20 13 -43.5t-24 -40.5q-37 -31 -59 -55q-74 -92 -74 -213q0 -125 74 -211q25 -35 59 -53q20 -16 23.5 -43t-12.5 -47t-42 -25.5t-46 11.5q-23 18 -41.5 37.5t-34.5 39.5q-53 61 -80 136t-27 155z" />
<glyph unicode="&#xad;" d="M111 674q0 23 19.5 42t43.5 17l502 2q23 -2 42 -16t19 -49q2 -23 -17.5 -42.5t-43.5 -19.5l-502 -2q-31 2 -47 21.5t-16 46.5z" />
<glyph unicode="&#xae;" horiz-adv-x="1615" d="M111 719q0 145 55 274t151.5 225.5t225.5 151.5t276 55t276.5 -55t225.5 -151.5t151.5 -225.5t55.5 -274q0 -147 -55.5 -276.5t-151.5 -225.5t-225 -151.5t-277 -55.5q-147 0 -276 55.5t-225.5 151.5t-151.5 225t-55 277zM219 719q0 -125 47 -234.5t128 -190.5 t190.5 -128t234.5 -47q123 0 232.5 47t191.5 128t129 190.5t47 234.5q0 123 -47 232.5t-129 191.5t-191.5 129t-232.5 47q-125 0 -234.5 -47t-190.5 -129t-128 -191.5t-47 -232.5zM502 324v610q0 12 2 16v170q0 23 15.5 38.5t37.5 15.5l238 2q86 0 161.5 -29t131 -78 t88 -115.5t32.5 -140.5q0 -156 -133 -258q-90 -70 -215 -90q53 -18 104.5 -34.5t92.5 -31.5q47 -16 88 -28q37 -14 37 -54q0 -10 -2 -16q-8 -23 -27.5 -32t-42.5 -3l-502 168v-110q0 -23 -15 -39.5t-38 -16.5t-38 16.5t-15 39.5zM612 561h125q84 0 154 20.5t119 57.5 q92 74 92 174q0 51 -24.5 98t-66.5 81t-97.5 54.5t-118.5 20.5h-183v-506z" />
<glyph unicode="&#xaf;" horiz-adv-x="1662" d="M164 1194q0 23 20.5 38t48.5 15h1141q29 0 49.5 -15t20.5 -38t-20.5 -37t-49.5 -14h-1141q-29 0 -49 14t-20 37z" />
<glyph unicode="&#xb0;" horiz-adv-x="958" d="M190 1032q0 57 21.5 109.5t60.5 92.5t91.5 62.5t111.5 22.5q61 0 113.5 -22.5t90.5 -62.5t60.5 -92t22.5 -110q0 -59 -22.5 -111.5t-60.5 -91t-90 -60t-114 -21.5q-59 0 -111.5 21.5t-91.5 60t-60.5 91t-21.5 111.5zM299 1034q0 -35 14.5 -66.5t39 -56t56 -39t66.5 -14.5 t67.5 14.5t57.5 39t39 56t14 66.5q0 33 -14 64.5t-39 56.5t-57.5 40t-67.5 15t-66.5 -15t-56 -40t-39 -56.5t-14.5 -64.5z" />
<glyph unicode="&#xb1;" horiz-adv-x="1443" d="M242 395q0 23 19.5 43.5t43.5 16.5l346 2v235l-346 -2q-31 2 -47 21.5t-16 46.5q0 23 19.5 42t43.5 17l346 2v371q0 29 17.5 43t40.5 14t40 -17.5t17 -39.5v-371h348q23 -2 42.5 -16.5t19.5 -48.5q2 -23 -17.5 -42.5t-44.5 -19.5h-348v-235l348 2q23 -4 42.5 -17.5 t19.5 -48.5q2 -23 -17.5 -42t-44.5 -19l-809 -2q-31 2 -47 20.5t-16 44.5z" />
<glyph unicode="&#xb2;" horiz-adv-x="958" d="M167 790.5q3 22.5 19 36.5l508 437q-84 66 -184 65q-66 2 -126 -24.5t-110 -77.5q-16 -16 -37.5 -17.5t-37.5 15.5q-16 16 -16.5 38.5t16.5 39.5q66 66 145.5 101.5t165.5 33.5q86 0 164 -36t139 -102q23 -23 12 -53q0 -2 -1 -2t-1 -2v-2q-4 -4 -7 -10t-7 -10l-346 -297 q104 10 202.5 -13t184.5 -82q18 -12 22.5 -34.5t-8.5 -38.5q-12 -20 -33.5 -24.5t-39.5 7.5q-59 39 -127 59.5t-138.5 21.5t-140.5 -19.5t-133 -59.5q-18 -12 -43 -6q-18 4 -29 17q-16 16 -13 38.5z" />
<glyph unicode="&#xb3;" horiz-adv-x="870" d="M193 782q0 23 15 38.5t38 15.5l160 2q88 0 153.5 54t85.5 136h-399q-23 0 -38 15.5t-15 37.5q0 23 15 38.5t38 15.5h399q-20 82 -85.5 136t-153.5 54h-160q-23 0 -38 15.5t-15 37.5q0 23 15 39.5t38 16.5h160q74 0 137 -28t111 -76t76 -111.5t28 -137.5t-28 -137 t-76 -111.5t-111.5 -76t-136.5 -27.5h-158q-23 -2 -39 14.5t-16 38.5z" />
<glyph unicode="&#xb4;" horiz-adv-x="1390" d="M172 520q0 82 25.5 157t71.5 137.5t109.5 109.5t139.5 73q98 51 153.5 148.5t43.5 208.5q-2 23 13 41t34 22q25 2 37 -14.5t16 -38.5q10 -96 -19.5 -183t-88.5 -155q104 -4 195 -45t158.5 -109.5t106.5 -159.5t39 -192v-444q0 -29 -18.5 -42.5t-46.5 -13.5 q-20 0 -37 13.5t-17 42.5v119q-72 -90 -175 -141.5t-222 -51.5q-109 0 -203 40t-164.5 110.5t-110.5 165t-40 202.5zM293 520q0 -84 30.5 -158.5t84 -130t126 -88t156.5 -32.5q80 0 149.5 29.5t124 80.5t87 121t36.5 147v31q0 82 -30.5 155t-84.5 126t-127 85t-155 32 q-84 0 -156.5 -32t-126 -85t-84 -126t-30.5 -155z" />
<glyph unicode="&#xb5;" horiz-adv-x="1425" d="M199 -420v1391q0 20 17 37.5t38 17.5q29 0 43 -17.5t14 -37.5v-457v-10q0 -84 33 -156t88 -124t130 -81.5t159 -29.5q88 0 164 29.5t133 81.5t90 124t33 156v467q0 20 13 37.5t42 17.5q23 0 40 -17.5t17 -37.5v-467q0 -104 -41 -196.5t-112.5 -161t-168.5 -107.5 t-210 -39q-127 0 -233.5 51t-176.5 135v-606q0 -20 -17.5 -37.5t-39.5 -17.5q-29 0 -42 17.5t-13 37.5z" />
<glyph unicode="&#xb6;" horiz-adv-x="1509" d="M215 901q0 106 41 201.5t111.5 168t166 118t203.5 49.5h24.5t57.5 -1t79 -1h89h238q29 0 43 -17.5t14 -40.5t-17.5 -40t-39.5 -17h-107v-1528q0 -23 -13 -40t-44 -17q-23 0 -40 17.5t-17 39.5v1528h-187l2 -1518q0 -23 -14 -40t-43 -17q-23 0 -40 17.5t-17 39.5l-3 557 q-102 10 -191 57.5t-154.5 119t-103.5 166t-38 198.5zM322 907q0 -84 29.5 -158.5t79.5 -131t118.5 -89t148.5 -32.5v817q-80 0 -148.5 -34t-118.5 -89t-79.5 -129t-29.5 -154z" />
<glyph unicode="&#xb9;" horiz-adv-x="737" d="M299 1374q0 25 15.5 40.5t41.5 15.5q23 0 39.5 -16.5t16.5 -39.5l2 -751q0 -23 -16.5 -38.5t-41.5 -17.5q-23 0 -39 16.5t-16 39.5z" />
<glyph unicode="&#xba;" horiz-adv-x="1024" d="M225 1032q0 57 21.5 109.5t60.5 92.5t91.5 62.5t111.5 22.5q61 0 113.5 -22.5t90.5 -62.5t60.5 -92t22.5 -110q0 -59 -22.5 -111.5t-60.5 -91t-90.5 -60t-113.5 -21.5q-59 0 -111.5 21.5t-91.5 60t-60.5 91t-21.5 111.5zM334 1034q0 -35 14 -66.5t39 -56t56.5 -39 t66.5 -14.5t67.5 14.5t57 39t39 56t14.5 66.5q0 33 -14.5 64.5t-39 56.5t-57 40t-67.5 15t-66.5 -15t-56.5 -40t-39 -56.5t-14 -64.5z" />
<glyph unicode="&#xbb;" horiz-adv-x="1083" d="M234.5 929.5q-3.5 26.5 13.5 47.5q16 20 41.5 25.5t46.5 -11.5q23 -18 41.5 -38t34.5 -40q53 -61 79.5 -136t26.5 -154q0 -78 -26.5 -153t-79.5 -136q-16 -25 -35 -43.5t-41 -34.5q-20 -16 -46 -12t-42 26q-16 20 -13 44t23 40q37 31 59 56q74 92 74 213q0 125 -74 211 q-25 35 -59 53q-20 16 -23.5 42.5zM518.5 130q1.5 26 18.5 44q94 84 144 199.5t50 242.5q0 129 -50 244t-144 201q-16 18 -18.5 43.5t16.5 44.5q16 20 41.5 20t46.5 -18q111 -102 173 -241.5t62 -293.5t-62 -293t-173 -243q-20 -16 -46 -15t-42 19q-18 20 -16.5 46z" />
<glyph unicode="&#xbc;" horiz-adv-x="2220" d="M266 1374q0 25 15.5 40.5t42.5 15.5q23 0 39 -16.5t16 -39.5l2 -751q0 -23 -16.5 -38.5t-40.5 -17.5q-23 0 -39.5 16.5t-16.5 39.5zM268.5 173q-0.5 24 14.5 38l1192 1196q16 16 38.5 19.5t42.5 -19.5q16 -14 16.5 -40t-13.5 -42l-1194 -1192q-18 -20 -41 -18t-39 18 t-16.5 40zM1081 229v9q2 94 30 185t79 173q106 166 278 256h2q156 78 322 78h20q8 0 17 -8l6 -7q2 -2 4 -8q2 -4 4 -10t2 -14v-602h107q21 -1 35 -11q6 -6 12 -15t6 -26q0 -20 -15.5 -36.5t-37.5 -16.5h-107v-117q0 -20 -15 -36.5t-38 -16.5t-41 15.5t-18 37.5v117h-598 q-20 0 -37 17q-16 16 -17 36zM1196 281h537v534q-106 -10 -217 -61q-139 -72 -226 -203q-41 -59 -63.5 -129t-30.5 -141z" />
<glyph unicode="&#xbd;" horiz-adv-x="2394" d="M283 1374q0 25 15 40.5t42 15.5q23 0 39 -16.5t16 -39.5l2 -751q0 -23 -16 -38.5t-41 -17.5q-23 0 -39 16.5t-16 39.5zM285 173q0 24 14 38l1192 1196q16 16 38.5 19.5t43.5 -19.5q16 -14 16 -40t-14 -42l-1194 -1192q-18 -20 -41 -18t-39 18t-16 40zM1206 63q0 25 19 41 l694 596q-119 100 -270 101h-2q-92 4 -161 -19.5t-134 -95.5l-2 -2l-2 -2q-16 -12 -38 -12t-36 14h-2q-16 16 -17 41q0 23 17 39q82 86 171 118.5t206 32.5q113 -4 213 -50t178 -128q12 -12 14 -28.5t-4 -30.5q-2 -16 -16 -25v-2l-502 -430q125 23 246 4q172 -25 315 -119 l2 -2l2 -2q14 -12 18.5 -33.5t-10.5 -41.5v-2h-2q-12 -14 -34.5 -18.5t-40.5 9.5q-80 53 -172.5 80t-187.5 27t-190.5 -26.5t-183.5 -80.5q-10 -8 -20 -9t-19 -1h-10l-6 6q-2 0 -4 2t-5 3t-7 6q-20 18 -17 40z" />
<glyph unicode="&#xbe;" horiz-adv-x="2611" d="M268 629q0 23 15.5 38t35.5 15h246q59 0 113.5 20.5t97.5 57.5t72 87t39 107h-555q-23 0 -41.5 15.5t-18.5 38.5t16.5 38t43.5 15l555 6q-10 53 -36 100t-67 84q-45 41 -101 62.5t-118 21.5h-246q-25 0 -38 16.5t-13 34.5q0 53 51 54h246q86 0 166 -33t139 -92 q59 -61 92 -140t33 -167t-32.5 -167t-92.5 -139q-59 -59 -139 -91.5t-166 -32.5h-246q-23 0 -37 14t-14 37zM637 173q0 24 14 38l1192 1196q16 16 39 19.5t43 -19.5q16 -14 16.5 -40t-14.5 -42l-1194 -1192q-18 -20 -40.5 -18t-39.5 18q-16 16 -16 40zM1450 229v9 q2 94 29.5 185t79.5 173q106 166 278 256h2q156 78 322 78h20q8 0 17 -8l6 -7q2 -2 4 -8q2 -4 4 -10t2 -14v-602h106q21 -1 35 -11q6 -6 12.5 -15t6.5 -26q0 -20 -15.5 -36.5t-38.5 -16.5h-106v-117q0 -20 -15.5 -36.5t-37.5 -16.5q-23 0 -41.5 15.5t-18.5 37.5v117h-598 q-20 0 -37 17q-16 16 -16 36zM1565 281h536v534q-106 -10 -217 -61q-139 -72 -225 -203q-41 -59 -63.5 -129t-30.5 -141z" />
<glyph unicode="&#xbf;" horiz-adv-x="1046" d="M186 -63q0 106 83 194.5t239 147.5q86 33 118.5 61.5t32.5 73.5q0 51 -34.5 88t-83.5 43h-9h-16q-51 -4 -86 -41t-35 -90q0 -23 -16.5 -39.5t-38.5 -16.5q-23 0 -39 16.5t-16 39.5q0 57 25.5 105t66.5 83q-39 33 -61.5 80t-22.5 102q0 49 18.5 93.5t51 77t76.5 52 t93 19.5t93.5 -19.5t77 -52t52 -76.5t19.5 -94q0 -57 -25.5 -105t-66.5 -83q41 -33 63.5 -80t22.5 -102q0 -57 -23.5 -97.5t-58.5 -68t-74 -45t-67 -27.5q-35 -14 -78 -35.5t-82 -51.5t-64.5 -67.5t-25.5 -84.5q0 -98 70 -168t167 -70q98 0 168 70t70 168q0 23 15.5 38 t37.5 15q23 0 39.5 -15.5t16.5 -37.5q0 -143 -103 -246q-47 -49 -110.5 -75t-133.5 -26t-133 26t-112 75t-75 112.5t-26 133.5zM401 784q0 -51 34 -88t83 -43h8h17q51 4 87 41t36 90q0 55 -39 94.5t-95 39.5q-53 0 -92 -39.5t-39 -94.5z" />
<glyph unicode="&#xc0;" horiz-adv-x="2084" d="M244 74l35 73l712 1252q6 12 19.5 19t25.5 7q29 0 43 -26l709 -1237l39 -88q8 -27 -4.5 -45.5t-32.5 -26.5q-18 -6 -41 5t-27 32q-10 10 -31.5 59t-50.5 101q-94 160 -255.5 249t-348.5 89q-188 0 -342.5 -87.5t-255.5 -240.5q-53 -88 -72.5 -129t-15.5 -41 q-12 -20 -30.5 -31.5t-38.5 -5.5q-20 8 -31.5 26.5t-5.5 45.5zM618 537q189 106 418 106q227 0 418 -106q-61 102 -127.5 216.5t-126 217t-103.5 181.5t-61 114q-20 -35 -65 -114t-103.5 -181.5t-124 -217t-125.5 -216.5zM793 2003q0 53 51 53q20 0 33.5 -12t13.5 -41 q0 -78 30.5 -145.5t82 -117.5t119 -79t141.5 -29q20 0 38.5 -18.5t18.5 -34.5q0 -27 -18.5 -38t-38.5 -11q-98 0 -184.5 38t-150 103.5t-100 150.5t-36.5 181z" />
<glyph unicode="&#xc1;" horiz-adv-x="2127" d="M244 74l35 73l712 1252q6 12 19.5 19t25.5 7q29 0 43 -26l709 -1237l39 -88q8 -27 -4.5 -45.5t-32.5 -26.5q-18 -6 -41 5t-27 32q-10 10 -31.5 59t-50.5 101q-94 160 -255.5 249t-348.5 89q-188 0 -342.5 -87.5t-255.5 -240.5q-53 -88 -72.5 -129t-15.5 -41 q-12 -20 -30.5 -31.5t-38.5 -5.5q-20 8 -31.5 26.5t-5.5 45.5zM618 537q189 106 418 106q227 0 418 -106q-61 102 -127.5 216.5t-126 217t-103.5 181.5t-61 114q-20 -35 -65 -114t-103.5 -181.5t-124 -217t-125.5 -216.5zM754 1604q0 18 11 31.5t38 13.5q74 0 136 27.5 t109.5 75.5t74 110.5t26.5 132.5q0 23 17.5 39t33.5 16q23 0 34 -16.5t11 -38.5q0 -90 -35.5 -170t-96 -139.5t-140.5 -94.5t-170 -35q-49 0 -49 48z" />
<glyph unicode="&#xc2;" horiz-adv-x="2082" d="M248 74l35 73l712 1252q6 12 19.5 19t25.5 7q29 0 43 -26l709 -1237l39 -88q8 -27 -4 -45.5t-33 -26.5q-18 -6 -40.5 5t-27.5 32q-10 10 -31.5 59t-49.5 101q-94 160 -256 249t-349 89q-188 0 -342.5 -87.5t-255.5 -240.5q-53 -88 -72.5 -129t-15.5 -41 q-12 -20 -30.5 -31.5t-38.5 -5.5q-20 8 -31.5 26.5t-5.5 45.5zM550 1496q1 24 17 40q111 106 231 161.5t246 53.5q123 -2 240 -57.5t221 -159.5q16 -16 16.5 -40t-16.5 -40q-16 -16 -39.5 -16t-40.5 16q-178 180 -383 184q-102 2 -202.5 -44t-194.5 -138q-16 -16 -39.5 -16 t-40.5 16q-16 16 -15 40zM623 537q188 106 417 106q227 0 418 -106q-61 102 -127.5 216.5t-126 217t-103.5 181.5t-61 114q-20 -35 -65 -114t-103.5 -181.5t-124 -217t-124.5 -216.5z" />
<glyph unicode="&#xc3;" horiz-adv-x="2045" d="M217 74l35 73l713 1252q6 12 19 19t26 7q29 0 43 -26l708 -1237l39 -88q8 -27 -4 -45.5t-33 -26.5q-18 -6 -40.5 5t-26.5 32q-10 10 -32 59t-50 101q-94 160 -256 249t-348 89q-188 0 -343 -87.5t-255 -240.5q-53 -88 -73 -129t-15 -41q-12 -20 -31 -31.5t-39 -5.5 q-20 8 -31.5 26.5t-5.5 45.5zM592 537q189 106 418 106q227 0 417 -106q-61 102 -127.5 216.5t-126 217t-103.5 181.5t-60 114q-20 -35 -65.5 -114t-104 -181.5t-124 -217t-124.5 -216.5zM608 1626q0 33 15.5 69t44 65.5t70.5 49t96 19.5q61 0 122.5 -33t120.5 -72 q53 -35 108.5 -65.5t102.5 -30.5q76 0 111 47q10 16 14 35q2 8 2 16q2 20 15.5 35t33.5 13q20 0 34.5 -13.5t14.5 -34.5q0 -4 -4 -33.5t-26 -66.5q-20 -33 -64.5 -63.5t-130.5 -30.5q-70 0 -134 35t-130 75q-51 33 -100.5 62t-89.5 29q-33 0 -56.5 -12.5t-40 -30t-24.5 -35 t-8 -29.5q0 -23 -13.5 -36t-34.5 -13q-20 0 -34.5 13t-14.5 36z" />
<glyph unicode="&#xc4;" horiz-adv-x="1943" d="M160 80l35 72l622 1095q-10 -2 -19.5 -3t-19.5 -1q-47 0 -87 17.5t-68.5 46t-46 68.5t-17.5 87q0 45 17.5 85t46 71t68.5 48t87 17q53 0 98.5 -22.5t73.5 -58.5q31 37 75 59t97 22q47 0 87 -17t70 -48t47 -71t17 -85q0 -47 -17 -87t-47 -68.5t-70 -46t-87 -17.5 q-10 0 -18 1t-19 1l619 -1079l39 -86q6 -29 -5.5 -47.5t-31.5 -24.5t-42 4.5t-28 30.5q-8 10 -29.5 60.5t-50.5 99.5q-94 160 -255.5 249t-348.5 89q-188 0 -342.5 -86t-255.5 -240q-53 -90 -72.5 -131t-15.5 -41q-12 -20 -30.5 -30.5t-38.5 -4.5t-31.5 24.5t-5.5 47.5z M535 541q188 106 417 106q227 0 418 -106q-61 104 -127.5 217.5t-126 217t-103.5 182.5t-61 112q-20 -33 -65 -112t-103.5 -182.5t-124 -217t-124.5 -217.5zM655 1462q0 -49 37 -86t86 -37q51 0 88 37t37 86q0 47 -37 84t-88 37q-49 0 -86 -37t-37 -84zM999 1462 q0 -49 37 -86t86 -37q51 0 88 37t37 86q0 47 -37 84t-88 37q-49 0 -86 -37t-37 -84z" />
<glyph unicode="&#xc5;" horiz-adv-x="1861" d="M123 80l35 72l673 1181q-92 27 -148 100.5t-56 174.5q0 57 21.5 109t60.5 92t90 62.5t112 22.5q59 0 111.5 -22.5t91.5 -62.5t61.5 -92t22.5 -109q0 -98 -56.5 -172t-144.5 -101l670 -1169l39 -86q6 -29 -5 -47.5t-32 -24.5q-20 -6 -41.5 4.5t-28.5 30.5 q-8 10 -29.5 60.5t-49.5 99.5q-94 160 -256 249t-349 89q-188 0 -342.5 -86t-255.5 -240q-53 -90 -72.5 -131t-15.5 -41q-12 -20 -30.5 -30.5t-38.5 -4.5t-31.5 24.5t-5.5 47.5zM498 541q188 106 417 106q227 0 418 -106q-61 104 -127.5 217.5t-126 217t-103.5 182.5 t-61 112q-20 -33 -65 -112t-103.5 -182.5t-124 -217t-124.5 -217.5zM733 1610q0 -35 14.5 -67t39 -56.5t57.5 -38.5t67 -14q35 0 67 14t56.5 38.5t38.5 56.5t14 67q0 33 -14 64.5t-38.5 56t-56.5 40t-67 15.5t-67.5 -15.5t-57 -40t-39 -56t-14.5 -64.5z" />
<glyph unicode="&#xc6;" horiz-adv-x="2770" d="M131 74l35 73l713 1252q12 27 45 26q29 0 43 -26l368 -643q8 143 68.5 267t159 216t225.5 144.5t270 52.5q113 0 222.5 -33t195.5 -98q20 -16 26.5 -40t-10.5 -42q-12 -14 -34.5 -19.5t-40.5 8.5q-80 53 -169 85t-190 32q-121 0 -226.5 -44t-187 -118.5t-132 -176 t-60.5 -216.5h729q20 0 37.5 -15.5t17.5 -37.5q0 -20 -17 -36.5t-38 -16.5l-729 -6q4 -53 17.5 -102.5t33.5 -96.5q27 -55 58 -98q82 -117 211 -189t286 -72q121 0 230.5 44.5t187.5 127.5q20 20 43 17t39 -17q12 -14 12 -36.5t-12 -42.5q-102 -94 -230 -145.5t-270 -51.5 q-72 0 -136 7t-126.5 29.5t-128 66.5t-137.5 116q-137 166 -278.5 242t-327.5 76q-188 0 -343 -87.5t-255 -240.5q-53 -88 -73 -129t-15 -41q-12 -20 -31 -31.5t-39 -5.5q-20 8 -31.5 26.5t-5.5 45.5zM506 537q189 106 418 106q227 0 417 -106q-61 102 -127.5 216.5 t-126 217t-103.5 181.5t-60 114q-20 -35 -65.5 -114t-104 -181.5t-124 -217t-124.5 -216.5zM1503 463l58 -98q-31 43 -58 98z" />
<glyph unicode="&#xc7;" horiz-adv-x="1720" d="M164 723q0 145 56 274t152.5 226.5t226.5 154t275 56.5q84 0 166 -19.5t157 -56.5t139.5 -91.5t111.5 -123.5q14 -23 13 -48.5t-23 -39.5q-23 -16 -47.5 -11t-40.5 21q-41 57 -94.5 104.5t-115 80t-129 50t-137.5 17.5q-125 0 -233.5 -47t-188 -129t-125.5 -189.5 t-46 -228.5q0 -123 46 -231.5t125.5 -188.5t188.5 -126t233 -46q80 0 157 21.5t145.5 60.5t125 94t97.5 125q8 23 31.5 34t46.5 -5q23 -14 28.5 -34.5t-8.5 -43.5q-74 -137 -192.5 -230.5t-266.5 -127.5q61 -72 62 -160q0 -49 -19.5 -93t-52.5 -77t-77 -52.5t-93 -19.5 q-59 0 -110.5 26.5t-83.5 74.5q-10 10 -11 30q0 20 19 35h2q20 14 41 8q20 -4 28 -18q43 -59 115 -60q59 0 100 43q43 39 43 103q0 53 -36.5 93t-90.5 46q-145 0 -275 56.5t-226.5 153.5t-152.5 228t-56 281z" />
<glyph unicode="&#xc8;" horiz-adv-x="1722" d="M246 711q0 125 40 236.5t109.5 202.5t165.5 156.5t207 98.5q-96 59 -154.5 159.5t-58.5 221.5q0 23 11.5 40t33.5 17q20 0 36.5 -17.5t16.5 -39.5q0 -66 23.5 -125t64.5 -105.5t98.5 -78t123.5 -39.5h6q113 0 222 -36t195 -102q20 -14 26.5 -37.5t-9.5 -41.5 q-12 -16 -34.5 -20.5t-41.5 9.5q-80 53 -169 85t-189 32q-121 0 -226.5 -44t-187.5 -118.5t-132 -176t-61 -216.5h730q20 0 37.5 -15.5t17.5 -37.5q0 -20 -17.5 -36.5t-37.5 -16.5l-730 -7q10 -115 60.5 -216t132.5 -177t187.5 -120t226.5 -44t230.5 44t186.5 128 q20 20 43 17t39 -17q12 -14 12.5 -36.5t-12.5 -42.5q-102 -96 -230 -146.5t-269 -50.5q-147 0 -278.5 56.5t-231 153.5t-156.5 226t-57 277z" />
<glyph unicode="&#xc9;" horiz-adv-x="1691" d="M201 717q0 119 35.5 225.5t100 195.5t151.5 155.5t192 103.5q2 0 2 2q98 41 159.5 130t61.5 197q0 23 16.5 39.5t36.5 16.5q23 0 34 -16.5t11 -39.5q0 -82 -27.5 -154.5t-76.5 -131.5h27q113 0 222 -34t195 -99q20 -14 26.5 -38t-9.5 -42q-12 -16 -35 -20.5t-41 10.5 q-80 53 -169 84.5t-189 31.5q-121 0 -226.5 -44t-187.5 -118.5t-132 -176t-61 -216.5h730q20 0 37.5 -15t17.5 -38q0 -20 -17.5 -36.5t-37.5 -16.5l-730 -6q10 -115 60.5 -216.5t132.5 -177t187.5 -119.5t226.5 -44t230.5 44t186.5 128q20 20 43 17t39 -17q12 -14 12.5 -37 t-12.5 -43q-102 -96 -230 -146.5t-269 -50.5q-147 0 -278.5 56.5t-231 153.5t-156.5 226t-57 277z" />
<glyph unicode="&#xca;" horiz-adv-x="1607" d="M174 711q0 150 57.5 281.5t156.5 230t230.5 155t278.5 56.5q113 0 222.5 -34t195.5 -100q20 -14 26.5 -37.5t-10.5 -41.5q-12 -16 -34.5 -20.5t-41.5 9.5q-80 53 -169 85t-189 32q-121 0 -226.5 -44t-187.5 -118.5t-132 -176t-60 -216.5h729q20 0 37.5 -15.5t17.5 -37.5 q0 -20 -17.5 -36.5t-37.5 -16.5l-729 -7q10 -115 60 -216t132 -177t187.5 -120t226.5 -44t230.5 44t187.5 128q20 20 43 17t39 -17q12 -14 12 -36.5t-12 -42.5q-102 -96 -230.5 -146.5t-269.5 -50.5q-147 0 -278.5 56.5t-230.5 153.5t-156.5 226t-57.5 277zM487 1595 q-8 20 0.5 41t28.5 31q96 41 192.5 61.5t198.5 18.5q195 0 379 -78q20 -8 29.5 -28.5t1.5 -41.5q-25 -47 -72 -30q-160 70 -338 69q-90 -2 -176 -18t-170 -55q-23 -8 -43 0t-31 30z" />
<glyph unicode="&#xcb;" horiz-adv-x="1662" d="M203 719q0 106 30.5 205.5t85 183.5t130 151.5t165.5 110.5q-45 29 -72.5 77t-27.5 107q0 45 17.5 85t46 71t68.5 48.5t87 17.5q53 0 98.5 -22.5t73.5 -59.5q31 37 75 59.5t97 22.5q47 0 87 -17.5t70 -48.5t47 -71t17 -85q0 -53 -21.5 -98t-59.5 -74q35 -16 66.5 -34.5 t59.5 -40.5q20 -14 26.5 -38t-9.5 -42q-12 -16 -34.5 -20.5t-41.5 10.5q-80 53 -169 85.5t-189 32.5q-121 0 -226.5 -44t-187.5 -119.5t-132 -177t-61 -216.5h730q20 0 37.5 -15t17.5 -38q0 -20 -17.5 -36.5t-37.5 -16.5l-730 -4q10 -115 60.5 -217.5t132.5 -178 t187.5 -119.5t226.5 -44t230.5 44t186.5 128q20 23 43 18.5t39 -18.5q12 -14 12.5 -37t-12.5 -41q-102 -98 -230 -148.5t-269 -50.5q-147 0 -278.5 56.5t-231 153.5t-156.5 227t-57 278zM610 1554q0 -49 37 -85.5t86 -36.5q51 0 88 36.5t37 85.5q0 47 -37 84t-88 37 q-49 0 -86 -36.5t-37 -84.5zM954 1554q0 -49 37 -85.5t86 -36.5q51 0 88 36.5t37 85.5q0 47 -37 84t-88 37q-49 0 -86 -36.5t-37 -84.5z" />
<glyph unicode="&#xcc;" horiz-adv-x="1009" d="M272 2003q0 53 47 53q18 0 32 -13t14 -40q0 -63 29.5 -125.5t78.5 -112t111.5 -79t126.5 -29.5q23 0 39 -17.5t16 -33.5q0 -23 -16.5 -34t-38.5 -11q-92 0 -181 38v-1540q0 -23 -14 -40t-43 -17q-23 0 -40 17.5t-17 39.5v1618q-66 59 -105 144.5t-39 181.5z" />
<glyph unicode="&#xcd;" horiz-adv-x="913" d="M186 1602q0 16 17.5 33.5t40.5 17.5q63 0 124.5 30.5t110.5 79.5t79 110.5t30 125.5q0 27 13 40t32 13q47 0 47 -53q0 -96 -38 -180t-103 -146l-2 -1618q0 -23 -17.5 -40t-40.5 -17q-29 0 -43 17.5t-14 39.5v1542q-82 -41 -178 -41q-23 0 -40.5 11.5t-17.5 34.5z" />
<glyph unicode="&#xce;" horiz-adv-x="1095" d="M44 1496q1 24 17 40q111 106 231 161.5t247 53.5q123 -2 239.5 -57.5t220.5 -159.5q16 -16 16.5 -40t-16.5 -40q-16 -16 -39.5 -16t-39.5 16q-178 180 -383 184q-102 2 -203 -44t-195 -138q-16 -16 -39.5 -16t-40.5 16q-16 16 -15 40zM444 59l11 1319q0 29 17 43.5 t40 14.5t40 -17.5t17 -40.5l-10 -1319q0 -23 -14.5 -40t-42.5 -17q-23 0 -40.5 17.5t-17.5 39.5z" />
<glyph unicode="&#xcf;" horiz-adv-x="1097" d="M162 1622q0 45 17.5 85t46 70.5t68.5 48t87 17.5q53 0 98 -22.5t74 -59.5q31 37 75 59.5t97 22.5q47 0 87 -17.5t69.5 -48t47 -70.5t17.5 -85q0 -47 -17.5 -87t-47 -68.5t-69.5 -46t-87 -17.5q-66 0 -117 31l-2 -1381q0 -23 -14 -40t-43 -17q-23 0 -40 17.5t-17 39.5 l2 1379q-51 -29 -113 -29q-47 0 -87 17.5t-68.5 46t-46 68.5t-17.5 87zM258 1622q0 -49 37 -86t86 -37q51 0 88 37t37 86q0 47 -37 84t-88 37q-49 0 -86 -37t-37 -84zM602 1622q0 -49 37 -86t86 -37q51 0 88 37t37 86q0 47 -37 84t-88 37q-49 0 -86 -37t-37 -84z" />
<glyph unicode="&#xd0;" horiz-adv-x="1615" d="M49 719q0 23 19.5 42t44.5 17h149v602q0 18 16.5 35t34.5 17h410q147 0 277 -57.5t227.5 -156t153 -228.5t55.5 -275q0 -147 -55.5 -278.5t-153 -227.5t-227.5 -152.5t-277 -56.5h-410q-27 0 -39 18.5t-12 44.5v588h-149q-31 2 -47.5 21.5t-16.5 46.5zM369 115 q29 0 88 -1t118 -3q68 -3 148 -5q125 0 235.5 48.5t192.5 130.5t130 192.5t48 237.5t-48 236.5t-130 191.5t-192.5 128t-235.5 46h-354v-537h305q23 -2 42 -16t19 -49q2 -23 -17.5 -42.5t-43.5 -19.5h-305v-538z" />
<glyph unicode="&#xd1;" horiz-adv-x="1740" d="M240 55v1329q0 18 9 28.5t21 14.5q12 6 31 9q68 0 163 -9.5t202.5 -41t220 -91t211.5 -159.5q80 -78 145.5 -177.5t112.5 -220.5v647q0 18 12 35t41 17q20 0 36.5 -16.5t16.5 -35.5v-1329q0 -20 -16 -36.5t-37 -16.5q-29 0 -41 16.5t-12 36.5q0 340 -84 591t-244 411 q-84 80 -174 131t-179 80.5t-171 41t-150 11.5v-1266q0 -20 -16 -36.5t-37 -16.5q-27 0 -44 16.5t-17 36.5zM367 1810q0 33 15 69t44 65.5t71 49t95 19.5q61 0 122.5 -32.5t121.5 -71.5q53 -35 108 -66t103 -31q76 0 110 48q10 16 14 34q2 8 3 17q2 20 15 34.5t34 12.5 q20 0 34.5 -13.5t14.5 -33.5q0 -4 -4 -34t-27 -67q-20 -33 -64 -63.5t-130 -30.5q-70 0 -134.5 35t-130.5 76q-51 33 -100 61.5t-90 28.5q-33 0 -56.5 -12.5t-40 -29.5t-24.5 -34.5t-8 -30.5q0 -23 -13.5 -36t-33.5 -13t-34.5 13t-14.5 36z" />
<glyph unicode="&#xd2;" horiz-adv-x="1849" d="M215 711q0 133 47 252.5t130 215t195.5 158t243.5 82.5q-74 59 -117.5 146.5t-43.5 189.5q0 23 11 39t34 16q18 0 34.5 -16t16.5 -39q0 -57 17.5 -107.5t61.5 -94.5t117.5 -82.5t188.5 -75.5q109 -35 201 -100.5t159.5 -155.5t105.5 -200t38 -228q0 -147 -56.5 -277.5 t-153.5 -227.5t-227.5 -153.5t-277.5 -56.5q-152 0 -284 56.5t-230 153.5t-154.5 227.5t-56.5 277.5zM322 711q0 -127 49 -239t133 -193.5t196.5 -129t239.5 -47.5q123 0 233.5 47.5t193.5 129t132 193.5t49 239q0 125 -49 235.5t-132 193.5t-193.5 131t-233.5 48 q-127 0 -239.5 -48t-196.5 -131t-133 -193.5t-49 -235.5z" />
<glyph unicode="&#xd3;" horiz-adv-x="1867" d="M223 713q0 119 38 228.5t105.5 199.5t159.5 155.5t201 100.5q113 37 187.5 75.5t118.5 84t61.5 94.5t17.5 106q0 23 16.5 39t34.5 16q23 0 34 -16t11 -39q0 -100 -43.5 -188.5t-117.5 -147.5q131 -18 243.5 -81.5t195.5 -158t130 -215t47 -253.5q0 -147 -56.5 -277.5 t-154.5 -227.5t-230 -153.5t-284 -56.5q-147 0 -277.5 56.5t-227.5 153.5t-153.5 227t-56.5 278zM330 713q0 -127 49 -239t132 -193.5t193.5 -129t233.5 -47.5q127 0 239.5 47.5t196.5 129t133 193.5t49 239q0 125 -49 235.5t-133 193.5t-196.5 131t-239.5 48 q-123 0 -233.5 -48t-193.5 -131t-132 -193.5t-49 -235.5z" />
<glyph unicode="&#xd4;" horiz-adv-x="1847" d="M199 717q0 147 56 277t153.5 228.5t227.5 155t277 56.5q152 0 284 -56.5t230.5 -155t154.5 -228.5t56 -277t-56 -277.5t-154.5 -227.5t-230.5 -153.5t-284 -56.5q-147 0 -277 56.5t-227.5 153.5t-153.5 227t-56 278zM305 717q0 -127 49 -238.5t132 -193.5t193.5 -129 t233.5 -47q127 0 240 47t197 129t133 193.5t49 238.5q0 125 -49 235.5t-133 193.5t-197 131t-240 48q-123 0 -233.5 -48t-193.5 -131t-132 -193.5t-49 -235.5zM508 1597q-8 20 0 41t29 31q96 41 192.5 61.5t198.5 18.5q195 0 379 -78q20 -8 29.5 -28.5t0.5 -40.5 q-25 -47 -71 -31q-160 70 -338 69q-90 -2 -176 -18t-170 -55q-23 -8 -43.5 0t-30.5 30z" />
<glyph unicode="&#xd5;" horiz-adv-x="1863" d="M217 717q0 147 56.5 277t153.5 228.5t227.5 155t277.5 56.5q152 0 284 -56.5t230 -155t154.5 -228.5t56.5 -277t-56.5 -277.5t-154.5 -227.5t-230.5 -153.5t-283.5 -56.5q-147 0 -277.5 56.5t-227.5 153.5t-153.5 227t-56.5 278zM324 717q0 -127 49 -238.5t132 -193.5 t193.5 -129t233.5 -47q127 0 239.5 47t196.5 129t133 193.5t49 238.5q0 125 -49 235.5t-133 193.5t-196.5 131t-239.5 48q-123 0 -233.5 -48t-193.5 -131t-132 -193.5t-49 -235.5zM483 1690q0 33 15.5 68.5t44 65t70.5 49t96 19.5q61 0 122.5 -32.5t120.5 -71.5 q53 -35 108.5 -65.5t102.5 -30.5q76 0 111 47q10 16 14 35q2 8 2 16q2 20 15.5 34.5t33.5 12.5q20 0 35 -13.5t15 -33.5q0 -4 -4.5 -34t-26.5 -66q-20 -33 -64.5 -64t-130.5 -31q-70 0 -134 35t-130 76q-51 33 -100 61.5t-90 28.5q-33 0 -56.5 -12t-40 -29.5t-24.5 -35 t-8 -29.5q0 -23 -13.5 -36.5t-34.5 -13.5q-20 0 -34.5 13.5t-14.5 36.5z" />
<glyph unicode="&#xd6;" horiz-adv-x="1835" d="M184 711q0 106 31 205.5t85 184.5t130 150.5t168 108.5q-41 31 -63.5 77t-22.5 99q0 45 17.5 86t46 71.5t68.5 48t87 17.5q53 0 98 -23.5t74 -60.5q31 37 75 60.5t97 23.5q47 0 87 -17.5t70 -48t47 -71.5t17 -86q0 -53 -24.5 -100t-65.5 -76q92 -43 169 -109.5 t132.5 -151.5t86 -183.5t30.5 -204.5q0 -147 -56.5 -277.5t-154.5 -227.5t-230 -153.5t-284 -56.5q-147 0 -277 56.5t-227.5 153.5t-154 227t-56.5 278zM291 711q0 -127 49 -239t132 -193.5t193.5 -129t233.5 -47.5q127 0 239.5 47.5t196.5 129t133.5 193.5t49.5 239 q0 125 -49.5 235.5t-133.5 193.5t-196.5 131t-239.5 48q-123 0 -233.5 -48t-193.5 -131t-132 -193.5t-49 -235.5zM608 1536q0 -47 37 -84t86 -37q51 0 88 37t37 84q0 49 -37 86t-88 37q-49 0 -86 -37t-37 -86zM952 1536q0 -47 37 -84t86 -37q51 0 88 37t37 84q0 49 -37 86 t-88 37q-49 0 -86 -37t-37 -86z" />
<glyph unicode="&#xd7;" horiz-adv-x="1171" d="M242 371.5q0 27.5 18 44.5l240 239l-240 240q-20 23 -18 49.5t20 44.5q16 16 44 15.5t44 -19.5l240 -240l241 242q18 16 43 18.5t48 -20.5q16 -16 16 -44t-16 -44l-242 -242l242 -241q16 -16 18 -41t-20 -49q-14 -16 -42 -16.5t-47 16.5l-241 241l-240 -239 q-23 -23 -48.5 -20t-43.5 22q-16 16 -16 43.5z" />
<glyph unicode="&#xd8;" horiz-adv-x="1937" d="M244 715q0 152 57 286t157.5 233t233.5 157.5t285 58.5q156 0 292 -58.5t236.5 -157.5t158.5 -233.5t58 -285.5q0 -152 -58 -286t-158.5 -234.5t-236.5 -157.5t-292 -57q-152 0 -285 57t-233.5 157.5t-157.5 234.5t-57 286zM352 715q0 -166 77 -300t202 -220l592 1095 q-57 23 -119 36t-127 13q-127 0 -240.5 -50t-198.5 -135t-135.5 -198.5t-50.5 -240.5zM741 137q113 -47 236 -47q131 0 246.5 48t202.5 133t137.5 199t50.5 245q0 160 -76 294t-203 220z" />
<glyph unicode="&#xd9;" horiz-adv-x="1646" d="M213 1372q0 29 16.5 41t44.5 12q20 0 38 -12t18 -41v-657q0 -123 40 -233.5t108.5 -193.5t160.5 -132.5t195 -49.5q104 0 195 49.5t159.5 132.5t107.5 193.5t39 233.5v663q0 23 16.5 39.5t45.5 16.5q20 0 35.5 -16.5t15.5 -39.5v-663q0 -147 -48 -276.5t-131 -226.5 t-195.5 -153.5t-239.5 -56.5t-238 56.5t-195 153.5t-132 226t-48 277zM582 1937q0 55 53 56q51 0 51 -56q0 -84 32 -155.5t86 -124.5t125.5 -84t151.5 -31q23 0 42.5 -19.5t19.5 -37.5q0 -27 -19.5 -39t-42.5 -12q-104 0 -195 39.5t-159 109.5t-106.5 161t-38.5 193z" />
<glyph unicode="&#xda;" horiz-adv-x="1673" d="M225 709v665q0 23 15.5 39.5t35.5 16.5q29 0 45.5 -16.5t16.5 -39.5v-665q0 -123 39 -233.5t107.5 -193.5t159.5 -132.5t196 -49.5q102 0 194 49.5t161 132.5t108.5 193.5t39.5 233.5v659q0 27 17.5 39t38.5 12q29 0 45 -12t16 -39l-8 -659q0 -145 -48 -275.5 t-132 -226.5t-195.5 -152.5t-236.5 -56.5q-127 0 -240 56.5t-195.5 152.5t-131 226t-48.5 276zM530 1481q0 16 19.5 36.5t42.5 20.5q80 0 151.5 30.5t126 84t86 125t31.5 155.5q0 53 51 54q53 0 54 -54q0 -102 -39 -193t-106.5 -161t-159 -109.5t-195.5 -39.5 q-23 0 -42.5 12t-19.5 39z" />
<glyph unicode="&#xdb;" horiz-adv-x="1732" d="M252 711v665q0 23 15.5 39.5t35.5 16.5q29 0 45.5 -16.5t16.5 -39.5v-665q0 -123 38.5 -233.5t107.5 -193.5t160 -132.5t195 -49.5q102 0 194.5 49.5t161 132.5t108.5 193.5t40 233.5v669q0 27 17.5 39.5t37.5 12.5q29 0 45.5 -12.5t16.5 -39.5l-8 -669 q0 -145 -48.5 -275.5t-132.5 -226.5t-195.5 -152.5t-236.5 -56.5q-127 0 -239.5 56.5t-195.5 152.5t-131 226t-48 276zM402.5 1680q0.5 22 17.5 38q104 104 220 156.5t239 50.5q121 0 233.5 -53t210.5 -156q16 -16 16 -37.5t-16 -38.5q-16 -16 -38.5 -16t-37.5 16 q-170 172 -370 177q-98 2 -194.5 -43.5t-188.5 -131.5q-16 -16 -38 -16t-38 16t-15.5 38z" />
<glyph unicode="&#xdc;" horiz-adv-x="1716" d="M240 711v665q0 23 15.5 39.5t35.5 16.5q29 0 45 -16.5t16 -39.5v-665q0 -123 39 -233.5t107.5 -193.5t160 -132.5t195.5 -49.5q102 0 194.5 49.5t161 132.5t108.5 193.5t40 233.5v669q0 27 17.5 39.5t37.5 12.5q29 0 45.5 -12.5t16.5 -39.5l-9 -669q0 -145 -48 -275.5 t-132 -226.5t-195.5 -152.5t-236.5 -56.5q-127 0 -239.5 56.5t-195.5 152.5t-131 226t-48 276zM473 1780q0 45 17.5 85t46 70.5t68.5 48t87 17.5q53 0 98.5 -22.5t73.5 -59.5q31 37 75 59.5t97 22.5q47 0 87 -17.5t70 -48t47 -70.5t17 -85q0 -47 -17 -87t-47 -69t-70 -46 t-87 -17q-53 0 -97 21.5t-75 57.5q-29 -37 -74 -58t-98 -21q-47 0 -87 17t-68.5 46t-46 69t-17.5 87zM569 1780q0 -49 37 -86t86 -37q51 0 88 37t37 86q0 47 -37 84t-88 37q-49 0 -86 -37t-37 -84zM913 1780q0 -49 37 -86t86 -37q51 0 88 37t37 86q0 47 -37 84t-88 37 q-49 0 -86 -37t-37 -84z" />
<glyph unicode="&#xdd;" horiz-adv-x="1816" d="M184 1044q0 184 86 345q31 43 76 26q23 -14 33 -37.5t-4 -46.5q-35 -66 -55.5 -137.5t-20.5 -149.5q0 -125 48 -233.5t131 -189t193.5 -126.5t235.5 -46t233.5 46t189.5 126.5t127 189.5t46 233q0 78 -19.5 151t-56.5 144q-6 23 1.5 42.5t29.5 33.5q20 14 41 9t35 -27 q43 -78 63.5 -169.5t20.5 -183.5q0 -139 -50 -264t-138.5 -221t-208 -156.5t-258.5 -70.5v-275q0 -29 -16.5 -43t-39.5 -14q-57 0 -57 57v275q-139 10 -260 70.5t-211 156.5t-142.5 221t-52.5 264zM670 1546q0 18 14 37t41 19q74 0 135.5 26.5t107.5 72.5t71.5 106t25.5 130 q0 23 17.5 39.5t33.5 16.5q23 0 37 -16.5t14 -39.5q0 -90 -34.5 -170.5t-95 -141t-140.5 -96.5t-170 -36q-57 0 -57 53z" />
<glyph unicode="&#xdf;" horiz-adv-x="1552" d="M-334 -547q0 25 17.5 41.5t40.5 16.5q252 -4 401 139q72 72 110.5 176t40.5 233v885q0 92 37 176t98.5 149.5t140.5 108.5t163 52q168 18 285.5 -35.5t201.5 -141.5q88 -88 132 -209.5t42 -269.5q4 -14 -3 -31.5t-23 -27.5q-14 -12 -37 -7t-35 27q-57 76 -126 124 t-165 48q-90 0 -148.5 -32.5t-119.5 -96.5l588 -454q23 -14 21.5 -45t-11.5 -56q-27 -63 -67 -107t-88 -72t-102 -40t-112 -12q-94 0 -190 57t-166 168q-14 23 -9 46.5t27 35.5q20 14 40 9t34 -25q53 -92 120.5 -135.5t143.5 -43.5q35 0 70 2.5t66.5 16.5t60.5 46t53 91 q-16 10 -49 34.5t-77 58.5t-94 74t-101 81q-119 94 -261 207q-29 18 -28 47q0 6 1 12t11 12q0 20 6 29q72 96 165 148.5t216 52.5q158 0 275 -101q-25 160 -123 261q-33 33 -71 62.5t-84 50t-102.5 30.5t-125.5 6q-72 -4 -132.5 -30.5t-106.5 -69.5t-76.5 -99.5 t-41.5 -119.5l-8 -117v-848q-6 -147 -53 -266t-135 -205t-210 -130t-269 -42q-25 0 -40.5 16.5t-17.5 38.5z" />
<glyph unicode="&#xe0;" horiz-adv-x="1329" d="M139 512q0 96 34 182t93.5 153.5t137 112t167.5 58.5q-72 70 -109.5 162t-37.5 196q0 29 16.5 42.5t36.5 13.5q59 0 60 -56q0 -61 19 -120.5t55 -109.5t87.5 -88t112.5 -59q72 -25 133.5 -67.5t109.5 -101t77.5 -127t35.5 -144.5v-18v-478q0 -29 -16 -43t-37 -14 q-55 0 -55 57v130q-78 -84 -178.5 -139.5t-227.5 -55.5q-106 0 -200.5 40t-164 109.5t-109.5 164t-40 200.5zM256 512q0 -82 30.5 -153.5t85 -126t126 -85t155.5 -30.5q82 0 156 30.5t129 85t88 126t33 153.5t-33 154.5t-88 127t-129 85t-156 30.5q-84 0 -155.5 -30.5 t-126 -85t-85 -127t-30.5 -154.5z" />
<glyph unicode="&#xe1;" horiz-adv-x="1402" d="M147 520q0 82 26 157t72 137.5t109.5 109.5t139.5 73q98 51 153 148.5t43 208.5q-2 23 13.5 41t33.5 22q25 2 37 -14.5t17 -38.5q10 -96 -20 -183t-89 -155q104 -4 195.5 -45t159 -109.5t106.5 -159.5t39 -192v-446q0 -29 -14.5 -50.5t-43.5 -21.5q-20 0 -40.5 21.5 t-20.5 50.5v121q-72 -90 -175.5 -141.5t-221.5 -51.5q-109 0 -203 40t-165 110.5t-111 165t-40 202.5zM268 520q0 -84 31 -158.5t84 -130t126 -88t157 -32.5q80 0 149.5 29.5t123.5 80.5t87 121t37 147v31q0 82 -31 155t-85 126t-126.5 85t-154.5 32q-84 0 -157 -32 t-126 -85t-84 -126t-31 -155z" />
<glyph unicode="&#xe2;" horiz-adv-x="1329" d="M132 1164q1 24 18 40q111 106 248 166t264 57q123 -2 252.5 -57t234.5 -160q16 -16 16 -39.5t-16 -40.5q-16 -16 -40 -16t-40 16q-88 90 -197.5 136.5t-212.5 48.5q-102 2 -220 -48.5t-212 -142.5q-16 -16 -39.5 -16t-40.5 16q-16 16 -15 40zM133 518q0 106 40 199.5 t109.5 163t163 109.5t199.5 40q100 0 190.5 -37t159 -100.5t111.5 -149.5t51 -184q2 -6 2 -16v-482q0 -23 -16.5 -39t-38.5 -16q-25 0 -41 16.5t-16 38.5v138q-72 -90 -175.5 -142.5t-226.5 -52.5q-106 0 -199.5 41t-163 110.5t-109.5 163t-40 199.5zM246 518 q0 -84 31.5 -156.5t86 -127t127 -86t154.5 -31.5t155.5 31.5t128 86t86.5 127t32 156.5q0 82 -32 154.5t-86.5 127t-128 86.5t-155.5 32t-154.5 -32t-127 -86.5t-86 -127t-31.5 -154.5z" />
<glyph unicode="&#xe3;" horiz-adv-x="1460" d="M209 516q0 104 40 195.5t110.5 161t164.5 109.5t203 40q106 0 200.5 -40t165 -109.5t110.5 -160.5t40 -196v-31v-413q0 -29 -18.5 -42.5t-46.5 -13.5q-20 0 -37 13.5t-17 42.5v118q-72 -90 -175 -141t-222 -51q-109 0 -203 40t-164.5 110.5t-110.5 165t-40 202.5z M303 1325q0 31 15.5 65.5t43 64.5t67.5 48.5t89 18.5q59 0 116.5 -31t110.5 -66q49 -31 96.5 -57.5t88.5 -26.5q70 0 90 37q12 16 14 25q2 8 2 14q0 23 16.5 39.5t39.5 16.5t39 -16.5t16 -39.5q0 -4 -4 -32.5t-25 -63.5q-20 -31 -63 -61.5t-125 -30.5q-63 0 -124 31.5 t-120 72.5q-45 29 -89 53.5t-79 24.5q-27 0 -46 -10t-31.5 -24.5t-18.5 -29t-6 -22.5q0 -23 -16.5 -38t-41.5 -15q-23 0 -39 15t-16 38zM330 516q0 -84 30.5 -158.5t84 -130t126 -88.5t156.5 -33q80 0 149.5 30t124 81t87 121t36.5 147v9v10v12q0 82 -30.5 154.5t-85 126 t-127 85t-154.5 31.5q-84 0 -156.5 -31.5t-126 -85t-84 -126t-30.5 -154.5z" />
<glyph unicode="&#xe4;" horiz-adv-x="1515" d="M231 522q0 129 60.5 237.5t163.5 178.5q-45 29 -72 77t-27 107q0 45 16.5 85t46.5 71t68.5 48t85.5 17q53 0 98.5 -22.5t73.5 -58.5q31 37 76 59t97 22q47 0 88 -17t70.5 -48t46 -71t16.5 -85q0 -59 -27 -107t-72 -77q102 -68 164 -177.5t62 -238.5v-33v-411 q0 -31 -18.5 -52.5t-47.5 -21.5q-20 0 -36.5 21.5t-16.5 52.5v117q-72 -88 -175.5 -140.5t-221.5 -52.5q-109 0 -203 40t-165 110.5t-111 166t-40 203.5zM352 522q0 -84 31 -158.5t84 -131t126 -89t157 -32.5q80 0 149.5 29.5t123.5 80.5t87 121t37 147v9v12v12 q0 82 -31 154t-85 126t-127 86t-154 32q-84 0 -157 -32t-126 -86t-84 -126t-31 -154zM451 1122q0 -49 36.5 -86t85.5 -37q6 0 11 2q10 4 22 6.5t23 6.5q31 16 51 44.5t20 63.5q0 47 -36.5 84t-90.5 37q-49 0 -85.5 -37t-36.5 -84zM795 1122q0 -35 19.5 -63.5t47.5 -44.5 q14 -2 26.5 -6t26.5 -9h3q53 0 89.5 37t36.5 86q0 47 -36.5 84t-89.5 37q-49 0 -86 -37t-37 -84z" />
<glyph unicode="&#xe5;" horiz-adv-x="1470" d="M209 520q0 82 25.5 158t72.5 138.5t111.5 110.5t142.5 72q-55 61 -55 148q0 45 16.5 85t46 70.5t68.5 48t86 17.5t88 -17.5t70.5 -48t46 -70.5t16.5 -85q0 -87 -55 -148q78 -25 142.5 -71.5t111.5 -110t73.5 -139.5t26.5 -158v-444q0 -31 -18.5 -50.5t-46.5 -19.5 q-20 0 -37 19.5t-17 50.5v117q-72 -88 -175 -140.5t-222 -52.5q-109 0 -203 40t-164.5 110.5t-110.5 166t-40 203.5zM330 520q0 -84 30.5 -158.5t84 -131t126 -89t156.5 -32.5q80 0 149.5 29.5t124 80.5t87 121t36.5 147v33q0 82 -30.5 153.5t-85 126t-127 86.5t-154.5 32 q-84 0 -156.5 -32t-126 -86.5t-84 -126t-30.5 -153.5zM600 1147q0 -47 34 -83t81 -40h12h8q47 4 81 40t34 83t-37 84t-90 37q-49 0 -86 -37t-37 -84z" />
<glyph unicode="&#xe6;" horiz-adv-x="2191" d="M178 520q0 104 40 195.5t110.5 161t164 109.5t201.5 40q154 0 276 -77t185 -199q12 25 28.5 47t35.5 45q61 82 147 127t190 53q104 14 196.5 -15.5t174.5 -93.5q20 -20 40 -39.5t36 -42.5q4 -8 9 -15t5 -21q0 -6 -5 -17.5t-9 -17.5q-162 -137 -297 -250 q-57 -49 -114.5 -97t-105.5 -88t-83 -70t-47 -42q63 -51 139 -71.5t151.5 -12.5t144.5 43t120 96q12 20 34.5 21t45.5 -13q14 -12 18 -36.5t-6 -42.5q-70 -80 -160 -125t-187 -54.5t-194.5 18t-179.5 95.5q-18 16 -36.5 33.5t-35.5 38.5v-127q0 -29 -15 -50.5t-44 -21.5 q-20 0 -38.5 21.5t-18.5 50.5v119q-72 -90 -176.5 -141.5t-223.5 -51.5q-109 0 -202 40t-163.5 110.5t-110.5 165t-40 202.5zM299 520q0 -84 30.5 -158.5t84 -130t125 -88t155.5 -32.5q80 0 150.5 29.5t124 80.5t87.5 121t38 147v31q0 82 -32 155t-85 126t-127 85t-156 32 q-84 0 -155.5 -32t-125 -85t-84 -126t-30.5 -155zM1210 510q4 -57 22.5 -109.5t49.5 -105.5q16 16 61.5 56t105.5 91.5t129 107.5t130 107.5t108.5 91t65.5 56.5q-8 6 -14 8t-13 8q-61 55 -134.5 77t-157.5 15q-74 -6 -144.5 -45t-118.5 -100q-47 -53 -67.5 -111.5 t-22.5 -124.5v-12v-10z" />
<glyph unicode="&#xe7;" horiz-adv-x="1265" d="M125 504q0 104 40 197.5t108.5 162t160.5 108.5t197 40q123 0 230.5 -55.5t178.5 -153.5q14 -18 10.5 -41t-22.5 -37q-18 -14 -40.5 -10t-37.5 22q-55 78 -139 121t-180 43q-82 0 -153.5 -31.5t-126 -85t-85 -126t-30.5 -154.5q0 -78 28.5 -147.5t78.5 -123t117.5 -86 t145.5 -36.5h8q4 0 8.5 -1t8.5 -1q111 0 203 55t145 153q10 20 33 26.5t43 -5.5q20 -10 26 -31.5t-4 -42.5q-47 -86 -120.5 -147.5t-165.5 -91.5q33 -35 51 -80t18 -97q0 -53 -19.5 -99t-54 -81t-81 -54.5t-99.5 -19.5t-99 19.5t-80 54.5t-54.5 81t-20.5 99q0 23 16.5 39.5 t41.5 16.5q23 0 38 -16.5t15 -39.5q0 -59 42 -101t101 -42t101.5 42t42.5 101q0 57 -38 104.5t-98 47.5q-104 0 -193 40t-154.5 109.5t-103.5 160.5t-38 194z" />
<glyph unicode="&#xe8;" horiz-adv-x="1191" d="M106 457q-12 205 109 368q53 59 119.5 99.5t140.5 62.5q-10 10 -29.5 21.5t-40 25t-38 26.5t-23.5 25q-47 68 -60.5 146t7.5 160q6 20 23.5 32.5t37.5 12.5q29 -8 41.5 -26.5t3.5 -45.5q-12 -61 -5 -116.5t40 -108.5q16 -27 50 -50.5t74 -42t82 -32t79 -19.5 q113 -29 207 -98q20 -20 38.5 -40.5t32.5 -39.5q8 -8 13.5 -19.5t5.5 -17.5q0 -29 -19 -43q-160 -131 -290 -241q-55 -47 -111.5 -93.5t-105 -86.5t-83 -68.5t-47.5 -40.5q61 -51 135 -72.5t149 -15.5t143.5 42t119.5 99q14 14 37 18.5t45 -10.5q14 -12 18.5 -35.5 t-10.5 -44.5q-68 -80 -155.5 -126t-184 -55t-192.5 17.5t-176 90.5q-152 139 -181 342zM215 467q6 -47 24.5 -93t47.5 -87q16 12 61 51t104.5 89t127 106.5t128 108.5t106.5 91t65 55q-6 0 -12.5 6.5t-14.5 12.5q-61 47 -134 71.5t-153 18.5q-74 -14 -144.5 -49t-117.5 -94 q-41 -53 -64.5 -119t-23.5 -133v-35z" />
<glyph unicode="&#xe9;" horiz-adv-x="1191" d="M97 465q-9 98 18.5 195.5t97.5 181.5q41 59 97.5 95t117.5 62q2 0 -1 -1t-4 -1t5 3.5t27 9.5q51 18 85.5 32.5t58.5 31t39 33.5t30 42q29 41 40 96t-12 117q0 57 49 74q16 0 39 -12.5t23 -34.5q20 -82 12 -162t-51 -142q-14 -16 -26.5 -34.5t-26.5 -30.5 q61 -16 116.5 -37.5t102.5 -62.5l86 -86q0 -6 4 -14.5t4 -22.5q0 -12 -5 -20.5t-11 -16.5q-164 -139 -301 -254q-59 -49 -116.5 -98.5t-107 -90.5t-84 -70.5t-49.5 -41.5q66 -53 142.5 -73.5t153.5 -13.5t147 44t123 98q37 41 79 8q23 -12 24 -35.5t-11 -44.5 q-70 -80 -162 -127t-190.5 -56t-198 18.5t-180.5 97.5q-80 66 -127.5 156t-56.5 188zM205 520q0 -63 20.5 -119.5t55.5 -111.5q16 16 62 56t108.5 92t131 110.5t131 110t110.5 91t67 56.5q-8 8 -14.5 14t-14.5 6q-63 55 -136 78t-151 17q-86 -10 -153.5 -49.5t-124.5 -100.5 q-43 -55 -67.5 -118.5t-24.5 -131.5z" />
<glyph unicode="&#xea;" horiz-adv-x="1390" d="M171 1168q1 24 17 40q111 106 248 166t264 58q123 -2 253 -57.5t235 -160.5q16 -16 16 -39.5t-16 -39.5t-40 -16.5t-40 16.5q-88 90 -197.5 136t-212.5 48q-102 2 -220 -48.5t-212 -142.5q-16 -16 -39.5 -16t-40.5 16q-16 16 -15 40zM203 461q-6 102 22.5 196.5 t96.5 180.5q61 76 147 121t190 59q106 8 200.5 -20.5t176.5 -98.5q23 -12 41.5 -31.5t32.5 -40.5q6 -6 12 -18t6 -18q0 -12 -6 -23.5t-12 -26.5q-164 -131 -299 -243q-57 -47 -114.5 -95.5t-105.5 -88.5t-83 -68.5t-49 -40.5q63 -51 140 -73.5t152.5 -16.5t145.5 43t121 102 q14 20 37.5 21.5t46.5 -13.5q12 -16 17 -38.5t-9 -45.5q-68 -82 -159 -127t-189 -54t-195.5 20.5t-179.5 99.5q-76 61 -122 147t-62 191zM313 469q6 -49 25.5 -95t48.5 -87q16 14 61.5 54t106.5 91t130 108.5t130.5 109.5t108.5 92t65 57q-6 0 -12 6t-12 14 q-63 47 -137 71.5t-160 18.5q-76 -8 -146.5 -46t-118.5 -103q-41 -53 -65.5 -115.5t-24.5 -130.5v-45z" />
<glyph unicode="&#xeb;" horiz-adv-x="1249" d="M141 451q-6 100 21.5 192t95.5 170q18 20 38.5 39.5t49.5 38.5q-74 29 -118 90t-44 141q0 47 18.5 90t51.5 77t77 53.5t95 19.5q59 0 105.5 -28.5t80.5 -69.5q33 41 82 65.5t103 24.5q49 0 93 -18.5t76.5 -51.5t51 -77t18.5 -95q0 -66 -31.5 -121t-93.5 -88 q14 -10 21.5 -16t15.5 -13q18 -12 39 -31.5t41 -37.5q6 -16 7 -22.5t1 -16.5q0 -25 -18 -43q-156 -129 -285 -238q-55 -47 -110.5 -92t-101.5 -84t-82 -67.5t-50 -40.5q63 -49 137 -70.5t146.5 -14.5t140.5 42t117 98q18 10 39.5 16.5t40.5 -8.5q20 -20 21 -43.5t-13 -36.5 q-66 -80 -154 -125t-181 -54t-186.5 17.5t-168.5 90.5q-158 131 -187 338zM248 494q0 -8 5 -18.5t5 -16.5q0 -47 17.5 -92t46.5 -84q14 12 59 50t103.5 87t125 104.5t126 104.5t105.5 87t62 50q-6 10 -12 15t-12 16q-61 47 -132 68.5t-143 8.5q-160 -12 -270 -133 q-39 -53 -62.5 -116.5t-23.5 -130.5zM291 1122q0 -59 41 -95t94 -36t92 36t39 95q0 53 -39 89t-92 36t-94 -36t-41 -89zM666 1112q0 -53 38.5 -92t92.5 -39q61 0 97 39t36 92q0 55 -36 95t-97 40q-53 0 -92 -40t-39 -95z" />
<glyph unicode="&#xec;" horiz-adv-x="675" d="M117 1577q2 25 13 40t36 15q18 -2 31.5 -18.5t11.5 -42.5q-4 -72 19.5 -137.5t68.5 -114.5t105 -81t128 -36q23 -2 39.5 -16.5t14.5 -30.5q-2 -23 -18.5 -36t-39.5 -13q-90 6 -167.5 46t-133 104.5t-85 147.5t-23.5 173zM260 61v906q0 59 59 59q18 0 37 -15.5t19 -43.5 v-906q0 -23 -18.5 -40t-37.5 -17q-29 0 -44 17.5t-15 39.5z" />
<glyph unicode="&#xed;" horiz-adv-x="686" d="M123 825q0 49 17.5 91t48 73t71.5 48.5t88 17.5t89 -17.5t73 -48.5t49.5 -73t18.5 -91q0 -78 -51.5 -137t-123.5 -80v-555q0 -18 -12 -35.5t-43 -17.5q-25 0 -41 17.5t-16 35.5v555q-72 20 -120 80t-48 137zM223 825q0 -49 34 -88t91 -39q53 0 90 39t37 88q0 59 -37 94 t-90 35q-57 0 -91 -35t-34 -94z" />
<glyph unicode="&#xee;" horiz-adv-x="880" d="M57.5 1229.5q-0.5 21.5 16.5 38.5q86 80 177 123t189 41q191 -4 351 -166q16 -16 15 -38t-18 -38q-16 -16 -37.5 -16t-37.5 16q-127 131 -275 131q-147 4 -288 -131q-16 -16 -38 -15t-38 17t-16.5 37.5zM201 870q0 49 19.5 93.5t52 76t76.5 51t93 19.5t93.5 -19.5t77 -51 t51 -75.5t18.5 -94q0 -86 -51 -150.5t-129 -84.5v-582q0 -23 -16.5 -38t-39.5 -15t-39 15.5t-16 37.5v582q-82 16 -136 81.5t-54 153.5zM309 870q0 -55 39 -94t94 -39t93 39t38 94q0 53 -37.5 92t-93.5 39q-55 0 -94 -38.5t-39 -92.5z" />
<glyph unicode="&#xef;" horiz-adv-x="944" d="M39 885q0 51 18.5 95t51 77t76.5 51t96 18q109 0 192 -96q27 47 77 71.5t107 24.5q51 0 95.5 -18t77 -51t51 -77t18.5 -95q0 -49 -18.5 -92t-51 -76t-76.5 -51.5t-96 -18.5q-39 0 -71.5 12.5t-59.5 32.5v-641q0 -29 -16 -40t-37 -11q-27 0 -44 11.5t-17 39.5v641 q-27 -20 -60 -32.5t-71 -12.5q-51 0 -95.5 18.5t-77 51.5t-51 76t-18.5 92zM143 885q0 -53 41.5 -92t96.5 -39q51 0 91 38.5t40 92.5q0 55 -40 95t-91 40q-55 0 -96.5 -40t-41.5 -95zM526 885q0 -53 39 -92t92 -39q55 0 95.5 38.5t40.5 92.5q0 55 -40 95t-96 40 q-53 0 -92 -40t-39 -95z" />
<glyph unicode="&#xf1;" horiz-adv-x="1355" d="M178 61v916q0 29 18.5 42t47.5 13q197 0 374 -75.5t309 -208t209.5 -309.5t77.5 -378q0 -20 -18 -37.5t-47 -17.5q-20 0 -37.5 17.5t-17.5 37.5q0 170 -61.5 322t-169 268.5t-253 188t-311.5 82.5v-861q0 -29 -17.5 -42t-37.5 -13q-29 0 -47.5 13.5t-18.5 41.5zM221 1382 q0 33 15.5 69t44 65.5t70.5 49t95 19.5q61 0 123 -32.5t121 -71.5q53 -35 108.5 -66t102.5 -31q76 0 111 48q10 16 14 34q2 8 2 17q2 20 15.5 34.5t33.5 12.5q20 0 34.5 -13.5t14.5 -33.5q0 -4 -4 -34t-26 -67q-20 -33 -64.5 -63.5t-130.5 -30.5q-70 0 -134.5 35t-129.5 76 q-51 33 -100.5 61.5t-90.5 28.5q-33 0 -56 -12.5t-39.5 -29.5t-25 -34.5t-8.5 -30.5q0 -23 -13 -36t-34 -13q-20 0 -34.5 13t-14.5 36z" />
<glyph unicode="&#xf2;" horiz-adv-x="1452" d="M176 612q14 88 58.5 164t106.5 134.5t142 94t168 46.5q-72 72 -104.5 173t-16.5 210q4 25 18.5 41t37.5 12q20 -4 30.5 -23.5t6.5 -46.5q-12 -61 -1 -118.5t39.5 -106.5t71.5 -87t98 -61q23 -10 41.5 -17t38.5 -13q4 -2 8.5 -3t8.5 -3q70 -29 128 -75t103 -112 q59 -92 83 -194.5t5 -206.5q-20 -111 -79.5 -201t-145.5 -150.5t-190.5 -85t-215.5 -3.5q-111 20 -200.5 79.5t-150 145.5t-85 191.5t-4.5 215.5zM299 590q-16 -86 2 -169t63.5 -150.5t115 -115t157.5 -63.5q86 -16 169 4.5t150.5 68.5t114.5 118.5t64 156.5q14 78 -7.5 160 t-68.5 150q-47 76 -117 120.5t-154 61.5q-88 14 -169.5 -5.5t-147 -66.5t-112 -116.5t-60.5 -153.5z" />
<glyph unicode="&#xf3;" horiz-adv-x="1470" d="M188 506q-4 104 34 202.5t110 182.5q49 53 106.5 88t122.5 57q4 2 7 2t7 2q23 6 45.5 10.5t49.5 12.5q53 18 98 51t78 78t49 99.5t12 113.5q-2 27 11.5 45t31.5 18q25 2 37 -15t12 -42q6 -109 -35.5 -202t-117.5 -158q90 -18 167 -65.5t134 -115t91 -150.5t38 -175 q4 -113 -35 -213.5t-110.5 -177t-170 -123.5t-210.5 -51q-113 -4 -213.5 35.5t-176 110.5t-122 169t-50.5 211zM303 510q2 -88 39 -165t97.5 -134t139 -89t166.5 -28t164 41t131.5 98.5t84 140.5t26.5 165q-2 84 -37 159.5t-94 132t-138 87t-167 28.5q-86 -4 -162 -39 t-131 -102q-57 -59 -90 -138t-29 -157z" />
<glyph unicode="&#xf4;" horiz-adv-x="1476" d="M209 518q0 106 41 200.5t112.5 165t168 112.5t204.5 42q109 0 204 -37.5t171 -113.5q72 -78 112 -171t40 -198q0 -109 -41 -204t-113 -166.5t-168 -112.5t-205 -41t-205 41t-167.5 112.5t-112.5 166.5t-41 204zM224.5 1170q0.5 24 17.5 40q111 106 248 166t264 58 q123 -2 253 -57.5t234 -159.5q16 -16 16 -40t-16 -40t-39.5 -16.5t-40.5 16.5q-88 90 -197.5 136t-211.5 48t-220.5 -48.5t-212.5 -142.5q-16 -16 -39.5 -16t-39.5 16t-15.5 40zM330 518q0 -84 31.5 -158.5t86 -132t128 -90.5t159.5 -33t161 33t132 90.5t90 132t33 158.5 q0 78 -34 151.5t-91 131.5q-57 66 -132 96.5t-159 30.5q-86 0 -159.5 -33t-128 -89t-86 -131t-31.5 -157z" />
<glyph unicode="&#xf5;" horiz-adv-x="1531" d="M211 518q0 109 43 206t116.5 171t173 117t214.5 43q111 0 209 -40t176 -118q74 -80 115.5 -177t41.5 -202q0 -113 -43 -212t-116.5 -173t-172 -117t-210.5 -43q-115 0 -214.5 43t-173 117t-116.5 173t-43 212zM285 1329q0 33 15 69t44 65.5t71 49t95 19.5q61 0 122.5 -33 t121.5 -72q53 -35 108.5 -65.5t102.5 -30.5q76 0 110 47q10 16 15 35q2 8 2 17q2 20 15 34.5t34 12.5q20 0 34.5 -13.5t14.5 -33.5q0 -4 -4 -34t-27 -67q-20 -33 -64 -63.5t-130 -30.5q-70 0 -134.5 35t-130.5 76q-51 33 -100 61.5t-90 28.5q-33 0 -56.5 -12.5t-40 -30 t-24.5 -35t-8 -29.5q0 -23 -13.5 -36t-33.5 -13t-34.5 13t-14.5 36zM336 518q0 -88 32.5 -166t89 -136t133.5 -93t167 -35q88 0 165.5 35t136 93t92.5 136t34 166q0 78 -35 155t-94 136q-59 66 -136 98.5t-163 32.5q-90 0 -167 -34t-133.5 -92t-89 -135t-32.5 -161z" />
<glyph unicode="&#xf6;" horiz-adv-x="1415" d="M150 547q0 141 68.5 261t184.5 191q-47 29 -73.5 77t-26.5 108q0 45 17.5 85t46 70.5t68.5 48t87 17.5q53 0 98.5 -22.5t73.5 -59.5q31 37 75 59.5t97 22.5q47 0 87 -17.5t70 -48t47 -70.5t17 -85q0 -59 -26.5 -107.5t-71.5 -77.5q49 -30 92 -73q74 -80 116 -177.5 t42 -201.5q0 -113 -43 -212t-116.5 -173t-172 -117t-211.5 -43q-115 0 -214 43t-172.5 117t-116.5 173t-43 212zM274 547q0 -88 33 -166t89.5 -136.5t133 -93t166.5 -34.5q88 0 166 34.5t136.5 93t92 136.5t33.5 166q0 78 -34.5 154.5t-94.5 136.5q-59 66 -136 98.5 t-163 32.5q-90 0 -166.5 -34t-133 -92.5t-89.5 -135t-33 -160.5zM399 1184q0 -49 37 -86t86 -37q16 0 25 2q4 2 6 2t6 2q39 12 63.5 44t24.5 73q0 47 -37 84t-88 37q-49 0 -86 -37t-37 -84zM743 1184q0 -39 21.5 -70t56.5 -45q20 -4 33 -8h12q51 0 88 37t37 86q0 47 -37 84 t-88 37q-49 0 -86 -37t-37 -84z" />
<glyph unicode="&#xf7;" horiz-adv-x="1359" d="M49 614q0 23 20.5 38.5t49.5 15.5h1069q29 0 49 -15.5t20 -38.5t-20 -37t-49 -14h-1069q-29 0 -49.5 14.5t-20.5 36.5zM436 221q0 45 17.5 85t46 71t68.5 48t87 17t87 -17t70 -48t47.5 -71t17.5 -85q0 -47 -17.5 -87t-47.5 -68.5t-70 -46t-87 -17.5t-87 17.5t-68.5 46 t-46 68.5t-17.5 87zM436 999q0 45 17.5 85t46 71t68.5 48.5t87 17.5t87 -17.5t70 -48.5t47.5 -71t17.5 -85q0 -47 -17.5 -87t-47.5 -68.5t-70 -46t-87 -17.5t-87 17.5t-68.5 46t-46 68.5t-17.5 87zM532 221q0 -49 37 -86t86 -37q51 0 88 37t37 86q0 47 -36.5 84t-88.5 37 q-49 0 -86 -37t-37 -84zM532 999q0 -49 37 -85.5t86 -36.5q51 0 88 36.5t37 85.5q0 47 -36.5 84t-88.5 37q-49 0 -86 -36.5t-37 -84.5z" />
<glyph unicode="&#xf8;" horiz-adv-x="1452" d="M184 528q0 109 43 206t117 171t173 117t214 43q111 0 209 -40t176 -118q74 -80 116 -177t42 -202q0 -113 -43 -212t-117 -172.5t-172 -116.5t-211 -43q-115 0 -214 43t-173 116.5t-117 173t-43 211.5zM309 528q0 -104 44 -193t120 -149l401 740q-72 25 -143 24 q-90 0 -167 -33.5t-133 -92t-89 -135.5t-33 -161zM584 125q65 -27 147 -27q88 0 166 35t136.5 93.5t92 136t33.5 165.5q0 78 -34.5 155t-94.5 136q-20 23 -47 43z" />
<glyph unicode="&#xf9;" horiz-adv-x="1419" d="M203 508v459q0 20 16.5 37.5t38.5 17.5q29 0 46.5 -17.5t17.5 -37.5v-459q0 -84 30.5 -155.5t83.5 -125t125 -84t156 -30.5q82 0 154.5 30.5t126 84t84 125t30.5 155.5l8 467q0 23 13.5 39t42.5 16q23 0 39 -16.5t16 -38.5v-467q0 -106 -40 -198.5t-109.5 -161 t-164 -107.5t-200.5 -39t-200.5 39t-164 107.5t-109.5 160.5t-40 199zM446 1464q-2 25 9.5 43.5t36.5 18.5q18 2 32.5 -16.5t14.5 -45.5q0 -72 28.5 -134t76.5 -108t111.5 -73t133.5 -27q23 0 39 -15t16 -34q0 -23 -16.5 -35t-38.5 -12q-90 0 -170 34t-140.5 94t-96.5 140 t-36 170z" />
<glyph unicode="&#xfa;" horiz-adv-x="1396" d="M193 508v459q0 20 16 37.5t39 17.5q29 0 46 -17.5t17 -37.5v-459q0 -84 31 -155.5t84 -125t125 -84t156 -30.5q82 0 154.5 30.5t125.5 84t84 125t31 155.5l8 467q0 23 13.5 39t41.5 16q23 0 39.5 -16.5t16.5 -38.5v-467q0 -106 -40 -198.5t-110 -161t-164 -107.5 t-200 -39t-200.5 39t-164.5 107.5t-109.5 160.5t-39.5 199zM467 1075q0 18 11 31.5t36 13.5q74 0 137.5 28t110.5 76t73.5 110t26.5 132q0 23 16.5 39.5t34.5 16.5q23 0 34 -16.5t11 -39.5q0 -90 -35.5 -169.5t-96 -139t-141.5 -94.5t-171 -35q-47 0 -47 47z" />
<glyph unicode="&#xfb;" horiz-adv-x="1435" d="M199 508v459q0 20 16 37.5t39 17.5q29 0 46 -17.5t17 -37.5v-459q0 -84 31 -155.5t84 -125t125 -84t156 -30.5q82 0 154.5 30.5t126 84t84 125t30.5 155.5l8 467q0 23 13.5 39t41.5 16q23 0 39.5 -16.5t16.5 -38.5v-467q0 -106 -40 -198.5t-109.5 -161t-164 -107.5 t-200.5 -39t-200.5 39t-164 107.5t-109.5 160.5t-40 199zM271.5 1207q0.5 24 17.5 40q55 53 106 89t103.5 57.5t108 30t118.5 8.5q61 0 115.5 -10.5t104.5 -32t99.5 -57.5t100.5 -87q16 -16 16 -39.5t-16 -40.5q-16 -16 -40 -16t-40 16q-43 45 -83 74t-81 46.5t-84 25.5 t-94 8t-95 -6t-87 -23.5t-85 -47.5t-89 -75q-16 -16 -40 -16t-40 16t-15.5 40z" />
<glyph unicode="&#xfc;" horiz-adv-x="1517" d="M250 508v459q0 20 16.5 37.5t38.5 17.5q29 0 46.5 -17.5t17.5 -37.5v-459q0 -84 30.5 -155.5t84 -125t125 -84t155.5 -30.5q82 0 154.5 30.5t126 84t84 125t30.5 155.5l8 467q0 23 13.5 39t42.5 16q23 0 39 -16.5t16 -38.5v-467q0 -106 -40 -198.5t-109.5 -161 t-164 -107.5t-200.5 -39t-200.5 39t-164 107.5t-109.5 160.5t-40 199zM373 1321q0 45 17.5 85t46 70.5t68.5 48t87 17.5q53 0 98 -22.5t74 -59.5q31 37 75 59.5t97 22.5q47 0 87 -17.5t69.5 -48t47 -70.5t17.5 -85q0 -47 -17.5 -87t-47 -68.5t-69.5 -46t-87 -17.5 q-53 0 -97 21.5t-75 58.5q-29 -37 -74 -58.5t-98 -21.5q-47 0 -87 17.5t-68.5 46t-46 68.5t-17.5 87zM469 1321q0 -49 37 -86t86 -37q51 0 88 37t37 86q0 47 -37 84t-88 37q-49 0 -86 -37t-37 -84zM813 1321q0 -49 37 -86t86 -37q51 0 88 37t37 86q0 47 -37 84t-88 37 q-49 0 -86 -37t-37 -84z" />
<glyph unicode="&#xfd;" horiz-adv-x="1415" d="M207 514v440q0 20 16.5 37t36.5 17q29 0 42 -16.5t13 -37.5v-440q0 -86 31 -158.5t84 -127t126 -84t157 -29.5t156.5 29.5t126 84t83 127t29.5 158.5v440q0 20 16.5 37t36.5 17q23 0 39.5 -16.5t16.5 -37.5l10 -794q0 -113 -41 -210t-109.5 -169t-161 -113t-194.5 -41 q-53 0 -53 54q0 20 13 37.5t40 17.5q82 0 152.5 33.5t123 91t82 134.5t29.5 165v26q-66 -82 -169 -131t-226 -49q-104 0 -196.5 40t-161 108.5t-108.5 162t-40 197.5zM260 1329q0 33 15.5 69t44 65.5t70.5 49t95 19.5q61 0 123 -33t121 -72q53 -35 108.5 -65.5t102.5 -30.5 q76 0 111 47q10 16 14 35q2 8 2 17q2 20 15.5 34.5t33.5 12.5q20 0 34.5 -13.5t14.5 -33.5q0 -4 -4 -34t-26 -67q-20 -33 -64.5 -63.5t-130.5 -30.5q-70 0 -134.5 35t-129.5 76q-51 33 -100.5 61.5t-90.5 28.5q-33 0 -56 -12.5t-39.5 -30t-25 -35t-8.5 -29.5q0 -23 -13 -36 t-34 -13q-20 0 -34.5 13t-14.5 36z" />
<glyph unicode="&#xff;" horiz-adv-x="1406" d="M176 514v440q0 20 16.5 37t36.5 17q29 0 42.5 -16.5t13.5 -37.5v-440q0 -86 30.5 -158.5t84 -127t126 -84t156.5 -29.5t156.5 29.5t126 84t83 127t29.5 158.5v440q0 20 16.5 37t36.5 17q23 0 39.5 -16.5t16.5 -37.5l10 -794q0 -113 -41 -210t-109.5 -169t-160.5 -113 t-195 -41q-53 0 -53 54q0 20 13.5 37.5t39.5 17.5q82 0 152.5 33.5t123 91t82 134.5t29.5 165v26q-66 -82 -169 -131t-226 -49q-104 0 -196.5 40t-161 108.5t-108.5 162t-40 197.5zM291 1329q0 45 17.5 85t46 71t68.5 48t87 17q53 0 98 -22.5t74 -59.5q31 37 75 59.5 t97 22.5q47 0 87 -17t69.5 -48t47 -71t17.5 -85q0 -47 -17.5 -87t-47 -68.5t-69.5 -46t-87 -17.5q-53 0 -97 21.5t-75 58.5q-29 -37 -74 -58.5t-98 -21.5q-47 0 -87 17.5t-68.5 46t-46 68.5t-17.5 87zM387 1329q0 -49 37 -86t86 -37q51 0 88 37t37 86q0 47 -37 84t-88 37 q-49 0 -86 -37t-37 -84zM731 1329q0 -49 37 -86t86 -37q51 0 88 37t37 86q0 47 -37 84t-88 37q-49 0 -86 -37t-37 -84z" />
<glyph unicode="&#x152;" horiz-adv-x="2533" d="M160 719q0 152 57 286t157.5 233t233.5 157.5t285 58.5q145 0 272 -49t226 -135q96 80 214.5 126t252.5 44q113 0 222 -34t195 -101q20 -14 26.5 -38t-9.5 -42q-12 -16 -35 -20.5t-41 12.5q-80 53 -169 84.5t-189 31.5q-113 0 -213.5 -38t-178.5 -103q72 -86 116 -190.5 t54 -221.5l342 -2q20 0 38 -15t18 -38q0 -20 -17.5 -36.5t-38.5 -16.5l-340 -2q-10 -121 -54 -227.5t-116 -192.5q78 -66 176.5 -103.5t208.5 -37.5q121 0 230.5 44t187.5 126q20 20 43 17t39 -17q12 -14 12 -37t-12 -43q-102 -94 -230 -144.5t-270 -50.5q-131 2 -248.5 46 t-211.5 122q-98 -88 -225.5 -138t-274.5 -50q-152 0 -285 57t-233.5 157.5t-157.5 234.5t-57 286zM268 719q0 -131 50.5 -245t135.5 -199t198.5 -133t240.5 -48q131 0 246.5 48t203 133t137.5 199t50 245q0 127 -50 240.5t-137.5 199.5t-203 136.5t-246.5 50.5 q-127 0 -240.5 -50.5t-198.5 -136.5t-135.5 -199.5t-50.5 -240.5z" />
<glyph unicode="&#x153;" horiz-adv-x="1738" d="M92 508q0 104 39 195.5t107.5 160t161 107.5t196.5 39q94 0 175 -33t149 -92q70 61 152.5 91t167.5 31t169 -28t158 -86q20 -18 38.5 -38.5t32.5 -41.5q14 -14 13.5 -35.5t-23.5 -36.5l-637 -540h8q61 -51 134 -71.5t148 -12.5t144.5 43t122.5 96q14 18 37 19t35 -11 q23 -12 24 -35.5t-16 -44.5q-63 -78 -150 -123t-182.5 -54t-190.5 17.5t-177 94.5h-8h8q-6 0 -7 1t-1 11q-68 -61 -152 -90t-172 -29q-102 0 -193.5 35t-166.5 109q-68 70 -106 160t-38 192zM201 508q0 -80 30.5 -151.5t85 -124t126 -83t153.5 -30.5q74 0 144.5 27.5 t125.5 80.5q6 8 17.5 20.5t27.5 24.5q33 55 52.5 114.5t19.5 121.5q0 82 -28.5 153.5t-88.5 124.5q-55 53 -125.5 84t-144.5 31q-82 0 -153.5 -30.5t-126 -85t-85 -126t-30.5 -151.5zM999 803q41 -59 66 -133t25 -162v-82q61 53 127.5 111.5t127 108.5t105.5 88t61 52 q-6 6 -8 11.5t-8 5.5q-117 96 -251 96t-245 -96z" />
<glyph unicode="&#x178;" horiz-adv-x="1839" d="M184 1044q0 184 86 345q31 43 76 26q23 -14 33 -37.5t-4 -46.5q-35 -66 -55.5 -137.5t-20.5 -149.5q0 -125 48 -233.5t131 -189t193.5 -126.5t235.5 -46t233.5 46t189.5 126.5t127 189.5t46 233q0 78 -19.5 151t-56.5 144q-6 23 1.5 42.5t29.5 33.5q20 14 41 9t35 -27 q43 -78 63.5 -169.5t20.5 -183.5q0 -139 -50 -264t-138.5 -221t-208 -156.5t-258.5 -70.5v-275q0 -29 -16.5 -43t-39.5 -14q-57 0 -57 57v275q-139 10 -260 70.5t-211 156.5t-142.5 221t-52.5 264zM512 1630q0 45 17.5 85t46 71t68.5 48t87 17q53 0 98 -22.5t74 -59.5 q31 37 75 59.5t97 22.5q47 0 87 -17t70 -48t47 -71t17 -85q0 -47 -17 -87t-47 -68.5t-70 -46t-87 -17.5q-53 0 -97 21.5t-75 58.5q-29 -37 -74 -58.5t-98 -21.5q-47 0 -87 17.5t-68.5 46t-46 68.5t-17.5 87zM608 1630q0 -49 37 -86t86 -37q51 0 88 37t37 86q0 47 -37 84 t-88 37q-49 0 -86 -37t-37 -84zM952 1630q0 -49 37 -86t86 -37q51 0 88 37t37 86q0 47 -37 84t-88 37q-49 0 -86 -37t-37 -84z" />
<glyph unicode="&#x2c6;" horiz-adv-x="1099" d="M52.5 1080q0.5 24 17.5 40q111 106 230.5 161.5t246.5 53.5q123 -2 239.5 -57t221.5 -160q16 -16 16 -39.5t-16 -40.5q-16 -16 -40 -16t-40 16q-178 180 -383 185q-102 2 -203 -44.5t-195 -138.5q-16 -16 -39.5 -16t-39.5 16t-15.5 40z" />
<glyph unicode="&#x2dc;" horiz-adv-x="1216" d="M164 1329q0 33 15.5 69t44 65.5t70.5 49t95 19.5q61 0 122.5 -33t121.5 -72q53 -35 108.5 -65.5t102.5 -30.5q76 0 110 47q10 16 15 35q2 8 2 17q2 20 15 34.5t34 12.5q20 0 34.5 -13.5t14.5 -33.5q0 -4 -4 -34t-27 -67q-20 -33 -64 -63.5t-130 -30.5q-70 0 -134.5 35 t-129.5 76q-51 33 -100.5 61.5t-90.5 28.5q-33 0 -56.5 -12.5t-40 -30t-24.5 -35t-8 -29.5q0 -23 -13.5 -36t-33.5 -13t-34.5 13t-14.5 36z" />
<glyph unicode="&#x2000;" horiz-adv-x="1028" />
<glyph unicode="&#x2001;" horiz-adv-x="2056" />
<glyph unicode="&#x2002;" horiz-adv-x="1028" />
<glyph unicode="&#x2003;" horiz-adv-x="2056" />
<glyph unicode="&#x2004;" horiz-adv-x="685" />
<glyph unicode="&#x2005;" horiz-adv-x="514" />
<glyph unicode="&#x2006;" horiz-adv-x="342" />
<glyph unicode="&#x2007;" horiz-adv-x="342" />
<glyph unicode="&#x2008;" horiz-adv-x="257" />
<glyph unicode="&#x2009;" horiz-adv-x="411" />
<glyph unicode="&#x200a;" horiz-adv-x="114" />
<glyph unicode="&#x2010;" d="M111 674q0 23 19.5 42t43.5 17l502 2q23 -2 42 -16t19 -49q2 -23 -17.5 -42.5t-43.5 -19.5l-502 -2q-31 2 -47 21.5t-16 46.5z" />
<glyph unicode="&#x2011;" d="M111 674q0 23 19.5 42t43.5 17l502 2q23 -2 42 -16t19 -49q2 -23 -17.5 -42.5t-43.5 -19.5l-502 -2q-31 2 -47 21.5t-16 46.5z" />
<glyph unicode="&#x2012;" d="M111 674q0 23 19.5 42t43.5 17l502 2q23 -2 42 -16t19 -49q2 -23 -17.5 -42.5t-43.5 -19.5l-502 -2q-31 2 -47 21.5t-16 46.5z" />
<glyph unicode="&#x2013;" horiz-adv-x="915" d="M131 518q0 23 20.5 38t49.5 15h516q29 0 49 -15t20 -38t-20.5 -37t-48.5 -14h-516q-29 0 -49.5 14.5t-20.5 36.5z" />
<glyph unicode="&#x2014;" horiz-adv-x="1533" d="M129 518q0 23 20.5 38t49.5 15h1140q29 0 49.5 -15t20.5 -38t-20.5 -37t-49.5 -14h-1140q-29 0 -49.5 14.5t-20.5 36.5z" />
<glyph unicode="&#x2018;" horiz-adv-x="776" d="M154 1374q-2 25 9 43.5t36 18.5q18 2 32.5 -16.5t14.5 -45.5q0 -72 28.5 -134t76.5 -108.5t111.5 -73t133.5 -26.5q23 0 39 -15.5t16 -33.5q0 -23 -16.5 -35t-38.5 -12q-90 0 -170 34t-140.5 94t-96 140t-35.5 170z" />
<glyph unicode="&#x2019;" horiz-adv-x="800" d="M156 985q0 18 11 31.5t36 13.5q74 0 137 27.5t110.5 76t74 110.5t26.5 132q0 23 16.5 39.5t34.5 16.5q23 0 34 -16.5t11 -39.5q0 -90 -36 -170t-96 -139t-141 -94t-171 -35q-47 0 -47 47z" />
<glyph unicode="&#x201a;" horiz-adv-x="897" d="M213 215q0 45 17.5 87t46 74t68.5 50t87 18t87 -18t69.5 -50t47 -74t17.5 -87q0 -35 -16 -74t-41 -65q0 -14 -8 -15l-170 -180q-14 -18 -35 -19t-31 13q-18 16 -19 37.5t9 34.5l57 57q-78 12 -132 72.5t-54 138.5zM309 215q0 -47 37 -81t86 -34q51 0 88 34t37 81 q0 57 -37 90t-88 33q-49 0 -86 -33t-37 -90z" />
<glyph unicode="&#x201c;" horiz-adv-x="1159" d="M123 926q0 35 16.5 73.5t40.5 65.5q0 14 8 14l170 181q14 18 35 19t31 -13q18 -16 19 -38t-9 -34l-57 -57q78 -12 132 -72.5t54 -138.5q0 -47 -17.5 -88t-46 -73t-69.5 -50.5t-86 -18.5q-47 0 -87 18.5t-69.5 50.5t-47 73t-17.5 88zM219 926q0 -57 37 -90t88 -33 q49 0 86 32.5t37 90.5q0 47 -37 80.5t-86 33.5q-51 0 -88 -33.5t-37 -80.5zM561 926q0 35 16.5 73.5t40.5 65.5q0 14 9 14l170 181q14 18 34.5 19t30.5 -13q18 -16 19.5 -38t-9.5 -34l-57 -57q78 -12 132 -72.5t54 -138.5q0 -47 -17 -88t-46 -73t-70 -50.5t-86 -18.5 q-47 0 -87 18.5t-69.5 50.5t-47 73t-17.5 88zM657 926q0 -57 37 -90t88 -33q49 0 86 32.5t37 90.5q0 47 -37 80.5t-86 33.5q-51 0 -88 -33.5t-37 -80.5z" />
<glyph unicode="&#x201d;" horiz-adv-x="1118" d="M119 1024q0 45 17.5 87t46 74t68.5 50t87 18t87 -18t69.5 -50t47 -74t17.5 -87q0 -35 -16.5 -74t-40.5 -65q0 -14 -8 -15l-170 -180q-14 -18 -35 -19t-31 13q-18 16 -19 37.5t9 34.5l57 57q-78 12 -132 72.5t-54 138.5zM215 1024q0 -47 37 -81t86 -34q51 0 88 34t37 81 q0 57 -37 90t-88 33q-49 0 -86 -33t-37 -90zM557 1024q0 45 17.5 87t46 74t68.5 50t87 18t87 -18t70 -50t47 -74t17 -87q0 -35 -16 -74t-41 -65q0 -14 -8 -15l-170 -180q-14 -18 -34.5 -19t-31.5 13q-18 16 -19 37.5t9 34.5l57 57q-78 12 -132 72.5t-54 138.5zM653 1024 q0 -47 37 -81t86 -34q51 0 88 34t37 81q0 57 -37 90t-88 33q-49 0 -86 -33t-37 -90z" />
<glyph unicode="&#x201e;" horiz-adv-x="1361" d="M223 215q0 45 17.5 87t46 74t68.5 50t87 18t87 -18t70 -50t47.5 -74t17.5 -87q0 -35 -16.5 -74t-41.5 -65q0 -14 -8 -15l-170 -180q-14 -18 -34.5 -19t-31.5 13q-18 16 -19 37.5t9 34.5l58 57q-78 12 -132.5 72.5t-54.5 138.5zM319 215q0 -47 37 -81t86 -34q51 0 88 34 t37 81q0 57 -36.5 90t-88.5 33q-49 0 -86 -33t-37 -90zM662 215q0 45 17 87t46 74t69 50t87 18t87 -18t69.5 -50t47 -74t17.5 -87q0 -35 -16.5 -74t-41.5 -65q0 -14 -8 -15l-170 -180q-14 -18 -34.5 -19t-30.5 13q-18 16 -19.5 37.5t9.5 34.5l57 57q-78 12 -132 72.5 t-54 138.5zM758 215q0 -47 37 -81t86 -34q51 0 88 34t37 81q0 57 -37 90t-88 33q-49 0 -86 -33t-37 -90z" />
<glyph unicode="&#x2022;" horiz-adv-x="806" d="M145 625q0 51 20.5 98t56.5 82t83 55.5t103 20.5q109 0 182 -76q35 -39 55.5 -85t20.5 -95q0 -55 -20.5 -102.5t-55.5 -82t-82 -55t-100 -20.5q-55 0 -102.5 20.5t-83.5 55t-56.5 82t-20.5 102.5z" />
<glyph unicode="&#x2026;" horiz-adv-x="1591" d="M102 221q0 45 17.5 85t46.5 71t69 48t87 17t87 -17t69.5 -48t47 -71t17.5 -85q0 -47 -17.5 -87t-47 -68.5t-69.5 -46t-87 -17.5t-87 17.5t-69 46t-46.5 68.5t-17.5 87zM199 221q0 -49 37 -86t86 -37q51 0 87.5 37t36.5 86q0 47 -36.5 84t-87.5 37q-49 0 -86 -37t-37 -84z M545 221q0 45 17.5 85t46 71t68.5 48t87 17t87 -17t69.5 -48t47 -71t17.5 -85q0 -47 -17.5 -87t-47 -68.5t-69.5 -46t-87 -17.5t-87 17.5t-68.5 46t-46 68.5t-17.5 87zM641 221q0 -49 37 -86t86 -37q51 0 88 37t37 86q0 47 -37 84t-88 37q-49 0 -86 -37t-37 -84zM987 221 q0 45 17.5 85t46 71t68.5 48t87 17t87 -17t70 -48t47 -71t17 -85q0 -47 -17 -87t-47 -68.5t-70 -46t-87 -17.5t-87 17.5t-68.5 46t-46 68.5t-17.5 87zM1083 221q0 -49 37 -86t86 -37q51 0 88 37t37 86q0 47 -37 84t-88 37q-49 0 -86 -37t-37 -84z" />
<glyph unicode="&#x202f;" horiz-adv-x="411" />
<glyph unicode="&#x2039;" horiz-adv-x="929" d="M191 805.5q2 19.5 24 42.5l385 385q23 18 52.5 20t47.5 -18q16 -16 11.5 -43t-21.5 -45l-358 -359l358 -405q10 -16 12.5 -40t-26.5 -46q-16 -14 -43 -13t-43 23q-102 115 -184 209q-35 39 -69 77t-60.5 68.5t-44 51t-19.5 22.5q-14 16 -20 35q-4 16 -2 35.5z" />
<glyph unicode="&#x203a;" horiz-adv-x="935" d="M181.5 199.5q-1.5 27.5 19.5 42.5l121 118q57 53 89.5 125t32.5 156q0 66 -21.5 127t-62.5 111l-141 149q-12 16 -16 41t22 47q16 16 44 16.5t44 -20.5l412 -434l14 -14q14 -18 13.5 -36t-7.5 -32q-8 -16 -22 -33l-434 -411q-20 -20 -45 -18.5t-47 20.5 q-14 18 -15.5 45.5z" />
<glyph unicode="&#x205f;" horiz-adv-x="514" />
<glyph unicode="&#x20ac;" horiz-adv-x="1888" d="M72 600q-2 23 14 39t39 16l262 2q0 16 -1 30.5t-1 31.5q0 18 1 36.5t3 37.5l-262 -2q-23 0 -38 15t-15 38t15 38t38 15l285 4q31 115 97 212t158.5 168t206 111t238.5 38q174 -2 325.5 -82t252.5 -222q14 -16 10 -38.5t-23 -36.5q-18 -12 -39.5 -8t-35.5 22 q-86 119 -215.5 186.5t-276.5 69.5q-102 2 -195.5 -28.5t-170 -87t-133 -134.5t-87.5 -170l295 2q23 0 39 -15.5t16 -37.5q0 -23 -15 -38t-38 -15l-321 -4q-6 -37 -6 -76v-28.5t2 -29.5l321 3q23 0 39 -15.5t16 -38.5t-15 -39t-38 -16l-305 -2q41 -152 154 -268 q86 -86 196.5 -133.5t233.5 -49.5q84 0 163.5 21.5t149.5 61.5t128 98.5t99 132.5q10 20 32 26t42 -4q18 -12 24.5 -32.5t-3.5 -41.5q-98 -174 -267.5 -273t-367.5 -97q-145 2 -275.5 57t-232.5 160q-70 72 -117 158t-70 182l-278 -2q-23 0 -38 15.5t-15 37.5z" />
<glyph unicode="&#x25fc;" horiz-adv-x="1024" d="M0 0v1024h1024v-1024h-1024z" />
</font>
</defs>
</svg>
