<?xml version="1.0" encoding="UTF-8" standalone="no"?>
<!DOCTYPE svg PUBLIC "-//W3C//DTD SVG 1.1//EN"
 "http://www.w3.org/Graphics/SVG/1.1/DTD/svg11.dtd">
<!-- Generated by graphviz version 2.40.1 (20161225.0304)
 -->
<!-- Title: controllers_diagram Pages: 1 -->
<svg width="1356pt" height="1311pt"
 viewBox="0.00 0.00 1356.00 1311.00" xmlns="http://www.w3.org/2000/svg" xmlns:xlink="http://www.w3.org/1999/xlink">
<g id="graph0" class="graph" transform="scale(1 1) rotate(0) translate(4 1307)">
<title>controllers_diagram</title>
<polygon fill="transparent" stroke="transparent" points="-4,4 -4,-1307 1352,-1307 1352,4 -4,4"/>
<!-- _diagram_info -->
<g id="node1" class="node">
<title>_diagram_info</title>
<text text-anchor="start" x="1142" y="-105.6" font-family="Times,serif" font-size="13.00" fill="#000000">Controllers diagram</text>
<text text-anchor="start" x="1142" y="-91.6" font-family="Times,serif" font-size="13.00" fill="#000000">Date: Feb 07 2019 &#45; 16:47</text>
<text text-anchor="start" x="1142" y="-77.6" font-family="Times,serif" font-size="13.00" fill="#000000">Migration version: 20190205120100</text>
<text text-anchor="start" x="1142" y="-63.6" font-family="Times,serif" font-size="13.00" fill="#000000">Generated by RailRoady 1.5.3</text>
<text text-anchor="start" x="1142" y="-49.6" font-family="Times,serif" font-size="13.00" fill="#000000">http://railroady.prestonlee.com</text>
</g>
<!-- ProductsController -->
<g id="node2" class="node">
<title>ProductsController</title>
<path fill="none" stroke="#000000" d="M96,-1113.5C96,-1113.5 191,-1113.5 191,-1113.5 197,-1113.5 203,-1119.5 203,-1125.5 203,-1125.5 203,-1224.5 203,-1224.5 203,-1230.5 197,-1236.5 191,-1236.5 191,-1236.5 96,-1236.5 96,-1236.5 90,-1236.5 84,-1230.5 84,-1224.5 84,-1224.5 84,-1125.5 84,-1125.5 84,-1119.5 90,-1113.5 96,-1113.5"/>
<text text-anchor="middle" x="143.5" y="-1221.3" font-family="Times,serif" font-size="14.00" fill="#000000">ProductsController</text>
<polyline fill="none" stroke="#000000" points="84,-1213.5 203,-1213.5 "/>
<text text-anchor="start" x="92" y="-1198.3" font-family="Times,serif" font-size="14.00" fill="#000000">index</text>
<text text-anchor="start" x="92" y="-1183.3" font-family="Times,serif" font-size="14.00" fill="#000000">show</text>
<polyline fill="none" stroke="#000000" points="84,-1175.5 203,-1175.5 "/>
<polyline fill="none" stroke="#000000" points="84,-1151.5 203,-1151.5 "/>
<text text-anchor="start" x="92" y="-1136.3" font-family="Times,serif" font-size="14.00" fill="#000000">_layout</text>
<text text-anchor="start" x="92" y="-1121.3" font-family="Times,serif" font-size="14.00" fill="#000000">set_product</text>
</g>
<!-- CustomersController -->
<g id="node3" class="node">
<title>CustomersController</title>
<path fill="none" stroke="#000000" d="M369,-147.5C369,-147.5 501,-147.5 501,-147.5 507,-147.5 513,-153.5 513,-159.5 513,-159.5 513,-363.5 513,-363.5 513,-369.5 507,-375.5 501,-375.5 501,-375.5 369,-375.5 369,-375.5 363,-375.5 357,-369.5 357,-363.5 357,-363.5 357,-159.5 357,-159.5 357,-153.5 363,-147.5 369,-147.5"/>
<text text-anchor="middle" x="435" y="-360.3" font-family="Times,serif" font-size="14.00" fill="#000000">CustomersController</text>
<polyline fill="none" stroke="#000000" points="357,-352.5 513,-352.5 "/>
<text text-anchor="start" x="365" y="-337.3" font-family="Times,serif" font-size="14.00" fill="#000000">create</text>
<text text-anchor="start" x="365" y="-322.3" font-family="Times,serif" font-size="14.00" fill="#000000">deactive</text>
<text text-anchor="start" x="365" y="-307.3" font-family="Times,serif" font-size="14.00" fill="#000000">edit</text>
<text text-anchor="start" x="365" y="-292.3" font-family="Times,serif" font-size="14.00" fill="#000000">generate_token</text>
<text text-anchor="start" x="365" y="-277.3" font-family="Times,serif" font-size="14.00" fill="#000000">new</text>
<text text-anchor="start" x="365" y="-262.3" font-family="Times,serif" font-size="14.00" fill="#000000">send_confirmation_email</text>
<text text-anchor="start" x="365" y="-247.3" font-family="Times,serif" font-size="14.00" fill="#000000">show</text>
<text text-anchor="start" x="365" y="-232.3" font-family="Times,serif" font-size="14.00" fill="#000000">update</text>
<polyline fill="none" stroke="#000000" points="357,-224.5 513,-224.5 "/>
<polyline fill="none" stroke="#000000" points="357,-200.5 513,-200.5 "/>
<text text-anchor="start" x="365" y="-185.3" font-family="Times,serif" font-size="14.00" fill="#000000">_layout</text>
<text text-anchor="start" x="365" y="-170.3" font-family="Times,serif" font-size="14.00" fill="#000000">customer_params</text>
<text text-anchor="start" x="365" y="-155.3" font-family="Times,serif" font-size="14.00" fill="#000000">set_customer</text>
</g>
<!-- ChartsController -->
<g id="node4" class="node">
<title>ChartsController</title>
<path fill="none" stroke="#000000" d="M96,-987.5C96,-987.5 203,-987.5 203,-987.5 209,-987.5 215,-993.5 215,-999.5 215,-999.5 215,-1068.5 215,-1068.5 215,-1074.5 209,-1080.5 203,-1080.5 203,-1080.5 96,-1080.5 96,-1080.5 90,-1080.5 84,-1074.5 84,-1068.5 84,-1068.5 84,-999.5 84,-999.5 84,-993.5 90,-987.5 96,-987.5"/>
<text text-anchor="middle" x="149.5" y="-1065.3" font-family="Times,serif" font-size="14.00" fill="#000000">ChartsController</text>
<polyline fill="none" stroke="#000000" points="84,-1057.5 215,-1057.5 "/>
<text text-anchor="start" x="92" y="-1042.3" font-family="Times,serif" font-size="14.00" fill="#000000">product_by_category</text>
<polyline fill="none" stroke="#000000" points="84,-1034.5 215,-1034.5 "/>
<polyline fill="none" stroke="#000000" points="84,-1010.5 215,-1010.5 "/>
<text text-anchor="start" x="92" y="-995.3" font-family="Times,serif" font-size="14.00" fill="#000000">_layout</text>
</g>
<!-- PaypalController -->
<g id="node5" class="node">
<title>PaypalController</title>
<path fill="none" stroke="#000000" d="M180,-504.5C180,-504.5 265,-504.5 265,-504.5 271,-504.5 277,-510.5 277,-516.5 277,-516.5 277,-645.5 277,-645.5 277,-651.5 271,-657.5 265,-657.5 265,-657.5 180,-657.5 180,-657.5 174,-657.5 168,-651.5 168,-645.5 168,-645.5 168,-516.5 168,-516.5 168,-510.5 174,-504.5 180,-504.5"/>
<text text-anchor="middle" x="222.5" y="-642.3" font-family="Times,serif" font-size="14.00" fill="#000000">PaypalController</text>
<polyline fill="none" stroke="#000000" points="168,-634.5 277,-634.5 "/>
<text text-anchor="start" x="176" y="-619.3" font-family="Times,serif" font-size="14.00" fill="#000000">paypal_auth</text>
<text text-anchor="start" x="176" y="-604.3" font-family="Times,serif" font-size="14.00" fill="#000000">paypal_checkout</text>
<text text-anchor="start" x="176" y="-589.3" font-family="Times,serif" font-size="14.00" fill="#000000">paypal_order</text>
<text text-anchor="start" x="176" y="-574.3" font-family="Times,serif" font-size="14.00" fill="#000000">paypal_payment</text>
<text text-anchor="start" x="176" y="-559.3" font-family="Times,serif" font-size="14.00" fill="#000000">paypal_sign_in</text>
<polyline fill="none" stroke="#000000" points="168,-551.5 277,-551.5 "/>
<polyline fill="none" stroke="#000000" points="168,-527.5 277,-527.5 "/>
<text text-anchor="start" x="176" y="-512.3" font-family="Times,serif" font-size="14.00" fill="#000000">_layout</text>
</g>
<!-- CartController -->
<g id="node6" class="node">
<title>CartController</title>
<path fill="none" stroke="#000000" d="M915,-294.5C915,-294.5 986,-294.5 986,-294.5 992,-294.5 998,-300.5 998,-306.5 998,-306.5 998,-375.5 998,-375.5 998,-381.5 992,-387.5 986,-387.5 986,-387.5 915,-387.5 915,-387.5 909,-387.5 903,-381.5 903,-375.5 903,-375.5 903,-306.5 903,-306.5 903,-300.5 909,-294.5 915,-294.5"/>
<text text-anchor="middle" x="950.5" y="-372.3" font-family="Times,serif" font-size="14.00" fill="#000000">CartController</text>
<polyline fill="none" stroke="#000000" points="903,-364.5 998,-364.5 "/>
<text text-anchor="start" x="911" y="-349.3" font-family="Times,serif" font-size="14.00" fill="#000000">index</text>
<polyline fill="none" stroke="#000000" points="903,-341.5 998,-341.5 "/>
<polyline fill="none" stroke="#000000" points="903,-317.5 998,-317.5 "/>
<text text-anchor="start" x="911" y="-302.3" font-family="Times,serif" font-size="14.00" fill="#000000">_layout</text>
</g>
<!-- Admin::CategoriesController -->
<g id="node7" class="node">
<title>Admin::CategoriesController</title>
<path fill="none" stroke="#000000" d="M264,-945.5C264,-945.5 416,-945.5 416,-945.5 422,-945.5 428,-951.5 428,-957.5 428,-957.5 428,-1176.5 428,-1176.5 428,-1182.5 422,-1188.5 416,-1188.5 416,-1188.5 264,-1188.5 264,-1188.5 258,-1188.5 252,-1182.5 252,-1176.5 252,-1176.5 252,-957.5 252,-957.5 252,-951.5 258,-945.5 264,-945.5"/>
<text text-anchor="middle" x="340" y="-1173.3" font-family="Times,serif" font-size="14.00" fill="#000000">Admin::CategoriesController</text>
<polyline fill="none" stroke="#000000" points="252,-1165.5 428,-1165.5 "/>
<text text-anchor="start" x="260" y="-1150.3" font-family="Times,serif" font-size="14.00" fill="#000000">active</text>
<text text-anchor="start" x="260" y="-1135.3" font-family="Times,serif" font-size="14.00" fill="#000000">create</text>
<text text-anchor="start" x="260" y="-1120.3" font-family="Times,serif" font-size="14.00" fill="#000000">deactive</text>
<text text-anchor="start" x="260" y="-1105.3" font-family="Times,serif" font-size="14.00" fill="#000000">edit</text>
<text text-anchor="start" x="260" y="-1090.3" font-family="Times,serif" font-size="14.00" fill="#000000">history</text>
<text text-anchor="start" x="260" y="-1075.3" font-family="Times,serif" font-size="14.00" fill="#000000">index</text>
<text text-anchor="start" x="260" y="-1060.3" font-family="Times,serif" font-size="14.00" fill="#000000">new</text>
<text text-anchor="start" x="260" y="-1045.3" font-family="Times,serif" font-size="14.00" fill="#000000">show</text>
<text text-anchor="start" x="260" y="-1030.3" font-family="Times,serif" font-size="14.00" fill="#000000">update</text>
<polyline fill="none" stroke="#000000" points="252,-1022.5 428,-1022.5 "/>
<polyline fill="none" stroke="#000000" points="252,-998.5 428,-998.5 "/>
<text text-anchor="start" x="260" y="-983.3" font-family="Times,serif" font-size="14.00" fill="#000000">_layout</text>
<text text-anchor="start" x="260" y="-968.3" font-family="Times,serif" font-size="14.00" fill="#000000">category_params</text>
<text text-anchor="start" x="260" y="-953.3" font-family="Times,serif" font-size="14.00" fill="#000000">set_category</text>
</g>
<!-- Admin::ProductsController -->
<g id="node8" class="node">
<title>Admin::ProductsController</title>
<path fill="none" stroke="#000000" d="M852,-1029.5C852,-1029.5 993,-1029.5 993,-1029.5 999,-1029.5 1005,-1035.5 1005,-1041.5 1005,-1041.5 1005,-1260.5 1005,-1260.5 1005,-1266.5 999,-1272.5 993,-1272.5 993,-1272.5 852,-1272.5 852,-1272.5 846,-1272.5 840,-1266.5 840,-1260.5 840,-1260.5 840,-1041.5 840,-1041.5 840,-1035.5 846,-1029.5 852,-1029.5"/>
<text text-anchor="middle" x="922.5" y="-1257.3" font-family="Times,serif" font-size="14.00" fill="#000000">Admin::ProductsController</text>
<polyline fill="none" stroke="#000000" points="840,-1249.5 1005,-1249.5 "/>
<text text-anchor="start" x="848" y="-1234.3" font-family="Times,serif" font-size="14.00" fill="#000000">active</text>
<text text-anchor="start" x="848" y="-1219.3" font-family="Times,serif" font-size="14.00" fill="#000000">create</text>
<text text-anchor="start" x="848" y="-1204.3" font-family="Times,serif" font-size="14.00" fill="#000000">deactive</text>
<text text-anchor="start" x="848" y="-1189.3" font-family="Times,serif" font-size="14.00" fill="#000000">edit</text>
<text text-anchor="start" x="848" y="-1174.3" font-family="Times,serif" font-size="14.00" fill="#000000">history</text>
<text text-anchor="start" x="848" y="-1159.3" font-family="Times,serif" font-size="14.00" fill="#000000">index</text>
<text text-anchor="start" x="848" y="-1144.3" font-family="Times,serif" font-size="14.00" fill="#000000">new</text>
<text text-anchor="start" x="848" y="-1129.3" font-family="Times,serif" font-size="14.00" fill="#000000">show</text>
<text text-anchor="start" x="848" y="-1114.3" font-family="Times,serif" font-size="14.00" fill="#000000">update</text>
<polyline fill="none" stroke="#000000" points="840,-1106.5 1005,-1106.5 "/>
<polyline fill="none" stroke="#000000" points="840,-1082.5 1005,-1082.5 "/>
<text text-anchor="start" x="848" y="-1067.3" font-family="Times,serif" font-size="14.00" fill="#000000">_layout</text>
<text text-anchor="start" x="848" y="-1052.3" font-family="Times,serif" font-size="14.00" fill="#000000">product_params</text>
<text text-anchor="start" x="848" y="-1037.3" font-family="Times,serif" font-size="14.00" fill="#000000">set_product</text>
</g>
<!-- Admin::ProvidersController -->
<g id="node9" class="node">
<title>Admin::ProvidersController</title>
<path fill="none" stroke="#000000" d="M159,-126.5C159,-126.5 305,-126.5 305,-126.5 311,-126.5 317,-132.5 317,-138.5 317,-138.5 317,-357.5 317,-357.5 317,-363.5 311,-369.5 305,-369.5 305,-369.5 159,-369.5 159,-369.5 153,-369.5 147,-363.5 147,-357.5 147,-357.5 147,-138.5 147,-138.5 147,-132.5 153,-126.5 159,-126.5"/>
<text text-anchor="middle" x="232" y="-354.3" font-family="Times,serif" font-size="14.00" fill="#000000">Admin::ProvidersController</text>
<polyline fill="none" stroke="#000000" points="147,-346.5 317,-346.5 "/>
<text text-anchor="start" x="155" y="-331.3" font-family="Times,serif" font-size="14.00" fill="#000000">active</text>
<text text-anchor="start" x="155" y="-316.3" font-family="Times,serif" font-size="14.00" fill="#000000">create</text>
<text text-anchor="start" x="155" y="-301.3" font-family="Times,serif" font-size="14.00" fill="#000000">deactive</text>
<text text-anchor="start" x="155" y="-286.3" font-family="Times,serif" font-size="14.00" fill="#000000">edit</text>
<text text-anchor="start" x="155" y="-271.3" font-family="Times,serif" font-size="14.00" fill="#000000">history</text>
<text text-anchor="start" x="155" y="-256.3" font-family="Times,serif" font-size="14.00" fill="#000000">index</text>
<text text-anchor="start" x="155" y="-241.3" font-family="Times,serif" font-size="14.00" fill="#000000">new</text>
<text text-anchor="start" x="155" y="-226.3" font-family="Times,serif" font-size="14.00" fill="#000000">show</text>
<text text-anchor="start" x="155" y="-211.3" font-family="Times,serif" font-size="14.00" fill="#000000">update</text>
<polyline fill="none" stroke="#000000" points="147,-203.5 317,-203.5 "/>
<polyline fill="none" stroke="#000000" points="147,-179.5 317,-179.5 "/>
<text text-anchor="start" x="155" y="-164.3" font-family="Times,serif" font-size="14.00" fill="#000000">_layout</text>
<text text-anchor="start" x="155" y="-149.3" font-family="Times,serif" font-size="14.00" fill="#000000">provider_params</text>
<text text-anchor="start" x="155" y="-134.3" font-family="Times,serif" font-size="14.00" fill="#000000">set_provider</text>
</g>
<!-- Admin::CustomersController -->
<g id="node10" class="node">
<title>Admin::CustomersController</title>
<path fill="none" stroke="#000000" d="M1041,-168.5C1041,-168.5 1193,-168.5 1193,-168.5 1199,-168.5 1205,-174.5 1205,-180.5 1205,-180.5 1205,-399.5 1205,-399.5 1205,-405.5 1199,-411.5 1193,-411.5 1193,-411.5 1041,-411.5 1041,-411.5 1035,-411.5 1029,-405.5 1029,-399.5 1029,-399.5 1029,-180.5 1029,-180.5 1029,-174.5 1035,-168.5 1041,-168.5"/>
<text text-anchor="middle" x="1117" y="-396.3" font-family="Times,serif" font-size="14.00" fill="#000000">Admin::CustomersController</text>
<polyline fill="none" stroke="#000000" points="1029,-388.5 1205,-388.5 "/>
<text text-anchor="start" x="1037" y="-373.3" font-family="Times,serif" font-size="14.00" fill="#000000">active</text>
<text text-anchor="start" x="1037" y="-358.3" font-family="Times,serif" font-size="14.00" fill="#000000">create</text>
<text text-anchor="start" x="1037" y="-343.3" font-family="Times,serif" font-size="14.00" fill="#000000">deactive</text>
<text text-anchor="start" x="1037" y="-328.3" font-family="Times,serif" font-size="14.00" fill="#000000">edit</text>
<text text-anchor="start" x="1037" y="-313.3" font-family="Times,serif" font-size="14.00" fill="#000000">history</text>
<text text-anchor="start" x="1037" y="-298.3" font-family="Times,serif" font-size="14.00" fill="#000000">index</text>
<text text-anchor="start" x="1037" y="-283.3" font-family="Times,serif" font-size="14.00" fill="#000000">new</text>
<text text-anchor="start" x="1037" y="-268.3" font-family="Times,serif" font-size="14.00" fill="#000000">show</text>
<text text-anchor="start" x="1037" y="-253.3" font-family="Times,serif" font-size="14.00" fill="#000000">update</text>
<polyline fill="none" stroke="#000000" points="1029,-245.5 1205,-245.5 "/>
<polyline fill="none" stroke="#000000" points="1029,-221.5 1205,-221.5 "/>
<text text-anchor="start" x="1037" y="-206.3" font-family="Times,serif" font-size="14.00" fill="#000000">_layout</text>
<text text-anchor="start" x="1037" y="-191.3" font-family="Times,serif" font-size="14.00" fill="#000000">customer_params</text>
<text text-anchor="start" x="1037" y="-176.3" font-family="Times,serif" font-size="14.00" fill="#000000">set_customer</text>
</g>
<!-- Admin::EmployeesController -->
<g id="node11" class="node">
<title>Admin::EmployeesController</title>
<path fill="none" stroke="#000000" d="M1041,-462.5C1041,-462.5 1196,-462.5 1196,-462.5 1202,-462.5 1208,-468.5 1208,-474.5 1208,-474.5 1208,-693.5 1208,-693.5 1208,-699.5 1202,-705.5 1196,-705.5 1196,-705.5 1041,-705.5 1041,-705.5 1035,-705.5 1029,-699.5 1029,-693.5 1029,-693.5 1029,-474.5 1029,-474.5 1029,-468.5 1035,-462.5 1041,-462.5"/>
<text text-anchor="middle" x="1118.5" y="-690.3" font-family="Times,serif" font-size="14.00" fill="#000000">Admin::EmployeesController</text>
<polyline fill="none" stroke="#000000" points="1029,-682.5 1208,-682.5 "/>
<text text-anchor="start" x="1037" y="-667.3" font-family="Times,serif" font-size="14.00" fill="#000000">active</text>
<text text-anchor="start" x="1037" y="-652.3" font-family="Times,serif" font-size="14.00" fill="#000000">create</text>
<text text-anchor="start" x="1037" y="-637.3" font-family="Times,serif" font-size="14.00" fill="#000000">deactive</text>
<text text-anchor="start" x="1037" y="-622.3" font-family="Times,serif" font-size="14.00" fill="#000000">edit</text>
<text text-anchor="start" x="1037" y="-607.3" font-family="Times,serif" font-size="14.00" fill="#000000">history</text>
<text text-anchor="start" x="1037" y="-592.3" font-family="Times,serif" font-size="14.00" fill="#000000">index</text>
<text text-anchor="start" x="1037" y="-577.3" font-family="Times,serif" font-size="14.00" fill="#000000">new</text>
<text text-anchor="start" x="1037" y="-562.3" font-family="Times,serif" font-size="14.00" fill="#000000">show</text>
<text text-anchor="start" x="1037" y="-547.3" font-family="Times,serif" font-size="14.00" fill="#000000">update</text>
<polyline fill="none" stroke="#000000" points="1029,-539.5 1208,-539.5 "/>
<polyline fill="none" stroke="#000000" points="1029,-515.5 1208,-515.5 "/>
<text text-anchor="start" x="1037" y="-500.3" font-family="Times,serif" font-size="14.00" fill="#000000">_layout</text>
<text text-anchor="start" x="1037" y="-485.3" font-family="Times,serif" font-size="14.00" fill="#000000">employee_params</text>
<text text-anchor="start" x="1037" y="-470.3" font-family="Times,serif" font-size="14.00" fill="#000000">set_employee</text>
</g>
<!-- Admin::DashboardController -->
<g id="node12" class="node">
<title>Admin::DashboardController</title>
<path fill="none" stroke="#000000" d="M117,-693.5C117,-693.5 269,-693.5 269,-693.5 275,-693.5 281,-699.5 281,-705.5 281,-705.5 281,-774.5 281,-774.5 281,-780.5 275,-786.5 269,-786.5 269,-786.5 117,-786.5 117,-786.5 111,-786.5 105,-780.5 105,-774.5 105,-774.5 105,-705.5 105,-705.5 105,-699.5 111,-693.5 117,-693.5"/>
<text text-anchor="middle" x="193" y="-771.3" font-family="Times,serif" font-size="14.00" fill="#000000">Admin::DashboardController</text>
<polyline fill="none" stroke="#000000" points="105,-763.5 281,-763.5 "/>
<text text-anchor="start" x="113" y="-748.3" font-family="Times,serif" font-size="14.00" fill="#000000">index</text>
<polyline fill="none" stroke="#000000" points="105,-740.5 281,-740.5 "/>
<polyline fill="none" stroke="#000000" points="105,-716.5 281,-716.5 "/>
<text text-anchor="start" x="113" y="-701.3" font-family="Times,serif" font-size="14.00" fill="#000000">_layout</text>
</g>
<!-- Admin::Authentication::NotificationsController -->
<g id="node13" class="node">
<title>Admin::Authentication::NotificationsController</title>
<path fill="none" stroke="#000000" d="M159,-819.5C159,-819.5 411,-819.5 411,-819.5 417,-819.5 423,-825.5 423,-831.5 423,-831.5 423,-900.5 423,-900.5 423,-906.5 417,-912.5 411,-912.5 411,-912.5 159,-912.5 159,-912.5 153,-912.5 147,-906.5 147,-900.5 147,-900.5 147,-831.5 147,-831.5 147,-825.5 153,-819.5 159,-819.5"/>
<text text-anchor="middle" x="285" y="-897.3" font-family="Times,serif" font-size="14.00" fill="#000000">Admin::Authentication::NotificationsController</text>
<polyline fill="none" stroke="#000000" points="147,-889.5 423,-889.5 "/>
<text text-anchor="start" x="155" y="-874.3" font-family="Times,serif" font-size="14.00" fill="#000000">index</text>
<polyline fill="none" stroke="#000000" points="147,-866.5 423,-866.5 "/>
<polyline fill="none" stroke="#000000" points="147,-842.5 423,-842.5 "/>
<text text-anchor="start" x="155" y="-827.3" font-family="Times,serif" font-size="14.00" fill="#000000">_layout</text>
</g>
<!-- Admin::Authentication::ConfirmationsController -->
<g id="node14" class="node">
<title>Admin::Authentication::ConfirmationsController</title>
<path fill="none" stroke="#000000" d="M474,-756.5C474,-756.5 734,-756.5 734,-756.5 740,-756.5 746,-762.5 746,-768.5 746,-768.5 746,-912.5 746,-912.5 746,-918.5 740,-924.5 734,-924.5 734,-924.5 474,-924.5 474,-924.5 468,-924.5 462,-918.5 462,-912.5 462,-912.5 462,-768.5 462,-768.5 462,-762.5 468,-756.5 474,-756.5"/>
<text text-anchor="middle" x="604" y="-909.3" font-family="Times,serif" font-size="14.00" fill="#000000">Admin::Authentication::ConfirmationsController</text>
<polyline fill="none" stroke="#000000" points="462,-901.5 746,-901.5 "/>
<text text-anchor="start" x="470" y="-886.3" font-family="Times,serif" font-size="14.00" fill="#000000">generate_token</text>
<text text-anchor="start" x="470" y="-871.3" font-family="Times,serif" font-size="14.00" fill="#000000">generate_token_password</text>
<text text-anchor="start" x="470" y="-856.3" font-family="Times,serif" font-size="14.00" fill="#000000">new</text>
<text text-anchor="start" x="470" y="-841.3" font-family="Times,serif" font-size="14.00" fill="#000000">send_confirmation_email</text>
<text text-anchor="start" x="470" y="-826.3" font-family="Times,serif" font-size="14.00" fill="#000000">set_user</text>
<text text-anchor="start" x="470" y="-811.3" font-family="Times,serif" font-size="14.00" fill="#000000">show</text>
<polyline fill="none" stroke="#000000" points="462,-803.5 746,-803.5 "/>
<polyline fill="none" stroke="#000000" points="462,-779.5 746,-779.5 "/>
<text text-anchor="start" x="470" y="-764.3" font-family="Times,serif" font-size="14.00" fill="#000000">_layout</text>
</g>
<!-- Admin::Authentication::UnlocksController -->
<g id="node15" class="node">
<title>Admin::Authentication::UnlocksController</title>
<path fill="none" stroke="#000000" d="M621,-231.5C621,-231.5 848,-231.5 848,-231.5 854,-231.5 860,-237.5 860,-243.5 860,-243.5 860,-372.5 860,-372.5 860,-378.5 854,-384.5 848,-384.5 848,-384.5 621,-384.5 621,-384.5 615,-384.5 609,-378.5 609,-372.5 609,-372.5 609,-243.5 609,-243.5 609,-237.5 615,-231.5 621,-231.5"/>
<text text-anchor="middle" x="734.5" y="-369.3" font-family="Times,serif" font-size="14.00" fill="#000000">Admin::Authentication::UnlocksController</text>
<polyline fill="none" stroke="#000000" points="609,-361.5 860,-361.5 "/>
<text text-anchor="start" x="617" y="-346.3" font-family="Times,serif" font-size="14.00" fill="#000000">generate_token</text>
<text text-anchor="start" x="617" y="-331.3" font-family="Times,serif" font-size="14.00" fill="#000000">new</text>
<text text-anchor="start" x="617" y="-316.3" font-family="Times,serif" font-size="14.00" fill="#000000">send_unlock_email</text>
<text text-anchor="start" x="617" y="-301.3" font-family="Times,serif" font-size="14.00" fill="#000000">set_user</text>
<text text-anchor="start" x="617" y="-286.3" font-family="Times,serif" font-size="14.00" fill="#000000">show</text>
<polyline fill="none" stroke="#000000" points="609,-278.5 860,-278.5 "/>
<polyline fill="none" stroke="#000000" points="609,-254.5 860,-254.5 "/>
<text text-anchor="start" x="617" y="-239.3" font-family="Times,serif" font-size="14.00" fill="#000000">_layout</text>
</g>
<!-- Admin::Authentication::SessionsController -->
<g id="node16" class="node">
<title>Admin::Authentication::SessionsController</title>
<path fill="none" stroke="#000000" d="M495,-420.5C495,-420.5 723,-420.5 723,-420.5 729,-420.5 735,-426.5 735,-432.5 735,-432.5 735,-711.5 735,-711.5 735,-717.5 729,-723.5 723,-723.5 723,-723.5 495,-723.5 495,-723.5 489,-723.5 483,-717.5 483,-711.5 483,-711.5 483,-432.5 483,-432.5 483,-426.5 489,-420.5 495,-420.5"/>
<text text-anchor="middle" x="609" y="-708.3" font-family="Times,serif" font-size="14.00" fill="#000000">Admin::Authentication::SessionsController</text>
<polyline fill="none" stroke="#000000" points="483,-700.5 735,-700.5 "/>
<text text-anchor="start" x="491" y="-685.3" font-family="Times,serif" font-size="14.00" fill="#000000">create</text>
<text text-anchor="start" x="491" y="-670.3" font-family="Times,serif" font-size="14.00" fill="#000000">destroy</text>
<text text-anchor="start" x="491" y="-655.3" font-family="Times,serif" font-size="14.00" fill="#000000">generate_otp</text>
<text text-anchor="start" x="491" y="-640.3" font-family="Times,serif" font-size="14.00" fill="#000000">generate_token</text>
<text text-anchor="start" x="491" y="-625.3" font-family="Times,serif" font-size="14.00" fill="#000000">increment_attempts</text>
<text text-anchor="start" x="491" y="-610.3" font-family="Times,serif" font-size="14.00" fill="#000000">new</text>
<text text-anchor="start" x="491" y="-595.3" font-family="Times,serif" font-size="14.00" fill="#000000">resend_otp</text>
<text text-anchor="start" x="491" y="-580.3" font-family="Times,serif" font-size="14.00" fill="#000000">reset_attemps</text>
<text text-anchor="start" x="491" y="-565.3" font-family="Times,serif" font-size="14.00" fill="#000000">send_otp</text>
<text text-anchor="start" x="491" y="-550.3" font-family="Times,serif" font-size="14.00" fill="#000000">send_unlock_email</text>
<text text-anchor="start" x="491" y="-535.3" font-family="Times,serif" font-size="14.00" fill="#000000">session_info</text>
<text text-anchor="start" x="491" y="-520.3" font-family="Times,serif" font-size="14.00" fill="#000000">set_user</text>
<text text-anchor="start" x="491" y="-505.3" font-family="Times,serif" font-size="14.00" fill="#000000">set_user_with_two_factor</text>
<text text-anchor="start" x="491" y="-490.3" font-family="Times,serif" font-size="14.00" fill="#000000">two_factor</text>
<text text-anchor="start" x="491" y="-475.3" font-family="Times,serif" font-size="14.00" fill="#000000">two_factor_auth</text>
<polyline fill="none" stroke="#000000" points="483,-467.5 735,-467.5 "/>
<polyline fill="none" stroke="#000000" points="483,-443.5 735,-443.5 "/>
<text text-anchor="start" x="491" y="-428.3" font-family="Times,serif" font-size="14.00" fill="#000000">_layout</text>
</g>
<!-- Admin::Authentication::PasswordsController -->
<g id="node17" class="node">
<title>Admin::Authentication::PasswordsController</title>
<path fill="none" stroke="#000000" d="M789,-756.5C789,-756.5 1028,-756.5 1028,-756.5 1034,-756.5 1040,-762.5 1040,-768.5 1040,-768.5 1040,-972.5 1040,-972.5 1040,-978.5 1034,-984.5 1028,-984.5 1028,-984.5 789,-984.5 789,-984.5 783,-984.5 777,-978.5 777,-972.5 777,-972.5 777,-768.5 777,-768.5 777,-762.5 783,-756.5 789,-756.5"/>
<text text-anchor="middle" x="908.5" y="-969.3" font-family="Times,serif" font-size="14.00" fill="#000000">Admin::Authentication::PasswordsController</text>
<polyline fill="none" stroke="#000000" points="777,-961.5 1040,-961.5 "/>
<text text-anchor="start" x="785" y="-946.3" font-family="Times,serif" font-size="14.00" fill="#000000">email_expired?</text>
<text text-anchor="start" x="785" y="-931.3" font-family="Times,serif" font-size="14.00" fill="#000000">generate_token</text>
<text text-anchor="start" x="785" y="-916.3" font-family="Times,serif" font-size="14.00" fill="#000000">new</text>
<text text-anchor="start" x="785" y="-901.3" font-family="Times,serif" font-size="14.00" fill="#000000">send_reset_password_email</text>
<text text-anchor="start" x="785" y="-886.3" font-family="Times,serif" font-size="14.00" fill="#000000">send_update_password_email</text>
<text text-anchor="start" x="785" y="-871.3" font-family="Times,serif" font-size="14.00" fill="#000000">show</text>
<text text-anchor="start" x="785" y="-856.3" font-family="Times,serif" font-size="14.00" fill="#000000">update_password</text>
<polyline fill="none" stroke="#000000" points="777,-848.5 1040,-848.5 "/>
<polyline fill="none" stroke="#000000" points="777,-824.5 1040,-824.5 "/>
<text text-anchor="start" x="785" y="-809.3" font-family="Times,serif" font-size="14.00" fill="#000000">_layout</text>
<text text-anchor="start" x="785" y="-794.3" font-family="Times,serif" font-size="14.00" fill="#000000">set_user</text>
<text text-anchor="start" x="785" y="-779.3" font-family="Times,serif" font-size="14.00" fill="#000000">set_user_by_id</text>
<text text-anchor="start" x="785" y="-764.3" font-family="Times,serif" font-size="14.00" fill="#000000">user_params</text>
</g>
<!-- Admin::UsersController -->
<g id="node18" class="node">
<title>Admin::UsersController</title>
<path fill="none" stroke="#000000" d="M1062,-1029.5C1062,-1029.5 1211,-1029.5 1211,-1029.5 1217,-1029.5 1223,-1035.5 1223,-1041.5 1223,-1041.5 1223,-1290.5 1223,-1290.5 1223,-1296.5 1217,-1302.5 1211,-1302.5 1211,-1302.5 1062,-1302.5 1062,-1302.5 1056,-1302.5 1050,-1296.5 1050,-1290.5 1050,-1290.5 1050,-1041.5 1050,-1041.5 1050,-1035.5 1056,-1029.5 1062,-1029.5"/>
<text text-anchor="middle" x="1136.5" y="-1287.3" font-family="Times,serif" font-size="14.00" fill="#000000">Admin::UsersController</text>
<polyline fill="none" stroke="#000000" points="1050,-1279.5 1223,-1279.5 "/>
<text text-anchor="start" x="1058" y="-1264.3" font-family="Times,serif" font-size="14.00" fill="#000000">create_customer_user</text>
<text text-anchor="start" x="1058" y="-1249.3" font-family="Times,serif" font-size="14.00" fill="#000000">create_employee_user</text>
<text text-anchor="start" x="1058" y="-1234.3" font-family="Times,serif" font-size="14.00" fill="#000000">customer_change_password</text>
<text text-anchor="start" x="1058" y="-1219.3" font-family="Times,serif" font-size="14.00" fill="#000000">customer_update_password</text>
<text text-anchor="start" x="1058" y="-1204.3" font-family="Times,serif" font-size="14.00" fill="#000000">employee_change_password</text>
<text text-anchor="start" x="1058" y="-1189.3" font-family="Times,serif" font-size="14.00" fill="#000000">employee_update_password</text>
<text text-anchor="start" x="1058" y="-1174.3" font-family="Times,serif" font-size="14.00" fill="#000000">generate_token</text>
<text text-anchor="start" x="1058" y="-1159.3" font-family="Times,serif" font-size="14.00" fill="#000000">new_customer_user</text>
<text text-anchor="start" x="1058" y="-1144.3" font-family="Times,serif" font-size="14.00" fill="#000000">new_employee_user</text>
<text text-anchor="start" x="1058" y="-1129.3" font-family="Times,serif" font-size="14.00" fill="#000000">send_confirmation_email</text>
<polyline fill="none" stroke="#000000" points="1050,-1121.5 1223,-1121.5 "/>
<polyline fill="none" stroke="#000000" points="1050,-1097.5 1223,-1097.5 "/>
<text text-anchor="start" x="1058" y="-1082.3" font-family="Times,serif" font-size="14.00" fill="#000000">_layout</text>
<text text-anchor="start" x="1058" y="-1067.3" font-family="Times,serif" font-size="14.00" fill="#000000">set_customer</text>
<text text-anchor="start" x="1058" y="-1052.3" font-family="Times,serif" font-size="14.00" fill="#000000">set_employee</text>
<text text-anchor="start" x="1058" y="-1037.3" font-family="Times,serif" font-size="14.00" fill="#000000">user_params</text>
</g>
<!-- ApplicationController -->
<g id="node19" class="node">
<title>ApplicationController</title>
<path fill="none" stroke="#000000" d="M327,-420.5C327,-420.5 439,-420.5 439,-420.5 445,-420.5 451,-426.5 451,-432.5 451,-432.5 451,-711.5 451,-711.5 451,-717.5 445,-723.5 439,-723.5 439,-723.5 327,-723.5 327,-723.5 321,-723.5 315,-717.5 315,-711.5 315,-711.5 315,-432.5 315,-432.5 315,-426.5 321,-420.5 327,-420.5"/>
<text text-anchor="middle" x="383" y="-708.3" font-family="Times,serif" font-size="14.00" fill="#000000">ApplicationController</text>
<polyline fill="none" stroke="#000000" points="315,-700.5 451,-700.5 "/>
<text text-anchor="start" x="323" y="-685.3" font-family="Times,serif" font-size="14.00" fill="#000000">current_customer</text>
<text text-anchor="start" x="323" y="-670.3" font-family="Times,serif" font-size="14.00" fill="#000000">current_employee</text>
<text text-anchor="start" x="323" y="-655.3" font-family="Times,serif" font-size="14.00" fill="#000000">customer_enabled?</text>
<text text-anchor="start" x="323" y="-640.3" font-family="Times,serif" font-size="14.00" fill="#000000">employee_enabled?</text>
<text text-anchor="start" x="323" y="-625.3" font-family="Times,serif" font-size="14.00" fill="#000000">get_host_port</text>
<text text-anchor="start" x="323" y="-610.3" font-family="Times,serif" font-size="14.00" fill="#000000">redirect_to_back</text>
<text text-anchor="start" x="323" y="-595.3" font-family="Times,serif" font-size="14.00" fill="#000000">require_customer</text>
<text text-anchor="start" x="323" y="-580.3" font-family="Times,serif" font-size="14.00" fill="#000000">require_employee</text>
<text text-anchor="start" x="323" y="-565.3" font-family="Times,serif" font-size="14.00" fill="#000000">send_sms</text>
<text text-anchor="start" x="323" y="-550.3" font-family="Times,serif" font-size="14.00" fill="#000000">set_lang</text>
<text text-anchor="start" x="323" y="-535.3" font-family="Times,serif" font-size="14.00" fill="#000000">to_pdf</text>
<text text-anchor="start" x="323" y="-520.3" font-family="Times,serif" font-size="14.00" fill="#000000">user_confirmed?</text>
<text text-anchor="start" x="323" y="-505.3" font-family="Times,serif" font-size="14.00" fill="#000000">user_is_customer?</text>
<text text-anchor="start" x="323" y="-490.3" font-family="Times,serif" font-size="14.00" fill="#000000">user_is_employee?</text>
<text text-anchor="start" x="323" y="-475.3" font-family="Times,serif" font-size="14.00" fill="#000000">user_locked?</text>
<polyline fill="none" stroke="#000000" points="315,-467.5 451,-467.5 "/>
<polyline fill="none" stroke="#000000" points="315,-443.5 451,-443.5 "/>
<text text-anchor="start" x="323" y="-428.3" font-family="Times,serif" font-size="14.00" fill="#000000">_layout</text>
</g>
<!-- SettingsController -->
<g id="node20" class="node">
<title>SettingsController</title>
<path fill="none" stroke="#000000" d="M369,-21.5C369,-21.5 461,-21.5 461,-21.5 467,-21.5 473,-27.5 473,-33.5 473,-33.5 473,-102.5 473,-102.5 473,-108.5 467,-114.5 461,-114.5 461,-114.5 369,-114.5 369,-114.5 363,-114.5 357,-108.5 357,-102.5 357,-102.5 357,-33.5 357,-33.5 357,-27.5 363,-21.5 369,-21.5"/>
<text text-anchor="middle" x="415" y="-99.3" font-family="Times,serif" font-size="14.00" fill="#000000">SettingsController</text>
<polyline fill="none" stroke="#000000" points="357,-91.5 473,-91.5 "/>
<text text-anchor="start" x="365" y="-76.3" font-family="Times,serif" font-size="14.00" fill="#000000">change_lang</text>
<polyline fill="none" stroke="#000000" points="357,-68.5 473,-68.5 "/>
<polyline fill="none" stroke="#000000" points="357,-44.5 473,-44.5 "/>
<text text-anchor="start" x="365" y="-29.3" font-family="Times,serif" font-size="14.00" fill="#000000">_layout</text>
</g>
<!-- ErrorsController -->
<g id="node21" class="node">
<title>ErrorsController</title>
<path fill="none" stroke="#000000" d="M12,-546.5C12,-546.5 119,-546.5 119,-546.5 125,-546.5 131,-552.5 131,-558.5 131,-558.5 131,-642.5 131,-642.5 131,-648.5 125,-654.5 119,-654.5 119,-654.5 12,-654.5 12,-654.5 6,-654.5 0,-648.5 0,-642.5 0,-642.5 0,-558.5 0,-558.5 0,-552.5 6,-546.5 12,-546.5"/>
<text text-anchor="middle" x="65.5" y="-639.3" font-family="Times,serif" font-size="14.00" fill="#000000">ErrorsController</text>
<polyline fill="none" stroke="#000000" points="0,-631.5 131,-631.5 "/>
<text text-anchor="start" x="8" y="-616.3" font-family="Times,serif" font-size="14.00" fill="#000000">internal_server_error</text>
<text text-anchor="start" x="8" y="-601.3" font-family="Times,serif" font-size="14.00" fill="#000000">not_found</text>
<polyline fill="none" stroke="#000000" points="0,-593.5 131,-593.5 "/>
<polyline fill="none" stroke="#000000" points="0,-569.5 131,-569.5 "/>
<text text-anchor="start" x="8" y="-554.3" font-family="Times,serif" font-size="14.00" fill="#000000">_layout</text>
</g>
<!-- Authentication::NotificationsController -->
<g id="node22" class="node">
<title>Authentication::NotificationsController</title>
<path fill="none" stroke="#000000" d="M873,-42.5C873,-42.5 1079,-42.5 1079,-42.5 1085,-42.5 1091,-48.5 1091,-54.5 1091,-54.5 1091,-123.5 1091,-123.5 1091,-129.5 1085,-135.5 1079,-135.5 1079,-135.5 873,-135.5 873,-135.5 867,-135.5 861,-129.5 861,-123.5 861,-123.5 861,-54.5 861,-54.5 861,-48.5 867,-42.5 873,-42.5"/>
<text text-anchor="middle" x="976" y="-120.3" font-family="Times,serif" font-size="14.00" fill="#000000">Authentication::NotificationsController</text>
<polyline fill="none" stroke="#000000" points="861,-112.5 1091,-112.5 "/>
<text text-anchor="start" x="869" y="-97.3" font-family="Times,serif" font-size="14.00" fill="#000000">index</text>
<polyline fill="none" stroke="#000000" points="861,-89.5 1091,-89.5 "/>
<polyline fill="none" stroke="#000000" points="861,-65.5 1091,-65.5 "/>
<text text-anchor="start" x="869" y="-50.3" font-family="Times,serif" font-size="14.00" fill="#000000">_layout</text>
</g>
<!-- Authentication::ConfirmationsController -->
<g id="node23" class="node">
<title>Authentication::ConfirmationsController</title>
<path fill="none" stroke="#000000" d="M1083,-756.5C1083,-756.5 1298,-756.5 1298,-756.5 1304,-756.5 1310,-762.5 1310,-768.5 1310,-768.5 1310,-912.5 1310,-912.5 1310,-918.5 1304,-924.5 1298,-924.5 1298,-924.5 1083,-924.5 1083,-924.5 1077,-924.5 1071,-918.5 1071,-912.5 1071,-912.5 1071,-768.5 1071,-768.5 1071,-762.5 1077,-756.5 1083,-756.5"/>
<text text-anchor="middle" x="1190.5" y="-909.3" font-family="Times,serif" font-size="14.00" fill="#000000">Authentication::ConfirmationsController</text>
<polyline fill="none" stroke="#000000" points="1071,-901.5 1310,-901.5 "/>
<text text-anchor="start" x="1079" y="-886.3" font-family="Times,serif" font-size="14.00" fill="#000000">generate_token</text>
<text text-anchor="start" x="1079" y="-871.3" font-family="Times,serif" font-size="14.00" fill="#000000">generate_token_password</text>
<text text-anchor="start" x="1079" y="-856.3" font-family="Times,serif" font-size="14.00" fill="#000000">new</text>
<text text-anchor="start" x="1079" y="-841.3" font-family="Times,serif" font-size="14.00" fill="#000000">send_confirmation_email</text>
<text text-anchor="start" x="1079" y="-826.3" font-family="Times,serif" font-size="14.00" fill="#000000">set_user</text>
<text text-anchor="start" x="1079" y="-811.3" font-family="Times,serif" font-size="14.00" fill="#000000">show</text>
<polyline fill="none" stroke="#000000" points="1071,-803.5 1310,-803.5 "/>
<polyline fill="none" stroke="#000000" points="1071,-779.5 1310,-779.5 "/>
<text text-anchor="start" x="1079" y="-764.3" font-family="Times,serif" font-size="14.00" fill="#000000">_layout</text>
</g>
<!-- Authentication::UnlocksController -->
<g id="node24" class="node">
<title>Authentication::UnlocksController</title>
<path fill="none" stroke="#000000" d="M621,-42.5C621,-42.5 802,-42.5 802,-42.5 808,-42.5 814,-48.5 814,-54.5 814,-54.5 814,-183.5 814,-183.5 814,-189.5 808,-195.5 802,-195.5 802,-195.5 621,-195.5 621,-195.5 615,-195.5 609,-189.5 609,-183.5 609,-183.5 609,-54.5 609,-54.5 609,-48.5 615,-42.5 621,-42.5"/>
<text text-anchor="middle" x="711.5" y="-180.3" font-family="Times,serif" font-size="14.00" fill="#000000">Authentication::UnlocksController</text>
<polyline fill="none" stroke="#000000" points="609,-172.5 814,-172.5 "/>
<text text-anchor="start" x="617" y="-157.3" font-family="Times,serif" font-size="14.00" fill="#000000">generate_token</text>
<text text-anchor="start" x="617" y="-142.3" font-family="Times,serif" font-size="14.00" fill="#000000">new</text>
<text text-anchor="start" x="617" y="-127.3" font-family="Times,serif" font-size="14.00" fill="#000000">send_unlock_email</text>
<text text-anchor="start" x="617" y="-112.3" font-family="Times,serif" font-size="14.00" fill="#000000">set_user</text>
<text text-anchor="start" x="617" y="-97.3" font-family="Times,serif" font-size="14.00" fill="#000000">show</text>
<polyline fill="none" stroke="#000000" points="609,-89.5 814,-89.5 "/>
<polyline fill="none" stroke="#000000" points="609,-65.5 814,-65.5 "/>
<text text-anchor="start" x="617" y="-50.3" font-family="Times,serif" font-size="14.00" fill="#000000">_layout</text>
</g>
<!-- Authentication::SessionsController -->
<g id="node25" class="node">
<title>Authentication::SessionsController</title>
<path fill="none" stroke="#000000" d="M789,-420.5C789,-420.5 971,-420.5 971,-420.5 977,-420.5 983,-426.5 983,-432.5 983,-432.5 983,-711.5 983,-711.5 983,-717.5 977,-723.5 971,-723.5 971,-723.5 789,-723.5 789,-723.5 783,-723.5 777,-717.5 777,-711.5 777,-711.5 777,-432.5 777,-432.5 777,-426.5 783,-420.5 789,-420.5"/>
<text text-anchor="middle" x="880" y="-708.3" font-family="Times,serif" font-size="14.00" fill="#000000">Authentication::SessionsController</text>
<polyline fill="none" stroke="#000000" points="777,-700.5 983,-700.5 "/>
<text text-anchor="start" x="785" y="-685.3" font-family="Times,serif" font-size="14.00" fill="#000000">create</text>
<text text-anchor="start" x="785" y="-670.3" font-family="Times,serif" font-size="14.00" fill="#000000">destroy</text>
<text text-anchor="start" x="785" y="-655.3" font-family="Times,serif" font-size="14.00" fill="#000000">generate_otp</text>
<text text-anchor="start" x="785" y="-640.3" font-family="Times,serif" font-size="14.00" fill="#000000">generate_token</text>
<text text-anchor="start" x="785" y="-625.3" font-family="Times,serif" font-size="14.00" fill="#000000">increment_attempts</text>
<text text-anchor="start" x="785" y="-610.3" font-family="Times,serif" font-size="14.00" fill="#000000">new</text>
<text text-anchor="start" x="785" y="-595.3" font-family="Times,serif" font-size="14.00" fill="#000000">resend_otp</text>
<text text-anchor="start" x="785" y="-580.3" font-family="Times,serif" font-size="14.00" fill="#000000">reset_attemps</text>
<text text-anchor="start" x="785" y="-565.3" font-family="Times,serif" font-size="14.00" fill="#000000">send_otp</text>
<text text-anchor="start" x="785" y="-550.3" font-family="Times,serif" font-size="14.00" fill="#000000">send_unlock_email</text>
<text text-anchor="start" x="785" y="-535.3" font-family="Times,serif" font-size="14.00" fill="#000000">session_info</text>
<text text-anchor="start" x="785" y="-520.3" font-family="Times,serif" font-size="14.00" fill="#000000">set_user</text>
<text text-anchor="start" x="785" y="-505.3" font-family="Times,serif" font-size="14.00" fill="#000000">set_user_with_two_factor</text>
<text text-anchor="start" x="785" y="-490.3" font-family="Times,serif" font-size="14.00" fill="#000000">two_factor</text>
<text text-anchor="start" x="785" y="-475.3" font-family="Times,serif" font-size="14.00" fill="#000000">two_factor_auth</text>
<polyline fill="none" stroke="#000000" points="777,-467.5 983,-467.5 "/>
<polyline fill="none" stroke="#000000" points="777,-443.5 983,-443.5 "/>
<text text-anchor="start" x="785" y="-428.3" font-family="Times,serif" font-size="14.00" fill="#000000">_layout</text>
</g>
<!-- Authentication::PasswordsController -->
<g id="node26" class="node">
<title>Authentication::PasswordsController</title>
<path fill="none" stroke="#000000" d="M537,-966.5C537,-966.5 730,-966.5 730,-966.5 736,-966.5 742,-972.5 742,-978.5 742,-978.5 742,-1182.5 742,-1182.5 742,-1188.5 736,-1194.5 730,-1194.5 730,-1194.5 537,-1194.5 537,-1194.5 531,-1194.5 525,-1188.5 525,-1182.5 525,-1182.5 525,-978.5 525,-978.5 525,-972.5 531,-966.5 537,-966.5"/>
<text text-anchor="middle" x="633.5" y="-1179.3" font-family="Times,serif" font-size="14.00" fill="#000000">Authentication::PasswordsController</text>
<polyline fill="none" stroke="#000000" points="525,-1171.5 742,-1171.5 "/>
<text text-anchor="start" x="533" y="-1156.3" font-family="Times,serif" font-size="14.00" fill="#000000">email_expired?</text>
<text text-anchor="start" x="533" y="-1141.3" font-family="Times,serif" font-size="14.00" fill="#000000">generate_token</text>
<text text-anchor="start" x="533" y="-1126.3" font-family="Times,serif" font-size="14.00" fill="#000000">new</text>
<text text-anchor="start" x="533" y="-1111.3" font-family="Times,serif" font-size="14.00" fill="#000000">send_reset_password_email</text>
<text text-anchor="start" x="533" y="-1096.3" font-family="Times,serif" font-size="14.00" fill="#000000">send_update_password_email</text>
<text text-anchor="start" x="533" y="-1081.3" font-family="Times,serif" font-size="14.00" fill="#000000">show</text>
<text text-anchor="start" x="533" y="-1066.3" font-family="Times,serif" font-size="14.00" fill="#000000">update_password</text>
<polyline fill="none" stroke="#000000" points="525,-1058.5 742,-1058.5 "/>
<polyline fill="none" stroke="#000000" points="525,-1034.5 742,-1034.5 "/>
<text text-anchor="start" x="533" y="-1019.3" font-family="Times,serif" font-size="14.00" fill="#000000">_layout</text>
<text text-anchor="start" x="533" y="-1004.3" font-family="Times,serif" font-size="14.00" fill="#000000">set_user</text>
<text text-anchor="start" x="533" y="-989.3" font-family="Times,serif" font-size="14.00" fill="#000000">set_user_by_id</text>
<text text-anchor="start" x="533" y="-974.3" font-family="Times,serif" font-size="14.00" fill="#000000">user_params</text>
</g>
<!-- StripeController -->
<g id="node27" class="node">
<title>StripeController</title>
<path fill="none" stroke="#000000" d="M12,-378.5C12,-378.5 93,-378.5 93,-378.5 99,-378.5 105,-384.5 105,-390.5 105,-390.5 105,-489.5 105,-489.5 105,-495.5 99,-501.5 93,-501.5 93,-501.5 12,-501.5 12,-501.5 6,-501.5 0,-495.5 0,-489.5 0,-489.5 0,-390.5 0,-390.5 0,-384.5 6,-378.5 12,-378.5"/>
<text text-anchor="middle" x="52.5" y="-486.3" font-family="Times,serif" font-size="14.00" fill="#000000">StripeController</text>
<polyline fill="none" stroke="#000000" points="0,-478.5 105,-478.5 "/>
<text text-anchor="start" x="8" y="-463.3" font-family="Times,serif" font-size="14.00" fill="#000000">checkout</text>
<text text-anchor="start" x="8" y="-448.3" font-family="Times,serif" font-size="14.00" fill="#000000">dollars_to_cents</text>
<text text-anchor="start" x="8" y="-433.3" font-family="Times,serif" font-size="14.00" fill="#000000">payment</text>
<polyline fill="none" stroke="#000000" points="0,-425.5 105,-425.5 "/>
<polyline fill="none" stroke="#000000" points="0,-401.5 105,-401.5 "/>
<text text-anchor="start" x="8" y="-386.3" font-family="Times,serif" font-size="14.00" fill="#000000">_layout</text>
</g>
<!-- LandingController -->
<g id="node28" class="node">
<title>LandingController</title>
<path fill="none" stroke="#000000" d="M33,-.5C33,-.5 126,-.5 126,-.5 132,-.5 138,-6.5 138,-12.5 138,-12.5 138,-81.5 138,-81.5 138,-87.5 132,-93.5 126,-93.5 126,-93.5 33,-93.5 33,-93.5 27,-93.5 21,-87.5 21,-81.5 21,-81.5 21,-12.5 21,-12.5 21,-6.5 27,-.5 33,-.5"/>
<text text-anchor="middle" x="79.5" y="-78.3" font-family="Times,serif" font-size="14.00" fill="#000000">LandingController</text>
<polyline fill="none" stroke="#000000" points="21,-70.5 138,-70.5 "/>
<text text-anchor="start" x="29" y="-55.3" font-family="Times,serif" font-size="14.00" fill="#000000">index</text>
<polyline fill="none" stroke="#000000" points="21,-47.5 138,-47.5 "/>
<polyline fill="none" stroke="#000000" points="21,-23.5 138,-23.5 "/>
<text text-anchor="start" x="29" y="-8.3" font-family="Times,serif" font-size="14.00" fill="#000000">_layout</text>
</g>
</g>
</svg>
