<?xml version="1.0" encoding="UTF-8" standalone="no"?>
<!DOCTYPE svg PUBLIC "-//W3C//DTD SVG 1.1//EN"
 "http://www.w3.org/Graphics/SVG/1.1/DTD/svg11.dtd">
<!-- Generated by graphviz version 2.40.1 (20161225.0304)
 -->
<!-- Title: controllers_diagram Pages: 1 -->
<svg width="1248pt" height="1172pt"
 viewBox="0.00 0.00 1248.00 1172.00" xmlns="http://www.w3.org/2000/svg" xmlns:xlink="http://www.w3.org/1999/xlink">
<g id="graph0" class="graph" transform="scale(1 1) rotate(0) translate(4 1168)">
<title>controllers_diagram</title>
<polygon fill="transparent" stroke="transparent" points="-4,4 -4,-1168 1244,-1168 1244,4 -4,4"/>
<!-- _diagram_info -->
<g id="node1" class="node">
<title>_diagram_info</title>
<text text-anchor="start" x="8" y="-63.6" font-family="Times,serif" font-size="13.00" fill="#000000">Controllers diagram</text>
<text text-anchor="start" x="8" y="-49.6" font-family="Times,serif" font-size="13.00" fill="#000000">Date: Dec 09 2018 &#45; 22:32</text>
<text text-anchor="start" x="8" y="-35.6" font-family="Times,serif" font-size="13.00" fill="#000000">Migration version: 20181118173060</text>
<text text-anchor="start" x="8" y="-21.6" font-family="Times,serif" font-size="13.00" fill="#000000">Generated by RailRoady 1.5.3</text>
<text text-anchor="start" x="8" y="-7.6" font-family="Times,serif" font-size="13.00" fill="#000000">http://railroady.prestonlee.com</text>
</g>
<!-- ProductsController -->
<g id="node2" class="node">
<title>ProductsController</title>
<path fill="none" stroke="#000000" d="M817,-207.5C817,-207.5 912,-207.5 912,-207.5 918,-207.5 924,-213.5 924,-219.5 924,-219.5 924,-318.5 924,-318.5 924,-324.5 918,-330.5 912,-330.5 912,-330.5 817,-330.5 817,-330.5 811,-330.5 805,-324.5 805,-318.5 805,-318.5 805,-219.5 805,-219.5 805,-213.5 811,-207.5 817,-207.5"/>
<text text-anchor="middle" x="864.5" y="-315.3" font-family="Times,serif" font-size="14.00" fill="#000000">ProductsController</text>
<polyline fill="none" stroke="#000000" points="805,-307.5 924,-307.5 "/>
<text text-anchor="start" x="813" y="-292.3" font-family="Times,serif" font-size="14.00" fill="#000000">index</text>
<text text-anchor="start" x="813" y="-277.3" font-family="Times,serif" font-size="14.00" fill="#000000">show</text>
<polyline fill="none" stroke="#000000" points="805,-269.5 924,-269.5 "/>
<polyline fill="none" stroke="#000000" points="805,-245.5 924,-245.5 "/>
<text text-anchor="start" x="813" y="-230.3" font-family="Times,serif" font-size="14.00" fill="#000000">_layout</text>
<text text-anchor="start" x="813" y="-215.3" font-family="Times,serif" font-size="14.00" fill="#000000">set_product</text>
</g>
<!-- Admin::CategoriesController -->
<g id="node3" class="node">
<title>Admin::CategoriesController</title>
<path fill="none" stroke="#000000" d="M173,-897.5C173,-897.5 325,-897.5 325,-897.5 331,-897.5 337,-903.5 337,-909.5 337,-909.5 337,-1128.5 337,-1128.5 337,-1134.5 331,-1140.5 325,-1140.5 325,-1140.5 173,-1140.5 173,-1140.5 167,-1140.5 161,-1134.5 161,-1128.5 161,-1128.5 161,-909.5 161,-909.5 161,-903.5 167,-897.5 173,-897.5"/>
<text text-anchor="middle" x="249" y="-1125.3" font-family="Times,serif" font-size="14.00" fill="#000000">Admin::CategoriesController</text>
<polyline fill="none" stroke="#000000" points="161,-1117.5 337,-1117.5 "/>
<text text-anchor="start" x="169" y="-1102.3" font-family="Times,serif" font-size="14.00" fill="#000000">active</text>
<text text-anchor="start" x="169" y="-1087.3" font-family="Times,serif" font-size="14.00" fill="#000000">create</text>
<text text-anchor="start" x="169" y="-1072.3" font-family="Times,serif" font-size="14.00" fill="#000000">deactive</text>
<text text-anchor="start" x="169" y="-1057.3" font-family="Times,serif" font-size="14.00" fill="#000000">edit</text>
<text text-anchor="start" x="169" y="-1042.3" font-family="Times,serif" font-size="14.00" fill="#000000">history</text>
<text text-anchor="start" x="169" y="-1027.3" font-family="Times,serif" font-size="14.00" fill="#000000">index</text>
<text text-anchor="start" x="169" y="-1012.3" font-family="Times,serif" font-size="14.00" fill="#000000">new</text>
<text text-anchor="start" x="169" y="-997.3" font-family="Times,serif" font-size="14.00" fill="#000000">show</text>
<text text-anchor="start" x="169" y="-982.3" font-family="Times,serif" font-size="14.00" fill="#000000">update</text>
<polyline fill="none" stroke="#000000" points="161,-974.5 337,-974.5 "/>
<polyline fill="none" stroke="#000000" points="161,-950.5 337,-950.5 "/>
<text text-anchor="start" x="169" y="-935.3" font-family="Times,serif" font-size="14.00" fill="#000000">_layout</text>
<text text-anchor="start" x="169" y="-920.3" font-family="Times,serif" font-size="14.00" fill="#000000">category_params</text>
<text text-anchor="start" x="169" y="-905.3" font-family="Times,serif" font-size="14.00" fill="#000000">set_category</text>
</g>
<!-- Admin::ProductsController -->
<g id="node4" class="node">
<title>Admin::ProductsController</title>
<path fill="none" stroke="#000000" d="M334,-92.5C334,-92.5 475,-92.5 475,-92.5 481,-92.5 487,-98.5 487,-104.5 487,-104.5 487,-323.5 487,-323.5 487,-329.5 481,-335.5 475,-335.5 475,-335.5 334,-335.5 334,-335.5 328,-335.5 322,-329.5 322,-323.5 322,-323.5 322,-104.5 322,-104.5 322,-98.5 328,-92.5 334,-92.5"/>
<text text-anchor="middle" x="404.5" y="-320.3" font-family="Times,serif" font-size="14.00" fill="#000000">Admin::ProductsController</text>
<polyline fill="none" stroke="#000000" points="322,-312.5 487,-312.5 "/>
<text text-anchor="start" x="330" y="-297.3" font-family="Times,serif" font-size="14.00" fill="#000000">active</text>
<text text-anchor="start" x="330" y="-282.3" font-family="Times,serif" font-size="14.00" fill="#000000">create</text>
<text text-anchor="start" x="330" y="-267.3" font-family="Times,serif" font-size="14.00" fill="#000000">deactive</text>
<text text-anchor="start" x="330" y="-252.3" font-family="Times,serif" font-size="14.00" fill="#000000">edit</text>
<text text-anchor="start" x="330" y="-237.3" font-family="Times,serif" font-size="14.00" fill="#000000">history</text>
<text text-anchor="start" x="330" y="-222.3" font-family="Times,serif" font-size="14.00" fill="#000000">index</text>
<text text-anchor="start" x="330" y="-207.3" font-family="Times,serif" font-size="14.00" fill="#000000">new</text>
<text text-anchor="start" x="330" y="-192.3" font-family="Times,serif" font-size="14.00" fill="#000000">show</text>
<text text-anchor="start" x="330" y="-177.3" font-family="Times,serif" font-size="14.00" fill="#000000">update</text>
<polyline fill="none" stroke="#000000" points="322,-169.5 487,-169.5 "/>
<polyline fill="none" stroke="#000000" points="322,-145.5 487,-145.5 "/>
<text text-anchor="start" x="330" y="-130.3" font-family="Times,serif" font-size="14.00" fill="#000000">_layout</text>
<text text-anchor="start" x="330" y="-115.3" font-family="Times,serif" font-size="14.00" fill="#000000">product_params</text>
<text text-anchor="start" x="330" y="-100.3" font-family="Times,serif" font-size="14.00" fill="#000000">set_product</text>
</g>
<!-- Admin::ProvidersController -->
<g id="node5" class="node">
<title>Admin::ProvidersController</title>
<path fill="none" stroke="#000000" d="M127,-115.5C127,-115.5 273,-115.5 273,-115.5 279,-115.5 285,-121.5 285,-127.5 285,-127.5 285,-346.5 285,-346.5 285,-352.5 279,-358.5 273,-358.5 273,-358.5 127,-358.5 127,-358.5 121,-358.5 115,-352.5 115,-346.5 115,-346.5 115,-127.5 115,-127.5 115,-121.5 121,-115.5 127,-115.5"/>
<text text-anchor="middle" x="200" y="-343.3" font-family="Times,serif" font-size="14.00" fill="#000000">Admin::ProvidersController</text>
<polyline fill="none" stroke="#000000" points="115,-335.5 285,-335.5 "/>
<text text-anchor="start" x="123" y="-320.3" font-family="Times,serif" font-size="14.00" fill="#000000">active</text>
<text text-anchor="start" x="123" y="-305.3" font-family="Times,serif" font-size="14.00" fill="#000000">create</text>
<text text-anchor="start" x="123" y="-290.3" font-family="Times,serif" font-size="14.00" fill="#000000">deactive</text>
<text text-anchor="start" x="123" y="-275.3" font-family="Times,serif" font-size="14.00" fill="#000000">edit</text>
<text text-anchor="start" x="123" y="-260.3" font-family="Times,serif" font-size="14.00" fill="#000000">history</text>
<text text-anchor="start" x="123" y="-245.3" font-family="Times,serif" font-size="14.00" fill="#000000">index</text>
<text text-anchor="start" x="123" y="-230.3" font-family="Times,serif" font-size="14.00" fill="#000000">new</text>
<text text-anchor="start" x="123" y="-215.3" font-family="Times,serif" font-size="14.00" fill="#000000">show</text>
<text text-anchor="start" x="123" y="-200.3" font-family="Times,serif" font-size="14.00" fill="#000000">update</text>
<polyline fill="none" stroke="#000000" points="115,-192.5 285,-192.5 "/>
<polyline fill="none" stroke="#000000" points="115,-168.5 285,-168.5 "/>
<text text-anchor="start" x="123" y="-153.3" font-family="Times,serif" font-size="14.00" fill="#000000">_layout</text>
<text text-anchor="start" x="123" y="-138.3" font-family="Times,serif" font-size="14.00" fill="#000000">provider_params</text>
<text text-anchor="start" x="123" y="-123.3" font-family="Times,serif" font-size="14.00" fill="#000000">set_provider</text>
</g>
<!-- Admin::EmployeesController -->
<g id="node6" class="node">
<title>Admin::EmployeesController</title>
<path fill="none" stroke="#000000" d="M955,-644.5C955,-644.5 1110,-644.5 1110,-644.5 1116,-644.5 1122,-650.5 1122,-656.5 1122,-656.5 1122,-875.5 1122,-875.5 1122,-881.5 1116,-887.5 1110,-887.5 1110,-887.5 955,-887.5 955,-887.5 949,-887.5 943,-881.5 943,-875.5 943,-875.5 943,-656.5 943,-656.5 943,-650.5 949,-644.5 955,-644.5"/>
<text text-anchor="middle" x="1032.5" y="-872.3" font-family="Times,serif" font-size="14.00" fill="#000000">Admin::EmployeesController</text>
<polyline fill="none" stroke="#000000" points="943,-864.5 1122,-864.5 "/>
<text text-anchor="start" x="951" y="-849.3" font-family="Times,serif" font-size="14.00" fill="#000000">active</text>
<text text-anchor="start" x="951" y="-834.3" font-family="Times,serif" font-size="14.00" fill="#000000">create</text>
<text text-anchor="start" x="951" y="-819.3" font-family="Times,serif" font-size="14.00" fill="#000000">deactive</text>
<text text-anchor="start" x="951" y="-804.3" font-family="Times,serif" font-size="14.00" fill="#000000">edit</text>
<text text-anchor="start" x="951" y="-789.3" font-family="Times,serif" font-size="14.00" fill="#000000">history</text>
<text text-anchor="start" x="951" y="-774.3" font-family="Times,serif" font-size="14.00" fill="#000000">index</text>
<text text-anchor="start" x="951" y="-759.3" font-family="Times,serif" font-size="14.00" fill="#000000">new</text>
<text text-anchor="start" x="951" y="-744.3" font-family="Times,serif" font-size="14.00" fill="#000000">show</text>
<text text-anchor="start" x="951" y="-729.3" font-family="Times,serif" font-size="14.00" fill="#000000">update</text>
<polyline fill="none" stroke="#000000" points="943,-721.5 1122,-721.5 "/>
<polyline fill="none" stroke="#000000" points="943,-697.5 1122,-697.5 "/>
<text text-anchor="start" x="951" y="-682.3" font-family="Times,serif" font-size="14.00" fill="#000000">_layout</text>
<text text-anchor="start" x="951" y="-667.3" font-family="Times,serif" font-size="14.00" fill="#000000">employee_params</text>
<text text-anchor="start" x="951" y="-652.3" font-family="Times,serif" font-size="14.00" fill="#000000">set_employee</text>
</g>
<!-- Admin::Authentication::NotificationsController -->
<g id="node7" class="node">
<title>Admin::Authentication::NotificationsController</title>
<path fill="none" stroke="#000000" d="M58,-759.5C58,-759.5 310,-759.5 310,-759.5 316,-759.5 322,-765.5 322,-771.5 322,-771.5 322,-840.5 322,-840.5 322,-846.5 316,-852.5 310,-852.5 310,-852.5 58,-852.5 58,-852.5 52,-852.5 46,-846.5 46,-840.5 46,-840.5 46,-771.5 46,-771.5 46,-765.5 52,-759.5 58,-759.5"/>
<text text-anchor="middle" x="184" y="-837.3" font-family="Times,serif" font-size="14.00" fill="#000000">Admin::Authentication::NotificationsController</text>
<polyline fill="none" stroke="#000000" points="46,-829.5 322,-829.5 "/>
<text text-anchor="start" x="54" y="-814.3" font-family="Times,serif" font-size="14.00" fill="#000000">index</text>
<polyline fill="none" stroke="#000000" points="46,-806.5 322,-806.5 "/>
<polyline fill="none" stroke="#000000" points="46,-782.5 322,-782.5 "/>
<text text-anchor="start" x="54" y="-767.3" font-family="Times,serif" font-size="14.00" fill="#000000">_layout</text>
</g>
<!-- Admin::Authentication::ConfirmationsController -->
<g id="node8" class="node">
<title>Admin::Authentication::ConfirmationsController</title>
<path fill="none" stroke="#000000" d="M380,-713.5C380,-713.5 640,-713.5 640,-713.5 646,-713.5 652,-719.5 652,-725.5 652,-725.5 652,-869.5 652,-869.5 652,-875.5 646,-881.5 640,-881.5 640,-881.5 380,-881.5 380,-881.5 374,-881.5 368,-875.5 368,-869.5 368,-869.5 368,-725.5 368,-725.5 368,-719.5 374,-713.5 380,-713.5"/>
<text text-anchor="middle" x="510" y="-866.3" font-family="Times,serif" font-size="14.00" fill="#000000">Admin::Authentication::ConfirmationsController</text>
<polyline fill="none" stroke="#000000" points="368,-858.5 652,-858.5 "/>
<text text-anchor="start" x="376" y="-843.3" font-family="Times,serif" font-size="14.00" fill="#000000">generate_token</text>
<text text-anchor="start" x="376" y="-828.3" font-family="Times,serif" font-size="14.00" fill="#000000">generate_token_password</text>
<text text-anchor="start" x="376" y="-813.3" font-family="Times,serif" font-size="14.00" fill="#000000">new</text>
<text text-anchor="start" x="376" y="-798.3" font-family="Times,serif" font-size="14.00" fill="#000000">send_confirmation_email</text>
<text text-anchor="start" x="376" y="-783.3" font-family="Times,serif" font-size="14.00" fill="#000000">set_user</text>
<text text-anchor="start" x="376" y="-768.3" font-family="Times,serif" font-size="14.00" fill="#000000">show</text>
<polyline fill="none" stroke="#000000" points="368,-760.5 652,-760.5 "/>
<polyline fill="none" stroke="#000000" points="368,-736.5 652,-736.5 "/>
<text text-anchor="start" x="376" y="-721.3" font-family="Times,serif" font-size="14.00" fill="#000000">_layout</text>
</g>
<!-- Admin::Authentication::UnlocksController -->
<g id="node9" class="node">
<title>Admin::Authentication::UnlocksController</title>
<path fill="none" stroke="#000000" d="M1001,-391.5C1001,-391.5 1228,-391.5 1228,-391.5 1234,-391.5 1240,-397.5 1240,-403.5 1240,-403.5 1240,-532.5 1240,-532.5 1240,-538.5 1234,-544.5 1228,-544.5 1228,-544.5 1001,-544.5 1001,-544.5 995,-544.5 989,-538.5 989,-532.5 989,-532.5 989,-403.5 989,-403.5 989,-397.5 995,-391.5 1001,-391.5"/>
<text text-anchor="middle" x="1114.5" y="-529.3" font-family="Times,serif" font-size="14.00" fill="#000000">Admin::Authentication::UnlocksController</text>
<polyline fill="none" stroke="#000000" points="989,-521.5 1240,-521.5 "/>
<text text-anchor="start" x="997" y="-506.3" font-family="Times,serif" font-size="14.00" fill="#000000">generate_token</text>
<text text-anchor="start" x="997" y="-491.3" font-family="Times,serif" font-size="14.00" fill="#000000">new</text>
<text text-anchor="start" x="997" y="-476.3" font-family="Times,serif" font-size="14.00" fill="#000000">send_unlock_email</text>
<text text-anchor="start" x="997" y="-461.3" font-family="Times,serif" font-size="14.00" fill="#000000">set_user</text>
<text text-anchor="start" x="997" y="-446.3" font-family="Times,serif" font-size="14.00" fill="#000000">show</text>
<polyline fill="none" stroke="#000000" points="989,-438.5 1240,-438.5 "/>
<polyline fill="none" stroke="#000000" points="989,-414.5 1240,-414.5 "/>
<text text-anchor="start" x="997" y="-399.3" font-family="Times,serif" font-size="14.00" fill="#000000">_layout</text>
</g>
<!-- Admin::Authentication::SessionsController -->
<g id="node10" class="node">
<title>Admin::Authentication::SessionsController</title>
<path fill="none" stroke="#000000" d="M403,-368.5C403,-368.5 631,-368.5 631,-368.5 637,-368.5 643,-374.5 643,-380.5 643,-380.5 643,-659.5 643,-659.5 643,-665.5 637,-671.5 631,-671.5 631,-671.5 403,-671.5 403,-671.5 397,-671.5 391,-665.5 391,-659.5 391,-659.5 391,-380.5 391,-380.5 391,-374.5 397,-368.5 403,-368.5"/>
<text text-anchor="middle" x="517" y="-656.3" font-family="Times,serif" font-size="14.00" fill="#000000">Admin::Authentication::SessionsController</text>
<polyline fill="none" stroke="#000000" points="391,-648.5 643,-648.5 "/>
<text text-anchor="start" x="399" y="-633.3" font-family="Times,serif" font-size="14.00" fill="#000000">create</text>
<text text-anchor="start" x="399" y="-618.3" font-family="Times,serif" font-size="14.00" fill="#000000">destroy</text>
<text text-anchor="start" x="399" y="-603.3" font-family="Times,serif" font-size="14.00" fill="#000000">generate_otp</text>
<text text-anchor="start" x="399" y="-588.3" font-family="Times,serif" font-size="14.00" fill="#000000">generate_token</text>
<text text-anchor="start" x="399" y="-573.3" font-family="Times,serif" font-size="14.00" fill="#000000">increment_attempts</text>
<text text-anchor="start" x="399" y="-558.3" font-family="Times,serif" font-size="14.00" fill="#000000">new</text>
<text text-anchor="start" x="399" y="-543.3" font-family="Times,serif" font-size="14.00" fill="#000000">resend_otp</text>
<text text-anchor="start" x="399" y="-528.3" font-family="Times,serif" font-size="14.00" fill="#000000">reset_attemps</text>
<text text-anchor="start" x="399" y="-513.3" font-family="Times,serif" font-size="14.00" fill="#000000">send_otp</text>
<text text-anchor="start" x="399" y="-498.3" font-family="Times,serif" font-size="14.00" fill="#000000">send_unlock_email</text>
<text text-anchor="start" x="399" y="-483.3" font-family="Times,serif" font-size="14.00" fill="#000000">session_info</text>
<text text-anchor="start" x="399" y="-468.3" font-family="Times,serif" font-size="14.00" fill="#000000">set_user</text>
<text text-anchor="start" x="399" y="-453.3" font-family="Times,serif" font-size="14.00" fill="#000000">set_user_with_two_factor</text>
<text text-anchor="start" x="399" y="-438.3" font-family="Times,serif" font-size="14.00" fill="#000000">two_factor</text>
<text text-anchor="start" x="399" y="-423.3" font-family="Times,serif" font-size="14.00" fill="#000000">two_factor_auth</text>
<polyline fill="none" stroke="#000000" points="391,-415.5 643,-415.5 "/>
<polyline fill="none" stroke="#000000" points="391,-391.5 643,-391.5 "/>
<text text-anchor="start" x="399" y="-376.3" font-family="Times,serif" font-size="14.00" fill="#000000">_layout</text>
</g>
<!-- Admin::Authentication::PasswordsController -->
<g id="node11" class="node">
<title>Admin::Authentication::PasswordsController</title>
<path fill="none" stroke="#000000" d="M702,-368.5C702,-368.5 941,-368.5 941,-368.5 947,-368.5 953,-374.5 953,-380.5 953,-380.5 953,-584.5 953,-584.5 953,-590.5 947,-596.5 941,-596.5 941,-596.5 702,-596.5 702,-596.5 696,-596.5 690,-590.5 690,-584.5 690,-584.5 690,-380.5 690,-380.5 690,-374.5 696,-368.5 702,-368.5"/>
<text text-anchor="middle" x="821.5" y="-581.3" font-family="Times,serif" font-size="14.00" fill="#000000">Admin::Authentication::PasswordsController</text>
<polyline fill="none" stroke="#000000" points="690,-573.5 953,-573.5 "/>
<text text-anchor="start" x="698" y="-558.3" font-family="Times,serif" font-size="14.00" fill="#000000">email_expired?</text>
<text text-anchor="start" x="698" y="-543.3" font-family="Times,serif" font-size="14.00" fill="#000000">generate_token</text>
<text text-anchor="start" x="698" y="-528.3" font-family="Times,serif" font-size="14.00" fill="#000000">new</text>
<text text-anchor="start" x="698" y="-513.3" font-family="Times,serif" font-size="14.00" fill="#000000">send_reset_password_email</text>
<text text-anchor="start" x="698" y="-498.3" font-family="Times,serif" font-size="14.00" fill="#000000">send_update_password_email</text>
<text text-anchor="start" x="698" y="-483.3" font-family="Times,serif" font-size="14.00" fill="#000000">show</text>
<text text-anchor="start" x="698" y="-468.3" font-family="Times,serif" font-size="14.00" fill="#000000">update_password</text>
<polyline fill="none" stroke="#000000" points="690,-460.5 953,-460.5 "/>
<polyline fill="none" stroke="#000000" points="690,-436.5 953,-436.5 "/>
<text text-anchor="start" x="698" y="-421.3" font-family="Times,serif" font-size="14.00" fill="#000000">_layout</text>
<text text-anchor="start" x="698" y="-406.3" font-family="Times,serif" font-size="14.00" fill="#000000">set_user</text>
<text text-anchor="start" x="698" y="-391.3" font-family="Times,serif" font-size="14.00" fill="#000000">set_user_by_id</text>
<text text-anchor="start" x="698" y="-376.3" font-family="Times,serif" font-size="14.00" fill="#000000">user_params</text>
</g>
<!-- Admin::UsersController -->
<g id="node12" class="node">
<title>Admin::UsersController</title>
<path fill="none" stroke="#000000" d="M196,-391.5C196,-391.5 345,-391.5 345,-391.5 351,-391.5 357,-397.5 357,-403.5 357,-403.5 357,-652.5 357,-652.5 357,-658.5 351,-664.5 345,-664.5 345,-664.5 196,-664.5 196,-664.5 190,-664.5 184,-658.5 184,-652.5 184,-652.5 184,-403.5 184,-403.5 184,-397.5 190,-391.5 196,-391.5"/>
<text text-anchor="middle" x="270.5" y="-649.3" font-family="Times,serif" font-size="14.00" fill="#000000">Admin::UsersController</text>
<polyline fill="none" stroke="#000000" points="184,-641.5 357,-641.5 "/>
<text text-anchor="start" x="192" y="-626.3" font-family="Times,serif" font-size="14.00" fill="#000000">costumer_change_password</text>
<text text-anchor="start" x="192" y="-611.3" font-family="Times,serif" font-size="14.00" fill="#000000">costumer_update_password</text>
<text text-anchor="start" x="192" y="-596.3" font-family="Times,serif" font-size="14.00" fill="#000000">create_costumer_user</text>
<text text-anchor="start" x="192" y="-581.3" font-family="Times,serif" font-size="14.00" fill="#000000">create_employee_user</text>
<text text-anchor="start" x="192" y="-566.3" font-family="Times,serif" font-size="14.00" fill="#000000">employee_change_password</text>
<text text-anchor="start" x="192" y="-551.3" font-family="Times,serif" font-size="14.00" fill="#000000">employee_update_password</text>
<text text-anchor="start" x="192" y="-536.3" font-family="Times,serif" font-size="14.00" fill="#000000">generate_token</text>
<text text-anchor="start" x="192" y="-521.3" font-family="Times,serif" font-size="14.00" fill="#000000">new_costumer_user</text>
<text text-anchor="start" x="192" y="-506.3" font-family="Times,serif" font-size="14.00" fill="#000000">new_employee_user</text>
<text text-anchor="start" x="192" y="-491.3" font-family="Times,serif" font-size="14.00" fill="#000000">send_confirmation_email</text>
<polyline fill="none" stroke="#000000" points="184,-483.5 357,-483.5 "/>
<polyline fill="none" stroke="#000000" points="184,-459.5 357,-459.5 "/>
<text text-anchor="start" x="192" y="-444.3" font-family="Times,serif" font-size="14.00" fill="#000000">_layout</text>
<text text-anchor="start" x="192" y="-429.3" font-family="Times,serif" font-size="14.00" fill="#000000">set_costumer</text>
<text text-anchor="start" x="192" y="-414.3" font-family="Times,serif" font-size="14.00" fill="#000000">set_employee</text>
<text text-anchor="start" x="192" y="-399.3" font-family="Times,serif" font-size="14.00" fill="#000000">user_params</text>
</g>
<!-- Admin::CostumersController -->
<g id="node13" class="node">
<title>Admin::CostumersController</title>
<path fill="none" stroke="#000000" d="M955,-920.5C955,-920.5 1107,-920.5 1107,-920.5 1113,-920.5 1119,-926.5 1119,-932.5 1119,-932.5 1119,-1151.5 1119,-1151.5 1119,-1157.5 1113,-1163.5 1107,-1163.5 1107,-1163.5 955,-1163.5 955,-1163.5 949,-1163.5 943,-1157.5 943,-1151.5 943,-1151.5 943,-932.5 943,-932.5 943,-926.5 949,-920.5 955,-920.5"/>
<text text-anchor="middle" x="1031" y="-1148.3" font-family="Times,serif" font-size="14.00" fill="#000000">Admin::CostumersController</text>
<polyline fill="none" stroke="#000000" points="943,-1140.5 1119,-1140.5 "/>
<text text-anchor="start" x="951" y="-1125.3" font-family="Times,serif" font-size="14.00" fill="#000000">active</text>
<text text-anchor="start" x="951" y="-1110.3" font-family="Times,serif" font-size="14.00" fill="#000000">create</text>
<text text-anchor="start" x="951" y="-1095.3" font-family="Times,serif" font-size="14.00" fill="#000000">deactive</text>
<text text-anchor="start" x="951" y="-1080.3" font-family="Times,serif" font-size="14.00" fill="#000000">edit</text>
<text text-anchor="start" x="951" y="-1065.3" font-family="Times,serif" font-size="14.00" fill="#000000">history</text>
<text text-anchor="start" x="951" y="-1050.3" font-family="Times,serif" font-size="14.00" fill="#000000">index</text>
<text text-anchor="start" x="951" y="-1035.3" font-family="Times,serif" font-size="14.00" fill="#000000">new</text>
<text text-anchor="start" x="951" y="-1020.3" font-family="Times,serif" font-size="14.00" fill="#000000">show</text>
<text text-anchor="start" x="951" y="-1005.3" font-family="Times,serif" font-size="14.00" fill="#000000">update</text>
<polyline fill="none" stroke="#000000" points="943,-997.5 1119,-997.5 "/>
<polyline fill="none" stroke="#000000" points="943,-973.5 1119,-973.5 "/>
<text text-anchor="start" x="951" y="-958.3" font-family="Times,serif" font-size="14.00" fill="#000000">_layout</text>
<text text-anchor="start" x="951" y="-943.3" font-family="Times,serif" font-size="14.00" fill="#000000">costumer_params</text>
<text text-anchor="start" x="951" y="-928.3" font-family="Times,serif" font-size="14.00" fill="#000000">set_costumer</text>
</g>
<!-- ApplicationController -->
<g id="node14" class="node">
<title>ApplicationController</title>
<path fill="none" stroke="#000000" d="M1001,-69.5C1001,-69.5 1113,-69.5 1113,-69.5 1119,-69.5 1125,-75.5 1125,-81.5 1125,-81.5 1125,-345.5 1125,-345.5 1125,-351.5 1119,-357.5 1113,-357.5 1113,-357.5 1001,-357.5 1001,-357.5 995,-357.5 989,-351.5 989,-345.5 989,-345.5 989,-81.5 989,-81.5 989,-75.5 995,-69.5 1001,-69.5"/>
<text text-anchor="middle" x="1057" y="-342.3" font-family="Times,serif" font-size="14.00" fill="#000000">ApplicationController</text>
<polyline fill="none" stroke="#000000" points="989,-334.5 1125,-334.5 "/>
<text text-anchor="start" x="997" y="-319.3" font-family="Times,serif" font-size="14.00" fill="#000000">costumer_enabled?</text>
<text text-anchor="start" x="997" y="-304.3" font-family="Times,serif" font-size="14.00" fill="#000000">current_costumer</text>
<text text-anchor="start" x="997" y="-289.3" font-family="Times,serif" font-size="14.00" fill="#000000">current_employee</text>
<text text-anchor="start" x="997" y="-274.3" font-family="Times,serif" font-size="14.00" fill="#000000">employee_enabled?</text>
<text text-anchor="start" x="997" y="-259.3" font-family="Times,serif" font-size="14.00" fill="#000000">redirect_to_back</text>
<text text-anchor="start" x="997" y="-244.3" font-family="Times,serif" font-size="14.00" fill="#000000">render_404</text>
<text text-anchor="start" x="997" y="-229.3" font-family="Times,serif" font-size="14.00" fill="#000000">require_employee</text>
<text text-anchor="start" x="997" y="-214.3" font-family="Times,serif" font-size="14.00" fill="#000000">send_sms</text>
<text text-anchor="start" x="997" y="-199.3" font-family="Times,serif" font-size="14.00" fill="#000000">set_lang</text>
<text text-anchor="start" x="997" y="-184.3" font-family="Times,serif" font-size="14.00" fill="#000000">to_pdf</text>
<text text-anchor="start" x="997" y="-169.3" font-family="Times,serif" font-size="14.00" fill="#000000">user_confirmed?</text>
<text text-anchor="start" x="997" y="-154.3" font-family="Times,serif" font-size="14.00" fill="#000000">user_is_costumer?</text>
<text text-anchor="start" x="997" y="-139.3" font-family="Times,serif" font-size="14.00" fill="#000000">user_is_employee?</text>
<text text-anchor="start" x="997" y="-124.3" font-family="Times,serif" font-size="14.00" fill="#000000">user_locked?</text>
<polyline fill="none" stroke="#000000" points="989,-116.5 1125,-116.5 "/>
<polyline fill="none" stroke="#000000" points="989,-92.5 1125,-92.5 "/>
<text text-anchor="start" x="997" y="-77.3" font-family="Times,serif" font-size="14.00" fill="#000000">_layout</text>
</g>
<!-- SettingsController -->
<g id="node15" class="node">
<title>SettingsController</title>
<path fill="none" stroke="#000000" d="M35,-621.5C35,-621.5 127,-621.5 127,-621.5 133,-621.5 139,-627.5 139,-633.5 139,-633.5 139,-702.5 139,-702.5 139,-708.5 133,-714.5 127,-714.5 127,-714.5 35,-714.5 35,-714.5 29,-714.5 23,-708.5 23,-702.5 23,-702.5 23,-633.5 23,-633.5 23,-627.5 29,-621.5 35,-621.5"/>
<text text-anchor="middle" x="81" y="-699.3" font-family="Times,serif" font-size="14.00" fill="#000000">SettingsController</text>
<polyline fill="none" stroke="#000000" points="23,-691.5 139,-691.5 "/>
<text text-anchor="start" x="31" y="-676.3" font-family="Times,serif" font-size="14.00" fill="#000000">change_lang</text>
<polyline fill="none" stroke="#000000" points="23,-668.5 139,-668.5 "/>
<polyline fill="none" stroke="#000000" points="23,-644.5 139,-644.5 "/>
<text text-anchor="start" x="31" y="-629.3" font-family="Times,serif" font-size="14.00" fill="#000000">_layout</text>
</g>
<!-- ErrorsController -->
<g id="node16" class="node">
<title>ErrorsController</title>
<path fill="none" stroke="#000000" d="M817,-46.5C817,-46.5 924,-46.5 924,-46.5 930,-46.5 936,-52.5 936,-58.5 936,-58.5 936,-142.5 936,-142.5 936,-148.5 930,-154.5 924,-154.5 924,-154.5 817,-154.5 817,-154.5 811,-154.5 805,-148.5 805,-142.5 805,-142.5 805,-58.5 805,-58.5 805,-52.5 811,-46.5 817,-46.5"/>
<text text-anchor="middle" x="870.5" y="-139.3" font-family="Times,serif" font-size="14.00" fill="#000000">ErrorsController</text>
<polyline fill="none" stroke="#000000" points="805,-131.5 936,-131.5 "/>
<text text-anchor="start" x="813" y="-116.3" font-family="Times,serif" font-size="14.00" fill="#000000">internal_server_error</text>
<text text-anchor="start" x="813" y="-101.3" font-family="Times,serif" font-size="14.00" fill="#000000">not_found</text>
<polyline fill="none" stroke="#000000" points="805,-93.5 936,-93.5 "/>
<polyline fill="none" stroke="#000000" points="805,-69.5 936,-69.5 "/>
<text text-anchor="start" x="813" y="-54.3" font-family="Times,serif" font-size="14.00" fill="#000000">_layout</text>
</g>
<!-- Authentication::NotificationsController -->
<g id="node17" class="node">
<title>Authentication::NotificationsController</title>
<path fill="none" stroke="#000000" d="M541,-23.5C541,-23.5 747,-23.5 747,-23.5 753,-23.5 759,-29.5 759,-35.5 759,-35.5 759,-104.5 759,-104.5 759,-110.5 753,-116.5 747,-116.5 747,-116.5 541,-116.5 541,-116.5 535,-116.5 529,-110.5 529,-104.5 529,-104.5 529,-35.5 529,-35.5 529,-29.5 535,-23.5 541,-23.5"/>
<text text-anchor="middle" x="644" y="-101.3" font-family="Times,serif" font-size="14.00" fill="#000000">Authentication::NotificationsController</text>
<polyline fill="none" stroke="#000000" points="529,-93.5 759,-93.5 "/>
<text text-anchor="start" x="537" y="-78.3" font-family="Times,serif" font-size="14.00" fill="#000000">index</text>
<polyline fill="none" stroke="#000000" points="529,-70.5 759,-70.5 "/>
<polyline fill="none" stroke="#000000" points="529,-46.5 759,-46.5 "/>
<text text-anchor="start" x="537" y="-31.3" font-family="Times,serif" font-size="14.00" fill="#000000">_layout</text>
</g>
<!-- Authentication::ConfirmationsController -->
<g id="node18" class="node">
<title>Authentication::ConfirmationsController</title>
<path fill="none" stroke="#000000" d="M541,-161.5C541,-161.5 756,-161.5 756,-161.5 762,-161.5 768,-167.5 768,-173.5 768,-173.5 768,-317.5 768,-317.5 768,-323.5 762,-329.5 756,-329.5 756,-329.5 541,-329.5 541,-329.5 535,-329.5 529,-323.5 529,-317.5 529,-317.5 529,-173.5 529,-173.5 529,-167.5 535,-161.5 541,-161.5"/>
<text text-anchor="middle" x="648.5" y="-314.3" font-family="Times,serif" font-size="14.00" fill="#000000">Authentication::ConfirmationsController</text>
<polyline fill="none" stroke="#000000" points="529,-306.5 768,-306.5 "/>
<text text-anchor="start" x="537" y="-291.3" font-family="Times,serif" font-size="14.00" fill="#000000">generate_token</text>
<text text-anchor="start" x="537" y="-276.3" font-family="Times,serif" font-size="14.00" fill="#000000">generate_token_password</text>
<text text-anchor="start" x="537" y="-261.3" font-family="Times,serif" font-size="14.00" fill="#000000">new</text>
<text text-anchor="start" x="537" y="-246.3" font-family="Times,serif" font-size="14.00" fill="#000000">send_confirmation_email</text>
<text text-anchor="start" x="537" y="-231.3" font-family="Times,serif" font-size="14.00" fill="#000000">set_user</text>
<text text-anchor="start" x="537" y="-216.3" font-family="Times,serif" font-size="14.00" fill="#000000">show</text>
<polyline fill="none" stroke="#000000" points="529,-208.5 768,-208.5 "/>
<polyline fill="none" stroke="#000000" points="529,-184.5 768,-184.5 "/>
<text text-anchor="start" x="537" y="-169.3" font-family="Times,serif" font-size="14.00" fill="#000000">_layout</text>
</g>
<!-- Authentication::UnlocksController -->
<g id="node19" class="node">
<title>Authentication::UnlocksController</title>
<path fill="none" stroke="#000000" d="M702,-989.5C702,-989.5 883,-989.5 883,-989.5 889,-989.5 895,-995.5 895,-1001.5 895,-1001.5 895,-1130.5 895,-1130.5 895,-1136.5 889,-1142.5 883,-1142.5 883,-1142.5 702,-1142.5 702,-1142.5 696,-1142.5 690,-1136.5 690,-1130.5 690,-1130.5 690,-1001.5 690,-1001.5 690,-995.5 696,-989.5 702,-989.5"/>
<text text-anchor="middle" x="792.5" y="-1127.3" font-family="Times,serif" font-size="14.00" fill="#000000">Authentication::UnlocksController</text>
<polyline fill="none" stroke="#000000" points="690,-1119.5 895,-1119.5 "/>
<text text-anchor="start" x="698" y="-1104.3" font-family="Times,serif" font-size="14.00" fill="#000000">generate_token</text>
<text text-anchor="start" x="698" y="-1089.3" font-family="Times,serif" font-size="14.00" fill="#000000">new</text>
<text text-anchor="start" x="698" y="-1074.3" font-family="Times,serif" font-size="14.00" fill="#000000">send_unlock_email</text>
<text text-anchor="start" x="698" y="-1059.3" font-family="Times,serif" font-size="14.00" fill="#000000">set_user</text>
<text text-anchor="start" x="698" y="-1044.3" font-family="Times,serif" font-size="14.00" fill="#000000">show</text>
<polyline fill="none" stroke="#000000" points="690,-1036.5 895,-1036.5 "/>
<polyline fill="none" stroke="#000000" points="690,-1012.5 895,-1012.5 "/>
<text text-anchor="start" x="698" y="-997.3" font-family="Times,serif" font-size="14.00" fill="#000000">_layout</text>
</g>
<!-- Authentication::SessionsController -->
<g id="node20" class="node">
<title>Authentication::SessionsController</title>
<path fill="none" stroke="#000000" d="M702,-644.5C702,-644.5 884,-644.5 884,-644.5 890,-644.5 896,-650.5 896,-656.5 896,-656.5 896,-935.5 896,-935.5 896,-941.5 890,-947.5 884,-947.5 884,-947.5 702,-947.5 702,-947.5 696,-947.5 690,-941.5 690,-935.5 690,-935.5 690,-656.5 690,-656.5 690,-650.5 696,-644.5 702,-644.5"/>
<text text-anchor="middle" x="793" y="-932.3" font-family="Times,serif" font-size="14.00" fill="#000000">Authentication::SessionsController</text>
<polyline fill="none" stroke="#000000" points="690,-924.5 896,-924.5 "/>
<text text-anchor="start" x="698" y="-909.3" font-family="Times,serif" font-size="14.00" fill="#000000">create</text>
<text text-anchor="start" x="698" y="-894.3" font-family="Times,serif" font-size="14.00" fill="#000000">destroy</text>
<text text-anchor="start" x="698" y="-879.3" font-family="Times,serif" font-size="14.00" fill="#000000">generate_otp</text>
<text text-anchor="start" x="698" y="-864.3" font-family="Times,serif" font-size="14.00" fill="#000000">generate_token</text>
<text text-anchor="start" x="698" y="-849.3" font-family="Times,serif" font-size="14.00" fill="#000000">increment_attempts</text>
<text text-anchor="start" x="698" y="-834.3" font-family="Times,serif" font-size="14.00" fill="#000000">new</text>
<text text-anchor="start" x="698" y="-819.3" font-family="Times,serif" font-size="14.00" fill="#000000">resend_otp</text>
<text text-anchor="start" x="698" y="-804.3" font-family="Times,serif" font-size="14.00" fill="#000000">reset_attemps</text>
<text text-anchor="start" x="698" y="-789.3" font-family="Times,serif" font-size="14.00" fill="#000000">send_otp</text>
<text text-anchor="start" x="698" y="-774.3" font-family="Times,serif" font-size="14.00" fill="#000000">send_unlock_email</text>
<text text-anchor="start" x="698" y="-759.3" font-family="Times,serif" font-size="14.00" fill="#000000">session_info</text>
<text text-anchor="start" x="698" y="-744.3" font-family="Times,serif" font-size="14.00" fill="#000000">set_user</text>
<text text-anchor="start" x="698" y="-729.3" font-family="Times,serif" font-size="14.00" fill="#000000">set_user_with_two_factor</text>
<text text-anchor="start" x="698" y="-714.3" font-family="Times,serif" font-size="14.00" fill="#000000">two_factor</text>
<text text-anchor="start" x="698" y="-699.3" font-family="Times,serif" font-size="14.00" fill="#000000">two_factor_auth</text>
<polyline fill="none" stroke="#000000" points="690,-691.5 896,-691.5 "/>
<polyline fill="none" stroke="#000000" points="690,-667.5 896,-667.5 "/>
<text text-anchor="start" x="698" y="-652.3" font-family="Times,serif" font-size="14.00" fill="#000000">_layout</text>
</g>
<!-- Authentication::PasswordsController -->
<g id="node21" class="node">
<title>Authentication::PasswordsController</title>
<path fill="none" stroke="#000000" d="M449,-920.5C449,-920.5 642,-920.5 642,-920.5 648,-920.5 654,-926.5 654,-932.5 654,-932.5 654,-1136.5 654,-1136.5 654,-1142.5 648,-1148.5 642,-1148.5 642,-1148.5 449,-1148.5 449,-1148.5 443,-1148.5 437,-1142.5 437,-1136.5 437,-1136.5 437,-932.5 437,-932.5 437,-926.5 443,-920.5 449,-920.5"/>
<text text-anchor="middle" x="545.5" y="-1133.3" font-family="Times,serif" font-size="14.00" fill="#000000">Authentication::PasswordsController</text>
<polyline fill="none" stroke="#000000" points="437,-1125.5 654,-1125.5 "/>
<text text-anchor="start" x="445" y="-1110.3" font-family="Times,serif" font-size="14.00" fill="#000000">email_expired?</text>
<text text-anchor="start" x="445" y="-1095.3" font-family="Times,serif" font-size="14.00" fill="#000000">generate_token</text>
<text text-anchor="start" x="445" y="-1080.3" font-family="Times,serif" font-size="14.00" fill="#000000">new</text>
<text text-anchor="start" x="445" y="-1065.3" font-family="Times,serif" font-size="14.00" fill="#000000">send_reset_password_email</text>
<text text-anchor="start" x="445" y="-1050.3" font-family="Times,serif" font-size="14.00" fill="#000000">send_update_password_email</text>
<text text-anchor="start" x="445" y="-1035.3" font-family="Times,serif" font-size="14.00" fill="#000000">show</text>
<text text-anchor="start" x="445" y="-1020.3" font-family="Times,serif" font-size="14.00" fill="#000000">update_password</text>
<polyline fill="none" stroke="#000000" points="437,-1012.5 654,-1012.5 "/>
<polyline fill="none" stroke="#000000" points="437,-988.5 654,-988.5 "/>
<text text-anchor="start" x="445" y="-973.3" font-family="Times,serif" font-size="14.00" fill="#000000">_layout</text>
<text text-anchor="start" x="445" y="-958.3" font-family="Times,serif" font-size="14.00" fill="#000000">set_user</text>
<text text-anchor="start" x="445" y="-943.3" font-family="Times,serif" font-size="14.00" fill="#000000">set_user_by_id</text>
<text text-anchor="start" x="445" y="-928.3" font-family="Times,serif" font-size="14.00" fill="#000000">user_params</text>
</g>
<!-- LandingController -->
<g id="node22" class="node">
<title>LandingController</title>
<path fill="none" stroke="#000000" d="M35,-483.5C35,-483.5 128,-483.5 128,-483.5 134,-483.5 140,-489.5 140,-495.5 140,-495.5 140,-564.5 140,-564.5 140,-570.5 134,-576.5 128,-576.5 128,-576.5 35,-576.5 35,-576.5 29,-576.5 23,-570.5 23,-564.5 23,-564.5 23,-495.5 23,-495.5 23,-489.5 29,-483.5 35,-483.5"/>
<text text-anchor="middle" x="81.5" y="-561.3" font-family="Times,serif" font-size="14.00" fill="#000000">LandingController</text>
<polyline fill="none" stroke="#000000" points="23,-553.5 140,-553.5 "/>
<text text-anchor="start" x="31" y="-538.3" font-family="Times,serif" font-size="14.00" fill="#000000">index</text>
<polyline fill="none" stroke="#000000" points="23,-530.5 140,-530.5 "/>
<polyline fill="none" stroke="#000000" points="23,-506.5 140,-506.5 "/>
<text text-anchor="start" x="31" y="-491.3" font-family="Times,serif" font-size="14.00" fill="#000000">_layout</text>
</g>
</g>
</svg>
