<?xml version="1.0" encoding="UTF-8" standalone="no"?>
<!DOCTYPE svg PUBLIC "-//W3C//DTD SVG 1.1//EN"
 "http://www.w3.org/Graphics/SVG/1.1/DTD/svg11.dtd">
<!-- Generated by graphviz version 2.40.1 (20161225.0304)
 -->
<!-- Title: models_diagram Pages: 1 -->
<svg width="912pt" height="246pt"
 viewBox="0.00 0.00 911.95 246.00" xmlns="http://www.w3.org/2000/svg" xmlns:xlink="http://www.w3.org/1999/xlink">
<g id="graph0" class="graph" transform="scale(1 1) rotate(0) translate(4 242)">
<title>models_diagram</title>
<polygon fill="transparent" stroke="transparent" points="-4,4 -4,-242 907.9464,-242 907.9464,4 -4,4"/>
<!-- _diagram_info -->
<g id="node1" class="node">
<title>_diagram_info</title>
<text text-anchor="start" x="8" y="-223.6" font-family="Times,serif" font-size="13.00" fill="#000000">Models diagram</text>
<text text-anchor="start" x="8" y="-209.6" font-family="Times,serif" font-size="13.00" fill="#000000">Date: Dec 09 2018 &#45; 22:32</text>
<text text-anchor="start" x="8" y="-195.6" font-family="Times,serif" font-size="13.00" fill="#000000">Migration version: 20181118173060</text>
<text text-anchor="start" x="8" y="-181.6" font-family="Times,serif" font-size="13.00" fill="#000000">Generated by RailRoady 1.5.3</text>
<text text-anchor="start" x="8" y="-167.6" font-family="Times,serif" font-size="13.00" fill="#000000">http://railroady.prestonlee.com</text>
</g>
<!-- Category -->
<g id="node2" class="node">
<title>Category</title>
<ellipse fill="none" stroke="#000000" cx="275" cy="-199" rx="42.7926" ry="18"/>
<text text-anchor="middle" x="275" y="-195.3" font-family="Times,serif" font-size="14.00" fill="#000000">Category</text>
</g>
<!-- Product -->
<g id="node5" class="node">
<title>Product</title>
<ellipse fill="none" stroke="#000000" cx="225" cy="-105" rx="38.1938" ry="18"/>
<text text-anchor="middle" x="225" y="-101.3" font-family="Times,serif" font-size="14.00" fill="#000000">Product</text>
</g>
<!-- Category&#45;&gt;Product -->
<g id="edge1" class="edge">
<title>Category&#45;&gt;Product</title>
<path fill="none" stroke="#d65f40" d="M261.8201,-174.2217C254.8704,-161.1563 246.3377,-145.1148 239.2368,-131.7652"/>
<ellipse fill="none" stroke="#d65f40" cx="263.7169" cy="-177.7878" rx="4" ry="4"/>
<polygon fill="#d65f40" stroke="#d65f40" points="239.0586,-131.4301 238.3354,-120.4881 236.7105,-127.0158 234.3624,-122.6014 234.3624,-122.6014 234.3624,-122.6014 236.7105,-127.0158 230.3895,-124.7147 239.0586,-131.4301 239.0586,-131.4301"/>
</g>
<!-- Audited::Audit -->
<g id="node9" class="node">
<title>Audited::Audit</title>
<ellipse fill="none" stroke="#000000" cx="480" cy="-18" rx="63.8893" ry="18"/>
<text text-anchor="middle" x="480" y="-14.3" font-family="Times,serif" font-size="14.00" fill="#000000">Audited::Audit</text>
</g>
<!-- Category&#45;&gt;Audited::Audit -->
<g id="edge2" class="edge">
<title>Category&#45;&gt;Audited::Audit</title>
<path fill="none" stroke="#ad6384" d="M290.6024,-174.5839C306.6702,-150.5885 333.3467,-113.7756 362,-87 381.1838,-69.0734 388.4367,-67.4269 411,-54 419.8826,-48.7142 429.618,-43.3727 438.9034,-38.4809"/>
<ellipse fill="none" stroke="#ad6384" cx="288.3701" cy="-177.9574" rx="4" ry="4"/>
<polygon fill="#ad6384" stroke="#ad6384" points="439.1175,-38.3697 450.0659,-37.7505 443.554,-36.0637 447.9905,-33.7577 447.9905,-33.7577 447.9905,-33.7577 443.554,-36.0637 445.9151,-29.7648 439.1175,-38.3697 439.1175,-38.3697"/>
<text text-anchor="middle" x="378.5" y="-101.3" font-family="Times,serif" font-size="14.00" fill="#000000">audits</text>
</g>
<!-- User -->
<g id="node3" class="node">
<title>User</title>
<ellipse fill="none" stroke="#000000" cx="577" cy="-105" rx="27.0966" ry="18"/>
<text text-anchor="middle" x="577" y="-101.3" font-family="Times,serif" font-size="14.00" fill="#000000">User</text>
</g>
<!-- User&#45;&gt;Audited::Audit -->
<g id="edge3" class="edge">
<title>User&#45;&gt;Audited::Audit</title>
<path fill="none" stroke="#f9c012" d="M554.217,-84.5658C540.1046,-71.9082 521.905,-55.5849 507.0604,-42.2706"/>
<ellipse fill="none" stroke="#f9c012" cx="557.5675" cy="-87.5709" rx="4" ry="4"/>
<polygon fill="#f9c012" stroke="#f9c012" points="506.6501,-41.9027 502.2104,-31.8758 502.9279,-38.5642 499.2057,-35.2258 499.2057,-35.2258 499.2057,-35.2258 502.9279,-38.5642 496.2011,-38.5757 506.6501,-41.9027 506.6501,-41.9027"/>
<text text-anchor="middle" x="551.5" y="-57.8" font-family="Times,serif" font-size="14.00" fill="#000000">audits</text>
</g>
<!-- Provider -->
<g id="node4" class="node">
<title>Provider</title>
<ellipse fill="none" stroke="#000000" cx="863" cy="-105" rx="40.8928" ry="18"/>
<text text-anchor="middle" x="863" y="-101.3" font-family="Times,serif" font-size="14.00" fill="#000000">Provider</text>
</g>
<!-- Provider&#45;&gt;Audited::Audit -->
<g id="edge4" class="edge">
<title>Provider&#45;&gt;Audited::Audit</title>
<path fill="none" stroke="#1631b5" d="M826.2375,-89.2859C798.3674,-77.9466 758.8704,-63.0909 723,-54 665.9749,-39.5477 599.8526,-30.218 550.9926,-24.6865"/>
<ellipse fill="none" stroke="#1631b5" cx="830.0773" cy="-90.8632" rx="4" ry="4"/>
<polygon fill="#1631b5" stroke="#1631b5" points="550.7773,-24.6627 541.3327,-19.0905 545.8076,-24.113 540.838,-23.5633 540.838,-23.5633 540.838,-23.5633 545.8076,-24.113 540.3432,-28.036 550.7773,-24.6627 550.7773,-24.6627"/>
<text text-anchor="middle" x="786.5" y="-57.8" font-family="Times,serif" font-size="14.00" fill="#000000">audits</text>
</g>
<!-- Product&#45;&gt;Audited::Audit -->
<g id="edge5" class="edge">
<title>Product&#45;&gt;Audited::Audit</title>
<path fill="none" stroke="#97eb80" d="M233.0161,-79.4143C237.2154,-70.0235 243.3381,-60.187 252,-54 276.4176,-36.5589 350.2924,-27.2038 407.4041,-22.4429"/>
<ellipse fill="none" stroke="#97eb80" cx="231.4178" cy="-83.3958" rx="4" ry="4"/>
<polygon fill="#97eb80" stroke="#97eb80" points="407.5276,-22.4331 417.8552,-26.1199 412.5117,-22.0337 417.4957,-21.6343 417.4957,-21.6343 417.4957,-21.6343 412.5117,-22.0337 417.1362,-17.1486 407.5276,-22.4331 407.5276,-22.4331"/>
<text text-anchor="middle" x="268.5" y="-57.8" font-family="Times,serif" font-size="14.00" fill="#000000">audits</text>
</g>
<!-- Employee -->
<g id="node6" class="node">
<title>Employee</title>
<ellipse fill="none" stroke="#000000" cx="437" cy="-199" rx="46.5926" ry="18"/>
<text text-anchor="middle" x="437" y="-195.3" font-family="Times,serif" font-size="14.00" fill="#000000">Employee</text>
</g>
<!-- Employee&#45;&gt;User -->
<g id="edge6" class="edge">
<title>Employee&#45;&gt;User</title>
<path fill="none" stroke="#b6cb72" d="M467.1163,-178.779C492.048,-162.0392 527.1098,-138.4977 550.8719,-122.5432"/>
<ellipse fill="none" stroke="#b6cb72" cx="463.7537" cy="-181.0368" rx="4" ry="4"/>
<ellipse fill="#b6cb72" stroke="#b6cb72" cx="554.2369" cy="-120.2838" rx="4" ry="4"/>
</g>
<!-- Employee&#45;&gt;Audited::Audit -->
<g id="edge7" class="edge">
<title>Employee&#45;&gt;Audited::Audit</title>
<path fill="none" stroke="#9e4229" d="M436.348,-172.5493C436.4326,-149.5426 438.1387,-115.5146 446,-87 450.0163,-72.432 457.1249,-57.2615 463.8074,-44.8674"/>
<ellipse fill="none" stroke="#9e4229" cx="436.3673" cy="-176.7928" rx="4" ry="4"/>
<polygon fill="#9e4229" stroke="#9e4229" points="463.8935,-44.7135 472.7034,-38.1839 466.3349,-40.3501 468.7763,-35.9866 468.7763,-35.9866 468.7763,-35.9866 466.3349,-40.3501 464.8492,-33.7894 463.8935,-44.7135 463.8935,-44.7135"/>
<text text-anchor="middle" x="493.5" y="-101.3" font-family="Times,serif" font-size="14.00" fill="#000000">associated_audits</text>
</g>
<!-- Employee&#45;&gt;Audited::Audit -->
<g id="edge8" class="edge">
<title>Employee&#45;&gt;Audited::Audit</title>
<path fill="none" stroke="#9a1500" d="M419.7821,-174.6781C405.6809,-151.5558 390.0072,-116.0892 403,-87 411.462,-68.0547 427.9814,-52.1503 443.5565,-40.4033"/>
<ellipse fill="none" stroke="#9a1500" cx="421.9299" cy="-178.0603" rx="4" ry="4"/>
<polygon fill="#9a1500" stroke="#9a1500" points="443.9272,-40.1377 454.6766,-37.9695 447.9911,-37.2248 452.0551,-34.312 452.0551,-34.312 452.0551,-34.312 447.9911,-37.2248 449.4335,-30.6545 443.9272,-40.1377 443.9272,-40.1377"/>
<text text-anchor="middle" x="419.5" y="-101.3" font-family="Times,serif" font-size="14.00" fill="#000000">audits</text>
</g>
<!-- Costumer -->
<g id="node7" class="node">
<title>Costumer</title>
<ellipse fill="none" stroke="#000000" cx="640" cy="-199" rx="45.4919" ry="18"/>
<text text-anchor="middle" x="640" y="-195.3" font-family="Times,serif" font-size="14.00" fill="#000000">Costumer</text>
</g>
<!-- Costumer&#45;&gt;User -->
<g id="edge9" class="edge">
<title>Costumer&#45;&gt;User</title>
<path fill="none" stroke="#0136c4" d="M623.5977,-174.5267C614.104,-160.3616 602.214,-142.6208 592.8208,-128.6056"/>
<ellipse fill="none" stroke="#0136c4" cx="625.9232" cy="-177.9966" rx="4" ry="4"/>
<ellipse fill="#0136c4" stroke="#0136c4" cx="590.3892" cy="-124.9775" rx="4" ry="4"/>
</g>
<!-- Costumer&#45;&gt;Audited::Audit -->
<g id="edge10" class="edge">
<title>Costumer&#45;&gt;Audited::Audit</title>
<path fill="none" stroke="#b4dc08" d="M655.5506,-174.3494C663.6922,-159.9725 672.8179,-141.1443 677,-123 684.2603,-91.5004 680.9847,-71.7979 654,-54 636.6334,-42.5458 589.2656,-33.168 548.3309,-26.8583"/>
<ellipse fill="none" stroke="#b4dc08" cx="653.431" cy="-177.9802" rx="4" ry="4"/>
<polygon fill="#b4dc08" stroke="#b4dc08" points="548.2462,-26.8456 539.0253,-20.9105 543.3016,-26.1031 538.357,-25.3606 538.357,-25.3606 538.357,-25.3606 543.3016,-26.1031 537.6888,-29.8107 548.2462,-26.8456 548.2462,-26.8456"/>
<text text-anchor="middle" x="727.5" y="-101.3" font-family="Times,serif" font-size="14.00" fill="#000000">associated_audits</text>
</g>
<!-- Costumer&#45;&gt;Audited::Audit -->
<g id="edge11" class="edge">
<title>Costumer&#45;&gt;Audited::Audit</title>
<path fill="none" stroke="#5d1f2a" d="M638.4557,-172.6699C635.9895,-148.7073 629.5911,-113.1818 613,-87 596.1855,-60.4656 565.6388,-43.6109 538.0573,-33.2081"/>
<ellipse fill="none" stroke="#5d1f2a" cx="638.8402" cy="-176.9524" rx="4" ry="4"/>
<polygon fill="#5d1f2a" stroke="#5d1f2a" points="537.8743,-33.1431 529.9602,-25.5525 533.1633,-31.4677 528.4524,-29.7923 528.4524,-29.7923 528.4524,-29.7923 533.1633,-31.4677 526.9445,-34.0322 537.8743,-33.1431 537.8743,-33.1431"/>
<text text-anchor="middle" x="644.5" y="-101.3" font-family="Times,serif" font-size="14.00" fill="#000000">audits</text>
</g>
<!-- ApplicationRecord -->
<g id="node8" class="node">
<title>ApplicationRecord</title>
<ellipse fill="none" stroke="#000000" cx="781" cy="-199" rx="77.1866" ry="18"/>
<text text-anchor="middle" x="781" y="-195.3" font-family="Times,serif" font-size="14.00" fill="#000000">ApplicationRecord</text>
</g>
</g>
</svg>
