<?xml version="1.0" encoding="UTF-8" standalone="no"?>
<!DOCTYPE svg PUBLIC "-//W3C//DTD SVG 1.1//EN"
 "http://www.w3.org/Graphics/SVG/1.1/DTD/svg11.dtd">
<!-- Generated by graphviz version 2.40.1 (20161225.0304)
 -->
<!-- Title: models_diagram Pages: 1 -->
<svg width="1216pt" height="354pt"
 viewBox="0.00 0.00 1216.00 354.00" xmlns="http://www.w3.org/2000/svg" xmlns:xlink="http://www.w3.org/1999/xlink">
<g id="graph0" class="graph" transform="scale(1 1) rotate(0) translate(4 350)">
<title>models_diagram</title>
<polygon fill="transparent" stroke="transparent" points="-4,4 -4,-350 1212,-350 1212,4 -4,4"/>
<!-- _diagram_info -->
<g id="node1" class="node">
<title>_diagram_info</title>
<text text-anchor="start" x="8" y="-331.6" font-family="Times,serif" font-size="13.00" fill="#000000">Models diagram</text>
<text text-anchor="start" x="8" y="-317.6" font-family="Times,serif" font-size="13.00" fill="#000000">Date: Feb 07 2019 &#45; 16:47</text>
<text text-anchor="start" x="8" y="-303.6" font-family="Times,serif" font-size="13.00" fill="#000000">Migration version: 20190205120100</text>
<text text-anchor="start" x="8" y="-289.6" font-family="Times,serif" font-size="13.00" fill="#000000">Generated by RailRoady 1.5.3</text>
<text text-anchor="start" x="8" y="-275.6" font-family="Times,serif" font-size="13.00" fill="#000000">http://railroady.prestonlee.com</text>
</g>
<!-- Notification -->
<g id="node2" class="node">
<title>Notification</title>
<ellipse fill="none" stroke="#000000" cx="285" cy="-307" rx="53.0913" ry="18"/>
<text text-anchor="middle" x="285" y="-303.3" font-family="Times,serif" font-size="14.00" fill="#000000">Notification</text>
</g>
<!-- Purchase -->
<g id="node3" class="node">
<title>Purchase</title>
<ellipse fill="none" stroke="#000000" cx="399" cy="-307" rx="42.4939" ry="18"/>
<text text-anchor="middle" x="399" y="-303.3" font-family="Times,serif" font-size="14.00" fill="#000000">Purchase</text>
</g>
<!-- PurchaseDetail -->
<g id="node4" class="node">
<title>PurchaseDetail</title>
<ellipse fill="none" stroke="#000000" cx="462" cy="-213" rx="63.8893" ry="18"/>
<text text-anchor="middle" x="462" y="-209.3" font-family="Times,serif" font-size="14.00" fill="#000000">PurchaseDetail</text>
</g>
<!-- Purchase&#45;&gt;PurchaseDetail -->
<g id="edge1" class="edge">
<title>Purchase&#45;&gt;PurchaseDetail</title>
<path fill="none" stroke="#d81863" d="M415.5751,-282.2689C424.4404,-269.0414 435.357,-252.7531 444.3766,-239.2953"/>
<ellipse fill="none" stroke="#d81863" cx="413.0768" cy="-285.9966" rx="4" ry="4"/>
<polygon fill="#d81863" stroke="#d81863" points="444.4217,-239.2279 453.7272,-233.4263 447.2054,-235.0744 449.9891,-230.921 449.9891,-230.921 449.9891,-230.921 447.2054,-235.0744 446.251,-228.4157 444.4217,-239.2279 444.4217,-239.2279"/>
</g>
<!-- Provider -->
<g id="node9" class="node">
<title>Provider</title>
<ellipse fill="none" stroke="#000000" cx="385" cy="-159" rx="40.8928" ry="18"/>
<text text-anchor="middle" x="385" y="-155.3" font-family="Times,serif" font-size="14.00" fill="#000000">Provider</text>
</g>
<!-- Purchase&#45;&gt;Provider -->
<g id="edge2" class="edge">
<title>Purchase&#45;&gt;Provider</title>
<path fill="none" stroke="#319bde" d="M395.0594,-280.8125C392.9831,-266.1868 390.5524,-247.6148 389,-231 387.5822,-215.8258 386.6083,-198.8021 385.9768,-185.1191"/>
<ellipse fill="none" stroke="#319bde" cx="395.6594" cy="-284.9645" rx="4" ry="4"/>
<ellipse fill="#319bde" stroke="#319bde" cx="385.8008" cy="-181.0739" rx="4" ry="4"/>
</g>
<!-- Employee -->
<g id="node11" class="node">
<title>Employee</title>
<ellipse fill="none" stroke="#000000" cx="879" cy="-213" rx="46.5926" ry="18"/>
<text text-anchor="middle" x="879" y="-209.3" font-family="Times,serif" font-size="14.00" fill="#000000">Employee</text>
</g>
<!-- Purchase&#45;&gt;Employee -->
<g id="edge3" class="edge">
<title>Purchase&#45;&gt;Employee</title>
<path fill="none" stroke="#b8f951" d="M445.3272,-297.9276C536.0033,-280.1702 736.1834,-240.9683 829.4153,-222.7103"/>
<ellipse fill="none" stroke="#b8f951" cx="441.3945" cy="-298.6977" rx="4" ry="4"/>
<ellipse fill="#b8f951" stroke="#b8f951" cx="833.3639" cy="-221.9371" rx="4" ry="4"/>
</g>
<!-- Audited::Audit -->
<g id="node14" class="node">
<title>Audited::Audit</title>
<ellipse fill="none" stroke="#000000" cx="713" cy="-18" rx="63.8893" ry="18"/>
<text text-anchor="middle" x="713" y="-14.3" font-family="Times,serif" font-size="14.00" fill="#000000">Audited::Audit</text>
</g>
<!-- Purchase&#45;&gt;Audited::Audit -->
<g id="edge4" class="edge">
<title>Purchase&#45;&gt;Audited::Audit</title>
<path fill="none" stroke="#b8905b" d="M371.4749,-285.929C334.8234,-255.1293 277.3228,-195.538 302,-141 326.1473,-87.6332 347.4657,-77.7738 401,-54 442.3131,-35.6535 560.991,-25.9707 639.4884,-21.4252"/>
<ellipse fill="none" stroke="#b8905b" cx="374.9618" cy="-288.7966" rx="4" ry="4"/>
<polygon fill="#b8905b" stroke="#b8905b" points="639.8237,-21.4064 650.0611,-25.3365 644.8158,-21.125 649.8079,-20.8437 649.8079,-20.8437 649.8079,-20.8437 644.8158,-21.125 649.5547,-16.3508 639.8237,-21.4064 639.8237,-21.4064"/>
<text text-anchor="middle" x="318.5" y="-155.3" font-family="Times,serif" font-size="14.00" fill="#000000">audits</text>
</g>
<!-- Product -->
<g id="node10" class="node">
<title>Product</title>
<ellipse fill="none" stroke="#000000" cx="536" cy="-105" rx="38.1938" ry="18"/>
<text text-anchor="middle" x="536" y="-101.3" font-family="Times,serif" font-size="14.00" fill="#000000">Product</text>
</g>
<!-- PurchaseDetail&#45;&gt;Product -->
<g id="edge5" class="edge">
<title>PurchaseDetail&#45;&gt;Product</title>
<path fill="none" stroke="#5be27e" d="M478.8765,-188.3694C491.1143,-170.5089 507.5732,-146.4878 519.6802,-128.8181"/>
<ellipse fill="none" stroke="#5be27e" cx="476.4805" cy="-191.8663" rx="4" ry="4"/>
<ellipse fill="#5be27e" stroke="#5be27e" cx="521.9905" cy="-125.4462" rx="4" ry="4"/>
</g>
<!-- PurchaseDetail&#45;&gt;Audited::Audit -->
<g id="edge6" class="edge">
<title>PurchaseDetail&#45;&gt;Audited::Audit</title>
<path fill="none" stroke="#63cfca" d="M452.2372,-187.1995C443.6638,-159.7829 435.4562,-116.414 456,-87 477.5131,-56.1982 575.4335,-36.683 643.9856,-26.5463"/>
<ellipse fill="none" stroke="#63cfca" cx="453.5031" cy="-191.026" rx="4" ry="4"/>
<polygon fill="#63cfca" stroke="#63cfca" points="644.3989,-26.4867 654.9389,-29.513 649.3477,-25.7729 654.2965,-25.0591 654.2965,-25.0591 654.2965,-25.0591 649.3477,-25.7729 653.654,-20.6051 644.3989,-26.4867 644.3989,-26.4867"/>
<text text-anchor="middle" x="472.5" y="-101.3" font-family="Times,serif" font-size="14.00" fill="#000000">audits</text>
</g>
<!-- Sale -->
<g id="node5" class="node">
<title>Sale</title>
<ellipse fill="none" stroke="#000000" cx="945" cy="-307" rx="27" ry="18"/>
<text text-anchor="middle" x="945" y="-303.3" font-family="Times,serif" font-size="14.00" fill="#000000">Sale</text>
</g>
<!-- Customer -->
<g id="node7" class="node">
<title>Customer</title>
<ellipse fill="none" stroke="#000000" cx="1083" cy="-213" rx="45.4919" ry="18"/>
<text text-anchor="middle" x="1083" y="-209.3" font-family="Times,serif" font-size="14.00" fill="#000000">Customer</text>
</g>
<!-- Sale&#45;&gt;Customer -->
<g id="edge8" class="edge">
<title>Sale&#45;&gt;Customer</title>
<path fill="none" stroke="#624a18" d="M962.8315,-284.3936C968.2217,-278.5284 974.4593,-272.5803 981,-268 997.9707,-256.1159 1005.6068,-259.5355 1024,-250 1033.7511,-244.9448 1044.0112,-238.8181 1053.1912,-233.017"/>
<ellipse fill="none" stroke="#624a18" cx="959.9776" cy="-287.6488" rx="4" ry="4"/>
<ellipse fill="#624a18" stroke="#624a18" cx="1056.6071" cy="-230.8267" rx="4" ry="4"/>
</g>
<!-- Sale&#45;&gt;Employee -->
<g id="edge9" class="edge">
<title>Sale&#45;&gt;Employee</title>
<path fill="none" stroke="#5db792" d="M928.7912,-283.9147C918.8291,-269.7262 906.0838,-251.5739 895.9822,-237.1868"/>
<ellipse fill="none" stroke="#5db792" cx="931.2051" cy="-287.3528" rx="4" ry="4"/>
<ellipse fill="#5db792" stroke="#5db792" cx="893.558" cy="-233.734" rx="4" ry="4"/>
</g>
<!-- SaleDetail -->
<g id="node13" class="node">
<title>SaleDetail</title>
<ellipse fill="none" stroke="#000000" cx="695" cy="-213" rx="47.3916" ry="18"/>
<text text-anchor="middle" x="695" y="-209.3" font-family="Times,serif" font-size="14.00" fill="#000000">SaleDetail</text>
</g>
<!-- Sale&#45;&gt;SaleDetail -->
<g id="edge7" class="edge">
<title>Sale&#45;&gt;SaleDetail</title>
<path fill="none" stroke="#b6e051" d="M913.7301,-295.2425C869.5087,-278.6153 788.5228,-248.1646 738.4708,-229.345"/>
<ellipse fill="none" stroke="#b6e051" cx="917.7365" cy="-296.7489" rx="4" ry="4"/>
<polygon fill="#b6e051" stroke="#b6e051" points="738.2531,-229.2632 730.4766,-221.5316 733.573,-227.5035 728.8929,-225.7437 728.8929,-225.7437 728.8929,-225.7437 733.573,-227.5035 727.3091,-229.9558 738.2531,-229.2632 738.2531,-229.2632"/>
</g>
<!-- Sale&#45;&gt;Audited::Audit -->
<g id="edge10" class="edge">
<title>Sale&#45;&gt;Audited::Audit</title>
<path fill="none" stroke="#6a08c3" d="M959.74,-283.1968C983.4704,-241.59 1024.4494,-153.7165 993,-87 983.173,-66.1532 974.05,-63.3838 953,-54 923.5795,-40.8847 843.6846,-30.5936 784.1059,-24.4319"/>
<ellipse fill="none" stroke="#6a08c3" cx="957.686" cy="-286.7205" rx="4" ry="4"/>
<polygon fill="#6a08c3" stroke="#6a08c3" points="783.9323,-24.4143 774.438,-18.9272 778.9579,-23.9093 773.9835,-23.4042 773.9835,-23.4042 773.9835,-23.4042 778.9579,-23.9093 773.5289,-27.8812 783.9323,-24.4143 783.9323,-24.4143"/>
<text text-anchor="middle" x="1020.5" y="-155.3" font-family="Times,serif" font-size="14.00" fill="#000000">audits</text>
</g>
<!-- Category -->
<g id="node6" class="node">
<title>Category</title>
<ellipse fill="none" stroke="#000000" cx="587" cy="-213" rx="42.7926" ry="18"/>
<text text-anchor="middle" x="587" y="-209.3" font-family="Times,serif" font-size="14.00" fill="#000000">Category</text>
</g>
<!-- Category&#45;&gt;Product -->
<g id="edge11" class="edge">
<title>Category&#45;&gt;Product</title>
<path fill="none" stroke="#c4246c" d="M571.2174,-188.3772C569.0266,-184.6224 566.8841,-180.7488 565,-177 557.8147,-162.7036 551.0562,-146.1804 545.8743,-132.5713"/>
<ellipse fill="none" stroke="#c4246c" cx="573.3727" cy="-191.9599" rx="4" ry="4"/>
<polygon fill="#c4246c" stroke="#c4246c" points="545.7313,-132.1876 546.4545,-121.2456 543.9846,-127.5026 542.238,-122.8176 542.238,-122.8176 542.238,-122.8176 543.9846,-127.5026 538.0215,-124.3896 545.7313,-132.1876 545.7313,-132.1876"/>
</g>
<!-- Category&#45;&gt;Audited::Audit -->
<g id="edge12" class="edge">
<title>Category&#45;&gt;Audited::Audit</title>
<path fill="none" stroke="#131764" d="M598.1887,-187.5402C610.1765,-161.3649 630.5361,-119.8968 653,-87 663.6013,-71.4751 677.2337,-55.5484 688.8244,-42.9138"/>
<ellipse fill="none" stroke="#131764" cx="596.3943" cy="-191.5024" rx="4" ry="4"/>
<polygon fill="#131764" stroke="#131764" points="688.9125,-42.8193 699.0233,-38.5741 692.3222,-39.1623 695.732,-35.5053 695.732,-35.5053 695.732,-35.5053 692.3222,-39.1623 692.4408,-32.4365 688.9125,-42.8193 688.9125,-42.8193"/>
<text text-anchor="middle" x="669.5" y="-101.3" font-family="Times,serif" font-size="14.00" fill="#000000">audits</text>
</g>
<!-- User -->
<g id="node8" class="node">
<title>User</title>
<ellipse fill="none" stroke="#000000" cx="957" cy="-105" rx="27.0966" ry="18"/>
<text text-anchor="middle" x="957" y="-101.3" font-family="Times,serif" font-size="14.00" fill="#000000">User</text>
</g>
<!-- Customer&#45;&gt;User -->
<g id="edge13" class="edge">
<title>Customer&#45;&gt;User</title>
<path fill="none" stroke="#8135eb" d="M1033.7863,-202.5785C1017.6244,-197.1605 1000.5957,-189.0492 988,-177 975.1386,-164.6966 967.3276,-146.1732 962.7635,-130.996"/>
<ellipse fill="none" stroke="#8135eb" cx="1037.8093" cy="-203.8349" rx="4" ry="4"/>
<ellipse fill="#8135eb" stroke="#8135eb" cx="961.6137" cy="-126.8253" rx="4" ry="4"/>
</g>
<!-- Customer&#45;&gt;Audited::Audit -->
<g id="edge14" class="edge">
<title>Customer&#45;&gt;Audited::Audit</title>
<path fill="none" stroke="#ee584e" d="M1081.7511,-186.8758C1078.5057,-150.7894 1066.9446,-86.4749 1026,-54 1007.5526,-39.3686 872.3268,-28.1335 785.7554,-22.345"/>
<ellipse fill="none" stroke="#ee584e" cx="1082.0716" cy="-190.9916" rx="4" ry="4"/>
<polygon fill="#ee584e" stroke="#ee584e" points="785.6897,-22.3408 776.0073,-17.1929 780.7005,-22.012 775.7113,-21.6832 775.7113,-21.6832 775.7113,-21.6832 780.7005,-22.012 775.4154,-26.1734 785.6897,-22.3408 785.6897,-22.3408"/>
<text text-anchor="middle" x="1115.5" y="-101.3" font-family="Times,serif" font-size="14.00" fill="#000000">associated_audits</text>
</g>
<!-- Customer&#45;&gt;Audited::Audit -->
<g id="edge15" class="edge">
<title>Customer&#45;&gt;Audited::Audit</title>
<path fill="none" stroke="#a6403f" d="M1113.31,-192.6279C1147.3092,-167.2543 1194.3403,-122.8738 1167,-87 1144.1444,-57.0106 907.1362,-33.6636 784.9706,-23.519"/>
<ellipse fill="none" stroke="#a6403f" cx="1109.9417" cy="-195.0841" rx="4" ry="4"/>
<polygon fill="#a6403f" stroke="#a6403f" points="784.9135,-23.5144 775.3159,-18.2101 779.9303,-23.1047 774.9471,-22.6949 774.9471,-22.6949 774.9471,-22.6949 779.9303,-23.1047 774.5783,-27.1798 784.9135,-23.5144 784.9135,-23.5144"/>
<text text-anchor="middle" x="1191.5" y="-101.3" font-family="Times,serif" font-size="14.00" fill="#000000">audits</text>
</g>
<!-- User&#45;&gt;Audited::Audit -->
<g id="edge16" class="edge">
<title>User&#45;&gt;Audited::Audit</title>
<path fill="none" stroke="#98d85d" d="M936.0114,-84.0194C924.2873,-73.4639 908.8711,-61.3773 893,-54 859.2148,-38.2958 818.7489,-29.4272 784.7497,-24.426"/>
<ellipse fill="none" stroke="#98d85d" cx="939.1909" cy="-86.967" rx="4" ry="4"/>
<polygon fill="#98d85d" stroke="#98d85d" points="784.3257,-24.3673 775.038,-18.5373 779.373,-23.681 774.4203,-22.9948 774.4203,-22.9948 774.4203,-22.9948 779.373,-23.681 773.8027,-27.4522 784.3257,-24.3673 784.3257,-24.3673"/>
<text text-anchor="middle" x="932.5" y="-57.8" font-family="Times,serif" font-size="14.00" fill="#000000">audits</text>
</g>
<!-- Provider&#45;&gt;Audited::Audit -->
<g id="edge17" class="edge">
<title>Provider&#45;&gt;Audited::Audit</title>
<path fill="none" stroke="#590053" d="M382.7672,-133.0062C382.6632,-118.6478 384.4694,-100.9499 392,-87 403.1117,-66.4163 411.4805,-63.1691 433,-54 469.2605,-38.55 570.4837,-28.3033 640.7266,-22.8204"/>
<ellipse fill="none" stroke="#590053" cx="382.894" cy="-137.0227" rx="4" ry="4"/>
<polygon fill="#590053" stroke="#590053" points="640.8832,-22.8085 651.1973,-26.5329 645.8687,-22.4272 650.8541,-22.046 650.8541,-22.046 650.8541,-22.046 645.8687,-22.4272 650.511,-17.559 640.8832,-22.8085 640.8832,-22.8085"/>
<text text-anchor="middle" x="408.5" y="-101.3" font-family="Times,serif" font-size="14.00" fill="#000000">audits</text>
</g>
<!-- Product&#45;&gt;Audited::Audit -->
<g id="edge18" class="edge">
<title>Product&#45;&gt;Audited::Audit</title>
<path fill="none" stroke="#1e9959" d="M544.4617,-79.3477C548.6882,-70.1275 554.7127,-60.4281 563,-54 576.3859,-43.6171 613.1746,-34.7045 646.9662,-28.3446"/>
<ellipse fill="none" stroke="#1e9959" cx="542.8591" cy="-83.2039" rx="4" ry="4"/>
<polygon fill="#1e9959" stroke="#1e9959" points="647.0231,-28.3343 657.669,-30.9636 651.9416,-27.4356 656.8602,-26.5369 656.8602,-26.5369 656.8602,-26.5369 651.9416,-27.4356 656.0514,-22.1102 647.0231,-28.3343 647.0231,-28.3343"/>
<text text-anchor="middle" x="579.5" y="-57.8" font-family="Times,serif" font-size="14.00" fill="#000000">audits</text>
</g>
<!-- Employee&#45;&gt;User -->
<g id="edge19" class="edge">
<title>Employee&#45;&gt;User</title>
<path fill="none" stroke="#7bf812" d="M896.2943,-189.0541C909.354,-170.9714 927.1783,-146.2915 940.1326,-128.3549"/>
<ellipse fill="none" stroke="#7bf812" cx="893.874" cy="-192.4052" rx="4" ry="4"/>
<ellipse fill="#7bf812" stroke="#7bf812" cx="942.6694" cy="-124.8423" rx="4" ry="4"/>
</g>
<!-- Employee&#45;&gt;Audited::Audit -->
<g id="edge20" class="edge">
<title>Employee&#45;&gt;Audited::Audit</title>
<path fill="none" stroke="#034300" d="M845.8541,-193.6812C820.2886,-177.4445 785.446,-152.2401 762,-123 743.3389,-99.7273 729.8556,-68.185 721.8131,-45.7623"/>
<ellipse fill="none" stroke="#034300" cx="849.4087" cy="-195.9005" rx="4" ry="4"/>
<polygon fill="#034300" stroke="#034300" points="721.7631,-45.6174 722.7556,-34.6965 720.1324,-40.8908 718.5016,-36.1642 718.5016,-36.1642 718.5016,-36.1642 720.1324,-40.8908 714.2477,-37.6319 721.7631,-45.6174 721.7631,-45.6174"/>
<text text-anchor="middle" x="809.5" y="-101.3" font-family="Times,serif" font-size="14.00" fill="#000000">associated_audits</text>
</g>
<!-- Employee&#45;&gt;Audited::Audit -->
<g id="edge21" class="edge">
<title>Employee&#45;&gt;Audited::Audit</title>
<path fill="none" stroke="#4dcc7f" d="M881.052,-186.6814C881.8056,-159.1091 878.876,-115.8718 857,-87 836.3793,-59.7849 802.2668,-42.7852 772.4187,-32.471"/>
<ellipse fill="none" stroke="#4dcc7f" cx="880.8839" cy="-190.7057" rx="4" ry="4"/>
<polygon fill="#4dcc7f" stroke="#4dcc7f" points="772.4031,-32.466 764.3011,-25.0763 767.6516,-30.9093 762.9001,-29.3527 762.9001,-29.3527 762.9001,-29.3527 767.6516,-30.9093 761.4991,-33.629 772.4031,-32.466 772.4031,-32.466"/>
<text text-anchor="middle" x="889.5" y="-101.3" font-family="Times,serif" font-size="14.00" fill="#000000">audits</text>
</g>
<!-- ApplicationRecord -->
<g id="node12" class="node">
<title>ApplicationRecord</title>
<ellipse fill="none" stroke="#000000" cx="1067" cy="-307" rx="77.1866" ry="18"/>
<text text-anchor="middle" x="1067" y="-303.3" font-family="Times,serif" font-size="14.00" fill="#000000">ApplicationRecord</text>
</g>
<!-- SaleDetail&#45;&gt;Product -->
<g id="edge22" class="edge">
<title>SaleDetail&#45;&gt;Product</title>
<path fill="none" stroke="#5a5a42" d="M664.7706,-192.4669C636.0432,-172.9538 593.1456,-143.8159 564.8744,-124.6128"/>
<ellipse fill="none" stroke="#5a5a42" cx="668.2301" cy="-194.8167" rx="4" ry="4"/>
<ellipse fill="#5a5a42" stroke="#5a5a42" cx="561.3284" cy="-122.2042" rx="4" ry="4"/>
</g>
<!-- SaleDetail&#45;&gt;Audited::Audit -->
<g id="edge23" class="edge">
<title>SaleDetail&#45;&gt;Audited::Audit</title>
<path fill="none" stroke="#e964f9" d="M692.2137,-186.8495C690.044,-161.2616 688.1362,-121.2506 693,-87 694.959,-73.2046 699.0171,-58.309 702.9691,-45.9009"/>
<ellipse fill="none" stroke="#e964f9" cx="692.5877" cy="-190.9615" rx="4" ry="4"/>
<polygon fill="#e964f9" stroke="#e964f9" points="703.059,-45.6306 710.4854,-37.5622 704.6372,-40.8862 706.2155,-36.1418 706.2155,-36.1418 706.2155,-36.1418 704.6372,-40.8862 701.9455,-34.7214 703.059,-45.6306 703.059,-45.6306"/>
<text text-anchor="middle" x="709.5" y="-101.3" font-family="Times,serif" font-size="14.00" fill="#000000">audits</text>
</g>
</g>
</svg>
