<?xml version="1.0" encoding="UTF-8" standalone="no"?>
<!DOCTYPE svg PUBLIC "-//W3C//DTD SVG 1.1//EN"
 "http://www.w3.org/Graphics/SVG/1.1/DTD/svg11.dtd">
<!-- Generated by graphviz version 2.40.1 (20161225.0304)
 -->
<!-- Title: models_diagram Pages: 1 -->
<svg width="1704pt" height="1166pt"
 viewBox="0.00 0.00 1704.00 1166.00" xmlns="http://www.w3.org/2000/svg" xmlns:xlink="http://www.w3.org/1999/xlink">
<g id="graph0" class="graph" transform="scale(1 1) rotate(0) translate(4 1162)">
<title>models_diagram</title>
<polygon fill="transparent" stroke="transparent" points="-4,4 -4,-1162 1700,-1162 1700,4 -4,4"/>
<!-- _diagram_info -->
<g id="node1" class="node">
<title>_diagram_info</title>
<text text-anchor="start" x="8" y="-1076.6" font-family="Times,serif" font-size="13.00" fill="#000000">Models diagram</text>
<text text-anchor="start" x="8" y="-1062.6" font-family="Times,serif" font-size="13.00" fill="#000000">Date: Feb 07 2019 &#45; 16:47</text>
<text text-anchor="start" x="8" y="-1048.6" font-family="Times,serif" font-size="13.00" fill="#000000">Migration version: 20190205120100</text>
<text text-anchor="start" x="8" y="-1034.6" font-family="Times,serif" font-size="13.00" fill="#000000">Generated by RailRoady 1.5.3</text>
<text text-anchor="start" x="8" y="-1020.6" font-family="Times,serif" font-size="13.00" fill="#000000">http://railroady.prestonlee.com</text>
</g>
<!-- Notification -->
<g id="node2" class="node">
<title>Notification</title>
<path fill="none" stroke="#000000" d="M244,-969C244,-969 404,-969 404,-969 410,-969 416,-975 416,-981 416,-981 416,-1123 416,-1123 416,-1129 410,-1135 404,-1135 404,-1135 244,-1135 244,-1135 238,-1135 232,-1129 232,-1123 232,-1123 232,-981 232,-981 232,-975 238,-969 244,-969"/>
<text text-anchor="middle" x="324" y="-1119.8" font-family="Times,serif" font-size="14.00" fill="#000000">Notification</text>
<polyline fill="none" stroke="#000000" points="232,-1112 416,-1112 "/>
<text text-anchor="start" x="240" y="-1096.8" font-family="Times,serif" font-size="14.00" fill="#000000">id :bigint(20)</text>
<text text-anchor="start" x="240" y="-1081.8" font-family="Times,serif" font-size="14.00" fill="#000000">message :varchar(255)</text>
<text text-anchor="start" x="240" y="-1066.8" font-family="Times,serif" font-size="14.00" fill="#000000">path :varchar(255)</text>
<text text-anchor="start" x="240" y="-1051.8" font-family="Times,serif" font-size="14.00" fill="#000000">authorized_roles :varchar(255)</text>
<text text-anchor="start" x="240" y="-1036.8" font-family="Times,serif" font-size="14.00" fill="#000000">read_by :text</text>
<text text-anchor="start" x="240" y="-1021.8" font-family="Times,serif" font-size="14.00" fill="#000000">state :tinyint(1)</text>
<text text-anchor="start" x="240" y="-1006.8" font-family="Times,serif" font-size="14.00" fill="#000000">slug :varchar(255)</text>
<text text-anchor="start" x="240" y="-991.8" font-family="Times,serif" font-size="14.00" fill="#000000">created_at :datetime</text>
<text text-anchor="start" x="240" y="-976.8" font-family="Times,serif" font-size="14.00" fill="#000000">updated_at :datetime</text>
</g>
<!-- Purchase -->
<g id="node3" class="node">
<title>Purchase</title>
<path fill="none" stroke="#000000" d="M446.5,-946.5C446.5,-946.5 601.5,-946.5 601.5,-946.5 607.5,-946.5 613.5,-952.5 613.5,-958.5 613.5,-958.5 613.5,-1145.5 613.5,-1145.5 613.5,-1151.5 607.5,-1157.5 601.5,-1157.5 601.5,-1157.5 446.5,-1157.5 446.5,-1157.5 440.5,-1157.5 434.5,-1151.5 434.5,-1145.5 434.5,-1145.5 434.5,-958.5 434.5,-958.5 434.5,-952.5 440.5,-946.5 446.5,-946.5"/>
<text text-anchor="middle" x="524" y="-1142.3" font-family="Times,serif" font-size="14.00" fill="#000000">Purchase</text>
<polyline fill="none" stroke="#000000" points="434.5,-1134.5 613.5,-1134.5 "/>
<text text-anchor="start" x="442.5" y="-1119.3" font-family="Times,serif" font-size="14.00" fill="#000000">id :bigint(20)</text>
<text text-anchor="start" x="442.5" y="-1104.3" font-family="Times,serif" font-size="14.00" fill="#000000">purchase_datetime :datetime</text>
<text text-anchor="start" x="442.5" y="-1089.3" font-family="Times,serif" font-size="14.00" fill="#000000">receipt_number :varchar(255)</text>
<text text-anchor="start" x="442.5" y="-1074.3" font-family="Times,serif" font-size="14.00" fill="#000000">status :varchar(255)</text>
<text text-anchor="start" x="442.5" y="-1059.3" font-family="Times,serif" font-size="14.00" fill="#000000">discount :decimal(8,2)</text>
<text text-anchor="start" x="442.5" y="-1044.3" font-family="Times,serif" font-size="14.00" fill="#000000">observations :varchar(255)</text>
<text text-anchor="start" x="442.5" y="-1029.3" font-family="Times,serif" font-size="14.00" fill="#000000">state :tinyint(1)</text>
<text text-anchor="start" x="442.5" y="-1014.3" font-family="Times,serif" font-size="14.00" fill="#000000">slug :varchar(255)</text>
<text text-anchor="start" x="442.5" y="-999.3" font-family="Times,serif" font-size="14.00" fill="#000000">created_at :datetime</text>
<text text-anchor="start" x="442.5" y="-984.3" font-family="Times,serif" font-size="14.00" fill="#000000">updated_at :datetime</text>
<text text-anchor="start" x="442.5" y="-969.3" font-family="Times,serif" font-size="14.00" fill="#000000">provider_id :bigint(20)</text>
<text text-anchor="start" x="442.5" y="-954.3" font-family="Times,serif" font-size="14.00" fill="#000000">employee_id :bigint(20)</text>
</g>
<!-- PurchaseDetail -->
<g id="node4" class="node">
<title>PurchaseDetail</title>
<path fill="none" stroke="#000000" d="M533.5,-705C533.5,-705 652.5,-705 652.5,-705 658.5,-705 664.5,-711 664.5,-717 664.5,-717 664.5,-889 664.5,-889 664.5,-895 658.5,-901 652.5,-901 652.5,-901 533.5,-901 533.5,-901 527.5,-901 521.5,-895 521.5,-889 521.5,-889 521.5,-717 521.5,-717 521.5,-711 527.5,-705 533.5,-705"/>
<text text-anchor="middle" x="593" y="-885.8" font-family="Times,serif" font-size="14.00" fill="#000000">PurchaseDetail</text>
<polyline fill="none" stroke="#000000" points="521.5,-878 664.5,-878 "/>
<text text-anchor="start" x="529.5" y="-862.8" font-family="Times,serif" font-size="14.00" fill="#000000">id :bigint(20)</text>
<text text-anchor="start" x="529.5" y="-847.8" font-family="Times,serif" font-size="14.00" fill="#000000">price :decimal(8,2)</text>
<text text-anchor="start" x="529.5" y="-832.8" font-family="Times,serif" font-size="14.00" fill="#000000">quantity :int(11)</text>
<text text-anchor="start" x="529.5" y="-817.8" font-family="Times,serif" font-size="14.00" fill="#000000">stock :int(11)</text>
<text text-anchor="start" x="529.5" y="-802.8" font-family="Times,serif" font-size="14.00" fill="#000000">status :varchar(255)</text>
<text text-anchor="start" x="529.5" y="-787.8" font-family="Times,serif" font-size="14.00" fill="#000000">state :tinyint(1)</text>
<text text-anchor="start" x="529.5" y="-772.8" font-family="Times,serif" font-size="14.00" fill="#000000">slug :varchar(255)</text>
<text text-anchor="start" x="529.5" y="-757.8" font-family="Times,serif" font-size="14.00" fill="#000000">created_at :datetime</text>
<text text-anchor="start" x="529.5" y="-742.8" font-family="Times,serif" font-size="14.00" fill="#000000">updated_at :datetime</text>
<text text-anchor="start" x="529.5" y="-727.8" font-family="Times,serif" font-size="14.00" fill="#000000">purchase_id :bigint(20)</text>
<text text-anchor="start" x="529.5" y="-712.8" font-family="Times,serif" font-size="14.00" fill="#000000">product_id :bigint(20)</text>
</g>
<!-- Purchase&#45;&gt;PurchaseDetail -->
<g id="edge1" class="edge">
<title>Purchase&#45;&gt;PurchaseDetail</title>
<path fill="none" stroke="#0c15a2" d="M555.4102,-938.65C557.9516,-929.479 560.5155,-920.2267 563.0462,-911.0942"/>
<ellipse fill="none" stroke="#0c15a2" cx="554.3304" cy="-942.5468" rx="4" ry="4"/>
<polygon fill="#0c15a2" stroke="#0c15a2" points="563.1061,-910.8779 570.1132,-902.4428 564.4413,-906.0595 565.7766,-901.241 565.7766,-901.241 565.7766,-901.241 564.4413,-906.0595 561.44,-900.0393 563.1061,-910.8779 563.1061,-910.8779"/>
</g>
<!-- Provider -->
<g id="node9" class="node">
<title>Provider</title>
<path fill="none" stroke="#000000" d="M446,-497.5C446,-497.5 556,-497.5 556,-497.5 562,-497.5 568,-503.5 568,-509.5 568,-509.5 568,-666.5 568,-666.5 568,-672.5 562,-678.5 556,-678.5 556,-678.5 446,-678.5 446,-678.5 440,-678.5 434,-672.5 434,-666.5 434,-666.5 434,-509.5 434,-509.5 434,-503.5 440,-497.5 446,-497.5"/>
<text text-anchor="middle" x="501" y="-663.3" font-family="Times,serif" font-size="14.00" fill="#000000">Provider</text>
<polyline fill="none" stroke="#000000" points="434,-655.5 568,-655.5 "/>
<text text-anchor="start" x="442" y="-640.3" font-family="Times,serif" font-size="14.00" fill="#000000">id :bigint(20)</text>
<text text-anchor="start" x="442" y="-625.3" font-family="Times,serif" font-size="14.00" fill="#000000">name :varchar(255)</text>
<text text-anchor="start" x="442" y="-610.3" font-family="Times,serif" font-size="14.00" fill="#000000">FEIN :varchar(10)</text>
<text text-anchor="start" x="442" y="-595.3" font-family="Times,serif" font-size="14.00" fill="#000000">email :varchar(255)</text>
<text text-anchor="start" x="442" y="-580.3" font-family="Times,serif" font-size="14.00" fill="#000000">phone :varchar(14)</text>
<text text-anchor="start" x="442" y="-565.3" font-family="Times,serif" font-size="14.00" fill="#000000">address :varchar(255)</text>
<text text-anchor="start" x="442" y="-550.3" font-family="Times,serif" font-size="14.00" fill="#000000">state :tinyint(1)</text>
<text text-anchor="start" x="442" y="-535.3" font-family="Times,serif" font-size="14.00" fill="#000000">slug :varchar(255)</text>
<text text-anchor="start" x="442" y="-520.3" font-family="Times,serif" font-size="14.00" fill="#000000">created_at :datetime</text>
<text text-anchor="start" x="442" y="-505.3" font-family="Times,serif" font-size="14.00" fill="#000000">updated_at :datetime</text>
</g>
<!-- Purchase&#45;&gt;Provider -->
<g id="edge2" class="edge">
<title>Purchase&#45;&gt;Provider</title>
<path fill="none" stroke="#5039c8" d="M514.8235,-937.9828C514.1579,-928.183 513.5381,-918.4193 513,-909 508.7447,-834.5158 505.6598,-750.2193 503.6841,-686.7059"/>
<ellipse fill="none" stroke="#5039c8" cx="515.1167" cy="-942.2259" rx="4" ry="4"/>
<ellipse fill="#5039c8" stroke="#5039c8" cx="503.5599" cy="-682.6711" rx="4" ry="4"/>
</g>
<!-- Employee -->
<g id="node11" class="node">
<title>Employee</title>
<path fill="none" stroke="#000000" d="M1077,-712.5C1077,-712.5 1205,-712.5 1205,-712.5 1211,-712.5 1217,-718.5 1217,-724.5 1217,-724.5 1217,-881.5 1217,-881.5 1217,-887.5 1211,-893.5 1205,-893.5 1205,-893.5 1077,-893.5 1077,-893.5 1071,-893.5 1065,-887.5 1065,-881.5 1065,-881.5 1065,-724.5 1065,-724.5 1065,-718.5 1071,-712.5 1077,-712.5"/>
<text text-anchor="middle" x="1141" y="-878.3" font-family="Times,serif" font-size="14.00" fill="#000000">Employee</text>
<polyline fill="none" stroke="#000000" points="1065,-870.5 1217,-870.5 "/>
<text text-anchor="start" x="1073" y="-855.3" font-family="Times,serif" font-size="14.00" fill="#000000">id :bigint(20)</text>
<text text-anchor="start" x="1073" y="-840.3" font-family="Times,serif" font-size="14.00" fill="#000000">first_name :varchar(255)</text>
<text text-anchor="start" x="1073" y="-825.3" font-family="Times,serif" font-size="14.00" fill="#000000">last_name :varchar(255)</text>
<text text-anchor="start" x="1073" y="-810.3" font-family="Times,serif" font-size="14.00" fill="#000000">email :varchar(255)</text>
<text text-anchor="start" x="1073" y="-795.3" font-family="Times,serif" font-size="14.00" fill="#000000">phone :varchar(14)</text>
<text text-anchor="start" x="1073" y="-780.3" font-family="Times,serif" font-size="14.00" fill="#000000">role :varchar(255)</text>
<text text-anchor="start" x="1073" y="-765.3" font-family="Times,serif" font-size="14.00" fill="#000000">state :tinyint(1)</text>
<text text-anchor="start" x="1073" y="-750.3" font-family="Times,serif" font-size="14.00" fill="#000000">slug :varchar(255)</text>
<text text-anchor="start" x="1073" y="-735.3" font-family="Times,serif" font-size="14.00" fill="#000000">created_at :datetime</text>
<text text-anchor="start" x="1073" y="-720.3" font-family="Times,serif" font-size="14.00" fill="#000000">updated_at :datetime</text>
</g>
<!-- Purchase&#45;&gt;Employee -->
<g id="edge3" class="edge">
<title>Purchase&#45;&gt;Employee</title>
<path fill="none" stroke="#52277c" d="M621.8868,-1042.3806C732.5342,-1027.8061 914.5912,-992.3663 1048,-909 1052.9243,-905.9228 1057.7345,-902.5059 1062.4094,-898.8386"/>
<ellipse fill="none" stroke="#52277c" cx="617.683" cy="-1042.9236" rx="4" ry="4"/>
<ellipse fill="#52277c" stroke="#52277c" cx="1065.6031" cy="-896.2246" rx="4" ry="4"/>
</g>
<!-- Audited::Audit -->
<g id="node14" class="node">
<title>Audited::Audit</title>
<ellipse fill="none" stroke="#000000" cx="975" cy="-18" rx="63.8893" ry="18"/>
<text text-anchor="middle" x="975" y="-14.3" font-family="Times,serif" font-size="14.00" fill="#000000">Audited::Audit</text>
</g>
<!-- Purchase&#45;&gt;Audited::Audit -->
<g id="edge4" class="edge">
<title>Purchase&#45;&gt;Audited::Audit</title>
<path fill="none" stroke="#0203d8" d="M472.6935,-939.0698C442.58,-866.4605 407.4831,-769.1621 392,-679 347.0741,-417.3859 311.2712,-299.007 471,-87 490.4957,-61.1235 504.8257,-62.8228 536,-54 602.6483,-35.1375 794.8026,-24.9436 901.4617,-20.5952"/>
<ellipse fill="none" stroke="#0203d8" cx="474.2373" cy="-942.7705" rx="4" ry="4"/>
<polygon fill="#0203d8" stroke="#0203d8" points="901.5176,-20.5931 911.6898,-24.689 906.5136,-20.3928 911.5096,-20.1926 911.5096,-20.1926 911.5096,-20.1926 906.5136,-20.3928 911.3294,-15.6962 901.5176,-20.5931 901.5176,-20.5931"/>
<text text-anchor="middle" x="408.5" y="-584.3" font-family="Times,serif" font-size="14.00" fill="#000000">audits</text>
</g>
<!-- Product -->
<g id="node10" class="node">
<title>Product</title>
<path fill="none" stroke="#000000" d="M646.5,-147.5C646.5,-147.5 823.5,-147.5 823.5,-147.5 829.5,-147.5 835.5,-153.5 835.5,-159.5 835.5,-159.5 835.5,-406.5 835.5,-406.5 835.5,-412.5 829.5,-418.5 823.5,-418.5 823.5,-418.5 646.5,-418.5 646.5,-418.5 640.5,-418.5 634.5,-412.5 634.5,-406.5 634.5,-406.5 634.5,-159.5 634.5,-159.5 634.5,-153.5 640.5,-147.5 646.5,-147.5"/>
<text text-anchor="middle" x="735" y="-403.3" font-family="Times,serif" font-size="14.00" fill="#000000">Product</text>
<polyline fill="none" stroke="#000000" points="634.5,-395.5 835.5,-395.5 "/>
<text text-anchor="start" x="642.5" y="-380.3" font-family="Times,serif" font-size="14.00" fill="#000000">id :bigint(20)</text>
<text text-anchor="start" x="642.5" y="-365.3" font-family="Times,serif" font-size="14.00" fill="#000000">name :varchar(255)</text>
<text text-anchor="start" x="642.5" y="-350.3" font-family="Times,serif" font-size="14.00" fill="#000000">name_spanish :varchar(255)</text>
<text text-anchor="start" x="642.5" y="-335.3" font-family="Times,serif" font-size="14.00" fill="#000000">barcode :varchar(255)</text>
<text text-anchor="start" x="642.5" y="-320.3" font-family="Times,serif" font-size="14.00" fill="#000000">price :decimal(8,2)</text>
<text text-anchor="start" x="642.5" y="-305.3" font-family="Times,serif" font-size="14.00" fill="#000000">content :varchar(255)</text>
<text text-anchor="start" x="642.5" y="-290.3" font-family="Times,serif" font-size="14.00" fill="#000000">content_spanish :varchar(255)</text>
<text text-anchor="start" x="642.5" y="-275.3" font-family="Times,serif" font-size="14.00" fill="#000000">description :varchar(255)</text>
<text text-anchor="start" x="642.5" y="-260.3" font-family="Times,serif" font-size="14.00" fill="#000000">description_spanish :varchar(255)</text>
<text text-anchor="start" x="642.5" y="-245.3" font-family="Times,serif" font-size="14.00" fill="#000000">recipes :varchar(255)</text>
<text text-anchor="start" x="642.5" y="-230.3" font-family="Times,serif" font-size="14.00" fill="#000000">recipes_spanish :varchar(255)</text>
<text text-anchor="start" x="642.5" y="-215.3" font-family="Times,serif" font-size="14.00" fill="#000000">state :tinyint(1)</text>
<text text-anchor="start" x="642.5" y="-200.3" font-family="Times,serif" font-size="14.00" fill="#000000">slug :varchar(255)</text>
<text text-anchor="start" x="642.5" y="-185.3" font-family="Times,serif" font-size="14.00" fill="#000000">created_at :datetime</text>
<text text-anchor="start" x="642.5" y="-170.3" font-family="Times,serif" font-size="14.00" fill="#000000">updated_at :datetime</text>
<text text-anchor="start" x="642.5" y="-155.3" font-family="Times,serif" font-size="14.00" fill="#000000">category_id :bigint(20)</text>
</g>
<!-- PurchaseDetail&#45;&gt;Product -->
<g id="edge5" class="edge">
<title>PurchaseDetail&#45;&gt;Product</title>
<path fill="none" stroke="#2bcd41" d="M622.0208,-696.7266C643.2766,-618.8884 672.365,-512.3677 695.7027,-426.9058"/>
<ellipse fill="none" stroke="#2bcd41" cx="620.8463" cy="-701.0278" rx="4" ry="4"/>
<ellipse fill="#2bcd41" stroke="#2bcd41" cx="696.8174" cy="-422.8236" rx="4" ry="4"/>
</g>
<!-- PurchaseDetail&#45;&gt;Audited::Audit -->
<g id="edge6" class="edge">
<title>PurchaseDetail&#45;&gt;Audited::Audit</title>
<path fill="none" stroke="#67e87e" d="M585.6405,-696.7907C573.6747,-508.7213 554.9403,-132.5502 593,-87 631.539,-40.8761 801.8306,-25.529 901.5608,-20.4626"/>
<ellipse fill="none" stroke="#67e87e" cx="585.8962" cy="-700.7849" rx="4" ry="4"/>
<polygon fill="#67e87e" stroke="#67e87e" points="901.59,-20.4613 911.7965,-24.4709 906.5841,-20.2187 911.5782,-19.9762 911.5782,-19.9762 911.5782,-19.9762 906.5841,-20.2187 911.3599,-15.4815 901.59,-20.4613 901.59,-20.4613"/>
<text text-anchor="middle" x="609.5" y="-279.3" font-family="Times,serif" font-size="14.00" fill="#000000">audits</text>
</g>
<!-- Sale -->
<g id="node5" class="node">
<title>Sale</title>
<path fill="none" stroke="#000000" d="M1284,-946.5C1284,-946.5 1436,-946.5 1436,-946.5 1442,-946.5 1448,-952.5 1448,-958.5 1448,-958.5 1448,-1145.5 1448,-1145.5 1448,-1151.5 1442,-1157.5 1436,-1157.5 1436,-1157.5 1284,-1157.5 1284,-1157.5 1278,-1157.5 1272,-1151.5 1272,-1145.5 1272,-1145.5 1272,-958.5 1272,-958.5 1272,-952.5 1278,-946.5 1284,-946.5"/>
<text text-anchor="middle" x="1360" y="-1142.3" font-family="Times,serif" font-size="14.00" fill="#000000">Sale</text>
<polyline fill="none" stroke="#000000" points="1272,-1134.5 1448,-1134.5 "/>
<text text-anchor="start" x="1280" y="-1119.3" font-family="Times,serif" font-size="14.00" fill="#000000">id :bigint(20)</text>
<text text-anchor="start" x="1280" y="-1104.3" font-family="Times,serif" font-size="14.00" fill="#000000">sale_datetime :datetime</text>
<text text-anchor="start" x="1280" y="-1089.3" font-family="Times,serif" font-size="14.00" fill="#000000">status :varchar(255)</text>
<text text-anchor="start" x="1280" y="-1074.3" font-family="Times,serif" font-size="14.00" fill="#000000">delivery_status :varchar(255)</text>
<text text-anchor="start" x="1280" y="-1059.3" font-family="Times,serif" font-size="14.00" fill="#000000">discount :decimal(8,2)</text>
<text text-anchor="start" x="1280" y="-1044.3" font-family="Times,serif" font-size="14.00" fill="#000000">observations :varchar(255)</text>
<text text-anchor="start" x="1280" y="-1029.3" font-family="Times,serif" font-size="14.00" fill="#000000">state :tinyint(1)</text>
<text text-anchor="start" x="1280" y="-1014.3" font-family="Times,serif" font-size="14.00" fill="#000000">slug :varchar(255)</text>
<text text-anchor="start" x="1280" y="-999.3" font-family="Times,serif" font-size="14.00" fill="#000000">created_at :datetime</text>
<text text-anchor="start" x="1280" y="-984.3" font-family="Times,serif" font-size="14.00" fill="#000000">updated_at :datetime</text>
<text text-anchor="start" x="1280" y="-969.3" font-family="Times,serif" font-size="14.00" fill="#000000">customer_id :bigint(20)</text>
<text text-anchor="start" x="1280" y="-954.3" font-family="Times,serif" font-size="14.00" fill="#000000">employee_id :bigint(20)</text>
</g>
<!-- Customer -->
<g id="node7" class="node">
<title>Customer</title>
<path fill="none" stroke="#000000" d="M1472,-697.5C1472,-697.5 1600,-697.5 1600,-697.5 1606,-697.5 1612,-703.5 1612,-709.5 1612,-709.5 1612,-896.5 1612,-896.5 1612,-902.5 1606,-908.5 1600,-908.5 1600,-908.5 1472,-908.5 1472,-908.5 1466,-908.5 1460,-902.5 1460,-896.5 1460,-896.5 1460,-709.5 1460,-709.5 1460,-703.5 1466,-697.5 1472,-697.5"/>
<text text-anchor="middle" x="1536" y="-893.3" font-family="Times,serif" font-size="14.00" fill="#000000">Customer</text>
<polyline fill="none" stroke="#000000" points="1460,-885.5 1612,-885.5 "/>
<text text-anchor="start" x="1468" y="-870.3" font-family="Times,serif" font-size="14.00" fill="#000000">id :bigint(20)</text>
<text text-anchor="start" x="1468" y="-855.3" font-family="Times,serif" font-size="14.00" fill="#000000">first_name :varchar(255)</text>
<text text-anchor="start" x="1468" y="-840.3" font-family="Times,serif" font-size="14.00" fill="#000000">last_name :varchar(255)</text>
<text text-anchor="start" x="1468" y="-825.3" font-family="Times,serif" font-size="14.00" fill="#000000">company :varchar(255)</text>
<text text-anchor="start" x="1468" y="-810.3" font-family="Times,serif" font-size="14.00" fill="#000000">email :varchar(255)</text>
<text text-anchor="start" x="1468" y="-795.3" font-family="Times,serif" font-size="14.00" fill="#000000">phone :varchar(14)</text>
<text text-anchor="start" x="1468" y="-780.3" font-family="Times,serif" font-size="14.00" fill="#000000">zipcode :varchar(5)</text>
<text text-anchor="start" x="1468" y="-765.3" font-family="Times,serif" font-size="14.00" fill="#000000">address :varchar(255)</text>
<text text-anchor="start" x="1468" y="-750.3" font-family="Times,serif" font-size="14.00" fill="#000000">state :tinyint(1)</text>
<text text-anchor="start" x="1468" y="-735.3" font-family="Times,serif" font-size="14.00" fill="#000000">slug :varchar(255)</text>
<text text-anchor="start" x="1468" y="-720.3" font-family="Times,serif" font-size="14.00" fill="#000000">created_at :datetime</text>
<text text-anchor="start" x="1468" y="-705.3" font-family="Times,serif" font-size="14.00" fill="#000000">updated_at :datetime</text>
</g>
<!-- Sale&#45;&gt;Customer -->
<g id="edge8" class="edge">
<title>Sale&#45;&gt;Customer</title>
<path fill="none" stroke="#1174bc" d="M1439.4028,-939.663C1445.0814,-931.6292 1450.8082,-923.5271 1456.4873,-915.4924"/>
<ellipse fill="none" stroke="#1174bc" cx="1436.9487" cy="-943.1352" rx="4" ry="4"/>
<ellipse fill="#1174bc" stroke="#1174bc" cx="1458.9357" cy="-912.0284" rx="4" ry="4"/>
</g>
<!-- Sale&#45;&gt;Employee -->
<g id="edge9" class="edge">
<title>Sale&#45;&gt;Employee</title>
<path fill="none" stroke="#d582db" d="M1266.3436,-945.514C1251.9013,-929.0933 1237.0833,-912.2454 1222.9234,-896.1458"/>
<ellipse fill="none" stroke="#d582db" cx="1269.2293" cy="-948.7949" rx="4" ry="4"/>
<ellipse fill="#d582db" stroke="#d582db" cx="1219.9635" cy="-892.7804" rx="4" ry="4"/>
</g>
<!-- SaleDetail -->
<g id="node13" class="node">
<title>SaleDetail</title>
<path fill="none" stroke="#000000" d="M913.5,-712.5C913.5,-712.5 1026.5,-712.5 1026.5,-712.5 1032.5,-712.5 1038.5,-718.5 1038.5,-724.5 1038.5,-724.5 1038.5,-881.5 1038.5,-881.5 1038.5,-887.5 1032.5,-893.5 1026.5,-893.5 1026.5,-893.5 913.5,-893.5 913.5,-893.5 907.5,-893.5 901.5,-887.5 901.5,-881.5 901.5,-881.5 901.5,-724.5 901.5,-724.5 901.5,-718.5 907.5,-712.5 913.5,-712.5"/>
<text text-anchor="middle" x="970" y="-878.3" font-family="Times,serif" font-size="14.00" fill="#000000">SaleDetail</text>
<polyline fill="none" stroke="#000000" points="901.5,-870.5 1038.5,-870.5 "/>
<text text-anchor="start" x="909.5" y="-855.3" font-family="Times,serif" font-size="14.00" fill="#000000">id :bigint(20)</text>
<text text-anchor="start" x="909.5" y="-840.3" font-family="Times,serif" font-size="14.00" fill="#000000">price :decimal(8,2)</text>
<text text-anchor="start" x="909.5" y="-825.3" font-family="Times,serif" font-size="14.00" fill="#000000">quantity :int(11)</text>
<text text-anchor="start" x="909.5" y="-810.3" font-family="Times,serif" font-size="14.00" fill="#000000">status :varchar(255)</text>
<text text-anchor="start" x="909.5" y="-795.3" font-family="Times,serif" font-size="14.00" fill="#000000">state :tinyint(1)</text>
<text text-anchor="start" x="909.5" y="-780.3" font-family="Times,serif" font-size="14.00" fill="#000000">slug :varchar(255)</text>
<text text-anchor="start" x="909.5" y="-765.3" font-family="Times,serif" font-size="14.00" fill="#000000">created_at :datetime</text>
<text text-anchor="start" x="909.5" y="-750.3" font-family="Times,serif" font-size="14.00" fill="#000000">updated_at :datetime</text>
<text text-anchor="start" x="909.5" y="-735.3" font-family="Times,serif" font-size="14.00" fill="#000000">sale_id :bigint(20)</text>
<text text-anchor="start" x="909.5" y="-720.3" font-family="Times,serif" font-size="14.00" fill="#000000">product_id :bigint(20)</text>
</g>
<!-- Sale&#45;&gt;SaleDetail -->
<g id="edge7" class="edge">
<title>Sale&#45;&gt;SaleDetail</title>
<path fill="none" stroke="#6dce64" d="M1264.3586,-1019.8053C1201.1771,-995.593 1118.7661,-958.1609 1056,-909 1052.6419,-906.3698 1049.3308,-903.5854 1046.0767,-900.6815"/>
<ellipse fill="none" stroke="#6dce64" cx="1268.226" cy="-1021.2731" rx="4" ry="4"/>
<polygon fill="#6dce64" stroke="#6dce64" points="1045.9073,-900.5236 1041.6605,-890.4134 1042.2498,-897.1144 1038.5922,-893.7052 1038.5922,-893.7052 1038.5922,-893.7052 1042.2498,-897.1144 1035.524,-896.997 1045.9073,-900.5236 1045.9073,-900.5236"/>
</g>
<!-- Sale&#45;&gt;Audited::Audit -->
<g id="edge10" class="edge">
<title>Sale&#45;&gt;Audited::Audit</title>
<path fill="none" stroke="#531d25" d="M1385.2831,-938.1891C1432.8381,-710.9532 1521.6518,-212.0966 1415,-87 1391.3895,-59.3062 1164.5463,-35.0282 1046.1548,-24.1193"/>
<ellipse fill="none" stroke="#531d25" cx="1384.4316" cy="-942.2424" rx="4" ry="4"/>
<polygon fill="#531d25" stroke="#531d25" points="1046.0456,-24.1095 1036.4964,-18.7185 1041.0664,-23.6546 1036.0871,-23.1998 1036.0871,-23.1998 1036.0871,-23.1998 1041.0664,-23.6546 1035.6777,-27.6812 1046.0456,-24.1095 1046.0456,-24.1095"/>
<text text-anchor="middle" x="1471.5" y="-584.3" font-family="Times,serif" font-size="14.00" fill="#000000">audits</text>
</g>
<!-- Category -->
<g id="node6" class="node">
<title>Category</title>
<path fill="none" stroke="#000000" d="M694.5,-720C694.5,-720 871.5,-720 871.5,-720 877.5,-720 883.5,-726 883.5,-732 883.5,-732 883.5,-874 883.5,-874 883.5,-880 877.5,-886 871.5,-886 871.5,-886 694.5,-886 694.5,-886 688.5,-886 682.5,-880 682.5,-874 682.5,-874 682.5,-732 682.5,-732 682.5,-726 688.5,-720 694.5,-720"/>
<text text-anchor="middle" x="783" y="-870.8" font-family="Times,serif" font-size="14.00" fill="#000000">Category</text>
<polyline fill="none" stroke="#000000" points="682.5,-863 883.5,-863 "/>
<text text-anchor="start" x="690.5" y="-847.8" font-family="Times,serif" font-size="14.00" fill="#000000">id :bigint(20)</text>
<text text-anchor="start" x="690.5" y="-832.8" font-family="Times,serif" font-size="14.00" fill="#000000">name :varchar(255)</text>
<text text-anchor="start" x="690.5" y="-817.8" font-family="Times,serif" font-size="14.00" fill="#000000">name_spanish :varchar(255)</text>
<text text-anchor="start" x="690.5" y="-802.8" font-family="Times,serif" font-size="14.00" fill="#000000">description :varchar(255)</text>
<text text-anchor="start" x="690.5" y="-787.8" font-family="Times,serif" font-size="14.00" fill="#000000">description_spanish :varchar(255)</text>
<text text-anchor="start" x="690.5" y="-772.8" font-family="Times,serif" font-size="14.00" fill="#000000">state :tinyint(1)</text>
<text text-anchor="start" x="690.5" y="-757.8" font-family="Times,serif" font-size="14.00" fill="#000000">slug :varchar(255)</text>
<text text-anchor="start" x="690.5" y="-742.8" font-family="Times,serif" font-size="14.00" fill="#000000">created_at :datetime</text>
<text text-anchor="start" x="690.5" y="-727.8" font-family="Times,serif" font-size="14.00" fill="#000000">updated_at :datetime</text>
</g>
<!-- Category&#45;&gt;Product -->
<g id="edge11" class="edge">
<title>Category&#45;&gt;Product</title>
<path fill="none" stroke="#b62ab6" d="M774.5563,-711.5264C767.3425,-633.377 756.8341,-519.5358 748.4611,-428.8288"/>
<ellipse fill="none" stroke="#b62ab6" cx="774.9469" cy="-715.7584" rx="4" ry="4"/>
<polygon fill="#b62ab6" stroke="#b62ab6" points="748.448,-428.686 752.0097,-418.3146 747.9884,-423.7071 747.5288,-418.7283 747.5288,-418.7283 747.5288,-418.7283 747.9884,-423.7071 743.0478,-419.142 748.448,-428.686 748.448,-428.686"/>
</g>
<!-- Category&#45;&gt;Audited::Audit -->
<g id="edge12" class="edge">
<title>Category&#45;&gt;Audited::Audit</title>
<path fill="none" stroke="#07e4ea" d="M801.6479,-711.7764C814.6035,-646.971 831.8362,-557.8193 845,-479 873.9911,-305.4133 819.5558,-243.0118 901,-87 910.4651,-68.8689 926.6288,-52.9568 941.4395,-40.996"/>
<ellipse fill="none" stroke="#07e4ea" cx="800.7954" cy="-716.0331" rx="4" ry="4"/>
<polygon fill="#07e4ea" stroke="#07e4ea" points="941.5722,-40.8932 952.2334,-38.3259 945.5248,-37.8309 949.4773,-34.7686 949.4773,-34.7686 949.4773,-34.7686 945.5248,-37.8309 946.7213,-31.2113 941.5722,-40.8932 941.5722,-40.8932"/>
<text text-anchor="middle" x="917.5" y="-279.3" font-family="Times,serif" font-size="14.00" fill="#000000">audits</text>
</g>
<!-- User -->
<g id="node8" class="node">
<title>User</title>
<path fill="none" stroke="#000000" d="M1204,-87.5C1204,-87.5 1394,-87.5 1394,-87.5 1400,-87.5 1406,-93.5 1406,-99.5 1406,-99.5 1406,-466.5 1406,-466.5 1406,-472.5 1400,-478.5 1394,-478.5 1394,-478.5 1204,-478.5 1204,-478.5 1198,-478.5 1192,-472.5 1192,-466.5 1192,-466.5 1192,-99.5 1192,-99.5 1192,-93.5 1198,-87.5 1204,-87.5"/>
<text text-anchor="middle" x="1299" y="-463.3" font-family="Times,serif" font-size="14.00" fill="#000000">User</text>
<polyline fill="none" stroke="#000000" points="1192,-455.5 1406,-455.5 "/>
<text text-anchor="start" x="1200" y="-440.3" font-family="Times,serif" font-size="14.00" fill="#000000">id :bigint(20)</text>
<text text-anchor="start" x="1200" y="-425.3" font-family="Times,serif" font-size="14.00" fill="#000000">email :varchar(255)</text>
<text text-anchor="start" x="1200" y="-410.3" font-family="Times,serif" font-size="14.00" fill="#000000">slug :varchar(255)</text>
<text text-anchor="start" x="1200" y="-395.3" font-family="Times,serif" font-size="14.00" fill="#000000">password_digest :varchar(255)</text>
<text text-anchor="start" x="1200" y="-380.3" font-family="Times,serif" font-size="14.00" fill="#000000">reset_password_token :varchar(255)</text>
<text text-anchor="start" x="1200" y="-365.3" font-family="Times,serif" font-size="14.00" fill="#000000">reset_password_sent :tinyint(1)</text>
<text text-anchor="start" x="1200" y="-350.3" font-family="Times,serif" font-size="14.00" fill="#000000">reset_password_sent_at :datetime</text>
<text text-anchor="start" x="1200" y="-335.3" font-family="Times,serif" font-size="14.00" fill="#000000">sign_in_count :int(11)</text>
<text text-anchor="start" x="1200" y="-320.3" font-family="Times,serif" font-size="14.00" fill="#000000">current_sign_in_at :datetime</text>
<text text-anchor="start" x="1200" y="-305.3" font-family="Times,serif" font-size="14.00" fill="#000000">last_sign_in_at :datetime</text>
<text text-anchor="start" x="1200" y="-290.3" font-family="Times,serif" font-size="14.00" fill="#000000">current_sign_in_ip :varchar(255)</text>
<text text-anchor="start" x="1200" y="-275.3" font-family="Times,serif" font-size="14.00" fill="#000000">last_sign_in_ip :varchar(255)</text>
<text text-anchor="start" x="1200" y="-260.3" font-family="Times,serif" font-size="14.00" fill="#000000">confirmed :tinyint(1)</text>
<text text-anchor="start" x="1200" y="-245.3" font-family="Times,serif" font-size="14.00" fill="#000000">confirmation_token :varchar(255)</text>
<text text-anchor="start" x="1200" y="-230.3" font-family="Times,serif" font-size="14.00" fill="#000000">confirmation_sent :tinyint(1)</text>
<text text-anchor="start" x="1200" y="-215.3" font-family="Times,serif" font-size="14.00" fill="#000000">failed_attempts :int(11)</text>
<text text-anchor="start" x="1200" y="-200.3" font-family="Times,serif" font-size="14.00" fill="#000000">unlock_token :varchar(255)</text>
<text text-anchor="start" x="1200" y="-185.3" font-family="Times,serif" font-size="14.00" fill="#000000">unlock_sent :tinyint(1)</text>
<text text-anchor="start" x="1200" y="-170.3" font-family="Times,serif" font-size="14.00" fill="#000000">two_factor_auth :tinyint(1)</text>
<text text-anchor="start" x="1200" y="-155.3" font-family="Times,serif" font-size="14.00" fill="#000000">two_factor_auth_otp :varchar(255)</text>
<text text-anchor="start" x="1200" y="-140.3" font-family="Times,serif" font-size="14.00" fill="#000000">created_at :datetime</text>
<text text-anchor="start" x="1200" y="-125.3" font-family="Times,serif" font-size="14.00" fill="#000000">updated_at :datetime</text>
<text text-anchor="start" x="1200" y="-110.3" font-family="Times,serif" font-size="14.00" fill="#000000">employee_id :bigint(20)</text>
<text text-anchor="start" x="1200" y="-95.3" font-family="Times,serif" font-size="14.00" fill="#000000">customer_id :bigint(20)</text>
</g>
<!-- Customer&#45;&gt;User -->
<g id="edge13" class="edge">
<title>Customer&#45;&gt;User</title>
<path fill="none" stroke="#bbbcd0" d="M1453.8261,-734.5915C1437.4711,-717.8015 1421.7432,-698.8897 1410,-679 1375.5097,-620.5832 1351.3311,-550.9804 1334.5609,-486.5417"/>
<ellipse fill="none" stroke="#bbbcd0" cx="1457.0546" cy="-737.8414" rx="4" ry="4"/>
<ellipse fill="#bbbcd0" stroke="#bbbcd0" cx="1333.5461" cy="-482.5846" rx="4" ry="4"/>
</g>
<!-- Customer&#45;&gt;Audited::Audit -->
<g id="edge14" class="edge">
<title>Customer&#45;&gt;Audited::Audit</title>
<path fill="none" stroke="#940675" d="M1520.6276,-689.018C1512.4085,-626.9593 1502.3012,-548.8052 1494,-479 1482.7822,-384.6686 1516.2336,-120.0941 1448,-54 1433.8894,-40.3318 1177.9806,-27.0368 1048.6055,-21.1537"/>
<ellipse fill="none" stroke="#940675" cx="1521.1971" cy="-693.3121" rx="4" ry="4"/>
<polygon fill="#940675" stroke="#940675" points="1048.3701,-21.1432 1038.5832,-16.1968 1043.3752,-20.9177 1038.3803,-20.6922 1038.3803,-20.6922 1038.3803,-20.6922 1043.3752,-20.9177 1038.1773,-25.1876 1048.3701,-21.1432 1048.3701,-21.1432"/>
<text text-anchor="middle" x="1541.5" y="-279.3" font-family="Times,serif" font-size="14.00" fill="#000000">associated_audits</text>
</g>
<!-- Customer&#45;&gt;Audited::Audit -->
<g id="edge15" class="edge">
<title>Customer&#45;&gt;Audited::Audit</title>
<path fill="none" stroke="#27d784" d="M1586.7012,-689.6504C1646.7365,-536.2942 1722.8286,-261.8375 1589,-87 1556.6344,-44.7166 1205.088,-26.5151 1048.9681,-20.4761"/>
<ellipse fill="none" stroke="#27d784" cx="1585.1447" cy="-693.5922" rx="4" ry="4"/>
<polygon fill="#27d784" stroke="#27d784" points="1048.5151,-20.4589 1038.6933,-15.5822 1043.5187,-20.2689 1038.5223,-20.0789 1038.5223,-20.0789 1038.5223,-20.0789 1043.5187,-20.2689 1038.3513,-24.5757 1048.5151,-20.4589 1048.5151,-20.4589"/>
<text text-anchor="middle" x="1679.5" y="-279.3" font-family="Times,serif" font-size="14.00" fill="#000000">audits</text>
</g>
<!-- User&#45;&gt;Audited::Audit -->
<g id="edge16" class="edge">
<title>User&#45;&gt;Audited::Audit</title>
<path fill="none" stroke="#b0776f" d="M1188.8423,-81.5398C1178.3729,-71.2544 1167.1001,-61.9233 1155,-54 1136.7965,-42.0801 1086.7983,-32.6337 1044.1039,-26.4135"/>
<ellipse fill="none" stroke="#b0776f" cx="1191.7663" cy="-84.5024" rx="4" ry="4"/>
<polygon fill="#b0776f" stroke="#b0776f" points="1043.8975,-26.3843 1034.6285,-20.5246 1038.947,-25.6822 1033.9966,-24.9801 1033.9966,-24.9801 1033.9966,-24.9801 1038.947,-25.6822 1033.3647,-29.4355 1043.8975,-26.3843 1043.8975,-26.3843"/>
<text text-anchor="middle" x="1188.5" y="-57.8" font-family="Times,serif" font-size="14.00" fill="#000000">audits</text>
</g>
<!-- Provider&#45;&gt;Audited::Audit -->
<g id="edge17" class="edge">
<title>Provider&#45;&gt;Audited::Audit</title>
<path fill="none" stroke="#92a57d" d="M483.6514,-489.1391C470.0788,-383.4411 462.9686,-213.9323 528,-87 538.6659,-66.1817 547.3039,-62.7431 569,-54 627.3782,-30.4747 800.6675,-22.261 900.979,-19.4389"/>
<ellipse fill="none" stroke="#92a57d" cx="484.2008" cy="-493.3027" rx="4" ry="4"/>
<polygon fill="#92a57d" stroke="#92a57d" points="901.052,-19.437 911.1699,-23.6651 906.0501,-19.3019 911.0483,-19.1668 911.0483,-19.1668 911.0483,-19.1668 906.0501,-19.3019 910.9267,-14.6684 901.052,-19.437 901.052,-19.437"/>
<text text-anchor="middle" x="544.5" y="-279.3" font-family="Times,serif" font-size="14.00" fill="#000000">audits</text>
</g>
<!-- Product&#45;&gt;Audited::Audit -->
<g id="edge18" class="edge">
<title>Product&#45;&gt;Audited::Audit</title>
<path fill="none" stroke="#2302d1" d="M767.2981,-139.5623C780.5086,-107.6213 799.0416,-76.5813 825,-54 837.7354,-42.9214 874.2987,-34.0244 908.1359,-27.8468"/>
<ellipse fill="none" stroke="#2302d1" cx="765.707" cy="-143.5435" rx="4" ry="4"/>
<polygon fill="#2302d1" stroke="#2302d1" points="908.2032,-27.835 918.833,-30.5289 913.1272,-26.9661 918.0511,-26.0973 918.0511,-26.0973 918.0511,-26.0973 913.1272,-26.9661 917.2692,-21.6658 908.2032,-27.835 908.2032,-27.835"/>
<text text-anchor="middle" x="841.5" y="-57.8" font-family="Times,serif" font-size="14.00" fill="#000000">audits</text>
</g>
<!-- Employee&#45;&gt;User -->
<g id="edge19" class="edge">
<title>Employee&#45;&gt;User</title>
<path fill="none" stroke="#63a89a" d="M1170.8501,-704.7592C1189.5722,-643.1421 1214.4048,-561.4146 1237.2225,-486.3183"/>
<ellipse fill="none" stroke="#63a89a" cx="1169.6844" cy="-708.5957" rx="4" ry="4"/>
<ellipse fill="#63a89a" stroke="#63a89a" cx="1238.403" cy="-482.4329" rx="4" ry="4"/>
</g>
<!-- Employee&#45;&gt;Audited::Audit -->
<g id="edge20" class="edge">
<title>Employee&#45;&gt;Audited::Audit</title>
<path fill="none" stroke="#52198d" d="M1098.0881,-704.7272C1072.3432,-641.478 1041.3281,-556.8327 1024,-479 985.9802,-308.2257 1012.2235,-260.2703 988,-87 986.1013,-73.4184 983.3608,-58.4486 980.8851,-45.9334"/>
<ellipse fill="none" stroke="#52198d" cx="1099.6854" cy="-708.6305" rx="4" ry="4"/>
<polygon fill="#52198d" stroke="#52198d" points="980.8751,-45.8839 983.3027,-35.1901 979.8836,-40.9832 978.892,-36.0825 978.892,-36.0825 978.892,-36.0825 979.8836,-40.9832 974.4814,-36.9749 980.8751,-45.8839 980.8751,-45.8839"/>
<text text-anchor="middle" x="1071.5" y="-279.3" font-family="Times,serif" font-size="14.00" fill="#000000">associated_audits</text>
</g>
<!-- Employee&#45;&gt;Audited::Audit -->
<g id="edge21" class="edge">
<title>Employee&#45;&gt;Audited::Audit</title>
<path fill="none" stroke="#f4afab" d="M1143.5933,-704.1128C1147.6129,-519.7003 1151.7935,-137.3457 1119,-87 1100.5004,-58.5988 1066.8242,-41.5874 1036.6883,-31.5646"/>
<ellipse fill="none" stroke="#f4afab" cx="1143.5028" cy="-708.2054" rx="4" ry="4"/>
<polygon fill="#f4afab" stroke="#f4afab" points="1036.596,-31.5358 1028.3954,-24.2556 1031.824,-30.0431 1027.052,-28.5504 1027.052,-28.5504 1027.052,-28.5504 1031.824,-30.0431 1025.7086,-32.8452 1036.596,-31.5358 1036.596,-31.5358"/>
<text text-anchor="middle" x="1162.5" y="-279.3" font-family="Times,serif" font-size="14.00" fill="#000000">audits</text>
</g>
<!-- ApplicationRecord -->
<g id="node12" class="node">
<title>ApplicationRecord</title>
<ellipse fill="none" stroke="#000000" cx="1543" cy="-1052" rx="77.1866" ry="18"/>
<text text-anchor="middle" x="1543" y="-1048.3" font-family="Times,serif" font-size="14.00" fill="#000000">ApplicationRecord</text>
</g>
<!-- SaleDetail&#45;&gt;Product -->
<g id="edge22" class="edge">
<title>SaleDetail&#45;&gt;Product</title>
<path fill="none" stroke="#9def02" d="M925.5821,-704.7136C890.0658,-626.1243 839.7745,-514.8414 799.771,-426.323"/>
<ellipse fill="none" stroke="#9def02" cx="927.4188" cy="-708.7779" rx="4" ry="4"/>
<ellipse fill="#9def02" stroke="#9def02" cx="798.0695" cy="-422.5579" rx="4" ry="4"/>
</g>
<!-- SaleDetail&#45;&gt;Audited::Audit -->
<g id="edge23" class="edge">
<title>SaleDetail&#45;&gt;Audited::Audit</title>
<path fill="none" stroke="#81fd79" d="M957.9029,-704.1558C943.2013,-565.472 923.9568,-305.6063 955,-87 956.959,-73.2046 961.0171,-58.309 964.9691,-45.9009"/>
<ellipse fill="none" stroke="#81fd79" cx="958.3493" cy="-708.3209" rx="4" ry="4"/>
<polygon fill="#81fd79" stroke="#81fd79" points="965.059,-45.6306 972.4854,-37.5622 966.6372,-40.8862 968.2155,-36.1418 968.2155,-36.1418 968.2155,-36.1418 966.6372,-40.8862 963.9455,-34.7214 965.059,-45.6306 965.059,-45.6306"/>
<text text-anchor="middle" x="971.5" y="-279.3" font-family="Times,serif" font-size="14.00" fill="#000000">audits</text>
</g>
</g>
</svg>
