<?xml version="1.0" encoding="UTF-8" standalone="no"?>
<!DOCTYPE svg PUBLIC "-//W3C//DTD SVG 1.1//EN"
 "http://www.w3.org/Graphics/SVG/1.1/DTD/svg11.dtd">
<!-- Generated by graphviz version 2.40.1 (20161225.0304)
 -->
<!-- Title: models_diagram Pages: 1 -->
<svg width="1255pt" height="721pt"
 viewBox="0.00 0.00 1255.00 721.00" xmlns="http://www.w3.org/2000/svg" xmlns:xlink="http://www.w3.org/1999/xlink">
<g id="graph0" class="graph" transform="scale(1 1) rotate(0) translate(4 717)">
<title>models_diagram</title>
<polygon fill="transparent" stroke="transparent" points="-4,4 -4,-717 1251,-717 1251,4 -4,4"/>
<!-- _diagram_info -->
<g id="node1" class="node">
<title>_diagram_info</title>
<text text-anchor="start" x="8" y="-639.1" font-family="Times,serif" font-size="13.00" fill="#000000">Models diagram</text>
<text text-anchor="start" x="8" y="-625.1" font-family="Times,serif" font-size="13.00" fill="#000000">Date: Dec 09 2018 &#45; 22:32</text>
<text text-anchor="start" x="8" y="-611.1" font-family="Times,serif" font-size="13.00" fill="#000000">Migration version: 20181118173060</text>
<text text-anchor="start" x="8" y="-597.1" font-family="Times,serif" font-size="13.00" fill="#000000">Generated by RailRoady 1.5.3</text>
<text text-anchor="start" x="8" y="-583.1" font-family="Times,serif" font-size="13.00" fill="#000000">http://railroady.prestonlee.com</text>
</g>
<!-- Category -->
<g id="node2" class="node">
<title>Category</title>
<path fill="none" stroke="#000000" d="M244.5,-531.5C244.5,-531.5 421.5,-531.5 421.5,-531.5 427.5,-531.5 433.5,-537.5 433.5,-543.5 433.5,-543.5 433.5,-685.5 433.5,-685.5 433.5,-691.5 427.5,-697.5 421.5,-697.5 421.5,-697.5 244.5,-697.5 244.5,-697.5 238.5,-697.5 232.5,-691.5 232.5,-685.5 232.5,-685.5 232.5,-543.5 232.5,-543.5 232.5,-537.5 238.5,-531.5 244.5,-531.5"/>
<text text-anchor="middle" x="333" y="-682.3" font-family="Times,serif" font-size="14.00" fill="#000000">Category</text>
<polyline fill="none" stroke="#000000" points="232.5,-674.5 433.5,-674.5 "/>
<text text-anchor="start" x="240.5" y="-659.3" font-family="Times,serif" font-size="14.00" fill="#000000">id :bigint(20)</text>
<text text-anchor="start" x="240.5" y="-644.3" font-family="Times,serif" font-size="14.00" fill="#000000">name :varchar(255)</text>
<text text-anchor="start" x="240.5" y="-629.3" font-family="Times,serif" font-size="14.00" fill="#000000">name_spanish :varchar(255)</text>
<text text-anchor="start" x="240.5" y="-614.3" font-family="Times,serif" font-size="14.00" fill="#000000">description :varchar(255)</text>
<text text-anchor="start" x="240.5" y="-599.3" font-family="Times,serif" font-size="14.00" fill="#000000">description_spanish :varchar(255)</text>
<text text-anchor="start" x="240.5" y="-584.3" font-family="Times,serif" font-size="14.00" fill="#000000">state :tinyint(1)</text>
<text text-anchor="start" x="240.5" y="-569.3" font-family="Times,serif" font-size="14.00" fill="#000000">slug :varchar(255)</text>
<text text-anchor="start" x="240.5" y="-554.3" font-family="Times,serif" font-size="14.00" fill="#000000">created_at :datetime</text>
<text text-anchor="start" x="240.5" y="-539.3" font-family="Times,serif" font-size="14.00" fill="#000000">updated_at :datetime</text>
</g>
<!-- Product -->
<g id="node5" class="node">
<title>Product</title>
<path fill="none" stroke="#000000" d="M204.5,-147.5C204.5,-147.5 381.5,-147.5 381.5,-147.5 387.5,-147.5 393.5,-153.5 393.5,-159.5 393.5,-159.5 393.5,-406.5 393.5,-406.5 393.5,-412.5 387.5,-418.5 381.5,-418.5 381.5,-418.5 204.5,-418.5 204.5,-418.5 198.5,-418.5 192.5,-412.5 192.5,-406.5 192.5,-406.5 192.5,-159.5 192.5,-159.5 192.5,-153.5 198.5,-147.5 204.5,-147.5"/>
<text text-anchor="middle" x="293" y="-403.3" font-family="Times,serif" font-size="14.00" fill="#000000">Product</text>
<polyline fill="none" stroke="#000000" points="192.5,-395.5 393.5,-395.5 "/>
<text text-anchor="start" x="200.5" y="-380.3" font-family="Times,serif" font-size="14.00" fill="#000000">id :bigint(20)</text>
<text text-anchor="start" x="200.5" y="-365.3" font-family="Times,serif" font-size="14.00" fill="#000000">name :varchar(255)</text>
<text text-anchor="start" x="200.5" y="-350.3" font-family="Times,serif" font-size="14.00" fill="#000000">name_spanish :varchar(255)</text>
<text text-anchor="start" x="200.5" y="-335.3" font-family="Times,serif" font-size="14.00" fill="#000000">barcode :varchar(255)</text>
<text text-anchor="start" x="200.5" y="-320.3" font-family="Times,serif" font-size="14.00" fill="#000000">price :decimal(8,2)</text>
<text text-anchor="start" x="200.5" y="-305.3" font-family="Times,serif" font-size="14.00" fill="#000000">content :varchar(255)</text>
<text text-anchor="start" x="200.5" y="-290.3" font-family="Times,serif" font-size="14.00" fill="#000000">content_spanish :varchar(255)</text>
<text text-anchor="start" x="200.5" y="-275.3" font-family="Times,serif" font-size="14.00" fill="#000000">description :varchar(255)</text>
<text text-anchor="start" x="200.5" y="-260.3" font-family="Times,serif" font-size="14.00" fill="#000000">description_spanish :varchar(255)</text>
<text text-anchor="start" x="200.5" y="-245.3" font-family="Times,serif" font-size="14.00" fill="#000000">recipes :varchar(255)</text>
<text text-anchor="start" x="200.5" y="-230.3" font-family="Times,serif" font-size="14.00" fill="#000000">recipes_spanish :varchar(255)</text>
<text text-anchor="start" x="200.5" y="-215.3" font-family="Times,serif" font-size="14.00" fill="#000000">state :tinyint(1)</text>
<text text-anchor="start" x="200.5" y="-200.3" font-family="Times,serif" font-size="14.00" fill="#000000">slug :varchar(255)</text>
<text text-anchor="start" x="200.5" y="-185.3" font-family="Times,serif" font-size="14.00" fill="#000000">created_at :datetime</text>
<text text-anchor="start" x="200.5" y="-170.3" font-family="Times,serif" font-size="14.00" fill="#000000">updated_at :datetime</text>
<text text-anchor="start" x="200.5" y="-155.3" font-family="Times,serif" font-size="14.00" fill="#000000">category_id :bigint(20)</text>
</g>
<!-- Category&#45;&gt;Product -->
<g id="edge1" class="edge">
<title>Category&#45;&gt;Product</title>
<path fill="none" stroke="#c63158" d="M321.9791,-523.1644C318.4441,-493.8679 314.4368,-460.6573 310.5543,-428.4812"/>
<ellipse fill="none" stroke="#c63158" cx="322.4787" cy="-527.3052" rx="4" ry="4"/>
<polygon fill="#c63158" stroke="#c63158" points="310.5521,-428.4622 313.8216,-417.9951 309.9531,-423.4982 309.3541,-418.5342 309.3541,-418.5342 309.3541,-418.5342 309.9531,-423.4982 304.8865,-419.0733 310.5521,-428.4622 310.5521,-428.4622"/>
</g>
<!-- Audited::Audit -->
<g id="node9" class="node">
<title>Audited::Audit</title>
<ellipse fill="none" stroke="#000000" cx="631" cy="-18" rx="63.8893" ry="18"/>
<text text-anchor="middle" x="631" y="-14.3" font-family="Times,serif" font-size="14.00" fill="#000000">Audited::Audit</text>
</g>
<!-- Category&#45;&gt;Audited::Audit -->
<g id="edge2" class="edge">
<title>Category&#45;&gt;Audited::Audit</title>
<path fill="none" stroke="#6c556e" d="M384.9613,-523.6373C391.6139,-509.0672 397.6189,-493.8797 402,-479 426.7321,-395.0019 391.0256,-158.1967 442,-87 457.5522,-65.2781 521.9951,-44.8801 571.3513,-31.979"/>
<ellipse fill="none" stroke="#6c556e" cx="383.1224" cy="-527.5717" rx="4" ry="4"/>
<polygon fill="#6c556e" stroke="#6c556e" points="571.6305,-31.9075 582.4353,-33.7801 576.4735,-30.6644 581.3165,-29.4214 581.3165,-29.4214 581.3165,-29.4214 576.4735,-30.6644 580.1978,-25.0627 571.6305,-31.9075 571.6305,-31.9075"/>
<text text-anchor="middle" x="458.5" y="-279.3" font-family="Times,serif" font-size="14.00" fill="#000000">audits</text>
</g>
<!-- User -->
<g id="node3" class="node">
<title>User</title>
<path fill="none" stroke="#000000" d="M693,-87.5C693,-87.5 883,-87.5 883,-87.5 889,-87.5 895,-93.5 895,-99.5 895,-99.5 895,-466.5 895,-466.5 895,-472.5 889,-478.5 883,-478.5 883,-478.5 693,-478.5 693,-478.5 687,-478.5 681,-472.5 681,-466.5 681,-466.5 681,-99.5 681,-99.5 681,-93.5 687,-87.5 693,-87.5"/>
<text text-anchor="middle" x="788" y="-463.3" font-family="Times,serif" font-size="14.00" fill="#000000">User</text>
<polyline fill="none" stroke="#000000" points="681,-455.5 895,-455.5 "/>
<text text-anchor="start" x="689" y="-440.3" font-family="Times,serif" font-size="14.00" fill="#000000">id :bigint(20)</text>
<text text-anchor="start" x="689" y="-425.3" font-family="Times,serif" font-size="14.00" fill="#000000">email :varchar(255)</text>
<text text-anchor="start" x="689" y="-410.3" font-family="Times,serif" font-size="14.00" fill="#000000">slug :varchar(255)</text>
<text text-anchor="start" x="689" y="-395.3" font-family="Times,serif" font-size="14.00" fill="#000000">password_digest :varchar(255)</text>
<text text-anchor="start" x="689" y="-380.3" font-family="Times,serif" font-size="14.00" fill="#000000">reset_password_token :varchar(255)</text>
<text text-anchor="start" x="689" y="-365.3" font-family="Times,serif" font-size="14.00" fill="#000000">reset_password_sent :tinyint(1)</text>
<text text-anchor="start" x="689" y="-350.3" font-family="Times,serif" font-size="14.00" fill="#000000">reset_password_sent_at :datetime</text>
<text text-anchor="start" x="689" y="-335.3" font-family="Times,serif" font-size="14.00" fill="#000000">sign_in_count :int(11)</text>
<text text-anchor="start" x="689" y="-320.3" font-family="Times,serif" font-size="14.00" fill="#000000">current_sign_in_at :datetime</text>
<text text-anchor="start" x="689" y="-305.3" font-family="Times,serif" font-size="14.00" fill="#000000">last_sign_in_at :datetime</text>
<text text-anchor="start" x="689" y="-290.3" font-family="Times,serif" font-size="14.00" fill="#000000">current_sign_in_ip :varchar(255)</text>
<text text-anchor="start" x="689" y="-275.3" font-family="Times,serif" font-size="14.00" fill="#000000">last_sign_in_ip :varchar(255)</text>
<text text-anchor="start" x="689" y="-260.3" font-family="Times,serif" font-size="14.00" fill="#000000">confirmed :tinyint(1)</text>
<text text-anchor="start" x="689" y="-245.3" font-family="Times,serif" font-size="14.00" fill="#000000">confirmation_token :varchar(255)</text>
<text text-anchor="start" x="689" y="-230.3" font-family="Times,serif" font-size="14.00" fill="#000000">confirmation_sent :tinyint(1)</text>
<text text-anchor="start" x="689" y="-215.3" font-family="Times,serif" font-size="14.00" fill="#000000">failed_attempts :int(11)</text>
<text text-anchor="start" x="689" y="-200.3" font-family="Times,serif" font-size="14.00" fill="#000000">unlock_token :varchar(255)</text>
<text text-anchor="start" x="689" y="-185.3" font-family="Times,serif" font-size="14.00" fill="#000000">unlock_sent :tinyint(1)</text>
<text text-anchor="start" x="689" y="-170.3" font-family="Times,serif" font-size="14.00" fill="#000000">two_factor_auth :tinyint(1)</text>
<text text-anchor="start" x="689" y="-155.3" font-family="Times,serif" font-size="14.00" fill="#000000">two_factor_auth_otp :varchar(255)</text>
<text text-anchor="start" x="689" y="-140.3" font-family="Times,serif" font-size="14.00" fill="#000000">created_at :datetime</text>
<text text-anchor="start" x="689" y="-125.3" font-family="Times,serif" font-size="14.00" fill="#000000">updated_at :datetime</text>
<text text-anchor="start" x="689" y="-110.3" font-family="Times,serif" font-size="14.00" fill="#000000">employee_id :bigint(20)</text>
<text text-anchor="start" x="689" y="-95.3" font-family="Times,serif" font-size="14.00" fill="#000000">costumer_id :bigint(20)</text>
</g>
<!-- User&#45;&gt;Audited::Audit -->
<g id="edge3" class="edge">
<title>User&#45;&gt;Audited::Audit</title>
<path fill="none" stroke="#d812e8" d="M676.8059,-95.3158C665.166,-75.6687 654.6937,-57.9926 646.7101,-44.517"/>
<ellipse fill="none" stroke="#d812e8" cx="678.8526" cy="-98.7704" rx="4" ry="4"/>
<polygon fill="#d812e8" stroke="#d812e8" points="646.6939,-44.4897 645.4683,-33.5925 644.1453,-40.1879 641.5967,-35.8862 641.5967,-35.8862 641.5967,-35.8862 644.1453,-40.1879 637.7252,-38.1799 646.6939,-44.4897 646.6939,-44.4897"/>
<text text-anchor="middle" x="678.5" y="-57.8" font-family="Times,serif" font-size="14.00" fill="#000000">audits</text>
</g>
<!-- Provider -->
<g id="node4" class="node">
<title>Provider</title>
<path fill="none" stroke="#000000" d="M1125,-192.5C1125,-192.5 1235,-192.5 1235,-192.5 1241,-192.5 1247,-198.5 1247,-204.5 1247,-204.5 1247,-361.5 1247,-361.5 1247,-367.5 1241,-373.5 1235,-373.5 1235,-373.5 1125,-373.5 1125,-373.5 1119,-373.5 1113,-367.5 1113,-361.5 1113,-361.5 1113,-204.5 1113,-204.5 1113,-198.5 1119,-192.5 1125,-192.5"/>
<text text-anchor="middle" x="1180" y="-358.3" font-family="Times,serif" font-size="14.00" fill="#000000">Provider</text>
<polyline fill="none" stroke="#000000" points="1113,-350.5 1247,-350.5 "/>
<text text-anchor="start" x="1121" y="-335.3" font-family="Times,serif" font-size="14.00" fill="#000000">id :bigint(20)</text>
<text text-anchor="start" x="1121" y="-320.3" font-family="Times,serif" font-size="14.00" fill="#000000">name :varchar(255)</text>
<text text-anchor="start" x="1121" y="-305.3" font-family="Times,serif" font-size="14.00" fill="#000000">FEIN :varchar(10)</text>
<text text-anchor="start" x="1121" y="-290.3" font-family="Times,serif" font-size="14.00" fill="#000000">email :varchar(255)</text>
<text text-anchor="start" x="1121" y="-275.3" font-family="Times,serif" font-size="14.00" fill="#000000">phone :varchar(14)</text>
<text text-anchor="start" x="1121" y="-260.3" font-family="Times,serif" font-size="14.00" fill="#000000">address :varchar(255)</text>
<text text-anchor="start" x="1121" y="-245.3" font-family="Times,serif" font-size="14.00" fill="#000000">state :tinyint(1)</text>
<text text-anchor="start" x="1121" y="-230.3" font-family="Times,serif" font-size="14.00" fill="#000000">slug :varchar(255)</text>
<text text-anchor="start" x="1121" y="-215.3" font-family="Times,serif" font-size="14.00" fill="#000000">created_at :datetime</text>
<text text-anchor="start" x="1121" y="-200.3" font-family="Times,serif" font-size="14.00" fill="#000000">updated_at :datetime</text>
</g>
<!-- Provider&#45;&gt;Audited::Audit -->
<g id="edge4" class="edge">
<title>Provider&#45;&gt;Audited::Audit</title>
<path fill="none" stroke="#6c6276" d="M1156.5649,-184.3368C1144.2467,-149.9089 1125.9104,-113.3362 1099,-87 1070.0372,-58.6552 1053.439,-63.3185 1014,-54 956.8542,-40.4978 797.5096,-28.5593 703.3261,-22.4068"/>
<ellipse fill="none" stroke="#6c6276" cx="1157.9477" cy="-188.3266" rx="4" ry="4"/>
<polygon fill="#6c6276" stroke="#6c6276" points="703.2775,-22.4038 693.5892,-17.2669 698.288,-22.0807 693.2984,-21.7575 693.2984,-21.7575 693.2984,-21.7575 698.288,-22.0807 693.0076,-26.2481 703.2775,-22.4038 703.2775,-22.4038"/>
<text text-anchor="middle" x="1089.5" y="-57.8" font-family="Times,serif" font-size="14.00" fill="#000000">audits</text>
</g>
<!-- Product&#45;&gt;Audited::Audit -->
<g id="edge5" class="edge">
<title>Product&#45;&gt;Audited::Audit</title>
<path fill="none" stroke="#3081bd" d="M323.2024,-139.5089C336.4823,-107.0213 355.5724,-75.7404 383,-54 409.3221,-33.1359 494.1098,-24.3437 557.2614,-20.6513"/>
<ellipse fill="none" stroke="#3081bd" cx="321.5844" cy="-143.6194" rx="4" ry="4"/>
<polygon fill="#3081bd" stroke="#3081bd" points="557.6086,-20.6322 567.8416,-24.574 562.601,-20.3565 567.5934,-20.0808 567.5934,-20.0808 567.5934,-20.0808 562.601,-20.3565 567.3453,-15.5876 557.6086,-20.6322 557.6086,-20.6322"/>
<text text-anchor="middle" x="399.5" y="-57.8" font-family="Times,serif" font-size="14.00" fill="#000000">audits</text>
</g>
<!-- Employee -->
<g id="node6" class="node">
<title>Employee</title>
<path fill="none" stroke="#000000" d="M504,-524C504,-524 632,-524 632,-524 638,-524 644,-530 644,-536 644,-536 644,-693 644,-693 644,-699 638,-705 632,-705 632,-705 504,-705 504,-705 498,-705 492,-699 492,-693 492,-693 492,-536 492,-536 492,-530 498,-524 504,-524"/>
<text text-anchor="middle" x="568" y="-689.8" font-family="Times,serif" font-size="14.00" fill="#000000">Employee</text>
<polyline fill="none" stroke="#000000" points="492,-682 644,-682 "/>
<text text-anchor="start" x="500" y="-666.8" font-family="Times,serif" font-size="14.00" fill="#000000">id :bigint(20)</text>
<text text-anchor="start" x="500" y="-651.8" font-family="Times,serif" font-size="14.00" fill="#000000">first_name :varchar(255)</text>
<text text-anchor="start" x="500" y="-636.8" font-family="Times,serif" font-size="14.00" fill="#000000">last_name :varchar(255)</text>
<text text-anchor="start" x="500" y="-621.8" font-family="Times,serif" font-size="14.00" fill="#000000">email :varchar(255)</text>
<text text-anchor="start" x="500" y="-606.8" font-family="Times,serif" font-size="14.00" fill="#000000">phone :varchar(14)</text>
<text text-anchor="start" x="500" y="-591.8" font-family="Times,serif" font-size="14.00" fill="#000000">role :varchar(255)</text>
<text text-anchor="start" x="500" y="-576.8" font-family="Times,serif" font-size="14.00" fill="#000000">state :tinyint(1)</text>
<text text-anchor="start" x="500" y="-561.8" font-family="Times,serif" font-size="14.00" fill="#000000">slug :varchar(255)</text>
<text text-anchor="start" x="500" y="-546.8" font-family="Times,serif" font-size="14.00" fill="#000000">created_at :datetime</text>
<text text-anchor="start" x="500" y="-531.8" font-family="Times,serif" font-size="14.00" fill="#000000">updated_at :datetime</text>
</g>
<!-- Employee&#45;&gt;User -->
<g id="edge6" class="edge">
<title>Employee&#45;&gt;User</title>
<path fill="none" stroke="#178818" d="M640.5529,-517.0943C649.6094,-504.3852 658.6238,-491.4553 667,-479 670.1112,-474.3737 673.2424,-469.67 676.3822,-464.9111"/>
<ellipse fill="none" stroke="#178818" cx="638.1434" cy="-520.4631" rx="4" ry="4"/>
<ellipse fill="#178818" stroke="#178818" cx="678.7908" cy="-461.2448" rx="4" ry="4"/>
</g>
<!-- Employee&#45;&gt;Audited::Audit -->
<g id="edge7" class="edge">
<title>Employee&#45;&gt;Audited::Audit</title>
<path fill="none" stroke="#d27dcd" d="M551.4359,-515.6754C537.3578,-407.1353 526.5603,-229.3407 577,-87 582.835,-70.5338 594.3022,-54.9551 605.174,-42.7815"/>
<ellipse fill="none" stroke="#d27dcd" cx="551.9726" cy="-519.7269" rx="4" ry="4"/>
<polygon fill="#d27dcd" stroke="#d27dcd" points="605.3393,-42.6045 615.455,-38.3708 608.7533,-38.9514 612.1672,-35.2983 612.1672,-35.2983 612.1672,-35.2983 608.7533,-38.9514 608.8794,-32.2257 605.3393,-42.6045 605.3393,-42.6045"/>
<text text-anchor="middle" x="624.5" y="-279.3" font-family="Times,serif" font-size="14.00" fill="#000000">associated_audits</text>
</g>
<!-- Employee&#45;&gt;Audited::Audit -->
<g id="edge8" class="edge">
<title>Employee&#45;&gt;Audited::Audit</title>
<path fill="none" stroke="#2c965c" d="M514.7524,-516.3383C509.943,-504.0517 505.8272,-491.4304 503,-479 483.6805,-394.0582 458.348,-161.7967 503,-87 518.5012,-61.0339 547.5218,-44.2603 574.0156,-33.7618"/>
<ellipse fill="none" stroke="#2c965c" cx="516.3297" cy="-520.233" rx="4" ry="4"/>
<polygon fill="#2c965c" stroke="#2c965c" points="574.2636,-33.6693 585.2059,-34.3884 578.948,-31.9209 583.6324,-30.1725 583.6324,-30.1725 583.6324,-30.1725 578.948,-31.9209 582.0588,-25.9566 574.2636,-33.6693 574.2636,-33.6693"/>
<text text-anchor="middle" x="519.5" y="-279.3" font-family="Times,serif" font-size="14.00" fill="#000000">audits</text>
</g>
<!-- Costumer -->
<g id="node7" class="node">
<title>Costumer</title>
<path fill="none" stroke="#000000" d="M867,-516.5C867,-516.5 995,-516.5 995,-516.5 1001,-516.5 1007,-522.5 1007,-528.5 1007,-528.5 1007,-700.5 1007,-700.5 1007,-706.5 1001,-712.5 995,-712.5 995,-712.5 867,-712.5 867,-712.5 861,-712.5 855,-706.5 855,-700.5 855,-700.5 855,-528.5 855,-528.5 855,-522.5 861,-516.5 867,-516.5"/>
<text text-anchor="middle" x="931" y="-697.3" font-family="Times,serif" font-size="14.00" fill="#000000">Costumer</text>
<polyline fill="none" stroke="#000000" points="855,-689.5 1007,-689.5 "/>
<text text-anchor="start" x="863" y="-674.3" font-family="Times,serif" font-size="14.00" fill="#000000">id :bigint(20)</text>
<text text-anchor="start" x="863" y="-659.3" font-family="Times,serif" font-size="14.00" fill="#000000">first_name :varchar(255)</text>
<text text-anchor="start" x="863" y="-644.3" font-family="Times,serif" font-size="14.00" fill="#000000">last_name :varchar(255)</text>
<text text-anchor="start" x="863" y="-629.3" font-family="Times,serif" font-size="14.00" fill="#000000">company :varchar(255)</text>
<text text-anchor="start" x="863" y="-614.3" font-family="Times,serif" font-size="14.00" fill="#000000">email :varchar(255)</text>
<text text-anchor="start" x="863" y="-599.3" font-family="Times,serif" font-size="14.00" fill="#000000">phone :varchar(14)</text>
<text text-anchor="start" x="863" y="-584.3" font-family="Times,serif" font-size="14.00" fill="#000000">address :varchar(255)</text>
<text text-anchor="start" x="863" y="-569.3" font-family="Times,serif" font-size="14.00" fill="#000000">state :tinyint(1)</text>
<text text-anchor="start" x="863" y="-554.3" font-family="Times,serif" font-size="14.00" fill="#000000">slug :varchar(255)</text>
<text text-anchor="start" x="863" y="-539.3" font-family="Times,serif" font-size="14.00" fill="#000000">created_at :datetime</text>
<text text-anchor="start" x="863" y="-524.3" font-family="Times,serif" font-size="14.00" fill="#000000">updated_at :datetime</text>
</g>
<!-- Costumer&#45;&gt;User -->
<g id="edge9" class="edge">
<title>Costumer&#45;&gt;User</title>
<path fill="none" stroke="#bd5612" d="M885.4589,-508.9275C882.2758,-501.5485 879.0133,-493.9854 875.7019,-486.3089"/>
<ellipse fill="none" stroke="#bd5612" cx="887.0913" cy="-512.7117" rx="4" ry="4"/>
<ellipse fill="#bd5612" stroke="#bd5612" cx="873.9596" cy="-482.27" rx="4" ry="4"/>
</g>
<!-- Costumer&#45;&gt;Audited::Audit -->
<g id="edge10" class="edge">
<title>Costumer&#45;&gt;Audited::Audit</title>
<path fill="none" stroke="#1b57e0" d="M962.828,-508.425C964.923,-498.5466 966.7087,-488.6309 968,-479 991.152,-306.3229 1020.2088,-253.2156 968,-87 962.6427,-69.9441 960.3509,-63.1628 945,-54 924.6903,-41.8773 789.296,-29.7535 703.0558,-23.1295"/>
<ellipse fill="none" stroke="#1b57e0" cx="961.946" cy="-512.4269" rx="4" ry="4"/>
<polygon fill="#1b57e0" stroke="#1b57e0" points="703.0246,-23.1272 693.3947,-17.8818 698.039,-22.748 693.0534,-22.3689 693.0534,-22.3689 693.0534,-22.3689 698.039,-22.748 692.7122,-26.8559 703.0246,-23.1272 703.0246,-23.1272"/>
<text text-anchor="middle" x="1044.5" y="-279.3" font-family="Times,serif" font-size="14.00" fill="#000000">associated_audits</text>
</g>
<!-- Costumer&#45;&gt;Audited::Audit -->
<g id="edge11" class="edge">
<title>Costumer&#45;&gt;Audited::Audit</title>
<path fill="none" stroke="#0313a2" d="M928.7625,-508.0008C925.161,-358.5686 917.1222,-102.9906 904,-87 878.4169,-55.8246 772.4143,-36.1733 700.2779,-26.141"/>
<ellipse fill="none" stroke="#0313a2" cx="928.8665" cy="-512.3611" rx="4" ry="4"/>
<polygon fill="#0313a2" stroke="#0313a2" points="700.2446,-26.1366 690.9422,-20.3301 695.2902,-25.4628 690.3358,-24.7891 690.3358,-24.7891 690.3358,-24.7891 695.2902,-25.4628 689.7294,-29.248 700.2446,-26.1366 700.2446,-26.1366"/>
<text text-anchor="middle" x="944.5" y="-279.3" font-family="Times,serif" font-size="14.00" fill="#000000">audits</text>
</g>
<!-- ApplicationRecord -->
<g id="node8" class="node">
<title>ApplicationRecord</title>
<ellipse fill="none" stroke="#000000" cx="1102" cy="-614.5" rx="77.1866" ry="18"/>
<text text-anchor="middle" x="1102" y="-610.8" font-family="Times,serif" font-size="14.00" fill="#000000">ApplicationRecord</text>
</g>
</g>
</svg>
