<?xml version="1.0" encoding="UTF-8" standalone="no"?>
<!DOCTYPE svg PUBLIC "-//W3C//DTD SVG 1.1//EN"
 "http://www.w3.org/Graphics/SVG/1.1/DTD/svg11.dtd">
<!-- Generated by graphviz version 2.40.1 (20161225.0304)
 -->
<!-- Title: models_diagram Pages: 1 -->
<svg width="1649pt" height="246pt"
 viewBox="0.00 0.00 1648.95 246.00" xmlns="http://www.w3.org/2000/svg" xmlns:xlink="http://www.w3.org/1999/xlink">
<g id="graph0" class="graph" transform="scale(1 1) rotate(0) translate(4 242)">
<title>models_diagram</title>
<polygon fill="transparent" stroke="transparent" points="-4,4 -4,-242 1644.9464,-242 1644.9464,4 -4,4"/>
<!-- _diagram_info -->
<g id="node1" class="node">
<title>_diagram_info</title>
<text text-anchor="start" x="8" y="-223.6" font-family="Times,serif" font-size="13.00" fill="#000000">Models diagram</text>
<text text-anchor="start" x="8" y="-209.6" font-family="Times,serif" font-size="13.00" fill="#000000">Date: Feb 05 2019 &#45; 21:19</text>
<text text-anchor="start" x="8" y="-195.6" font-family="Times,serif" font-size="13.00" fill="#000000">Migration version: 20190205120100</text>
<text text-anchor="start" x="8" y="-181.6" font-family="Times,serif" font-size="13.00" fill="#000000">Generated by RailRoady 1.5.3</text>
<text text-anchor="start" x="8" y="-167.6" font-family="Times,serif" font-size="13.00" fill="#000000">http://railroady.prestonlee.com</text>
</g>
<!-- Notification -->
<g id="node2" class="node">
<title>Notification</title>
<ellipse fill="none" stroke="#000000" cx="285" cy="-199" rx="53.0913" ry="18"/>
<text text-anchor="middle" x="285" y="-195.3" font-family="Times,serif" font-size="14.00" fill="#000000">Notification</text>
</g>
<!-- Purchase -->
<g id="node3" class="node">
<title>Purchase</title>
<ellipse fill="none" stroke="#000000" cx="399" cy="-199" rx="42.4939" ry="18"/>
<text text-anchor="middle" x="399" y="-195.3" font-family="Times,serif" font-size="14.00" fill="#000000">Purchase</text>
</g>
<!-- PurchaseDetail -->
<g id="node4" class="node">
<title>PurchaseDetail</title>
<ellipse fill="none" stroke="#000000" cx="399" cy="-105" rx="63.8893" ry="18"/>
<text text-anchor="middle" x="399" y="-101.3" font-family="Times,serif" font-size="14.00" fill="#000000">PurchaseDetail</text>
</g>
<!-- Purchase&#45;&gt;PurchaseDetail -->
<g id="edge1" class="edge">
<title>Purchase&#45;&gt;PurchaseDetail</title>
<path fill="none" stroke="#82f9be" d="M399,-172.5558C399,-160.3361 399,-145.8078 399,-133.3607"/>
<ellipse fill="none" stroke="#82f9be" cx="399" cy="-176.8759" rx="4" ry="4"/>
<polygon fill="#82f9be" stroke="#82f9be" points="399.0001,-133.0685 403.5,-123.0685 399,-128.0685 399,-123.0685 399,-123.0685 399,-123.0685 399,-128.0685 394.5,-123.0685 399.0001,-133.0685 399.0001,-133.0685"/>
</g>
<!-- Audited::Audit -->
<g id="node14" class="node">
<title>Audited::Audit</title>
<ellipse fill="none" stroke="#000000" cx="1012" cy="-18" rx="63.8893" ry="18"/>
<text text-anchor="middle" x="1012" y="-14.3" font-family="Times,serif" font-size="14.00" fill="#000000">Audited::Audit</text>
</g>
<!-- Purchase&#45;&gt;Audited::Audit -->
<g id="edge2" class="edge">
<title>Purchase&#45;&gt;Audited::Audit</title>
<path fill="none" stroke="#e345b4" d="M420.3783,-176.0929C445.3131,-150.7012 488.9014,-110.2686 534,-87 603.1656,-51.3142 823.3916,-31.0994 939.2115,-22.6838"/>
<ellipse fill="none" stroke="#e345b4" cx="417.5354" cy="-179.0226" rx="4" ry="4"/>
<polygon fill="#e345b4" stroke="#e345b4" points="939.4314,-22.6682 949.7272,-26.4425 944.4186,-22.3111 949.4058,-21.954 949.4058,-21.954 949.4058,-21.954 944.4186,-22.3111 949.0845,-17.4655 939.4314,-22.6682 939.4314,-22.6682"/>
<text text-anchor="middle" x="581.5" y="-101.3" font-family="Times,serif" font-size="14.00" fill="#000000">associated_audits</text>
</g>
<!-- Purchase&#45;&gt;Audited::Audit -->
<g id="edge3" class="edge">
<title>Purchase&#45;&gt;Audited::Audit</title>
<path fill="none" stroke="#ca8a35" d="M371.9215,-178.3483C363.9459,-172.3589 355.1675,-165.8569 347,-160 323.3573,-143.0459 306.5646,-148.7375 293,-123 285.5401,-108.8455 283.1313,-99.594 293,-87 332.316,-36.827 762.7338,-22.8265 938.1973,-19.1891"/>
<ellipse fill="none" stroke="#ca8a35" cx="375.2072" cy="-180.8254" rx="4" ry="4"/>
<polygon fill="#ca8a35" stroke="#ca8a35" points="938.3765,-19.1856 948.4653,-23.483 943.3755,-19.0847 948.3745,-18.9839 948.3745,-18.9839 948.3745,-18.9839 943.3755,-19.0847 948.2837,-14.4848 938.3765,-19.1856 938.3765,-19.1856"/>
<text text-anchor="middle" x="309.5" y="-101.3" font-family="Times,serif" font-size="14.00" fill="#000000">audits</text>
</g>
<!-- PurchaseDetail&#45;&gt;Audited::Audit -->
<g id="edge4" class="edge">
<title>PurchaseDetail&#45;&gt;Audited::Audit</title>
<path fill="none" stroke="#493592" d="M417.2679,-81.0484C426.4797,-70.8373 438.5498,-59.9289 452,-54 495.3489,-34.8914 796.1066,-24.0377 938.0925,-19.926"/>
<ellipse fill="none" stroke="#493592" cx="414.5248" cy="-84.2342" rx="4" ry="4"/>
<polygon fill="#493592" stroke="#493592" points="938.4514,-19.9158 948.576,-24.1281 943.4494,-19.7728 948.4473,-19.6299 948.4473,-19.6299 948.4473,-19.6299 943.4494,-19.7728 948.3187,-15.1317 938.4514,-19.9158 938.4514,-19.9158"/>
<text text-anchor="middle" x="468.5" y="-57.8" font-family="Times,serif" font-size="14.00" fill="#000000">audits</text>
</g>
<!-- Sale -->
<g id="node5" class="node">
<title>Sale</title>
<ellipse fill="none" stroke="#000000" cx="728" cy="-199" rx="27" ry="18"/>
<text text-anchor="middle" x="728" y="-195.3" font-family="Times,serif" font-size="14.00" fill="#000000">Sale</text>
</g>
<!-- SaleDetail -->
<g id="node13" class="node">
<title>SaleDetail</title>
<ellipse fill="none" stroke="#000000" cx="728" cy="-105" rx="47.3916" ry="18"/>
<text text-anchor="middle" x="728" y="-101.3" font-family="Times,serif" font-size="14.00" fill="#000000">SaleDetail</text>
</g>
<!-- Sale&#45;&gt;SaleDetail -->
<g id="edge5" class="edge">
<title>Sale&#45;&gt;SaleDetail</title>
<path fill="none" stroke="#83426c" d="M728,-172.5558C728,-160.3361 728,-145.8078 728,-133.3607"/>
<ellipse fill="none" stroke="#83426c" cx="728" cy="-176.8759" rx="4" ry="4"/>
<polygon fill="#83426c" stroke="#83426c" points="728.0001,-133.0685 732.5,-123.0685 728,-128.0685 728,-123.0685 728,-123.0685 728,-123.0685 728,-128.0685 723.5,-123.0685 728.0001,-133.0685 728.0001,-133.0685"/>
</g>
<!-- Sale&#45;&gt;Audited::Audit -->
<g id="edge6" class="edge">
<title>Sale&#45;&gt;Audited::Audit</title>
<path fill="none" stroke="#0e8db5" d="M744.746,-175.794C766.0163,-146.8476 802.1024,-99.6175 820,-87 859.2313,-59.3425 910.73,-41.6313 950.515,-31.0862"/>
<ellipse fill="none" stroke="#0e8db5" cx="742.2941" cy="-179.1471" rx="4" ry="4"/>
<polygon fill="#0e8db5" stroke="#0e8db5" points="950.677,-31.0447 961.4819,-32.9166 955.5199,-29.8014 960.3629,-28.558 960.3629,-28.558 960.3629,-28.558 955.5199,-29.8014 959.2439,-24.1993 950.677,-31.0447 950.677,-31.0447"/>
<text text-anchor="middle" x="867.5" y="-101.3" font-family="Times,serif" font-size="14.00" fill="#000000">associated_audits</text>
</g>
<!-- Sale&#45;&gt;Audited::Audit -->
<g id="edge7" class="edge">
<title>Sale&#45;&gt;Audited::Audit</title>
<path fill="none" stroke="#61a6ac" d="M699.7703,-183.341C664.8915,-161.954 613.1393,-122.2355 639,-87 673.623,-39.8258 839.9217,-24.8962 938.3975,-20.1767"/>
<ellipse fill="none" stroke="#61a6ac" cx="703.49" cy="-185.5653" rx="4" ry="4"/>
<polygon fill="#61a6ac" stroke="#61a6ac" points="938.5991,-20.1677 948.7934,-24.2084 943.594,-19.9404 948.5888,-19.7131 948.5888,-19.7131 948.5888,-19.7131 943.594,-19.9404 948.3842,-15.2177 938.5991,-20.1677 938.5991,-20.1677"/>
<text text-anchor="middle" x="655.5" y="-101.3" font-family="Times,serif" font-size="14.00" fill="#000000">audits</text>
</g>
<!-- Category -->
<g id="node6" class="node">
<title>Category</title>
<ellipse fill="none" stroke="#000000" cx="1017" cy="-199" rx="42.7926" ry="18"/>
<text text-anchor="middle" x="1017" y="-195.3" font-family="Times,serif" font-size="14.00" fill="#000000">Category</text>
</g>
<!-- Product -->
<g id="node10" class="node">
<title>Product</title>
<ellipse fill="none" stroke="#000000" cx="962" cy="-105" rx="38.1938" ry="18"/>
<text text-anchor="middle" x="962" y="-101.3" font-family="Times,serif" font-size="14.00" fill="#000000">Product</text>
</g>
<!-- Category&#45;&gt;Product -->
<g id="edge8" class="edge">
<title>Category&#45;&gt;Product</title>
<path fill="none" stroke="#15e4d0" d="M1002.5021,-174.2217C994.7832,-161.0294 985.289,-144.803 977.4334,-131.3771"/>
<ellipse fill="none" stroke="#15e4d0" cx="1004.6348" cy="-177.8669" rx="4" ry="4"/>
<polygon fill="#15e4d0" stroke="#15e4d0" points="977.3489,-131.2325 976.1827,-120.3288 974.8238,-126.917 972.2987,-122.6014 972.2987,-122.6014 972.2987,-122.6014 974.8238,-126.917 968.4147,-124.874 977.3489,-131.2325 977.3489,-131.2325"/>
</g>
<!-- Category&#45;&gt;Audited::Audit -->
<g id="edge9" class="edge">
<title>Category&#45;&gt;Audited::Audit</title>
<path fill="none" stroke="#53ae83" d="M1020.5899,-172.5315C1023.9253,-143.3593 1027.6043,-95.115 1022,-54 1021.6348,-51.3207 1021.1233,-48.5593 1020.523,-45.8137"/>
<ellipse fill="none" stroke="#53ae83" cx="1020.099" cy="-176.6163" rx="4" ry="4"/>
<polygon fill="#53ae83" stroke="#53ae83" points="1020.5211,-45.8062 1022.4232,-35.0065 1019.2913,-40.9598 1018.0614,-36.1134 1018.0614,-36.1134 1018.0614,-36.1134 1019.2913,-40.9598 1013.6997,-37.2203 1020.5211,-45.8062 1020.5211,-45.8062"/>
<text text-anchor="middle" x="1041.5" y="-101.3" font-family="Times,serif" font-size="14.00" fill="#000000">audits</text>
</g>
<!-- Customer -->
<g id="node7" class="node">
<title>Customer</title>
<ellipse fill="none" stroke="#000000" cx="1174" cy="-199" rx="45.4919" ry="18"/>
<text text-anchor="middle" x="1174" y="-195.3" font-family="Times,serif" font-size="14.00" fill="#000000">Customer</text>
</g>
<!-- User -->
<g id="node8" class="node">
<title>User</title>
<ellipse fill="none" stroke="#000000" cx="1314" cy="-105" rx="27.0966" ry="18"/>
<text text-anchor="middle" x="1314" y="-101.3" font-family="Times,serif" font-size="14.00" fill="#000000">User</text>
</g>
<!-- Customer&#45;&gt;User -->
<g id="edge10" class="edge">
<title>Customer&#45;&gt;User</title>
<path fill="none" stroke="#69689e" d="M1203.7912,-178.9973C1228.6998,-162.273 1263.8859,-138.648 1287.7494,-122.6254"/>
<ellipse fill="none" stroke="#69689e" cx="1200.439" cy="-181.2481" rx="4" ry="4"/>
<ellipse fill="#69689e" stroke="#69689e" cx="1291.1437" cy="-120.3464" rx="4" ry="4"/>
</g>
<!-- Customer&#45;&gt;Audited::Audit -->
<g id="edge11" class="edge">
<title>Customer&#45;&gt;Audited::Audit</title>
<path fill="none" stroke="#fe8551" d="M1172.2385,-172.6848C1168.4531,-139.1425 1156.5331,-82.1398 1119,-54 1105.7539,-44.0689 1089.5998,-36.7722 1073.8989,-31.4525"/>
<ellipse fill="none" stroke="#fe8551" cx="1172.6389" cy="-176.695" rx="4" ry="4"/>
<polygon fill="#fe8551" stroke="#fe8551" points="1073.7464,-31.4043 1065.5681,-24.0991 1068.979,-29.8971 1064.2115,-28.3898 1064.2115,-28.3898 1064.2115,-28.3898 1068.979,-29.8971 1062.855,-32.6805 1073.7464,-31.4043 1073.7464,-31.4043"/>
<text text-anchor="middle" x="1209.5" y="-101.3" font-family="Times,serif" font-size="14.00" fill="#000000">associated_audits</text>
</g>
<!-- Customer&#45;&gt;Audited::Audit -->
<g id="edge12" class="edge">
<title>Customer&#45;&gt;Audited::Audit</title>
<path fill="none" stroke="#29bc7e" d="M1153.3881,-175.9706C1122.905,-141.9124 1066.019,-78.3545 1034.4906,-43.1284"/>
<ellipse fill="none" stroke="#29bc7e" cx="1156.0918" cy="-178.9914" rx="4" ry="4"/>
<polygon fill="#29bc7e" stroke="#29bc7e" points="1034.4639,-43.0985 1031.1478,-32.646 1031.1293,-39.3728 1027.7947,-35.6471 1027.7947,-35.6471 1027.7947,-35.6471 1031.1293,-39.3728 1024.4416,-38.6483 1034.4639,-43.0985 1034.4639,-43.0985"/>
<text text-anchor="middle" x="1120.5" y="-101.3" font-family="Times,serif" font-size="14.00" fill="#000000">audits</text>
</g>
<!-- User&#45;&gt;Audited::Audit -->
<g id="edge13" class="edge">
<title>User&#45;&gt;Audited::Audit</title>
<path fill="none" stroke="#d6bb3e" d="M1283.4807,-91.4275C1279.9561,-89.9117 1276.4057,-88.4079 1273,-87 1235.5491,-71.5177 1226.8783,-65.4344 1188,-54 1152.0715,-43.4331 1111.1256,-34.8587 1077.774,-28.7324"/>
<ellipse fill="none" stroke="#d6bb3e" cx="1287.4206" cy="-93.1388" rx="4" ry="4"/>
<polygon fill="#d6bb3e" stroke="#d6bb3e" points="1077.5221,-28.687 1068.4808,-22.4818 1072.6017,-27.7986 1067.6812,-26.9102 1067.6812,-26.9102 1067.6812,-26.9102 1072.6017,-27.7986 1066.8817,-31.3386 1077.5221,-28.687 1077.5221,-28.687"/>
<text text-anchor="middle" x="1247.5" y="-57.8" font-family="Times,serif" font-size="14.00" fill="#000000">audits</text>
</g>
<!-- Provider -->
<g id="node9" class="node">
<title>Provider</title>
<ellipse fill="none" stroke="#000000" cx="1600" cy="-105" rx="40.8928" ry="18"/>
<text text-anchor="middle" x="1600" y="-101.3" font-family="Times,serif" font-size="14.00" fill="#000000">Provider</text>
</g>
<!-- Provider&#45;&gt;Audited::Audit -->
<g id="edge14" class="edge">
<title>Provider&#45;&gt;Audited::Audit</title>
<path fill="none" stroke="#386d8f" d="M1563.9345,-88.8063C1536.1224,-77.0756 1496.3854,-61.9367 1460,-54 1390.5777,-38.857 1193.1883,-27.0397 1085.0464,-21.4804"/>
<ellipse fill="none" stroke="#386d8f" cx="1567.7714" cy="-90.4448" rx="4" ry="4"/>
<polygon fill="#386d8f" stroke="#386d8f" points="1084.8541,-21.4707 1075.0959,-16.4678 1079.8605,-21.2163 1074.867,-20.962 1074.867,-20.962 1074.867,-20.962 1079.8605,-21.2163 1074.6381,-25.4562 1084.8541,-21.4707 1084.8541,-21.4707"/>
<text text-anchor="middle" x="1527.5" y="-57.8" font-family="Times,serif" font-size="14.00" fill="#000000">audits</text>
</g>
<!-- Product&#45;&gt;Audited::Audit -->
<g id="edge15" class="edge">
<title>Product&#45;&gt;Audited::Audit</title>
<path fill="none" stroke="#cd8350" d="M974.7176,-79.9959C979.1004,-71.6489 984.1333,-62.3499 989,-54 990.8102,-50.8943 992.7594,-47.6741 994.73,-44.4941"/>
<ellipse fill="none" stroke="#cd8350" cx="972.7443" cy="-83.7906" rx="4" ry="4"/>
<polygon fill="#cd8350" stroke="#cd8350" points="994.9023,-44.2214 1004.0477,-38.1706 997.5728,-39.9943 1000.2433,-35.7671 1000.2433,-35.7671 1000.2433,-35.7671 997.5728,-39.9943 996.4388,-33.3637 994.9023,-44.2214 994.9023,-44.2214"/>
<text text-anchor="middle" x="1005.5" y="-57.8" font-family="Times,serif" font-size="14.00" fill="#000000">audits</text>
</g>
<!-- Employee -->
<g id="node11" class="node">
<title>Employee</title>
<ellipse fill="none" stroke="#000000" cx="1377" cy="-199" rx="46.5926" ry="18"/>
<text text-anchor="middle" x="1377" y="-195.3" font-family="Times,serif" font-size="14.00" fill="#000000">Employee</text>
</g>
<!-- Employee&#45;&gt;User -->
<g id="edge16" class="edge">
<title>Employee&#45;&gt;User</title>
<path fill="none" stroke="#517032" d="M1360.5977,-174.5267C1351.104,-160.3616 1339.214,-142.6208 1329.8208,-128.6056"/>
<ellipse fill="none" stroke="#517032" cx="1362.9232" cy="-177.9966" rx="4" ry="4"/>
<ellipse fill="#517032" stroke="#517032" cx="1327.3892" cy="-124.9775" rx="4" ry="4"/>
</g>
<!-- Employee&#45;&gt;Audited::Audit -->
<g id="edge17" class="edge">
<title>Employee&#45;&gt;Audited::Audit</title>
<path fill="none" stroke="#9cf95a" d="M1392.5506,-174.3494C1400.6922,-159.9725 1409.8179,-141.1443 1414,-123 1421.2603,-91.5004 1418.9167,-70.2971 1391,-54 1365.2785,-38.9844 1187.8896,-27.2667 1085.1605,-21.6467"/>
<ellipse fill="none" stroke="#9cf95a" cx="1390.431" cy="-177.9802" rx="4" ry="4"/>
<polygon fill="#9cf95a" stroke="#9cf95a" points="1085.1401,-21.6457 1075.3977,-16.6123 1080.1474,-21.3757 1075.1547,-21.1057 1075.1547,-21.1057 1075.1547,-21.1057 1080.1474,-21.3757 1074.9117,-25.5991 1085.1401,-21.6457 1085.1401,-21.6457"/>
<text text-anchor="middle" x="1464.5" y="-101.3" font-family="Times,serif" font-size="14.00" fill="#000000">associated_audits</text>
</g>
<!-- Employee&#45;&gt;Audited::Audit -->
<g id="edge18" class="edge">
<title>Employee&#45;&gt;Audited::Audit</title>
<path fill="none" stroke="#3d0827" d="M1377.2281,-172.5758C1376.0609,-147.7109 1370.5828,-110.8319 1350,-87 1316.0756,-47.7203 1173.1569,-30.0001 1084.3794,-22.6512"/>
<ellipse fill="none" stroke="#3d0827" cx="1377.3573" cy="-176.8305" rx="4" ry="4"/>
<polygon fill="#3d0827" stroke="#3d0827" points="1084.3336,-22.6477 1074.7259,-17.3616 1079.3496,-22.2474 1074.3656,-21.8471 1074.3656,-21.8471 1074.3656,-21.8471 1079.3496,-22.2474 1074.0054,-26.3327 1084.3336,-22.6477 1084.3336,-22.6477"/>
<text text-anchor="middle" x="1384.5" y="-101.3" font-family="Times,serif" font-size="14.00" fill="#000000">audits</text>
</g>
<!-- ApplicationRecord -->
<g id="node12" class="node">
<title>ApplicationRecord</title>
<ellipse fill="none" stroke="#000000" cx="1519" cy="-199" rx="77.1866" ry="18"/>
<text text-anchor="middle" x="1519" y="-195.3" font-family="Times,serif" font-size="14.00" fill="#000000">ApplicationRecord</text>
</g>
<!-- SaleDetail&#45;&gt;Audited::Audit -->
<g id="edge19" class="edge">
<title>SaleDetail&#45;&gt;Audited::Audit</title>
<path fill="none" stroke="#199567" d="M740.1187,-79.8074C746.0006,-70.2222 753.9875,-60.1407 764,-54 792.5883,-36.4667 876.6848,-26.9951 939.0656,-22.2342"/>
<ellipse fill="none" stroke="#199567" cx="738.0151" cy="-83.4931" rx="4" ry="4"/>
<polygon fill="#199567" stroke="#199567" points="939.2957,-22.2174 949.5994,-25.9702 944.2822,-21.8498 949.2686,-21.4823 949.2686,-21.4823 949.2686,-21.4823 944.2822,-21.8498 948.9379,-16.9945 939.2957,-22.2174 939.2957,-22.2174"/>
<text text-anchor="middle" x="780.5" y="-57.8" font-family="Times,serif" font-size="14.00" fill="#000000">audits</text>
</g>
</g>
</svg>
