<?xml version="1.0" encoding="UTF-8" standalone="no"?>
<!DOCTYPE svg PUBLIC "-//W3C//DTD SVG 1.1//EN"
 "http://www.w3.org/Graphics/SVG/1.1/DTD/svg11.dtd">
<!-- Generated by graphviz version 2.40.1 (20161225.0304)
 -->
<!-- Title: models_diagram Pages: 1 -->
<svg width="2164pt" height="736pt"
 viewBox="0.00 0.00 2164.00 736.00" xmlns="http://www.w3.org/2000/svg" xmlns:xlink="http://www.w3.org/1999/xlink">
<g id="graph0" class="graph" transform="scale(1 1) rotate(0) translate(4 732)">
<title>models_diagram</title>
<polygon fill="transparent" stroke="transparent" points="-4,4 -4,-732 2160,-732 2160,4 -4,4"/>
<!-- _diagram_info -->
<g id="node1" class="node">
<title>_diagram_info</title>
<text text-anchor="start" x="8" y="-646.6" font-family="Times,serif" font-size="13.00" fill="#000000">Models diagram</text>
<text text-anchor="start" x="8" y="-632.6" font-family="Times,serif" font-size="13.00" fill="#000000">Date: Feb 05 2019 &#45; 21:19</text>
<text text-anchor="start" x="8" y="-618.6" font-family="Times,serif" font-size="13.00" fill="#000000">Migration version: 20190205120100</text>
<text text-anchor="start" x="8" y="-604.6" font-family="Times,serif" font-size="13.00" fill="#000000">Generated by RailRoady 1.5.3</text>
<text text-anchor="start" x="8" y="-590.6" font-family="Times,serif" font-size="13.00" fill="#000000">http://railroady.prestonlee.com</text>
</g>
<!-- Notification -->
<g id="node2" class="node">
<title>Notification</title>
<path fill="none" stroke="#000000" d="M244,-539C244,-539 404,-539 404,-539 410,-539 416,-545 416,-551 416,-551 416,-693 416,-693 416,-699 410,-705 404,-705 404,-705 244,-705 244,-705 238,-705 232,-699 232,-693 232,-693 232,-551 232,-551 232,-545 238,-539 244,-539"/>
<text text-anchor="middle" x="324" y="-689.8" font-family="Times,serif" font-size="14.00" fill="#000000">Notification</text>
<polyline fill="none" stroke="#000000" points="232,-682 416,-682 "/>
<text text-anchor="start" x="240" y="-666.8" font-family="Times,serif" font-size="14.00" fill="#000000">id :bigint(20)</text>
<text text-anchor="start" x="240" y="-651.8" font-family="Times,serif" font-size="14.00" fill="#000000">message :varchar(255)</text>
<text text-anchor="start" x="240" y="-636.8" font-family="Times,serif" font-size="14.00" fill="#000000">path :varchar(255)</text>
<text text-anchor="start" x="240" y="-621.8" font-family="Times,serif" font-size="14.00" fill="#000000">authorized_roles :varchar(255)</text>
<text text-anchor="start" x="240" y="-606.8" font-family="Times,serif" font-size="14.00" fill="#000000">read_by :text</text>
<text text-anchor="start" x="240" y="-591.8" font-family="Times,serif" font-size="14.00" fill="#000000">state :tinyint(1)</text>
<text text-anchor="start" x="240" y="-576.8" font-family="Times,serif" font-size="14.00" fill="#000000">slug :varchar(255)</text>
<text text-anchor="start" x="240" y="-561.8" font-family="Times,serif" font-size="14.00" fill="#000000">created_at :datetime</text>
<text text-anchor="start" x="240" y="-546.8" font-family="Times,serif" font-size="14.00" fill="#000000">updated_at :datetime</text>
</g>
<!-- Purchase -->
<g id="node3" class="node">
<title>Purchase</title>
<path fill="none" stroke="#000000" d="M446.5,-516.5C446.5,-516.5 601.5,-516.5 601.5,-516.5 607.5,-516.5 613.5,-522.5 613.5,-528.5 613.5,-528.5 613.5,-715.5 613.5,-715.5 613.5,-721.5 607.5,-727.5 601.5,-727.5 601.5,-727.5 446.5,-727.5 446.5,-727.5 440.5,-727.5 434.5,-721.5 434.5,-715.5 434.5,-715.5 434.5,-528.5 434.5,-528.5 434.5,-522.5 440.5,-516.5 446.5,-516.5"/>
<text text-anchor="middle" x="524" y="-712.3" font-family="Times,serif" font-size="14.00" fill="#000000">Purchase</text>
<polyline fill="none" stroke="#000000" points="434.5,-704.5 613.5,-704.5 "/>
<text text-anchor="start" x="442.5" y="-689.3" font-family="Times,serif" font-size="14.00" fill="#000000">id :bigint(20)</text>
<text text-anchor="start" x="442.5" y="-674.3" font-family="Times,serif" font-size="14.00" fill="#000000">purchase_datetime :datetime</text>
<text text-anchor="start" x="442.5" y="-659.3" font-family="Times,serif" font-size="14.00" fill="#000000">receipt_number :varchar(255)</text>
<text text-anchor="start" x="442.5" y="-644.3" font-family="Times,serif" font-size="14.00" fill="#000000">status :varchar(255)</text>
<text text-anchor="start" x="442.5" y="-629.3" font-family="Times,serif" font-size="14.00" fill="#000000">discount :decimal(8,2)</text>
<text text-anchor="start" x="442.5" y="-614.3" font-family="Times,serif" font-size="14.00" fill="#000000">observations :varchar(255)</text>
<text text-anchor="start" x="442.5" y="-599.3" font-family="Times,serif" font-size="14.00" fill="#000000">state :tinyint(1)</text>
<text text-anchor="start" x="442.5" y="-584.3" font-family="Times,serif" font-size="14.00" fill="#000000">slug :varchar(255)</text>
<text text-anchor="start" x="442.5" y="-569.3" font-family="Times,serif" font-size="14.00" fill="#000000">created_at :datetime</text>
<text text-anchor="start" x="442.5" y="-554.3" font-family="Times,serif" font-size="14.00" fill="#000000">updated_at :datetime</text>
<text text-anchor="start" x="442.5" y="-539.3" font-family="Times,serif" font-size="14.00" fill="#000000">provider_id :bigint(20)</text>
<text text-anchor="start" x="442.5" y="-524.3" font-family="Times,serif" font-size="14.00" fill="#000000">employee_id :bigint(20)</text>
</g>
<!-- PurchaseDetail -->
<g id="node4" class="node">
<title>PurchaseDetail</title>
<path fill="none" stroke="#000000" d="M464.5,-185C464.5,-185 583.5,-185 583.5,-185 589.5,-185 595.5,-191 595.5,-197 595.5,-197 595.5,-369 595.5,-369 595.5,-375 589.5,-381 583.5,-381 583.5,-381 464.5,-381 464.5,-381 458.5,-381 452.5,-375 452.5,-369 452.5,-369 452.5,-197 452.5,-197 452.5,-191 458.5,-185 464.5,-185"/>
<text text-anchor="middle" x="524" y="-365.8" font-family="Times,serif" font-size="14.00" fill="#000000">PurchaseDetail</text>
<polyline fill="none" stroke="#000000" points="452.5,-358 595.5,-358 "/>
<text text-anchor="start" x="460.5" y="-342.8" font-family="Times,serif" font-size="14.00" fill="#000000">id :bigint(20)</text>
<text text-anchor="start" x="460.5" y="-327.8" font-family="Times,serif" font-size="14.00" fill="#000000">price :decimal(8,2)</text>
<text text-anchor="start" x="460.5" y="-312.8" font-family="Times,serif" font-size="14.00" fill="#000000">quantity :int(11)</text>
<text text-anchor="start" x="460.5" y="-297.8" font-family="Times,serif" font-size="14.00" fill="#000000">stock :int(11)</text>
<text text-anchor="start" x="460.5" y="-282.8" font-family="Times,serif" font-size="14.00" fill="#000000">status :varchar(255)</text>
<text text-anchor="start" x="460.5" y="-267.8" font-family="Times,serif" font-size="14.00" fill="#000000">state :tinyint(1)</text>
<text text-anchor="start" x="460.5" y="-252.8" font-family="Times,serif" font-size="14.00" fill="#000000">slug :varchar(255)</text>
<text text-anchor="start" x="460.5" y="-237.8" font-family="Times,serif" font-size="14.00" fill="#000000">created_at :datetime</text>
<text text-anchor="start" x="460.5" y="-222.8" font-family="Times,serif" font-size="14.00" fill="#000000">updated_at :datetime</text>
<text text-anchor="start" x="460.5" y="-207.8" font-family="Times,serif" font-size="14.00" fill="#000000">purchase_id :bigint(20)</text>
<text text-anchor="start" x="460.5" y="-192.8" font-family="Times,serif" font-size="14.00" fill="#000000">product_id :bigint(20)</text>
</g>
<!-- Purchase&#45;&gt;PurchaseDetail -->
<g id="edge1" class="edge">
<title>Purchase&#45;&gt;PurchaseDetail</title>
<path fill="none" stroke="#87aa0e" d="M524,-507.9742C524,-470.3734 524,-428.6791 524,-391.5023"/>
<ellipse fill="none" stroke="#87aa0e" cx="524" cy="-512.1327" rx="4" ry="4"/>
<polygon fill="#87aa0e" stroke="#87aa0e" points="524.0001,-391.1435 528.5,-381.1435 524,-386.1435 524,-381.1435 524,-381.1435 524,-381.1435 524,-386.1435 519.5,-381.1436 524.0001,-391.1435 524.0001,-391.1435"/>
</g>
<!-- Audited::Audit -->
<g id="node14" class="node">
<title>Audited::Audit</title>
<ellipse fill="none" stroke="#000000" cx="1304" cy="-18" rx="63.8893" ry="18"/>
<text text-anchor="middle" x="1304" y="-14.3" font-family="Times,serif" font-size="14.00" fill="#000000">Audited::Audit</text>
</g>
<!-- Purchase&#45;&gt;Audited::Audit -->
<g id="edge2" class="edge">
<title>Purchase&#45;&gt;Audited::Audit</title>
<path fill="none" stroke="#3ca0f8" d="M592.6887,-508.8733C597.0219,-498.9852 600.885,-488.9516 604,-479 630.1437,-395.4766 583.1979,-151.8226 642,-87 680.9731,-44.0366 1066.0834,-26.0206 1230.3622,-20.2484"/>
<ellipse fill="none" stroke="#3ca0f8" cx="590.9346" cy="-512.7573" rx="4" ry="4"/>
<polygon fill="#3ca0f8" stroke="#3ca0f8" points="1230.3912,-20.2475 1240.5408,-24.3991 1235.3882,-20.0747 1240.3852,-19.9018 1240.3852,-19.9018 1240.3852,-19.9018 1235.3882,-20.0747 1240.2297,-15.4045 1230.3912,-20.2475 1230.3912,-20.2475"/>
<text text-anchor="middle" x="689.5" y="-279.3" font-family="Times,serif" font-size="14.00" fill="#000000">associated_audits</text>
</g>
<!-- Purchase&#45;&gt;Audited::Audit -->
<g id="edge3" class="edge">
<title>Purchase&#45;&gt;Audited::Audit</title>
<path fill="none" stroke="#42ba34" d="M430.1045,-520.0727C421.9657,-506.972 414.9549,-493.1639 410,-479 352.4716,-314.5498 300.119,-222.2019 410,-87 455.2445,-31.3294 496.8438,-63.1138 568,-54 694.4182,-37.8082 1069.9055,-25.013 1230.1682,-20.1359"/>
<ellipse fill="none" stroke="#42ba34" cx="432.2981" cy="-523.4909" rx="4" ry="4"/>
<polygon fill="#42ba34" stroke="#42ba34" points="1230.4128,-20.1286 1240.5443,-24.3241 1235.4105,-19.9773 1240.4082,-19.8261 1240.4082,-19.8261 1240.4082,-19.8261 1235.4105,-19.9773 1240.2721,-15.3282 1230.4128,-20.1286 1230.4128,-20.1286"/>
<text text-anchor="middle" x="426.5" y="-279.3" font-family="Times,serif" font-size="14.00" fill="#000000">audits</text>
</g>
<!-- PurchaseDetail&#45;&gt;Audited::Audit -->
<g id="edge4" class="edge">
<title>PurchaseDetail&#45;&gt;Audited::Audit</title>
<path fill="none" stroke="#95bb1d" d="M525.8425,-176.9151C532.4771,-132.0634 548.5651,-83.4784 585,-54 609.7815,-33.95 1051.8068,-22.9917 1230.2238,-19.3693"/>
<ellipse fill="none" stroke="#95bb1d" cx="525.2877" cy="-180.9853" rx="4" ry="4"/>
<polygon fill="#95bb1d" stroke="#95bb1d" points="1230.3134,-19.3675 1240.4018,-23.6657 1235.3124,-19.2671 1240.3114,-19.1666 1240.3114,-19.1666 1240.3114,-19.1666 1235.3124,-19.2671 1240.2209,-14.6675 1230.3134,-19.3675 1230.3134,-19.3675"/>
<text text-anchor="middle" x="601.5" y="-57.8" font-family="Times,serif" font-size="14.00" fill="#000000">audits</text>
</g>
<!-- Sale -->
<g id="node5" class="node">
<title>Sale</title>
<path fill="none" stroke="#000000" d="M807,-516.5C807,-516.5 959,-516.5 959,-516.5 965,-516.5 971,-522.5 971,-528.5 971,-528.5 971,-715.5 971,-715.5 971,-721.5 965,-727.5 959,-727.5 959,-727.5 807,-727.5 807,-727.5 801,-727.5 795,-721.5 795,-715.5 795,-715.5 795,-528.5 795,-528.5 795,-522.5 801,-516.5 807,-516.5"/>
<text text-anchor="middle" x="883" y="-712.3" font-family="Times,serif" font-size="14.00" fill="#000000">Sale</text>
<polyline fill="none" stroke="#000000" points="795,-704.5 971,-704.5 "/>
<text text-anchor="start" x="803" y="-689.3" font-family="Times,serif" font-size="14.00" fill="#000000">id :bigint(20)</text>
<text text-anchor="start" x="803" y="-674.3" font-family="Times,serif" font-size="14.00" fill="#000000">sale_datetime :datetime</text>
<text text-anchor="start" x="803" y="-659.3" font-family="Times,serif" font-size="14.00" fill="#000000">status :varchar(255)</text>
<text text-anchor="start" x="803" y="-644.3" font-family="Times,serif" font-size="14.00" fill="#000000">delivery_status :varchar(255)</text>
<text text-anchor="start" x="803" y="-629.3" font-family="Times,serif" font-size="14.00" fill="#000000">discount :decimal(8,2)</text>
<text text-anchor="start" x="803" y="-614.3" font-family="Times,serif" font-size="14.00" fill="#000000">observations :varchar(255)</text>
<text text-anchor="start" x="803" y="-599.3" font-family="Times,serif" font-size="14.00" fill="#000000">state :tinyint(1)</text>
<text text-anchor="start" x="803" y="-584.3" font-family="Times,serif" font-size="14.00" fill="#000000">slug :varchar(255)</text>
<text text-anchor="start" x="803" y="-569.3" font-family="Times,serif" font-size="14.00" fill="#000000">created_at :datetime</text>
<text text-anchor="start" x="803" y="-554.3" font-family="Times,serif" font-size="14.00" fill="#000000">updated_at :datetime</text>
<text text-anchor="start" x="803" y="-539.3" font-family="Times,serif" font-size="14.00" fill="#000000">customer_id :bigint(20)</text>
<text text-anchor="start" x="803" y="-524.3" font-family="Times,serif" font-size="14.00" fill="#000000">user_id :bigint(20)</text>
</g>
<!-- SaleDetail -->
<g id="node13" class="node">
<title>SaleDetail</title>
<path fill="none" stroke="#000000" d="M826.5,-192.5C826.5,-192.5 939.5,-192.5 939.5,-192.5 945.5,-192.5 951.5,-198.5 951.5,-204.5 951.5,-204.5 951.5,-361.5 951.5,-361.5 951.5,-367.5 945.5,-373.5 939.5,-373.5 939.5,-373.5 826.5,-373.5 826.5,-373.5 820.5,-373.5 814.5,-367.5 814.5,-361.5 814.5,-361.5 814.5,-204.5 814.5,-204.5 814.5,-198.5 820.5,-192.5 826.5,-192.5"/>
<text text-anchor="middle" x="883" y="-358.3" font-family="Times,serif" font-size="14.00" fill="#000000">SaleDetail</text>
<polyline fill="none" stroke="#000000" points="814.5,-350.5 951.5,-350.5 "/>
<text text-anchor="start" x="822.5" y="-335.3" font-family="Times,serif" font-size="14.00" fill="#000000">id :bigint(20)</text>
<text text-anchor="start" x="822.5" y="-320.3" font-family="Times,serif" font-size="14.00" fill="#000000">price :decimal(8,2)</text>
<text text-anchor="start" x="822.5" y="-305.3" font-family="Times,serif" font-size="14.00" fill="#000000">quantity :int(11)</text>
<text text-anchor="start" x="822.5" y="-290.3" font-family="Times,serif" font-size="14.00" fill="#000000">status :varchar(255)</text>
<text text-anchor="start" x="822.5" y="-275.3" font-family="Times,serif" font-size="14.00" fill="#000000">state :tinyint(1)</text>
<text text-anchor="start" x="822.5" y="-260.3" font-family="Times,serif" font-size="14.00" fill="#000000">slug :varchar(255)</text>
<text text-anchor="start" x="822.5" y="-245.3" font-family="Times,serif" font-size="14.00" fill="#000000">created_at :datetime</text>
<text text-anchor="start" x="822.5" y="-230.3" font-family="Times,serif" font-size="14.00" fill="#000000">updated_at :datetime</text>
<text text-anchor="start" x="822.5" y="-215.3" font-family="Times,serif" font-size="14.00" fill="#000000">sale_id :bigint(20)</text>
<text text-anchor="start" x="822.5" y="-200.3" font-family="Times,serif" font-size="14.00" fill="#000000">product_id :bigint(20)</text>
</g>
<!-- Sale&#45;&gt;SaleDetail -->
<g id="edge5" class="edge">
<title>Sale&#45;&gt;SaleDetail</title>
<path fill="none" stroke="#034b01" d="M883,-508.0194C883,-467.7982 883,-422.8883 883,-383.8322"/>
<ellipse fill="none" stroke="#034b01" cx="883" cy="-512.1327" rx="4" ry="4"/>
<polygon fill="#034b01" stroke="#034b01" points="883.0001,-383.5096 887.5,-373.5095 883,-378.5096 883,-373.5096 883,-373.5096 883,-373.5096 883,-378.5096 878.5,-373.5096 883.0001,-383.5096 883.0001,-383.5096"/>
</g>
<!-- Sale&#45;&gt;Audited::Audit -->
<g id="edge6" class="edge">
<title>Sale&#45;&gt;Audited::Audit</title>
<path fill="none" stroke="#e0c04f" d="M949.1189,-508.7427C953.2883,-498.8836 957.0046,-488.8923 960,-479 985.3576,-395.2567 939.1793,-152.6713 997,-87 1027.5944,-52.2517 1152.2611,-33.2689 1233.0152,-24.4079"/>
<ellipse fill="none" stroke="#e0c04f" cx="947.4446" cy="-512.5854" rx="4" ry="4"/>
<polygon fill="#e0c04f" stroke="#e0c04f" points="1233.1817,-24.3901 1243.6038,-27.8005 1238.1533,-23.8581 1243.1249,-23.326 1243.1249,-23.326 1243.1249,-23.326 1238.1533,-23.8581 1242.6461,-18.8516 1233.1817,-24.3901 1233.1817,-24.3901"/>
<text text-anchor="middle" x="1044.5" y="-279.3" font-family="Times,serif" font-size="14.00" fill="#000000">associated_audits</text>
</g>
<!-- Sale&#45;&gt;Audited::Audit -->
<g id="edge7" class="edge">
<title>Sale&#45;&gt;Audited::Audit</title>
<path fill="none" stroke="#f03166" d="M790.4942,-518.0866C783.0251,-505.5553 776.5976,-492.4211 772,-479 743.7692,-396.5902 717.3265,-154.8171 772,-87 800.3887,-51.7866 1092.0398,-30.283 1231.0568,-21.9593"/>
<ellipse fill="none" stroke="#f03166" cx="792.6469" cy="-521.5792" rx="4" ry="4"/>
<polygon fill="#f03166" stroke="#f03166" points="1231.2177,-21.9499 1241.4661,-25.8513 1236.209,-21.6546 1241.2003,-21.3592 1241.2003,-21.3592 1241.2003,-21.3592 1236.209,-21.6546 1240.9344,-16.867 1231.2177,-21.9499 1231.2177,-21.9499"/>
<text text-anchor="middle" x="788.5" y="-279.3" font-family="Times,serif" font-size="14.00" fill="#000000">audits</text>
</g>
<!-- Category -->
<g id="node6" class="node">
<title>Category</title>
<path fill="none" stroke="#000000" d="M1173.5,-539C1173.5,-539 1350.5,-539 1350.5,-539 1356.5,-539 1362.5,-545 1362.5,-551 1362.5,-551 1362.5,-693 1362.5,-693 1362.5,-699 1356.5,-705 1350.5,-705 1350.5,-705 1173.5,-705 1173.5,-705 1167.5,-705 1161.5,-699 1161.5,-693 1161.5,-693 1161.5,-551 1161.5,-551 1161.5,-545 1167.5,-539 1173.5,-539"/>
<text text-anchor="middle" x="1262" y="-689.8" font-family="Times,serif" font-size="14.00" fill="#000000">Category</text>
<polyline fill="none" stroke="#000000" points="1161.5,-682 1362.5,-682 "/>
<text text-anchor="start" x="1169.5" y="-666.8" font-family="Times,serif" font-size="14.00" fill="#000000">id :bigint(20)</text>
<text text-anchor="start" x="1169.5" y="-651.8" font-family="Times,serif" font-size="14.00" fill="#000000">name :varchar(255)</text>
<text text-anchor="start" x="1169.5" y="-636.8" font-family="Times,serif" font-size="14.00" fill="#000000">name_spanish :varchar(255)</text>
<text text-anchor="start" x="1169.5" y="-621.8" font-family="Times,serif" font-size="14.00" fill="#000000">description :varchar(255)</text>
<text text-anchor="start" x="1169.5" y="-606.8" font-family="Times,serif" font-size="14.00" fill="#000000">description_spanish :varchar(255)</text>
<text text-anchor="start" x="1169.5" y="-591.8" font-family="Times,serif" font-size="14.00" fill="#000000">state :tinyint(1)</text>
<text text-anchor="start" x="1169.5" y="-576.8" font-family="Times,serif" font-size="14.00" fill="#000000">slug :varchar(255)</text>
<text text-anchor="start" x="1169.5" y="-561.8" font-family="Times,serif" font-size="14.00" fill="#000000">created_at :datetime</text>
<text text-anchor="start" x="1169.5" y="-546.8" font-family="Times,serif" font-size="14.00" fill="#000000">updated_at :datetime</text>
</g>
<!-- Product -->
<g id="node10" class="node">
<title>Product</title>
<path fill="none" stroke="#000000" d="M1113.5,-147.5C1113.5,-147.5 1290.5,-147.5 1290.5,-147.5 1296.5,-147.5 1302.5,-153.5 1302.5,-159.5 1302.5,-159.5 1302.5,-406.5 1302.5,-406.5 1302.5,-412.5 1296.5,-418.5 1290.5,-418.5 1290.5,-418.5 1113.5,-418.5 1113.5,-418.5 1107.5,-418.5 1101.5,-412.5 1101.5,-406.5 1101.5,-406.5 1101.5,-159.5 1101.5,-159.5 1101.5,-153.5 1107.5,-147.5 1113.5,-147.5"/>
<text text-anchor="middle" x="1202" y="-403.3" font-family="Times,serif" font-size="14.00" fill="#000000">Product</text>
<polyline fill="none" stroke="#000000" points="1101.5,-395.5 1302.5,-395.5 "/>
<text text-anchor="start" x="1109.5" y="-380.3" font-family="Times,serif" font-size="14.00" fill="#000000">id :bigint(20)</text>
<text text-anchor="start" x="1109.5" y="-365.3" font-family="Times,serif" font-size="14.00" fill="#000000">name :varchar(255)</text>
<text text-anchor="start" x="1109.5" y="-350.3" font-family="Times,serif" font-size="14.00" fill="#000000">name_spanish :varchar(255)</text>
<text text-anchor="start" x="1109.5" y="-335.3" font-family="Times,serif" font-size="14.00" fill="#000000">barcode :varchar(255)</text>
<text text-anchor="start" x="1109.5" y="-320.3" font-family="Times,serif" font-size="14.00" fill="#000000">price :decimal(8,2)</text>
<text text-anchor="start" x="1109.5" y="-305.3" font-family="Times,serif" font-size="14.00" fill="#000000">content :varchar(255)</text>
<text text-anchor="start" x="1109.5" y="-290.3" font-family="Times,serif" font-size="14.00" fill="#000000">content_spanish :varchar(255)</text>
<text text-anchor="start" x="1109.5" y="-275.3" font-family="Times,serif" font-size="14.00" fill="#000000">description :varchar(255)</text>
<text text-anchor="start" x="1109.5" y="-260.3" font-family="Times,serif" font-size="14.00" fill="#000000">description_spanish :varchar(255)</text>
<text text-anchor="start" x="1109.5" y="-245.3" font-family="Times,serif" font-size="14.00" fill="#000000">recipes :varchar(255)</text>
<text text-anchor="start" x="1109.5" y="-230.3" font-family="Times,serif" font-size="14.00" fill="#000000">recipes_spanish :varchar(255)</text>
<text text-anchor="start" x="1109.5" y="-215.3" font-family="Times,serif" font-size="14.00" fill="#000000">state :tinyint(1)</text>
<text text-anchor="start" x="1109.5" y="-200.3" font-family="Times,serif" font-size="14.00" fill="#000000">slug :varchar(255)</text>
<text text-anchor="start" x="1109.5" y="-185.3" font-family="Times,serif" font-size="14.00" fill="#000000">created_at :datetime</text>
<text text-anchor="start" x="1109.5" y="-170.3" font-family="Times,serif" font-size="14.00" fill="#000000">updated_at :datetime</text>
<text text-anchor="start" x="1109.5" y="-155.3" font-family="Times,serif" font-size="14.00" fill="#000000">category_id :bigint(20)</text>
</g>
<!-- Category&#45;&gt;Product -->
<g id="edge8" class="edge">
<title>Category&#45;&gt;Product</title>
<path fill="none" stroke="#a888e1" d="M1245.8,-530.4698C1240.2561,-499.1468 1233.9083,-463.2817 1227.7977,-428.7572"/>
<ellipse fill="none" stroke="#a888e1" cx="1246.5483" cy="-534.6983" rx="4" ry="4"/>
<polygon fill="#a888e1" stroke="#a888e1" points="1227.739,-428.425 1230.4272,-417.7937 1226.8676,-423.5015 1225.9961,-418.578 1225.9961,-418.578 1225.9961,-418.578 1226.8676,-423.5015 1221.565,-419.3623 1227.739,-428.425 1227.739,-428.425"/>
</g>
<!-- Category&#45;&gt;Audited::Audit -->
<g id="edge9" class="edge">
<title>Category&#45;&gt;Audited::Audit</title>
<path fill="none" stroke="#049f65" d="M1297.6416,-531.0251C1303.0372,-513.9728 1307.8467,-496.1219 1311,-479 1344.0234,-299.6871 1321.8884,-251.3019 1325,-69 1325.1138,-62.3343 1326.7399,-60.4356 1325,-54 1324.1768,-50.955 1323.025,-47.9032 1321.6804,-44.9351"/>
<ellipse fill="none" stroke="#049f65" cx="1296.3571" cy="-534.9927" rx="4" ry="4"/>
<polygon fill="#049f65" stroke="#049f65" points="1321.5555,-44.6978 1320.876,-33.753 1319.225,-40.2741 1316.8946,-35.8504 1316.8946,-35.8504 1316.8946,-35.8504 1319.225,-40.2741 1312.9133,-37.9478 1321.5555,-44.6978 1321.5555,-44.6978"/>
<text text-anchor="middle" x="1346.5" y="-279.3" font-family="Times,serif" font-size="14.00" fill="#000000">audits</text>
</g>
<!-- Customer -->
<g id="node7" class="node">
<title>Customer</title>
<path fill="none" stroke="#000000" d="M1413,-516.5C1413,-516.5 1541,-516.5 1541,-516.5 1547,-516.5 1553,-522.5 1553,-528.5 1553,-528.5 1553,-715.5 1553,-715.5 1553,-721.5 1547,-727.5 1541,-727.5 1541,-727.5 1413,-727.5 1413,-727.5 1407,-727.5 1401,-721.5 1401,-715.5 1401,-715.5 1401,-528.5 1401,-528.5 1401,-522.5 1407,-516.5 1413,-516.5"/>
<text text-anchor="middle" x="1477" y="-712.3" font-family="Times,serif" font-size="14.00" fill="#000000">Customer</text>
<polyline fill="none" stroke="#000000" points="1401,-704.5 1553,-704.5 "/>
<text text-anchor="start" x="1409" y="-689.3" font-family="Times,serif" font-size="14.00" fill="#000000">id :bigint(20)</text>
<text text-anchor="start" x="1409" y="-674.3" font-family="Times,serif" font-size="14.00" fill="#000000">first_name :varchar(255)</text>
<text text-anchor="start" x="1409" y="-659.3" font-family="Times,serif" font-size="14.00" fill="#000000">last_name :varchar(255)</text>
<text text-anchor="start" x="1409" y="-644.3" font-family="Times,serif" font-size="14.00" fill="#000000">company :varchar(255)</text>
<text text-anchor="start" x="1409" y="-629.3" font-family="Times,serif" font-size="14.00" fill="#000000">email :varchar(255)</text>
<text text-anchor="start" x="1409" y="-614.3" font-family="Times,serif" font-size="14.00" fill="#000000">phone :varchar(14)</text>
<text text-anchor="start" x="1409" y="-599.3" font-family="Times,serif" font-size="14.00" fill="#000000">zipcode :varchar(5)</text>
<text text-anchor="start" x="1409" y="-584.3" font-family="Times,serif" font-size="14.00" fill="#000000">address :varchar(255)</text>
<text text-anchor="start" x="1409" y="-569.3" font-family="Times,serif" font-size="14.00" fill="#000000">state :tinyint(1)</text>
<text text-anchor="start" x="1409" y="-554.3" font-family="Times,serif" font-size="14.00" fill="#000000">slug :varchar(255)</text>
<text text-anchor="start" x="1409" y="-539.3" font-family="Times,serif" font-size="14.00" fill="#000000">created_at :datetime</text>
<text text-anchor="start" x="1409" y="-524.3" font-family="Times,serif" font-size="14.00" fill="#000000">updated_at :datetime</text>
</g>
<!-- User -->
<g id="node8" class="node">
<title>User</title>
<path fill="none" stroke="#000000" d="M1602,-87.5C1602,-87.5 1792,-87.5 1792,-87.5 1798,-87.5 1804,-93.5 1804,-99.5 1804,-99.5 1804,-466.5 1804,-466.5 1804,-472.5 1798,-478.5 1792,-478.5 1792,-478.5 1602,-478.5 1602,-478.5 1596,-478.5 1590,-472.5 1590,-466.5 1590,-466.5 1590,-99.5 1590,-99.5 1590,-93.5 1596,-87.5 1602,-87.5"/>
<text text-anchor="middle" x="1697" y="-463.3" font-family="Times,serif" font-size="14.00" fill="#000000">User</text>
<polyline fill="none" stroke="#000000" points="1590,-455.5 1804,-455.5 "/>
<text text-anchor="start" x="1598" y="-440.3" font-family="Times,serif" font-size="14.00" fill="#000000">id :bigint(20)</text>
<text text-anchor="start" x="1598" y="-425.3" font-family="Times,serif" font-size="14.00" fill="#000000">email :varchar(255)</text>
<text text-anchor="start" x="1598" y="-410.3" font-family="Times,serif" font-size="14.00" fill="#000000">slug :varchar(255)</text>
<text text-anchor="start" x="1598" y="-395.3" font-family="Times,serif" font-size="14.00" fill="#000000">password_digest :varchar(255)</text>
<text text-anchor="start" x="1598" y="-380.3" font-family="Times,serif" font-size="14.00" fill="#000000">reset_password_token :varchar(255)</text>
<text text-anchor="start" x="1598" y="-365.3" font-family="Times,serif" font-size="14.00" fill="#000000">reset_password_sent :tinyint(1)</text>
<text text-anchor="start" x="1598" y="-350.3" font-family="Times,serif" font-size="14.00" fill="#000000">reset_password_sent_at :datetime</text>
<text text-anchor="start" x="1598" y="-335.3" font-family="Times,serif" font-size="14.00" fill="#000000">sign_in_count :int(11)</text>
<text text-anchor="start" x="1598" y="-320.3" font-family="Times,serif" font-size="14.00" fill="#000000">current_sign_in_at :datetime</text>
<text text-anchor="start" x="1598" y="-305.3" font-family="Times,serif" font-size="14.00" fill="#000000">last_sign_in_at :datetime</text>
<text text-anchor="start" x="1598" y="-290.3" font-family="Times,serif" font-size="14.00" fill="#000000">current_sign_in_ip :varchar(255)</text>
<text text-anchor="start" x="1598" y="-275.3" font-family="Times,serif" font-size="14.00" fill="#000000">last_sign_in_ip :varchar(255)</text>
<text text-anchor="start" x="1598" y="-260.3" font-family="Times,serif" font-size="14.00" fill="#000000">confirmed :tinyint(1)</text>
<text text-anchor="start" x="1598" y="-245.3" font-family="Times,serif" font-size="14.00" fill="#000000">confirmation_token :varchar(255)</text>
<text text-anchor="start" x="1598" y="-230.3" font-family="Times,serif" font-size="14.00" fill="#000000">confirmation_sent :tinyint(1)</text>
<text text-anchor="start" x="1598" y="-215.3" font-family="Times,serif" font-size="14.00" fill="#000000">failed_attempts :int(11)</text>
<text text-anchor="start" x="1598" y="-200.3" font-family="Times,serif" font-size="14.00" fill="#000000">unlock_token :varchar(255)</text>
<text text-anchor="start" x="1598" y="-185.3" font-family="Times,serif" font-size="14.00" fill="#000000">unlock_sent :tinyint(1)</text>
<text text-anchor="start" x="1598" y="-170.3" font-family="Times,serif" font-size="14.00" fill="#000000">two_factor_auth :tinyint(1)</text>
<text text-anchor="start" x="1598" y="-155.3" font-family="Times,serif" font-size="14.00" fill="#000000">two_factor_auth_otp :varchar(255)</text>
<text text-anchor="start" x="1598" y="-140.3" font-family="Times,serif" font-size="14.00" fill="#000000">created_at :datetime</text>
<text text-anchor="start" x="1598" y="-125.3" font-family="Times,serif" font-size="14.00" fill="#000000">updated_at :datetime</text>
<text text-anchor="start" x="1598" y="-110.3" font-family="Times,serif" font-size="14.00" fill="#000000">employee_id :bigint(20)</text>
<text text-anchor="start" x="1598" y="-95.3" font-family="Times,serif" font-size="14.00" fill="#000000">customer_id :bigint(20)</text>
</g>
<!-- Customer&#45;&gt;User -->
<g id="edge10" class="edge">
<title>Customer&#45;&gt;User</title>
<path fill="none" stroke="#4860b0" d="M1555.7125,-509.481C1562.6425,-499.2214 1569.4912,-488.9495 1576,-479 1579.1607,-474.1685 1582.3497,-469.2585 1585.5539,-464.2944"/>
<ellipse fill="none" stroke="#4860b0" cx="1553.3928" cy="-512.906" rx="4" ry="4"/>
<ellipse fill="#4860b0" stroke="#4860b0" cx="1587.7663" cy="-460.8572" rx="4" ry="4"/>
</g>
<!-- Customer&#45;&gt;Audited::Audit -->
<g id="edge11" class="edge">
<title>Customer&#45;&gt;Audited::Audit</title>
<path fill="none" stroke="#ebef9e" d="M1477.384,-508.0344C1476.5787,-374.5021 1471.0286,-161.958 1445,-87 1439.1357,-70.1117 1436.4549,-64.5196 1422,-54 1406.5131,-42.7293 1387.4467,-34.9399 1369.1915,-29.5749"/>
<ellipse fill="none" stroke="#ebef9e" cx="1477.407" cy="-512.316" rx="4" ry="4"/>
<polygon fill="#ebef9e" stroke="#ebef9e" points="1369.0986,-29.5496 1360.6403,-22.5705 1364.2758,-28.2303 1359.453,-26.911 1359.453,-26.911 1359.453,-26.911 1364.2758,-28.2303 1358.2656,-31.2516 1369.0986,-29.5496 1369.0986,-29.5496"/>
<text text-anchor="middle" x="1525.5" y="-279.3" font-family="Times,serif" font-size="14.00" fill="#000000">associated_audits</text>
</g>
<!-- Customer&#45;&gt;Audited::Audit -->
<g id="edge12" class="edge">
<title>Customer&#45;&gt;Audited::Audit</title>
<path fill="none" stroke="#2c77ab" d="M1418.0456,-508.681C1414.2217,-498.8021 1410.7922,-488.8252 1408,-479 1360.1141,-310.4996 1434.4032,-248.6856 1367,-87 1359.8153,-69.7654 1346.3543,-54.0792 1333.7138,-42.0335"/>
<ellipse fill="none" stroke="#2c77ab" cx="1419.5635" cy="-512.4956" rx="4" ry="4"/>
<polygon fill="#2c77ab" stroke="#2c77ab" points="1333.4074,-41.7546 1329.0423,-31.6949 1329.7101,-38.3885 1326.0129,-35.0225 1326.0129,-35.0225 1326.0129,-35.0225 1329.7101,-38.3885 1322.9834,-38.35 1333.4074,-41.7546 1333.4074,-41.7546"/>
<text text-anchor="middle" x="1424.5" y="-279.3" font-family="Times,serif" font-size="14.00" fill="#000000">audits</text>
</g>
<!-- User&#45;&gt;Audited::Audit -->
<g id="edge13" class="edge">
<title>User&#45;&gt;Audited::Audit</title>
<path fill="none" stroke="#7dbb71" d="M1583.9134,-93.909C1581.318,-91.5357 1578.6801,-89.2302 1576,-87 1545.0362,-61.2344 1440.5777,-39.9645 1370.4948,-28.1333"/>
<ellipse fill="none" stroke="#7dbb71" cx="1586.9867" cy="-96.8169" rx="4" ry="4"/>
<polygon fill="#7dbb71" stroke="#7dbb71" points="1370.2814,-28.0979 1361.1555,-22.0178 1365.3492,-27.2774 1360.417,-26.4568 1360.417,-26.4568 1360.417,-26.4568 1365.3492,-27.2774 1359.6785,-30.8958 1370.2814,-28.0979 1370.2814,-28.0979"/>
<text text-anchor="middle" x="1558.5" y="-57.8" font-family="Times,serif" font-size="14.00" fill="#000000">audits</text>
</g>
<!-- Provider -->
<g id="node9" class="node">
<title>Provider</title>
<path fill="none" stroke="#000000" d="M2034,-192.5C2034,-192.5 2144,-192.5 2144,-192.5 2150,-192.5 2156,-198.5 2156,-204.5 2156,-204.5 2156,-361.5 2156,-361.5 2156,-367.5 2150,-373.5 2144,-373.5 2144,-373.5 2034,-373.5 2034,-373.5 2028,-373.5 2022,-367.5 2022,-361.5 2022,-361.5 2022,-204.5 2022,-204.5 2022,-198.5 2028,-192.5 2034,-192.5"/>
<text text-anchor="middle" x="2089" y="-358.3" font-family="Times,serif" font-size="14.00" fill="#000000">Provider</text>
<polyline fill="none" stroke="#000000" points="2022,-350.5 2156,-350.5 "/>
<text text-anchor="start" x="2030" y="-335.3" font-family="Times,serif" font-size="14.00" fill="#000000">id :bigint(20)</text>
<text text-anchor="start" x="2030" y="-320.3" font-family="Times,serif" font-size="14.00" fill="#000000">name :varchar(255)</text>
<text text-anchor="start" x="2030" y="-305.3" font-family="Times,serif" font-size="14.00" fill="#000000">FEIN :varchar(10)</text>
<text text-anchor="start" x="2030" y="-290.3" font-family="Times,serif" font-size="14.00" fill="#000000">email :varchar(255)</text>
<text text-anchor="start" x="2030" y="-275.3" font-family="Times,serif" font-size="14.00" fill="#000000">phone :varchar(14)</text>
<text text-anchor="start" x="2030" y="-260.3" font-family="Times,serif" font-size="14.00" fill="#000000">address :varchar(255)</text>
<text text-anchor="start" x="2030" y="-245.3" font-family="Times,serif" font-size="14.00" fill="#000000">state :tinyint(1)</text>
<text text-anchor="start" x="2030" y="-230.3" font-family="Times,serif" font-size="14.00" fill="#000000">slug :varchar(255)</text>
<text text-anchor="start" x="2030" y="-215.3" font-family="Times,serif" font-size="14.00" fill="#000000">created_at :datetime</text>
<text text-anchor="start" x="2030" y="-200.3" font-family="Times,serif" font-size="14.00" fill="#000000">updated_at :datetime</text>
</g>
<!-- Provider&#45;&gt;Audited::Audit -->
<g id="edge14" class="edge">
<title>Provider&#45;&gt;Audited::Audit</title>
<path fill="none" stroke="#b99f60" d="M2065.5649,-184.3368C2053.2467,-149.9089 2034.9104,-113.3362 2008,-87 1979.0372,-58.6552 1962.5988,-62.6145 1923,-54 1821.0869,-31.8292 1518.7994,-22.5959 1377.8704,-19.4172"/>
<ellipse fill="none" stroke="#b99f60" cx="2066.9477" cy="-188.3266" rx="4" ry="4"/>
<polygon fill="#b99f60" stroke="#b99f60" points="1377.5965,-19.4112 1367.6986,-14.6909 1372.5977,-19.3005 1367.5989,-19.1898 1367.5989,-19.1898 1367.5989,-19.1898 1372.5977,-19.3005 1367.4993,-23.6887 1377.5965,-19.4112 1377.5965,-19.4112"/>
<text text-anchor="middle" x="2000.5" y="-57.8" font-family="Times,serif" font-size="14.00" fill="#000000">audits</text>
</g>
<!-- Product&#45;&gt;Audited::Audit -->
<g id="edge15" class="edge">
<title>Product&#45;&gt;Audited::Audit</title>
<path fill="none" stroke="#165419" d="M1257.0739,-139.9159C1270.9738,-103.8033 1284.4676,-68.746 1293.3897,-45.566"/>
<ellipse fill="none" stroke="#165419" cx="1255.6321" cy="-143.6618" rx="4" ry="4"/>
<polygon fill="#165419" stroke="#165419" points="1293.4446,-45.4233 1301.2364,-37.7072 1295.2407,-40.757 1297.0368,-36.0907 1297.0368,-36.0907 1297.0368,-36.0907 1295.2407,-40.757 1292.8371,-34.4742 1293.4446,-45.4233 1293.4446,-45.4233"/>
<text text-anchor="middle" x="1306.5" y="-57.8" font-family="Times,serif" font-size="14.00" fill="#000000">audits</text>
</g>
<!-- Employee -->
<g id="node11" class="node">
<title>Employee</title>
<path fill="none" stroke="#000000" d="M1776,-531.5C1776,-531.5 1904,-531.5 1904,-531.5 1910,-531.5 1916,-537.5 1916,-543.5 1916,-543.5 1916,-700.5 1916,-700.5 1916,-706.5 1910,-712.5 1904,-712.5 1904,-712.5 1776,-712.5 1776,-712.5 1770,-712.5 1764,-706.5 1764,-700.5 1764,-700.5 1764,-543.5 1764,-543.5 1764,-537.5 1770,-531.5 1776,-531.5"/>
<text text-anchor="middle" x="1840" y="-697.3" font-family="Times,serif" font-size="14.00" fill="#000000">Employee</text>
<polyline fill="none" stroke="#000000" points="1764,-689.5 1916,-689.5 "/>
<text text-anchor="start" x="1772" y="-674.3" font-family="Times,serif" font-size="14.00" fill="#000000">id :bigint(20)</text>
<text text-anchor="start" x="1772" y="-659.3" font-family="Times,serif" font-size="14.00" fill="#000000">first_name :varchar(255)</text>
<text text-anchor="start" x="1772" y="-644.3" font-family="Times,serif" font-size="14.00" fill="#000000">last_name :varchar(255)</text>
<text text-anchor="start" x="1772" y="-629.3" font-family="Times,serif" font-size="14.00" fill="#000000">email :varchar(255)</text>
<text text-anchor="start" x="1772" y="-614.3" font-family="Times,serif" font-size="14.00" fill="#000000">phone :varchar(14)</text>
<text text-anchor="start" x="1772" y="-599.3" font-family="Times,serif" font-size="14.00" fill="#000000">role :varchar(255)</text>
<text text-anchor="start" x="1772" y="-584.3" font-family="Times,serif" font-size="14.00" fill="#000000">state :tinyint(1)</text>
<text text-anchor="start" x="1772" y="-569.3" font-family="Times,serif" font-size="14.00" fill="#000000">slug :varchar(255)</text>
<text text-anchor="start" x="1772" y="-554.3" font-family="Times,serif" font-size="14.00" fill="#000000">created_at :datetime</text>
<text text-anchor="start" x="1772" y="-539.3" font-family="Times,serif" font-size="14.00" fill="#000000">updated_at :datetime</text>
</g>
<!-- Employee&#45;&gt;User -->
<g id="edge16" class="edge">
<title>Employee&#45;&gt;User</title>
<path fill="none" stroke="#024136" d="M1798.5496,-523.7365C1793.4948,-511.7535 1788.1951,-499.1897 1782.7815,-486.356"/>
<ellipse fill="none" stroke="#024136" cx="1800.1239" cy="-527.4687" rx="4" ry="4"/>
<ellipse fill="#024136" stroke="#024136" cx="1781.1365" cy="-482.4564" rx="4" ry="4"/>
</g>
<!-- Employee&#45;&gt;Audited::Audit -->
<g id="edge17" class="edge">
<title>Employee&#45;&gt;Audited::Audit</title>
<path fill="none" stroke="#bd3875" d="M1869.0504,-523.0323C1872.3435,-508.3836 1875.1697,-493.3808 1877,-479 1888.9417,-385.1742 1936.3735,-100.481 1854,-54 1813.5768,-31.1904 1518.5084,-22.2768 1377.9994,-19.2977"/>
<ellipse fill="none" stroke="#bd3875" cx="1868.0785" cy="-527.231" rx="4" ry="4"/>
<polygon fill="#bd3875" stroke="#bd3875" points="1377.7453,-19.2926 1367.8408,-14.5861 1372.7464,-19.1888 1367.7474,-19.0851 1367.7474,-19.0851 1367.7474,-19.0851 1372.7464,-19.1888 1367.6541,-23.5841 1377.7453,-19.2926 1377.7453,-19.2926"/>
<text text-anchor="middle" x="1948.5" y="-279.3" font-family="Times,serif" font-size="14.00" fill="#000000">associated_audits</text>
</g>
<!-- Employee&#45;&gt;Audited::Audit -->
<g id="edge18" class="edge">
<title>Employee&#45;&gt;Audited::Audit</title>
<path fill="none" stroke="#78756f" d="M1838.2263,-522.9451C1835.0781,-372.6835 1827.4431,-102.8001 1813,-87 1784.01,-55.2863 1510.1793,-32.216 1376.5943,-22.7494"/>
<ellipse fill="none" stroke="#78756f" cx="1838.3172" cy="-527.3374" rx="4" ry="4"/>
<polygon fill="#78756f" stroke="#78756f" points="1376.4217,-22.7374 1366.7612,-17.5484 1371.4339,-22.3874 1366.4462,-22.0373 1366.4462,-22.0373 1366.4462,-22.0373 1371.4339,-22.3874 1366.1312,-26.5263 1376.4217,-22.7374 1376.4217,-22.7374"/>
<text text-anchor="middle" x="1853.5" y="-279.3" font-family="Times,serif" font-size="14.00" fill="#000000">audits</text>
</g>
<!-- ApplicationRecord -->
<g id="node12" class="node">
<title>ApplicationRecord</title>
<ellipse fill="none" stroke="#000000" cx="2011" cy="-622" rx="77.1866" ry="18"/>
<text text-anchor="middle" x="2011" y="-618.3" font-family="Times,serif" font-size="14.00" fill="#000000">ApplicationRecord</text>
</g>
<!-- SaleDetail&#45;&gt;Audited::Audit -->
<g id="edge19" class="edge">
<title>SaleDetail&#45;&gt;Audited::Audit</title>
<path fill="none" stroke="#7eafd8" d="M883.1942,-184.4796C888.733,-138.0694 903.8328,-85.9976 941,-54 962.4603,-35.5246 1131.1242,-25.2927 1230.8253,-20.8038"/>
<ellipse fill="none" stroke="#7eafd8" cx="882.7583" cy="-188.4958" rx="4" ry="4"/>
<polygon fill="#7eafd8" stroke="#7eafd8" points="1230.8544,-20.8026 1241.0432,-24.8572 1235.8496,-20.5821 1240.8447,-20.3615 1240.8447,-20.3615 1240.8447,-20.3615 1235.8496,-20.5821 1240.6462,-15.8659 1230.8544,-20.8026 1230.8544,-20.8026"/>
<text text-anchor="middle" x="957.5" y="-57.8" font-family="Times,serif" font-size="14.00" fill="#000000">audits</text>
</g>
</g>
</svg>
